<svg width="20" height="20" viewBox="0 0 20 20" fill="none" xmlns="http://www.w3.org/2000/svg">
<path d="M0 10V17.7778C0 19 1 20 2.22222 20H4.44444C5.66667 20 6.66667 19 6.66667 17.7778V13.3333C6.66667 12.1111 5.66667 11.1111 4.44444 11.1111H2.22222V10C2.22222 5.7 5.7 2.22222 10 2.22222C14.3 2.22222 17.7778 5.7 17.7778 10V11.1111H15.5556C14.3333 11.1111 13.3333 12.1111 13.3333 13.3333V17.7778C13.3333 19 14.3333 20 15.5556 20H17.7778C19 20 20 19 20 17.7778V10C20 4.47778 15.5222 0 10 0C4.47778 0 0 4.47778 0 10Z" fill="black"/>
</svg>
