<svg width="1288" height="895" viewBox="0 0 1288 895" fill="none" xmlns="http://www.w3.org/2000/svg">
<g clip-path="url(#clip0_69_7)">
<path d="M1287.22 0.679932C1287.22 297.8 1287.22 594.92 1287.27 892.04C1287.27 894.08 1286.81 894.54 1284.77 894.54C856.71 894.49 428.65 894.49 0.599609 894.49C0.599609 597.94 0.599609 301.39 0.599609 4.83993C0.599609 0.679932 0.599609 0.679932 4.78961 0.679932C432.26 0.679932 859.74 0.679932 1287.22 0.679932Z" fill="#BAE4DE"/>
<path d="M1287.22 0.679982C859.74 0.679982 432.26 0.679982 4.78 0.679982C0.59 0.679982 0.59 0.679982 0.59 4.83998C0.59 301.39 0.59 597.94 0.59 894.49C0.42 894.37 0.02 894.77 0.04 894.22C0.06 893.49 0.05 892.77 0.05 892.04C0.05 595.56 0.05 299.07 0 2.58998C0 0.549982 0.46 0.0899816 2.5 0.0899816C429.92 0.139982 857.34 0.139982 1284.77 0.169982C1285.57 0.169982 1286.62 -0.460018 1287.22 0.679982Z" fill="#FEFEFE"/>
<path d="M711.249 201.106C710.23 198.266 710.739 195.565 711.905 192.89C712.892 190.616 712.752 188.234 712.465 185.858C713.421 182.616 715.109 179.724 716.994 176.978C723.746 167.157 732.256 159.481 744.434 157.628C752.893 156.341 761.556 156.022 767.862 163.768C768.097 164.055 768.486 164.029 768.747 163.749C768.887 163.602 769.021 163.303 768.964 163.144C768.811 162.723 768.48 162.36 768.352 161.933C765.569 152.927 766.531 148.105 774.492 146.589C775.066 146.634 775.645 146.748 776.212 146.717C778.002 146.615 779.607 147.067 781.111 148.06C782.646 149.08 781.467 150.347 781.537 151.5C781.563 151.889 781.773 152.163 782.123 152.258C782.633 152.398 783.009 152.118 783.276 151.723C783.684 151.112 783.62 150.411 783.563 149.717C783.455 148.392 784.168 147.379 785.257 146.965C788.582 145.697 791.952 144.385 795.506 146.334C796.034 146.621 796.531 147.379 797.468 146.602C795.264 138.411 797.245 130.812 801.289 123.531C803.735 119.13 806.583 114.99 809.786 111.149C819.207 99.8681 830.246 90.5813 843.794 84.5429C849.819 82.4983 855.96 81.0587 862.38 81.1033C862.839 81.6766 863.482 81.7976 864.164 81.9696C868.336 83.0142 872.565 82.5874 876.775 82.5874C877.349 82.5556 877.928 82.5174 878.502 82.4855C878.724 82.9187 879.088 83.1671 879.546 83.3263C890.483 87.2054 898.655 94.7406 905.948 103.391C908.942 106.945 911.401 110.798 910.808 115.805C910.802 115.837 910.987 115.894 911.088 115.945C911.719 115.977 911.815 115.518 911.865 115.053C912.133 112.575 911.681 110.257 910.522 108.028C910.025 107.072 908.91 106.257 909.502 104.926C911.471 104.556 910.241 102.875 910.649 101.868C918.12 83.4346 935.554 77.4536 950.796 81.1161C963.058 84.0652 971.682 92.0017 979.237 101.441C983.371 106.614 984.135 112.181 980.848 118.187C978.95 121.659 977.377 125.315 975.377 129.474C977.02 128.773 978.147 128.34 979.237 127.812C981.453 126.735 983.804 126.474 986.237 126.2C989.95 125.786 993.766 130.423 993.874 133.748C993.893 134.238 993.581 134.602 993.135 134.818C992.715 134.99 992.256 135.111 991.868 135.34C990.989 135.863 990.441 136.659 990.938 137.646C991.517 138.799 992.562 138.277 993.364 137.946C994.18 137.608 995.122 137.245 995.199 136.105L995.212 136.079C996.721 135.251 998.18 135.296 999.129 136.812C1000.03 138.239 999.607 139.684 998.517 140.927C998.065 141.442 997.537 141.92 997.173 142.493C996.715 143.239 996.122 144.009 996.658 145.048C1001.15 143.239 1005.83 143.379 1010.5 143.404C1011.18 143.481 1011.86 143.564 1012.55 143.64C1012.92 143.901 1013.32 143.908 1013.73 143.786C1014.2 144.162 1014.73 144.334 1015.33 144.353C1016.27 144.78 1017.22 145.188 1018.15 145.64C1023.11 148.035 1027.54 151.15 1030.23 156.073C1033.56 162.156 1034.06 168.322 1029.62 174.201C1028.17 176.125 1026.56 177.915 1025.01 179.768C1024.73 181.342 1023.66 182.208 1022.28 182.775C1021.34 183.151 1020.4 183.514 1019.47 183.877C1015.99 184.119 1012.55 183.8 1009.13 183.195C1006.3 181.94 1003.74 180.284 1001.08 177.125C1000.56 190.03 994.301 198.571 984.186 204.597C983.995 203.4 984.281 202.387 985.008 201.361C990.422 193.718 992.613 184.947 993.772 175.826C994.033 173.762 993.702 171.946 991.899 170.59C990.524 169.551 989.237 168.392 987.899 167.303C982.797 163.156 977.625 158.959 971.752 156.086C963.09 151.844 953.911 149.532 944.019 151.252C933.688 153.048 924.012 155.851 917.566 164.997C916.866 165.985 916.171 166.227 915.401 165.176C912.751 161.551 908.541 159.258 906.681 154.952C906.509 154.557 906.101 154.226 905.738 153.952C900.833 150.258 895.419 148.048 889.177 147.844C882.986 147.646 877.107 149.061 871.138 150.424C861.533 152.621 852.711 156.271 845.24 162.832C844.386 163.583 843.609 163.736 842.437 163.558C837.373 162.774 832.379 162.755 827.545 164.991C824.863 166.227 822.143 168.169 818.965 166.004C818.564 165.73 817.831 165.921 817.258 165.94C810.984 166.182 804.952 167.679 799.162 169.966C794.703 171.724 790.595 174.106 788.926 179.1C788.455 180.507 787.276 180.507 786.085 180.514C783.658 180.533 781.181 180.252 778.811 180.654C771.098 181.953 764.479 185.558 758.836 190.941C756.326 193.336 754.052 195.992 751.435 198.253C747.823 201.368 746.288 205.056 746.626 209.858C747.033 215.591 749.186 220.056 754.396 222.75C755.059 223.094 755.626 223.324 755.702 224.133C754.562 224.158 753.422 224.177 752.282 224.203C749.772 223.534 747.192 223.629 744.625 223.534C742.893 222.935 741.313 221.757 739.428 221.776C732.651 221.839 726.822 219.171 721.478 215.387C716.459 211.865 712.727 207.253 711.249 201.106Z" fill="#FEFCD8"/>
<path d="M414.726 226.362C413.471 226.355 412.216 226.375 410.967 226.33C409.19 226.266 407.929 225.483 407.509 223.642C406.783 222.107 405.197 221.489 404.018 220.444C401.063 217.833 398.916 214.795 399.158 210.661C399.655 202.106 404.139 195.679 411.133 192.8C414.05 191.597 417.089 191.125 420.121 192.584L420.178 192.641C420.273 192.985 420.369 193.335 420.465 193.679C420.579 194.316 421.318 194.966 421.522 194.571C422.312 193.062 423.191 193.265 424.223 194.106C424.719 194.507 425.14 195.444 425.764 194.507C426.21 193.839 425.503 193.24 424.961 192.826C424.229 192.265 423.426 191.832 422.477 191.756C422.242 191.718 422.006 191.673 421.777 191.635C420.547 189.405 420.77 187.915 422.56 186.654C423.828 185.762 425.28 185.316 426.815 185.431C431.745 185.781 436.006 187.265 437.981 192.406C438.153 192.851 438.529 193.151 439.064 193.042C439.605 192.934 439.752 192.527 439.847 192.042C439.994 191.284 439.433 190.743 439.312 190.081C439.019 188.495 440.108 186.654 441.516 186.202C442.956 185.743 445.401 186.501 445.325 187.667C445.102 190.839 447.427 189.042 448.879 190.367C447.414 187.182 447.402 187.176 448.14 185.571C454.096 172.583 463.326 162.8 476.39 156.799C478.377 155.889 480.351 154.901 482.6 154.78C485.383 155.182 488.154 155.551 490.97 154.882C491.931 154.653 493.091 154.685 494.008 155.016C495.912 155.698 497.823 155.5 499.753 155.494C500.416 155.627 501.091 155.717 501.734 155.914C505.938 157.175 509.269 159.952 512.811 162.36C513.225 162.717 513.645 163.074 514.059 163.424C514.492 164.526 515.594 165.048 516.25 165.959C515.989 167.29 515.97 168.628 516.136 169.972C516.193 170.456 516.518 170.813 517.008 170.832C517.55 170.851 517.779 170.462 517.766 169.965C517.735 168.628 517.677 167.284 517.633 165.946C518.263 163.73 520.021 163.755 521.818 163.838C524.486 163.959 525.671 165.698 526.359 168.265C526.308 165.271 528.206 163.742 530.015 162.207C536.041 157.086 543.035 154.545 550.939 154.315C554.188 154.22 557.373 154.812 560.602 154.863C565.583 155.825 570.539 156.889 575.125 159.137C586.004 164.462 595.361 171.227 598.068 184.087C598.081 185.45 598.1 186.813 598.112 188.176C598.004 189.042 598.087 189.826 599.017 190.233C600.374 191.253 601.501 191.119 602.546 189.705C603.361 188.597 604.285 187.495 605.597 186.972C606.539 186.596 607.489 186.616 607.278 188.125C607.125 189.195 606.852 190.278 607.444 191.259C607.839 191.163 607.998 191.17 608.043 191.106C608.227 190.832 608.501 190.546 608.514 190.246C608.801 185.182 612.202 182.507 616.221 180.463C621.457 177.806 625.056 179.227 627.12 184.737C628.043 187.202 628.597 189.807 629.317 192.348C629.132 194.431 629.113 196.514 629.33 198.59C629.183 199.227 628.954 199.858 628.922 200.501C628.884 201.202 628.75 202.119 629.992 201.934C630.687 201.571 631.566 201.361 632.043 200.807C633.222 199.45 634.706 199.215 636.33 199.246C639.731 202.412 640.088 206.221 637.075 209.349C636.164 210.291 635.999 210.954 636.687 211.979C637.063 212.546 637.387 213.164 637.642 213.801C638.91 216.96 637.776 219.75 634.661 221.132C633.833 221.502 632.973 221.795 632.126 222.126C630.222 222.164 628.311 222.209 626.406 222.247C623.928 221.744 621.451 221.247 618.973 220.744C616.502 219.272 613.266 218.572 613.323 214.616C612.947 214.916 612.845 214.967 612.782 215.049C612.247 215.75 612.476 216.597 612.349 217.374C611.96 219.757 611.603 219.897 609.667 218.387C609.317 218.113 609.055 217.68 608.508 217.839C608.801 223.33 607.055 226.082 601.883 228.317C599.418 229.381 596.769 229.566 594.151 229.884C593.399 229.852 592.647 229.827 591.896 229.795C591.431 229.553 590.972 229.311 590.514 229.063C591.373 227.795 592.794 227.54 594.087 227.12C596.323 226.387 598.323 225.336 599.902 223.534C602.571 220.483 602.679 219.05 600.437 215.642C599.425 214.107 598.565 212.463 597.195 211.183C596.526 210.552 595.928 209.737 594.915 209.737C590.182 209.737 585.392 209.336 580.724 209.922C573.494 210.833 566.723 213.483 560.207 216.788C556.704 218.565 553.385 220.629 550.009 222.617C546.417 224.731 540.869 223.839 539.003 218.565C538.315 216.629 537.003 215.126 535.321 214.094C528.563 209.916 521.136 209.075 513.696 211.202C504.683 213.782 497.142 219.145 490.339 225.515C488.823 226.935 487.339 228.4 485.938 229.935C484.625 231.368 484.702 231.795 486.256 232.929C488.262 234.394 490.651 234.821 493.001 235.388C495.772 236.056 498.906 236.267 500.549 238.999C501.868 241.19 503.83 242.158 506.002 242.967C509.282 244.19 512.69 244.592 516.187 244.432C517.238 244.381 518.62 243.948 518.983 245.649C517.11 245.7 515.231 245.757 513.359 245.808C513.034 245.706 512.709 245.541 512.378 245.522C507.002 245.248 501.677 244.649 496.486 243.133C496.027 242.999 495.594 243.184 495.237 243.509C495.18 243.407 495.148 243.273 495.065 243.209C494.416 242.719 489.364 240.324 488.778 240.139C488.237 239.967 487.715 239.706 487.212 239.432C483.766 237.515 480.594 235.209 477.95 232.286C475.663 229.757 473.727 227.005 474.504 223.222C474.663 222.438 474.893 221.425 473.918 220.476C472.619 221.572 472.466 223.043 472.549 224.457C472.651 226.343 471.606 226.871 470.058 226.98C468.058 227.12 466.09 227.158 465.09 224.527C464.854 227.043 463.599 228.285 461.408 228.598C460.389 228.152 459.402 228.343 458.421 228.725C456.542 228.77 455.306 227.744 454.172 226.368C453.797 225.91 452.905 225.617 452.363 226.387C451.988 226.916 452.249 227.438 452.618 227.948C454.421 230.432 454.364 231.171 452.332 233.317C450.726 235.018 448.625 236.031 446.777 237.394C446.198 237.419 445.688 237.591 445.331 238.082C445.331 238.082 445.331 238.037 445.338 238.037C444.363 238.082 443.414 238.209 442.593 238.802L442.612 238.751C440.784 238.744 438.955 238.738 437.127 238.732C436.255 238.12 435.274 238.254 434.299 238.292C429.554 237.413 425.643 234.7 421.923 231.973C419.592 230.26 416.828 228.4 416.35 224.948C416.235 224.113 415.554 224.317 415.082 224.738C414.566 225.171 414.745 225.795 414.726 226.362Z" fill="#FEFBD8"/>
<path d="M755.683 224.158C755.607 223.349 755.046 223.12 754.377 222.776C749.167 220.081 747.014 215.623 746.606 209.884C746.263 205.081 747.804 201.393 751.416 198.278C754.033 196.017 756.307 193.361 758.817 190.966C764.46 185.584 771.078 181.978 778.792 180.679C781.155 180.284 783.639 180.558 786.066 180.539C787.251 180.533 788.436 180.533 788.907 179.125C790.582 174.131 794.691 171.749 799.143 169.991C804.939 167.704 810.965 166.207 817.239 165.965C817.819 165.94 818.551 165.755 818.946 166.029C822.124 168.201 824.851 166.252 827.526 165.016C832.36 162.787 837.36 162.806 842.418 163.583C843.596 163.768 844.367 163.608 845.221 162.857C852.686 156.296 861.508 152.653 871.119 150.449C877.081 149.086 882.967 147.665 889.158 147.869C895.4 148.073 900.814 150.283 905.719 153.978C906.082 154.252 906.49 154.583 906.662 154.978C908.522 159.284 912.732 161.577 915.382 165.201C916.152 166.252 916.847 166.01 917.547 165.023C923.993 155.876 933.669 153.073 944 151.277C953.892 149.557 963.071 151.869 971.733 156.111C977.606 158.984 982.778 163.182 987.88 167.328C989.218 168.418 990.505 169.577 991.88 170.615C993.683 171.972 994.014 173.787 993.753 175.851C992.594 184.966 990.403 193.737 984.989 201.387C984.262 202.412 983.982 203.425 984.167 204.622C980.702 207.017 976.632 208.024 972.803 209.584C972.383 209.648 971.969 209.712 971.549 209.775C970.778 209.737 970.058 209.896 969.408 210.323C967.549 210.329 965.733 210.661 963.931 211.087C960.689 211.094 957.446 211.1 954.211 211.107C950.312 211.17 946.465 210.527 942.593 210.272C940.013 209.571 937.427 208.877 934.847 208.177C929.911 205.833 925.184 203.227 922.344 198.234C921.821 197.323 920.98 197.036 919.968 197.361C919.573 197.157 919.114 197.03 918.796 196.743C917.636 195.692 916.585 194.501 915.375 193.52C913.929 192.348 912.917 195.119 911.407 194.087C916.974 184.896 923.936 166.972 923.312 163.417C922.63 163.952 922.465 164.73 922.21 165.481C920.369 170.832 918.656 176.227 916.63 181.507C913.114 190.698 907.738 198.431 898.897 203.38C891.4 207.578 883.438 208.884 874.884 208.584C860.425 208.081 847.329 203.489 834.908 196.514C831.66 194.692 828.825 192.31 827.195 188.788C826.889 188.131 826.946 187.195 825.761 186.908C825.475 188.182 824.895 189.252 823.895 190.1C822.067 191.641 821.64 191.475 821.035 188.826C820.946 188.679 820.882 188.431 820.761 188.399C820.424 188.303 820.322 188.565 820.284 188.851C820.201 189.424 820.118 189.998 820.042 190.577C818.487 192.769 816.462 194.437 813.965 195.348C811.978 196.068 809.806 196.934 807.978 194.832C807.869 195.03 807.761 195.234 807.653 195.431C806.124 194.877 804.602 194.425 802.653 195.501C804.149 196.125 805.442 195.578 806.341 196.501C806.347 197.654 806.36 198.807 806.366 199.96C804.665 204.469 802.035 208.349 798.557 211.68C795.773 214.349 792.378 216.1 789.111 218.043C788.353 218.362 787.595 218.68 786.837 218.998C785.748 219.247 784.671 219.534 783.716 220.151C781.99 220.667 780.257 221.183 778.531 221.699C775.13 222.33 771.728 222.967 768.327 223.597C766.664 223.858 764.932 223.495 763.333 224.234C760.785 224.215 758.231 224.183 755.683 224.158Z" fill="#ECE8CB"/>
<path d="M705.714 150.799C705.351 151.417 704.829 151.831 704.185 152.137C700.179 154.048 693.077 151.665 691.057 147.729C690.796 147.219 690.554 146.697 690.306 146.181C690.427 145.2 689.631 144.799 689.051 144.309C686.484 142.137 686.987 138.334 688.319 136.194C689.051 135.015 690.064 134.124 691.153 133.302C693.083 132.805 694.981 132.875 696.962 133.181C699.44 133.563 701.497 134.748 703.637 135.869C704.879 136.519 705.835 135.952 705.567 134.62C704.803 130.767 707.013 128.295 709.319 125.837C712.077 122.9 717.007 123.142 719.587 124.665C720.733 125.34 721.874 125.99 720.67 127.563C720.294 128.06 720.211 128.671 720.829 129.06C721.542 129.506 722.44 129.2 722.587 128.576C723.09 126.385 724.963 126.435 726.498 125.9C728.269 125.862 729.116 127.429 730.759 128.767C730.065 124.856 730.759 121.83 732.632 119.034C736.829 112.773 742.052 107.556 748.791 104.174C755.734 100.69 762.957 99.1672 770.302 103.314C774.378 106.511 778.429 109.734 778.015 116.219C782.945 111.531 788.64 110.34 794.557 109.76C796.468 109.734 798.379 109.709 800.29 109.69C801.978 110.021 803.665 110.365 805.13 111.327C806.353 112.129 806.869 112.983 805.774 114.391C802.863 118.11 800.729 122.327 798.321 126.365C797.022 124.085 794.71 123.174 792.474 122.359C788.378 120.856 784.206 120.2 779.722 120.703C775.9 121.136 772.225 121.665 768.747 123.34C761.779 126.697 756.575 131.996 752.549 138.449C750.868 141.149 750.161 144.188 752.397 147.143C752.721 147.57 752.772 148.207 752.957 148.742C750.69 149.105 748.46 148.532 746.212 148.481C741.549 147.067 736.88 145.672 734.651 140.627C731.816 143.385 728.581 144.837 725.428 146.289C723.097 147.366 721.988 146.43 721.676 143.856C721.606 143.296 721.74 142.672 721.141 142.315C720.485 141.926 720.058 142.391 719.657 142.793C718.268 144.181 716.95 145.646 715.504 146.971C713.415 148.882 711.504 149.436 709.211 148.997C708.262 149.143 707.319 149.29 706.37 149.436C705.625 149.258 704.841 149.334 704.141 148.882C703.688 148.589 703.007 148.423 702.994 149.302C702.981 150.048 703.695 149.997 704.23 150.067C704.727 150.302 705.223 150.551 705.714 150.799Z" fill="#FDFBD8"/>
<path d="M593.074 167.003C592.882 167.914 592.698 168.832 592.507 169.742C592.074 169.367 591.615 169.016 591.201 168.621C584.315 162.067 576.328 157.455 567.124 155.048C564.353 154.322 561.499 153.901 558.678 153.341L558.639 153.315C558.404 153.073 558.162 152.831 557.926 152.589C557.792 151.678 557.614 150.774 557.538 149.857C557.327 147.207 557.162 144.563 558.366 142.047C559.983 138.691 562.869 137.888 565.627 140.289C567.595 142.003 569.735 143.716 569.748 146.774C569.748 147.398 570.226 148.041 570.57 148.627C570.729 148.901 571.137 149.137 571.455 148.901C571.697 148.729 571.914 148.379 571.946 148.079C572.067 146.99 571.315 146.124 571.105 145.118C570.837 143.812 571.532 143.175 572.742 142.977C573.882 142.793 574.646 143.64 575.595 143.996C576.634 144.391 576.863 146.009 578.302 145.774C577.958 139.557 587.8 128.073 594.539 127.537C598.277 127.302 601.647 128.015 604.099 131.181C606.711 134.55 606.762 138.525 604.424 142.105C603.348 143.754 601.418 144.844 600.946 147.162C602.258 146.704 603.042 145.659 604.29 145.742C605.921 146.474 607.494 145.461 609.125 145.583C611.087 145.723 613.029 145.716 614.756 146.876C616.514 148.054 616.603 148.411 615.628 150.493C615.176 151.455 614.768 152.659 615.711 153.328C616.469 153.869 617.724 153.914 618.52 152.952C620.8 150.194 624.068 149.417 627.285 148.532C628.164 148.455 629.094 148.685 629.883 148.079C632.457 147.958 635.03 147.742 637.591 148.232C640.724 148.997 643.884 149.685 646.744 151.258C649.967 153.035 653.285 154.799 651.597 159.602C653.011 159.169 652.986 158.086 653.413 157.315C653.725 158.443 653.687 159.577 653.457 160.71C653.037 160.634 652.457 160.328 652.311 160.952C651.502 164.411 648.635 165.519 645.801 166.437C642.954 167.354 639.973 167.704 636.979 166.965C637.724 166.647 638.451 166.284 639.208 166.023C641.572 165.201 642.654 163.647 642.584 161.073C642.463 156.908 639.279 153.685 634.82 153.455C630.762 153.245 626.82 153.659 622.928 154.952C619.832 155.984 616.367 156.328 613.514 154.927C611.545 153.959 609.794 153.341 607.717 153.474C605.532 153.615 603.615 153.156 602.048 151.519C601.316 150.748 600.354 150.2 599.335 150.086C594.067 149.519 589.284 150.411 585.475 154.576C584.105 156.073 583.627 157.882 584.538 159.303C586.392 162.182 588.819 164.653 592.245 165.78C592.526 166.188 592.8 166.596 593.074 167.003Z" fill="#FBFAD7"/>
<path d="M821.036 188.838C821.641 191.488 822.068 191.654 823.896 190.112C824.902 189.265 825.475 188.195 825.762 186.921C826.947 187.214 826.889 188.144 827.195 188.8C828.826 192.323 831.66 194.705 834.909 196.527C847.329 203.495 860.425 208.094 874.884 208.597C883.439 208.896 891.401 207.584 898.898 203.393C907.739 198.444 913.114 190.711 916.631 181.52C918.65 176.239 920.369 170.844 922.21 165.494C922.465 164.749 922.631 163.965 923.312 163.43C923.943 166.984 916.974 184.908 911.407 194.1C911.038 194.552 910.669 195.004 910.299 195.456C909.891 195.82 909.382 196.151 909.872 196.8C909.293 197.157 908.535 197.38 908.153 197.89C905.082 202.004 900.025 203.508 896.426 206.903C896.261 207.055 896.05 207.247 895.847 207.259C891.006 207.571 886.585 209.986 881.642 209.896C874.298 209.763 867.024 209.622 859.795 207.788C851.635 205.718 843.839 202.883 836.437 198.922C832.316 196.711 828.736 193.845 826.265 189.807C824.367 190.546 823.405 193.386 820.819 191.864C820.558 191.437 820.303 191.01 820.042 190.584C820.125 190.01 820.208 189.437 820.284 188.858C820.539 188.858 820.787 188.851 821.036 188.838ZM874.406 209.183C874.406 209.253 874.406 209.329 874.406 209.4C876.891 209.4 879.381 209.4 881.865 209.4C881.865 209.329 881.865 209.253 881.865 209.183C879.375 209.183 876.891 209.183 874.406 209.183Z" fill="#685C6E"/>
<path d="M993.129 134.831C993.581 134.614 993.887 134.257 993.868 133.761C993.753 130.436 989.944 125.799 986.23 126.213C983.797 126.48 981.447 126.748 979.23 127.824C978.147 128.353 977.014 128.78 975.37 129.487C977.377 125.321 978.944 121.671 980.842 118.2C984.129 112.187 983.371 106.62 979.23 101.454C971.676 92.0143 963.052 84.0778 950.79 81.1287C935.548 77.4662 918.114 83.4473 910.643 101.881C910.235 102.887 911.464 104.569 909.496 104.938L909.49 104.894C908.751 103.766 909.107 102.645 909.509 101.531C909.636 101.148 909.764 100.766 909.885 100.378C910.299 100.129 910.4 99.7343 910.388 99.2884C913.592 93.4666 917.331 88.1162 923.063 84.4345C927.719 81.4472 932.77 79.7019 938.28 79.2688C941.268 79.9949 944.255 79.9822 947.249 79.2815C961.376 81.1478 971.205 89.7404 979.804 100.193C980.963 101.601 981.912 103.238 982.695 104.894C984.511 108.728 984.695 112.652 982.836 116.575C981.46 119.486 980.135 122.429 978.791 125.359C978.447 126.155 978.383 126.703 979.53 126.232C980.625 125.92 981.714 125.569 982.823 125.302C989.014 123.818 993.772 126.913 995.18 133.334C994.689 134.028 994.205 134.722 993.715 135.41C993.524 135.219 993.326 135.022 993.129 134.831Z" fill="#6F6473"/>
<path d="M798.322 126.359C800.73 122.314 802.863 118.098 805.774 114.378C806.876 112.97 806.354 112.117 805.131 111.314C803.66 110.346 801.978 110.008 800.29 109.677C800.755 109.429 801.22 109.187 801.685 108.938C803.914 109.129 805.787 110.148 807.583 111.696C811.08 107.696 814.526 103.83 818.373 100.358C825.335 94.0907 832.603 88.2626 841.266 84.4408C841.782 84.2115 842.348 84.0841 842.89 83.9121C843.189 84.1223 843.495 84.3389 843.794 84.5491C830.246 90.5874 819.208 99.868 809.787 111.155C806.583 114.996 803.736 119.13 801.29 123.537C797.245 130.824 795.264 138.423 797.468 146.608C796.532 147.385 796.035 146.627 795.506 146.34C791.946 144.398 788.576 145.71 785.258 146.971C784.169 147.385 783.455 148.404 783.563 149.723C783.621 150.417 783.684 151.111 783.277 151.729C783.016 152.124 782.633 152.404 782.124 152.264C781.774 152.169 781.563 151.895 781.538 151.506C781.468 150.353 782.646 149.086 781.111 148.067C779.608 147.067 778.003 146.621 776.213 146.723C775.646 146.755 775.066 146.64 774.493 146.595C774.493 146.595 774.512 146.372 774.512 146.379C776.079 146.181 777.723 146.793 779.239 145.965C779.672 146.092 780.181 146.105 780.525 146.36C781.92 147.379 783.035 147.684 784.009 145.774C784.761 144.302 786.226 143.926 787.825 143.888C789.793 143.837 791.723 144.003 793.647 144.404C795.003 144.684 795.551 144.232 795.354 142.774C794.589 136.984 796.035 131.595 798.322 126.359Z" fill="#6B6271"/>
<path d="M774.525 146.372L774.506 146.595C766.544 148.111 765.582 152.933 768.365 161.94C768.499 162.366 768.83 162.723 768.977 163.15C769.034 163.309 768.9 163.609 768.76 163.755C768.499 164.029 768.111 164.061 767.875 163.774C761.563 156.029 752.906 156.347 744.448 157.634C732.269 159.487 723.753 167.163 717.007 176.985C715.122 179.73 713.428 182.622 712.479 185.864C710.147 190.087 709.88 194.941 708.415 199.457C708.052 197.043 708.466 194.737 709.039 192.476C712.721 177.787 721.23 166.8 734.505 159.538C737.651 157.819 741.002 156.596 744.632 156.341C748.32 156.997 752.002 157.067 755.69 156.322C757.575 156.201 759.327 156.78 761.034 157.443C762.62 158.061 764.149 158.838 766.174 159.755C765.716 155.557 766.391 151.666 766.359 147.736C766.454 147.474 766.404 147.277 766.091 147.2L766.104 147.188C767.187 148.411 768.276 147.799 769.385 147.213C770.55 146.595 771.678 145.825 773.092 145.914C773.442 146.436 774.009 146.328 774.525 146.372Z" fill="#726A79"/>
<path d="M482.587 154.78C480.339 154.901 478.364 155.888 476.383 156.799C463.319 162.799 454.09 172.583 448.134 185.571C447.395 187.176 447.408 187.182 448.873 190.367C447.421 189.042 445.096 190.838 445.319 187.666C445.401 186.501 442.949 185.743 441.51 186.201C440.102 186.654 439.013 188.494 439.306 190.08C439.427 190.736 439.987 191.284 439.841 192.042C439.745 192.526 439.599 192.934 439.057 193.042C438.516 193.151 438.14 192.851 437.975 192.405C436 187.271 431.745 185.787 426.809 185.431C425.274 185.322 423.821 185.762 422.554 186.654C420.764 187.915 420.541 189.405 421.77 191.635C421.312 191.635 420.853 191.635 420.401 191.628L420.414 191.647C420.254 190.928 420.496 190.074 419.713 189.564C419.738 186.577 421.751 185.335 424.21 184.628C427.764 183.609 431.064 184.52 434.178 186.284C434.981 186.736 435.726 187.297 436.484 187.819C437.236 188.335 437.758 188.412 438.51 187.584C441.497 184.271 441.815 184.252 446.344 185.978C447.452 184.685 448.045 183.061 448.822 181.545C454.548 170.354 463.166 162.099 474.319 156.436C477.198 154.971 480.16 153.653 483.428 153.271C483.791 153.481 484.141 153.697 484.237 154.156C483.683 154.341 482.995 154.194 482.587 154.78Z" fill="#6F6473"/>
<path d="M594.551 127.55C587.812 128.079 577.965 139.563 578.315 145.786C576.876 146.022 576.646 144.411 575.608 144.009C574.665 143.653 573.901 142.805 572.755 142.99C571.544 143.188 570.85 143.825 571.118 145.13C571.328 146.137 572.079 147.003 571.958 148.092C571.926 148.385 571.71 148.736 571.468 148.914C571.143 149.15 570.742 148.908 570.583 148.64C570.239 148.054 569.761 147.411 569.761 146.786C569.748 143.729 567.608 142.016 565.64 140.302C562.882 137.901 559.99 138.697 558.378 142.06C557.175 144.57 557.334 147.22 557.55 149.869C557.627 150.787 557.805 151.691 557.939 152.602C557.92 152.85 557.907 153.099 557.888 153.347C555.321 153.799 552.741 153.538 550.168 153.424C552.187 152.615 554.283 153.538 556.455 153.162C556.882 151.57 556.353 149.99 556.289 148.423C556.181 145.85 556.308 143.347 557.62 141.035C559.665 137.43 563.143 136.71 566.34 139.289C566.965 139.793 567.595 140.34 568.073 140.977C569.124 142.379 570.118 143.207 572.028 142.143C573.793 141.156 575.258 142.856 576.978 143.347C578.71 139.659 580.717 136.162 583.481 133.175C586.01 130.442 588.717 127.945 592.5 127.06C593.195 127.143 593.972 126.939 594.551 127.55Z" fill="#685C6E"/>
<path d="M461.389 228.597C463.58 228.285 464.835 227.043 465.07 224.527C466.07 227.158 468.045 227.113 470.039 226.979C471.593 226.871 472.637 226.349 472.529 224.457C472.453 223.043 472.606 221.565 473.899 220.476C474.879 221.425 474.65 222.438 474.485 223.221C473.707 227.011 475.637 229.757 477.931 232.285C480.574 235.209 483.746 237.515 487.192 239.432C487.689 239.712 488.217 239.967 488.759 240.139C489.345 240.324 494.396 242.719 495.046 243.209C495.128 243.273 495.16 243.407 495.218 243.502L495.23 243.47C493.746 243.942 492.281 243.018 490.791 243.407C490.6 243.458 490.275 243.4 490.166 243.266C486.893 239.394 481.606 238.184 478.338 234.26C476.943 232.585 475.192 231.177 474.204 229.209C473.434 227.674 472.434 227.413 470.892 227.807C470.026 228.03 469.026 228.062 468.16 227.865C466.319 227.444 464.841 228.1 463.401 229.081C462.707 228.973 461.924 229.298 461.389 228.597Z" fill="#655768"/>
<path d="M972.816 209.59C976.645 208.03 980.715 207.024 984.18 204.629C994.288 198.603 1000.56 190.055 1001.07 177.156C1003.73 180.316 1006.29 181.972 1009.12 183.227C1008.93 183.469 1008.75 183.717 1008.56 183.959C1006.24 183.469 1004.43 182.016 1002.25 180.418C999.429 196.705 989.129 205.629 974.199 210.087C973.734 209.915 973.275 209.75 972.816 209.59Z" fill="#6B6271"/>
<path d="M770.301 103.307C762.957 99.1545 755.734 100.683 748.791 104.167C742.052 107.55 736.829 112.766 732.632 119.028C730.759 121.818 730.065 124.849 730.759 128.76C729.116 127.423 728.268 125.856 726.498 125.894L726.479 125.576C726.988 125.525 727.542 125.607 727.899 125.098C728.294 124.932 728.975 125.238 729.096 124.703C731.001 116.493 736.848 111.263 743.027 106.32C746.581 103.479 750.626 101.518 755.072 100.435C755.976 100.218 756.861 100.002 757.798 100.104C760.307 100.817 762.83 100.753 765.352 100.161C767.167 100.371 768.811 101.014 770.263 102.123C770.282 102.511 770.289 102.906 770.301 103.307Z" fill="#726A79"/>
<path d="M558.684 153.341C561.5 153.901 564.353 154.322 567.13 155.048C576.334 157.456 584.322 162.067 591.207 168.621C591.621 169.016 592.074 169.367 592.513 169.743C595.074 173.309 597.539 176.921 598.558 181.297C598.717 181.985 598.857 182.641 598.736 183.342C598.513 183.59 598.284 183.838 598.061 184.087C595.354 171.233 585.997 164.469 575.118 159.137C570.532 156.889 565.57 155.825 560.595 154.863C560.117 154.003 559.27 154.175 558.506 154.118C558.563 153.857 558.627 153.602 558.684 153.341Z" fill="#6F6473"/>
<path d="M711.249 201.106C712.726 207.253 716.459 211.864 721.465 215.412C726.803 219.196 732.631 221.865 739.415 221.801C741.3 221.782 742.88 222.967 744.613 223.559C744.765 223.82 744.912 224.081 745.065 224.349C744.434 224.317 743.797 224.285 743.167 224.253C742.396 223.578 741.759 222.451 740.498 223.483C736.383 223.667 732.606 222.253 728.899 220.807C720.758 217.629 714.484 212.31 710.924 204.151C710.484 203.157 709.178 201.896 711.249 201.106Z" fill="#6F6473"/>
<path d="M909.496 104.887L909.502 104.932C908.916 106.263 910.024 107.078 910.521 108.034C911.68 110.257 912.133 112.582 911.865 115.059C911.814 115.524 911.719 115.983 911.088 115.951C910.986 115.9 910.808 115.843 910.808 115.811C911.4 110.804 908.942 106.951 905.948 103.397C898.655 94.7467 890.482 87.2051 879.546 83.3324C879.094 83.1732 878.731 82.9248 878.501 82.4916L878.412 82.5935C880.1 81.8101 881.508 82.8228 882.903 83.4216C889.202 86.1159 894.667 90.0778 899.54 94.855C901.992 97.2627 904.317 99.8042 906.693 102.288C907.566 103.225 907.763 104.874 909.496 104.887Z" fill="#685C6E"/>
<path d="M629.323 192.342C628.603 189.8 628.055 187.195 627.125 184.73C625.061 179.227 621.463 177.806 616.227 180.456C612.208 182.494 608.806 185.169 608.52 190.24C608.5 190.533 608.227 190.826 608.048 191.1C608.004 191.163 607.844 191.157 607.449 191.252C606.857 190.272 607.131 189.182 607.284 188.119C607.5 186.609 606.545 186.59 605.602 186.966C604.284 187.488 603.367 188.59 602.551 189.698C601.507 191.112 600.373 191.246 599.022 190.227C600.558 190.189 599.449 189.252 599.532 188.724C600.443 189.316 601.201 189.705 602.131 188.533C603.564 186.717 605.15 185.004 607.902 185.501C608.838 185.666 609.201 184.673 609.717 184.093C611.806 181.717 614.214 179.806 617.214 178.692C621.775 176.997 625.437 178.36 627.577 182.743C629.042 185.749 630.074 188.928 630.036 192.348C629.788 192.342 629.552 192.342 629.323 192.342Z" fill="#6B6271"/>
<path d="M420.12 192.584C417.088 191.125 414.056 191.597 411.133 192.8C404.145 195.686 399.655 202.106 399.158 210.661C398.916 214.795 401.062 217.833 404.018 220.444C405.203 221.489 406.782 222.101 407.508 223.642C403.043 222.444 398.368 217.158 398.05 212.572C397.374 202.813 403.655 193.151 412.827 191.081C415.298 192.036 417.904 191.195 420.413 191.647L420.401 191.628C420.305 191.947 420.209 192.265 420.12 192.584Z" fill="#6B6271"/>
<path d="M1025.01 179.794C1026.55 177.94 1028.17 176.15 1029.61 174.227C1034.05 168.348 1033.55 162.182 1030.23 156.099C1027.54 151.175 1023.1 148.067 1018.14 145.666C1017.21 145.213 1016.26 144.806 1015.32 144.379C1015.33 144.143 1015.33 143.914 1015.34 143.678C1023.4 145.048 1031.67 153.335 1033.53 161.182C1035.17 168.112 1032.3 173.259 1028.03 178.093C1027.28 178.953 1026.37 179.679 1025.54 180.469C1025.37 180.24 1025.19 180.017 1025.01 179.794Z" fill="#6B6271"/>
<path d="M709.211 148.984C711.504 149.423 713.421 148.869 715.504 146.958C716.95 145.633 718.269 144.168 719.657 142.78C720.058 142.372 720.491 141.914 721.141 142.302C721.734 142.653 721.606 143.283 721.676 143.844C721.988 146.417 723.097 147.353 725.428 146.277C728.581 144.825 731.81 143.372 734.651 140.614C736.88 145.659 741.549 147.054 746.212 148.468C745.683 148.589 745.11 148.589 744.702 149.035C740.594 148.251 737.084 146.462 734.562 142.99C732.313 143.965 730.129 144.933 728.148 146.334C727.32 146.92 726.307 147.321 725.32 147.602C722.504 148.398 720.969 147.506 719.886 144.449C717.339 146.614 715.421 149.57 711.931 150.309C711.166 149.576 710.498 148.653 709.211 148.984Z" fill="#6F6473"/>
<path d="M558.507 154.118C559.271 154.175 560.118 154.003 560.596 154.863C557.366 154.812 554.182 154.22 550.933 154.315C543.028 154.544 536.035 157.086 530.009 162.207C528.2 163.742 526.302 165.271 526.353 168.265C525.665 165.698 524.487 163.959 521.811 163.838C520.021 163.755 518.263 163.729 517.627 165.946C517.162 165.952 516.703 165.959 516.238 165.965C515.582 165.061 514.48 164.532 514.047 163.43C514.009 163.169 513.964 162.908 513.926 162.64L514.168 162.424C515.633 163.322 516.779 164.812 518.856 162.895C519.99 161.85 522.238 162.201 523.754 163.143C525.627 164.309 526.78 163.577 528.162 162.264C533.022 157.659 538.774 154.729 545.398 153.595C545.844 153.519 546.309 153.551 546.761 153.532C547.385 154.226 548.22 153.997 548.99 154.009C552.175 154.054 555.341 154.08 558.507 154.118Z" fill="#726A79"/>
<path d="M726.485 125.569L726.504 125.888C724.969 126.429 723.096 126.378 722.593 128.563C722.453 129.187 721.549 129.493 720.835 129.047C720.217 128.665 720.3 128.047 720.676 127.55C721.88 125.977 720.74 125.327 719.593 124.652C717.007 123.136 712.077 122.888 709.325 125.824C707.013 128.283 704.809 130.754 705.574 134.608C705.835 135.939 704.879 136.506 703.644 135.856C701.503 134.735 699.446 133.55 696.968 133.168C694.987 132.862 693.089 132.799 691.159 133.289C691.949 132.315 693.057 132.716 694.051 132.608C695.159 132.487 696.37 132.983 697.35 132.073C698.949 132.678 700.707 132.754 702.223 133.652C703.344 134.315 703.924 133.716 704.109 132.589C704.497 130.245 705.637 128.276 707.121 126.474C710.918 121.856 716.389 120.894 721.179 124.385C722.612 125.423 723.848 125.009 725.198 125.13C725.517 125.588 726.001 125.576 726.485 125.569Z" fill="#6B6271"/>
<path d="M590.5 229.069C590.965 229.311 591.424 229.553 591.889 229.795C591.844 229.897 591.768 230.005 591.774 230.107C591.781 230.183 591.908 230.298 591.985 230.304C593.545 230.317 595.106 230.311 596.743 230.311C595.921 229.623 594.953 230.19 594.144 229.884C596.762 229.566 599.405 229.381 601.877 228.317C607.049 226.081 608.794 223.33 608.501 217.839C609.049 217.68 609.31 218.113 609.66 218.387C611.597 219.89 611.953 219.75 612.342 217.374C612.469 216.597 612.24 215.75 612.775 215.049C612.839 214.967 612.941 214.916 613.316 214.616C613.259 218.572 616.495 219.272 618.966 220.744C618.96 221.056 618.953 221.362 618.953 221.674C618.094 221.349 617.215 221.081 616.386 220.693C615.457 220.253 614.431 219.164 613.698 219.349C612.609 219.623 611.883 220.979 610.386 220.712C609.985 220.642 609.921 221.387 609.775 221.801C607.654 227.839 602.749 229.973 596.991 230.604C593.571 230.98 590.099 230.782 586.704 230.005C586.042 229.687 585.972 229.285 586.551 228.801C586.927 228.916 587.303 229.031 587.679 229.145C587.322 229.604 587.666 229.687 588.004 229.706C588.297 229.718 588.717 229.82 588.596 229.254C589.227 229.183 589.863 229.126 590.5 229.069Z" fill="#6B6271"/>
<path d="M636.973 166.965C639.967 167.704 642.954 167.354 645.801 166.437C648.636 165.526 651.502 164.417 652.311 160.952C652.457 160.335 653.037 160.634 653.457 160.71C652.489 165.882 648.292 167.335 644.101 167.946C639.005 168.691 633.724 168.691 628.935 166.246C626.629 165.067 624.297 165.284 622.342 166.201C620.094 167.258 617.826 167.551 615.488 167.889C615.972 167.418 616.463 166.946 616.947 166.481C617.985 166.615 618.934 166.602 619.902 165.959C622.858 163.997 625.998 163.659 629.291 165.182C631.718 166.309 634.298 166.876 636.973 166.965Z" fill="#685C6E"/>
<path d="M618.953 221.674C618.959 221.362 618.966 221.056 618.966 220.744C621.444 221.247 623.921 221.744 626.406 222.247C626.348 222.419 625.59 222.253 626.183 222.718C626.253 222.769 626.406 222.725 626.514 222.712C628.38 222.463 630.361 223.311 632.125 222.126C632.973 221.795 633.832 221.502 634.661 221.132C637.775 219.744 638.909 216.954 637.642 213.801C637.387 213.17 637.062 212.546 636.686 211.979C635.998 210.954 636.164 210.291 637.075 209.348C640.087 206.221 639.731 202.412 636.329 199.246C636.571 198.992 636.813 198.737 637.056 198.476C640.514 201.431 641.221 205.985 638.603 209.393C637.788 210.45 637.699 211.157 638.247 212.419C640.756 218.151 638.1 222.546 631.813 222.973C627.482 223.26 623.106 223.425 618.953 221.674Z" fill="#685C6E"/>
<path d="M594.552 127.55C593.972 126.939 593.195 127.136 592.494 127.041C598.539 125.136 603.966 127.308 606.386 132.671C607.851 135.92 607.87 139.124 605.8 142.207C605.373 142.844 604.322 143.379 605.068 144.442L605.08 144.43C604.781 144.36 604.386 144.175 604.297 144.621C604.182 145.2 604.717 145.232 605.1 145.366C604.838 145.493 604.571 145.614 604.31 145.742C603.061 145.659 602.278 146.71 600.966 147.162C601.437 144.844 603.373 143.754 604.443 142.105C606.781 138.525 606.73 134.55 604.119 131.181C601.66 128.034 598.29 127.315 594.552 127.55Z" fill="#6F6473"/>
<path d="M770.301 103.308C770.289 102.913 770.282 102.518 770.27 102.116C774.55 104.511 777.69 107.9 779.327 112.887C783.799 110.785 788.213 108.9 793.13 108.887C793.404 109.512 793.926 109.728 794.557 109.754C788.639 110.333 782.945 111.524 778.015 116.212C778.429 109.722 774.378 106.505 770.301 103.308Z" fill="#6F6473"/>
<path d="M414.725 226.362C414.738 225.795 414.566 225.171 415.056 224.731C415.528 224.311 416.209 224.101 416.324 224.941C416.802 228.394 419.566 230.254 421.897 231.967C425.617 234.7 429.528 237.407 434.267 238.286C433.847 239.088 433.012 238.693 432.401 238.929C426.872 237.782 422.534 234.661 418.719 230.68C417.362 229.266 416.056 227.801 414.725 226.362Z" fill="#726A79"/>
<path d="M604.297 145.748C604.558 145.621 604.826 145.5 605.087 145.372C605.463 145.054 605.456 144.742 605.068 144.436L605.055 144.449C605.717 145.245 606.513 144.175 607.201 144.608C608.565 145.239 609.921 145.302 611.265 144.551C615.049 144.888 617.482 147.099 619.157 150.455C621.794 149.169 624.202 147.506 627.221 147.812C627.24 148.054 627.259 148.296 627.278 148.538C624.062 149.423 620.794 150.194 618.514 152.959C617.724 153.914 616.469 153.869 615.705 153.334C614.768 152.672 615.176 151.462 615.622 150.5C616.597 148.417 616.507 148.067 614.749 146.882C613.03 145.729 611.08 145.735 609.119 145.589C607.501 145.474 605.927 146.481 604.297 145.748ZM616.896 150.494C616.635 150.99 616.418 151.277 616.335 151.595C616.291 151.767 616.463 151.997 616.539 152.201C616.788 151.99 617.087 151.812 617.272 151.551C617.342 151.455 617.144 151.175 616.896 150.494Z" fill="#6B6271"/>
<path d="M584.883 231.26C585.577 235.68 583.507 238.782 580.118 241.235C575.188 244.808 569.793 247.178 563.608 247.42C563.946 246.948 564.806 247.413 564.933 246.687C564.952 246.592 564.379 246.394 564.086 246.241L564.092 246.158C567.309 246.171 570.309 245.349 573.105 243.77C574.469 243.388 575.851 243.037 576.698 241.738L576.781 241.821C580.819 239.636 584.443 237.177 583.564 231.699C583.532 231.502 583.596 231.222 583.724 231.075C584.176 230.572 584.494 231.183 584.883 231.26Z" fill="#6F6473"/>
<path d="M789.117 218.049C792.385 216.107 795.78 214.355 798.563 211.686C802.041 208.355 804.672 204.47 806.372 199.966C807.271 199.559 806.876 198.342 807.678 197.877C807.786 199.896 807.016 201.692 806.124 203.412C802.589 210.247 797.404 215.374 790.283 218.444C789.99 218.043 789.55 218.049 789.117 218.049Z" fill="#6B6271"/>
<path d="M584.882 231.26C584.493 231.184 584.169 230.572 583.723 231.075C583.595 231.222 583.532 231.502 583.563 231.7C584.442 237.184 580.818 239.642 576.78 241.821C576.41 240.432 577.436 239.732 578.238 238.954C580.487 236.782 581.716 234.228 581.481 231.031C581.398 229.922 581.219 228.54 582.551 228.056C583.926 227.559 585.455 227.247 586.544 228.789C585.965 229.273 586.035 229.668 586.697 229.992C586.092 230.413 585.487 230.84 584.882 231.26Z" fill="#FBFAD7"/>
<path d="M843.8 84.5426C843.501 84.3324 843.195 84.1158 842.896 83.9056C852.641 79.689 862.775 78.8673 873.183 80.4661C871.985 80.7336 870.699 80.3068 869.546 80.9247C867.151 80.7654 864.756 80.4151 862.38 81.0967C855.966 81.0648 849.826 82.5043 843.8 84.5426Z" fill="#726A79"/>
<path d="M446.758 237.387C448.612 236.024 450.708 235.012 452.313 233.311C454.338 231.164 454.402 230.425 452.599 227.941C452.23 227.432 451.969 226.909 452.345 226.381C452.886 225.61 453.778 225.909 454.154 226.362C455.281 227.744 456.517 228.769 458.402 228.718C457.574 229.464 456.205 228.578 455.491 229.674C455.013 233.082 452.517 234.922 449.956 236.661C448.555 237.61 447.109 238.54 445.37 238.814L445.287 238.725C445.3 238.496 445.306 238.266 445.319 238.031V238.075C445.918 238.107 446.485 238.056 446.758 237.387Z" fill="#685C6E"/>
<path d="M495.225 243.471L495.212 243.503C495.569 243.178 496.002 242.993 496.467 243.127C501.658 244.643 506.983 245.241 512.359 245.515C512.69 245.534 513.015 245.7 513.34 245.802C512.48 245.878 511.626 245.955 510.766 246.031C510.779 246.069 510.792 246.108 510.805 246.14C514.117 246.14 517.435 246.14 520.748 246.14C520.741 246.069 520.741 246.006 520.735 245.936C520.397 245.885 520.053 245.834 519.716 245.783C520.136 245.592 520.557 245.394 520.977 245.197C521.709 245.178 522.442 245.165 523.181 245.146C524.321 245.114 525.455 245.089 526.595 245.057L526.671 245.12C525.563 246.496 523.595 245.031 522.487 246.401C516.932 246.866 511.372 246.566 505.817 246.369C503.556 245.636 501.212 245.375 498.868 245.108C497.862 244.127 495.97 245.063 495.225 243.471Z" fill="#6B6271"/>
<path d="M789.118 218.049C789.551 218.049 789.99 218.037 790.283 218.451C783.481 221.89 776.2 223.635 768.69 224.546C767.799 224.139 766.926 223.999 766.155 224.808C762.945 225.273 759.722 225.151 756.499 224.999L756.531 224.878C758.779 224.47 761.149 225.419 763.327 224.247C764.926 223.508 766.665 223.871 768.321 223.61C771.856 223.699 775.207 222.795 778.525 221.712C780.251 221.196 781.984 220.68 783.71 220.164C784.895 220.17 785.907 219.712 786.831 219.011C787.595 218.693 788.36 218.374 789.118 218.049Z" fill="#655768"/>
<path d="M512.804 162.354C509.262 159.946 505.931 157.175 501.727 155.908C501.084 155.716 500.409 155.627 499.746 155.487C497.969 154.5 495.956 154.468 494.033 154.079C494.007 153.895 494.007 153.716 494.033 153.532C496.026 152.806 497.899 153.551 499.778 154.048C504.995 155.436 509.645 157.85 513.441 161.768L513.263 162.003C513.033 162.01 512.88 162.124 512.804 162.354Z" fill="#726A79"/>
<path d="M564.092 246.158L564.086 246.241C561.844 246.967 559.443 246.12 556.984 246.789C557.799 247.305 558.615 246.986 559.131 247.572C557.767 247.426 556.404 247.273 555.041 247.127C554.443 246.649 553.997 245.509 553.022 246.668C549.385 246.088 546.302 244.298 543.334 242.247C544.003 241.126 544.608 242.273 545.245 242.305C551.105 245.649 557.436 246.706 564.092 246.158Z" fill="#6B6271"/>
<path d="M1010.5 143.43C1005.83 143.404 1001.15 143.264 996.657 145.073C996.122 144.041 996.715 143.264 997.173 142.519C997.53 141.939 998.059 141.468 998.517 140.952C999.606 139.71 1000.03 138.264 999.129 136.837C998.173 135.321 996.715 135.276 995.211 136.104C995.766 134.824 996.906 135.436 997.81 135.296C998.186 135.321 998.466 135.168 998.645 134.831C1001.28 137.13 1001.37 137.697 999.734 142.168C1000.71 142.92 1001.89 142.302 1002.92 142.544C1005.42 143.423 1008.01 142.589 1010.53 142.958C1010.51 143.111 1010.5 143.27 1010.5 143.43Z" fill="#726A79"/>
<path d="M697.338 132.079C696.357 132.996 695.147 132.499 694.038 132.614C693.045 132.722 691.936 132.321 691.146 133.296C690.057 134.124 689.044 135.009 688.312 136.187C686.981 138.328 686.478 142.13 689.044 144.302C689.624 144.793 690.414 145.194 690.299 146.175C686.579 144.226 685.395 141.831 686.267 138.073C687.07 134.62 690.631 131.353 693.561 131.831C694.803 132.028 696.083 132.003 697.338 132.079Z" fill="#685C6E"/>
<path d="M653.406 157.322C652.986 158.093 653.011 159.175 651.591 159.609C653.279 154.806 649.966 153.048 646.737 151.264C643.877 149.691 640.718 149.003 637.584 148.239C637.609 147.927 637.635 147.615 637.667 147.302C641.425 147.844 645.062 148.818 648.349 150.768C650.884 152.264 653.075 154.092 653.406 157.322Z" fill="#6F6473"/>
<path d="M919.974 197.38C920.993 197.055 921.834 197.336 922.349 198.253C925.19 203.247 929.917 205.852 934.853 208.196C934.662 208.444 934.471 208.693 934.28 208.935C928.05 206.89 923.623 202.616 919.974 197.38Z" fill="#685C6E"/>
<path d="M807.678 197.877C806.875 198.342 807.264 199.559 806.372 199.966C806.366 198.813 806.353 197.66 806.347 196.507C806.99 196.406 807.258 195.832 807.659 195.437C807.767 195.24 807.875 195.036 807.984 194.839C809.805 196.941 811.977 196.074 813.971 195.355C816.468 194.45 818.493 192.781 820.048 190.584C820.309 191.011 820.57 191.437 820.825 191.864C819.704 192.832 818.64 193.877 817.449 194.749C815.2 196.406 812.754 197.539 809.844 197.31C809.098 197.253 808.207 196.992 807.678 197.877Z" fill="#726A79"/>
<path d="M942.599 210.285C946.471 210.54 950.319 211.189 954.217 211.119C953.624 212.177 952.357 211.438 951.612 212.088C948.249 212.393 944.917 212.4 941.732 211.037C942.025 210.782 942.312 210.533 942.599 210.285Z" fill="#655768"/>
<path d="M593.074 167.004C592.8 166.596 592.526 166.188 592.252 165.781C592.386 165.239 592.418 164.647 592.679 164.175C592.902 163.768 593.679 163.64 593.685 164.169C593.736 167.195 596.411 167.042 598.144 167.984C600.08 169.035 602.405 168.475 604.392 169.379C604.029 169.59 603.469 169.367 603.24 169.895C603.15 169.972 603.061 170.048 602.978 170.125C599.367 170.08 596.195 168.615 593.074 167.004Z" fill="#726A79"/>
<path d="M764.403 147.64C761.957 148.392 759.658 149.64 757.033 149.748C756.823 149.481 756.607 149.207 756.396 148.939C758.696 148.239 761.04 147.736 763.276 146.748C765.397 145.812 766.887 143.748 769.384 143.188C768.976 145.334 766.429 145.29 766.104 147.181L766.091 147.194C765.352 146.716 764.906 147.29 764.403 147.64Z" fill="#685C6E"/>
<path d="M540.511 242.528C536.747 244.235 532.753 245.057 528.689 245.604C528.689 245.305 528.689 245.006 528.689 244.706C529.849 244.369 531.008 244.031 532.167 243.693C533.772 243.604 535.32 243.318 536.664 242.356C538.174 242.999 539.607 241.413 541.117 242.203L541.04 242.254C540.817 242.254 540.639 242.343 540.511 242.528Z" fill="#6F6473"/>
<path d="M1008.55 183.953C1008.74 183.711 1008.93 183.463 1009.12 183.22C1012.54 183.819 1015.98 184.144 1019.45 183.902C1019.66 184.163 1019.88 184.424 1020.08 184.679C1016.16 185.679 1012.34 185.068 1008.55 183.953Z" fill="#685C6E"/>
<path d="M616.947 166.487C616.463 166.959 615.972 167.43 615.488 167.895C614.138 169.456 612.1 169.379 610.374 170.054C609.947 169.997 609.514 169.946 609.087 169.889C609.176 169.755 609.221 169.602 609.233 169.443C609.437 169.341 609.628 169.214 609.845 169.144C612.163 168.379 615.367 168.628 614.864 164.659C614.813 164.258 615.342 163.946 615.851 163.895C616.552 163.825 616.972 164.182 617.055 164.799C617.119 165.347 616.985 165.927 616.947 166.487Z" fill="#655768"/>
<path d="M756.39 148.939C756.6 149.207 756.817 149.481 757.027 149.748C752.855 150.545 748.753 150.162 744.695 149.035C745.103 148.589 745.676 148.589 746.211 148.468C748.46 148.519 750.689 149.092 752.957 148.729C754.103 148.799 755.25 148.869 756.39 148.939ZM754.485 149.576C753.403 149.309 752.46 149.251 751.371 149.615C752.473 149.895 753.409 149.939 754.485 149.576Z" fill="#6B6271"/>
<path d="M972.816 209.591C973.275 209.756 973.74 209.915 974.199 210.081C970.504 211.387 966.676 211.922 962.784 212.056C963.16 211.718 963.778 211.68 963.95 211.1C965.752 210.673 967.568 210.342 969.428 210.336C970.198 210.38 971.007 210.559 971.568 209.788C971.976 209.718 972.396 209.654 972.816 209.591Z" fill="#655768"/>
<path d="M637.056 198.476C636.814 198.731 636.572 198.985 636.33 199.246C634.706 199.221 633.222 199.45 632.043 200.807C631.565 201.361 630.686 201.565 629.992 201.934C630.215 200.966 630.444 199.998 630.667 199.036C632.725 198.043 634.801 197.227 637.056 198.476Z" fill="#838C98"/>
<path d="M541.123 242.203C539.607 241.413 538.18 242.999 536.671 242.356C536.658 242.063 536.639 241.776 536.626 241.483C537.384 241.33 538.225 241.732 538.925 241.152C539.747 241.579 540.429 241.553 540.836 240.585C543.652 239.553 543.652 239.553 545.25 242.311C544.613 242.279 544.008 241.133 543.34 242.254C542.601 241.91 541.862 241.878 541.123 242.203Z" fill="#838C98"/>
<path d="M963.943 211.1C963.765 211.68 963.147 211.718 962.778 212.056C959.058 212.508 955.338 212.642 951.618 212.087C952.363 211.431 953.631 212.177 954.223 211.119C957.465 211.113 960.701 211.106 963.943 211.1Z" fill="#685C6E"/>
<path d="M756.537 224.871L756.505 224.992C752.67 225.101 748.829 225.4 745.059 224.343C744.906 224.081 744.759 223.82 744.606 223.553C747.167 223.648 749.747 223.546 752.263 224.222C751.912 224.502 751.174 224.024 751.021 224.871C752.9 224.871 754.715 224.871 756.537 224.871Z" fill="#6B6271"/>
<path d="M1020.09 184.679C1019.87 184.418 1019.66 184.157 1019.46 183.902C1020.4 183.533 1021.34 183.176 1022.27 182.8C1023.66 182.24 1024.72 181.367 1025.01 179.794C1025.19 180.017 1025.37 180.246 1025.54 180.469C1025.77 181.564 1025.47 182.405 1024.45 182.985C1023.07 183.762 1021.72 184.584 1020.09 184.679Z" fill="#726A79"/>
<path d="M942.599 210.285C942.312 210.533 942.026 210.788 941.739 211.037C939.089 210.916 936.713 209.82 934.28 208.935C934.471 208.686 934.662 208.438 934.854 208.196C937.44 208.89 940.019 209.584 942.599 210.285Z" fill="#6B6271"/>
<path d="M794.557 109.754C793.92 109.728 793.404 109.512 793.13 108.887C795.983 108.32 798.837 108.206 801.684 108.938C801.219 109.187 800.754 109.429 800.289 109.677C798.378 109.703 796.468 109.728 794.557 109.754Z" fill="#726A79"/>
<path d="M755.677 156.309C751.995 157.054 748.307 156.984 744.619 156.328C748.307 155.799 751.989 155.92 755.677 156.309Z" fill="#522C47"/>
<path d="M559.13 247.572C558.614 246.986 557.799 247.305 556.983 246.789C559.442 246.12 561.843 246.967 564.085 246.241C564.385 246.394 564.952 246.592 564.933 246.687C564.805 247.413 563.945 246.955 563.608 247.42C562.13 247.961 560.633 247.808 559.13 247.572Z" fill="#655768"/>
<path d="M455.484 229.68C456.204 228.585 457.567 229.47 458.395 228.725C459.376 228.343 460.363 228.145 461.383 228.598C461.918 229.298 462.707 228.973 463.389 229.088C460.841 230.445 458.14 229.757 455.484 229.68Z" fill="#838C98"/>
<path d="M445.363 238.821C442 240.33 438.49 239.604 435.025 239.496C435.287 238.872 435.822 238.84 436.382 238.865C438.471 239.84 440.541 240.05 442.586 238.744L442.567 238.795C443.471 238.77 444.376 238.751 445.28 238.725L445.363 238.821Z" fill="#685C6E"/>
<path d="M709.211 148.984C710.491 148.653 711.16 149.576 711.93 150.302C709.918 151.175 707.771 150.43 705.714 150.793C705.217 150.544 704.72 150.296 704.229 150.048C704.93 149.786 705.835 150.226 706.376 149.417C707.319 149.277 708.268 149.13 709.211 148.984Z" fill="#838C98"/>
<path d="M558.506 154.118C555.34 154.086 552.174 154.06 549.009 154.009C548.238 153.997 547.41 154.232 546.779 153.532C547.907 153.494 549.034 153.455 550.162 153.411C552.735 153.525 555.315 153.787 557.881 153.334C558.136 153.328 558.391 153.322 558.646 153.315L558.684 153.341C558.627 153.602 558.563 153.857 558.506 154.118Z" fill="#4F3C52"/>
<path d="M494.027 153.538C494.001 153.723 494.001 153.901 494.027 154.086C490.766 154.111 487.498 154.13 484.237 154.156C484.147 153.697 483.797 153.481 483.428 153.271C484.116 152.774 484.893 152.761 485.689 152.876C488.128 153.946 490.708 153.067 493.199 153.436C493.479 153.468 493.753 153.506 494.027 153.538Z" fill="#838C98"/>
<path d="M947.261 79.2815C944.274 79.9821 941.28 79.9949 938.293 79.2687C941.287 78.9439 944.274 78.8738 947.261 79.2815Z" fill="#522C47"/>
<path d="M498.874 245.12C501.218 245.381 503.562 245.649 505.823 246.381C503.887 246.566 501.925 247.865 500.021 246.311C499.6 245.967 499.256 245.521 498.874 245.12Z" fill="#ECE8CB"/>
<path d="M637.667 147.302C637.641 147.614 637.616 147.927 637.584 148.239C635.024 147.748 632.45 147.965 629.877 148.086C629.265 147.869 628.654 147.659 628.049 147.442C631.253 147.003 634.463 147.156 637.667 147.302Z" fill="#4F3C52"/>
<path d="M869.546 80.9312C870.699 80.3133 871.985 80.7401 873.183 80.4726C874.355 80.4407 875.47 80.6764 876.502 81.2433C876.482 81.5108 876.463 81.7847 876.444 82.0522C874.145 81.6828 871.845 81.307 869.546 80.9312Z" fill="#6B6271"/>
<path d="M420.413 191.647C417.904 191.195 415.299 192.036 412.827 191.08C413.082 191.049 413.337 191.023 413.585 190.991C415.082 191.01 416.572 191.042 418.069 191.049C418.77 191.055 419.471 191.029 419.662 190.131C419.585 189.934 419.604 189.743 419.719 189.558C420.503 190.074 420.254 190.928 420.413 191.647Z" fill="#4F3C52"/>
<path d="M1010.52 142.958C1008 142.589 1005.42 143.423 1002.92 142.544C1005.38 142.487 1007.84 142.423 1010.3 142.385C1010.85 142.379 1011.44 142.372 1011.66 143.054C1011.28 143.016 1010.91 142.984 1010.52 142.958Z" fill="#522C47"/>
<path d="M609.087 169.895C609.514 169.953 609.947 170.004 610.374 170.061C607.915 170.519 605.45 170.335 602.985 170.125C603.075 170.048 603.157 169.972 603.247 169.895C605.196 169.895 607.138 169.895 609.087 169.895Z" fill="#726A79"/>
<path d="M630.668 199.03C630.445 199.998 630.215 200.966 629.992 201.928C628.757 202.113 628.884 201.195 628.922 200.495C628.96 199.851 629.19 199.221 629.33 198.584C629.585 198.329 629.84 198.068 630.094 197.813C630.285 198.221 630.476 198.629 630.668 199.03Z" fill="#6B6271"/>
<path d="M765.359 100.155C762.837 100.741 760.321 100.811 757.805 100.097C760.327 99.8681 762.849 99.677 765.359 100.155Z" fill="#522C47"/>
<path d="M493.205 153.436C490.715 153.067 488.135 153.946 485.695 152.876C488.199 153.048 490.791 152.035 493.205 153.436Z" fill="#522C47"/>
<path d="M522.492 246.413C523.6 245.044 525.575 246.502 526.677 245.133C527.231 245.088 527.69 245.241 528.002 245.732C526.174 246.044 524.378 246.585 522.492 246.413Z" fill="#6F6473"/>
<path d="M909.497 104.887C907.771 104.875 907.567 103.225 906.707 102.282C907.599 101.868 908.446 101.276 909.522 101.524C909.115 102.639 908.758 103.76 909.497 104.887Z" fill="#FEFCD8"/>
<path d="M997.804 135.296C996.893 135.436 995.759 134.824 995.205 136.105L995.193 136.13C994.556 136.188 994.04 136.003 993.721 135.41C994.212 134.716 994.696 134.022 995.186 133.334C995.294 133.48 995.326 133.64 995.275 133.818C995.779 135.315 996.982 134.652 997.963 134.697L997.989 134.703C998.014 134.92 997.951 135.124 997.804 135.296Z" fill="#4F3C52"/>
<path d="M419.662 190.132C419.477 191.03 418.77 191.055 418.069 191.049C416.572 191.036 415.082 191.011 413.585 190.991C414.859 190.456 416.184 190.386 417.534 190.622C418.318 190.756 419.095 190.915 419.662 190.132Z" fill="#6F6473"/>
<path d="M630.094 197.82C629.839 198.074 629.584 198.336 629.329 198.59C629.119 196.508 629.132 194.425 629.317 192.348C629.552 192.348 629.788 192.348 630.024 192.342C630.329 194.164 630.24 195.992 630.094 197.82Z" fill="#4F3C52"/>
<path d="M436.382 238.865C435.821 238.833 435.286 238.872 435.025 239.496C434.076 239.649 433.203 239.464 432.407 238.929C433.025 238.693 433.853 239.088 434.274 238.286C435.248 238.247 436.229 238.12 437.102 238.725C436.866 238.77 436.624 238.821 436.382 238.865Z" fill="#838C98"/>
<path d="M599.527 188.724C599.444 189.252 600.552 190.189 599.017 190.227C598.087 189.819 597.998 189.036 598.113 188.169C598.374 188.163 598.641 188.157 598.902 188.15C599.106 188.335 599.316 188.526 599.527 188.724Z" fill="#6F6473"/>
<path d="M598.896 188.144C598.635 188.151 598.367 188.157 598.106 188.163C598.093 186.8 598.074 185.437 598.062 184.074C598.284 183.826 598.514 183.577 598.737 183.329C599.132 184.928 598.953 186.539 598.896 188.144Z" fill="#4F3C52"/>
<path d="M740.492 223.483C741.753 222.451 742.39 223.578 743.161 224.253C742.257 224.037 741.129 224.623 740.492 223.483Z" fill="#6B6271"/>
<path d="M876.444 82.0523C876.463 81.7848 876.483 81.5109 876.502 81.2434C877.483 81.2051 878.221 81.5109 878.419 82.5809L878.508 82.479C877.935 82.5173 877.355 82.5491 876.782 82.5809C876.718 82.3771 876.604 82.1988 876.444 82.0523Z" fill="#655768"/>
<path d="M611.272 144.551C609.928 145.296 608.571 145.232 607.208 144.608C608.558 144.36 609.915 144.411 611.272 144.551Z" fill="#522C47"/>
<path d="M628.056 147.449C628.667 147.666 629.279 147.876 629.884 148.092C629.094 148.697 628.164 148.468 627.285 148.545C627.266 148.302 627.247 148.06 627.228 147.818C627.393 147.449 627.629 147.239 628.056 147.449Z" fill="#655768"/>
<path d="M1015.34 143.678C1015.33 143.914 1015.33 144.143 1015.32 144.379C1014.73 144.353 1014.19 144.188 1013.73 143.812C1013.56 143.563 1013.4 143.321 1013.24 143.073C1014.03 142.971 1014.82 142.85 1015.34 143.678Z" fill="#685C6E"/>
<path d="M997.97 134.691C996.989 134.646 995.785 135.308 995.282 133.812C996.18 134.105 997.072 134.398 997.97 134.691Z" fill="#6F6473"/>
<path d="M766.155 224.807C766.926 223.998 767.792 224.139 768.69 224.546C767.888 225.037 767.015 224.846 766.155 224.807Z" fill="#685C6E"/>
<path d="M528.002 245.732C527.696 245.241 527.231 245.088 526.677 245.133L526.601 245.069C527.257 244.713 527.964 244.655 528.696 244.706C528.696 245.006 528.696 245.305 528.696 245.604C528.461 245.643 528.231 245.687 528.002 245.732Z" fill="#685C6E"/>
<path d="M726.484 125.569C726 125.569 725.516 125.588 725.191 125.13C726.096 125.117 727 125.104 727.905 125.092C727.548 125.607 726.994 125.525 726.484 125.569Z" fill="#522C47"/>
<path d="M553.021 246.668C553.99 245.509 554.442 246.649 555.041 247.127C554.34 247.082 553.595 247.235 553.021 246.668Z" fill="#685C6E"/>
<path d="M1010.52 142.958C1010.91 142.99 1011.29 143.022 1011.67 143.047C1011.96 143.079 1012.26 143.111 1012.54 143.143C1012.55 143.315 1012.55 143.487 1012.55 143.665C1011.87 143.589 1011.19 143.506 1010.5 143.43C1010.5 143.27 1010.51 143.111 1010.52 142.958Z" fill="#685C6E"/>
<path d="M1012.55 143.665C1012.55 143.493 1012.55 143.321 1012.54 143.143C1012.78 143.124 1013.01 143.098 1013.24 143.079C1013.41 143.328 1013.57 143.57 1013.73 143.818C1013.31 143.933 1012.92 143.92 1012.55 143.665Z" fill="#6B6271"/>
<path d="M764.403 147.64C764.907 147.29 765.352 146.71 766.085 147.194C766.397 147.264 766.448 147.461 766.352 147.729C765.703 147.697 765.053 147.665 764.403 147.64Z" fill="#EBE7CA"/>
<path d="M540.512 242.528C540.639 242.349 540.817 242.254 541.04 242.254C540.951 242.509 540.773 242.598 540.512 242.528Z" fill="#838C98"/>
<path d="M910.4 99.282C910.413 99.7279 910.311 100.123 909.897 100.371C909.878 99.919 910.031 99.5559 910.4 99.282Z" fill="#FEFCD8"/>
<path d="M997.804 135.296C997.944 135.124 998.008 134.926 997.989 134.703C998.231 134.62 998.448 134.665 998.639 134.837C998.46 135.168 998.186 135.321 997.804 135.296Z" fill="#6F6473"/>
<path d="M513.435 161.781C513.684 161.997 513.932 162.207 514.18 162.424L513.938 162.64C513.715 162.43 513.486 162.226 513.257 162.023L513.435 161.781Z" fill="#726A79"/>
<path d="M909.878 196.807C909.388 196.157 909.897 195.826 910.305 195.463C910.165 195.909 910.018 196.355 909.878 196.807Z" fill="#ECE8CB"/>
<path d="M876.444 82.0524C876.61 82.1989 876.718 82.3772 876.782 82.5874C872.572 82.5811 868.342 83.0078 864.17 81.9696C863.482 81.7976 862.845 81.683 862.387 81.1033C864.756 80.4154 867.158 80.7721 869.553 80.9313C871.846 81.3071 874.145 81.6829 876.444 82.0524Z" fill="white"/>
<path d="M993.721 135.41C994.04 135.996 994.556 136.187 995.193 136.13C995.116 137.27 994.174 137.627 993.358 137.971C992.556 138.302 991.511 138.818 990.931 137.672C990.435 136.684 990.982 135.888 991.861 135.366C992.25 135.136 992.702 135.015 993.129 134.844C993.326 135.022 993.524 135.219 993.721 135.41Z" fill="#726A79"/>
<path d="M756.537 224.871C754.715 224.871 752.9 224.871 751.021 224.871C751.173 224.024 751.912 224.502 752.263 224.221C753.403 224.196 754.543 224.177 755.683 224.151C758.231 224.183 760.779 224.209 763.327 224.241C761.155 225.413 758.785 224.463 756.537 224.871Z" fill="#522C47"/>
<path d="M528.69 244.706C527.963 244.655 527.25 244.713 526.594 245.069C525.454 245.101 524.32 245.127 523.18 245.158C522.422 244.152 521.689 244.228 520.976 245.209C520.556 245.4 520.135 245.598 519.715 245.795C519.46 245.744 519.212 245.7 518.963 245.649C518.6 243.955 517.218 244.388 516.167 244.432C512.67 244.592 509.262 244.19 505.982 242.967C503.81 242.158 501.848 241.184 500.53 238.999C498.886 236.266 495.752 236.063 492.982 235.387C490.638 234.821 488.243 234.394 486.236 232.929C484.682 231.795 484.606 231.375 485.918 229.935C487.319 228.4 488.803 226.935 490.319 225.515C497.122 219.145 504.664 213.782 513.676 211.202C521.123 209.075 528.549 209.922 535.301 214.094C536.976 215.132 538.295 216.635 538.983 218.565C540.856 223.846 546.397 224.738 549.99 222.616C553.365 220.629 556.684 218.565 560.187 216.788C566.703 213.482 573.474 210.826 580.704 209.922C585.366 209.336 590.156 209.737 594.895 209.737C595.908 209.737 596.507 210.552 597.175 211.183C598.545 212.463 599.405 214.107 600.418 215.642C602.66 219.056 602.551 220.489 599.883 223.534C598.309 225.336 596.303 226.381 594.067 227.12C592.774 227.546 591.347 227.795 590.494 229.062C589.85 229.126 589.213 229.183 588.577 229.241C588.271 229.203 587.965 229.171 587.653 229.133C587.277 229.018 586.901 228.903 586.526 228.789C585.443 227.241 583.908 227.553 582.538 228.056C581.207 228.54 581.385 229.922 581.468 231.031C581.704 234.235 580.474 236.782 578.226 238.954C577.43 239.725 576.398 240.432 576.767 241.821L576.685 241.738C575.009 241.572 573.557 241.802 573.092 243.77C570.296 245.349 567.296 246.171 564.079 246.158C557.423 246.706 551.091 245.655 545.225 242.305C543.626 239.547 543.626 239.547 540.811 240.579C539.652 239.031 539.25 239.993 538.9 241.152C538.206 241.738 537.365 241.33 536.601 241.489C535.002 241.999 532.887 241.458 532.148 243.7C531.008 244.031 529.849 244.369 528.69 244.706Z" fill="#ECE8CB"/>
<path d="M484.242 154.156C487.504 154.131 490.771 154.111 494.033 154.086C495.956 154.481 497.969 154.506 499.746 155.494C497.822 155.506 495.912 155.697 494.001 155.016C493.077 154.685 491.918 154.653 490.962 154.882C488.141 155.551 485.376 155.182 482.593 154.78C482.994 154.194 483.682 154.341 484.242 154.156Z" fill="white"/>
<path d="M422.477 191.756C423.426 191.832 424.228 192.272 424.961 192.826C425.502 193.24 426.209 193.832 425.763 194.508C425.139 195.444 424.719 194.514 424.222 194.106C423.19 193.265 422.311 193.062 421.521 194.571C421.317 194.966 420.579 194.316 420.464 193.679C421.075 193.425 421.018 192.845 421.107 192.342C421.585 192.202 422.184 192.329 422.477 191.756Z" fill="#838C98"/>
<path d="M516.25 165.959C516.715 165.953 517.174 165.946 517.639 165.94C517.684 167.278 517.741 168.615 517.773 169.959C517.785 170.462 517.55 170.851 517.015 170.825C516.524 170.806 516.199 170.45 516.142 169.966C515.97 168.628 515.989 167.29 516.25 165.959Z" fill="#4F3C52"/>
<path d="M518.963 245.649C519.212 245.7 519.466 245.744 519.715 245.795C520.052 245.846 520.396 245.897 520.734 245.948C520.74 246.018 520.74 246.082 520.747 246.152C517.435 246.152 514.116 246.152 510.804 246.152C510.791 246.114 510.778 246.076 510.766 246.044C511.626 245.967 512.485 245.891 513.339 245.815C515.218 245.751 517.091 245.7 518.963 245.649Z" fill="#522C47"/>
<path d="M632.126 222.126C630.361 223.311 628.381 222.47 626.514 222.712C626.4 222.725 626.247 222.769 626.183 222.718C625.591 222.26 626.349 222.419 626.406 222.247C628.31 222.209 630.215 222.164 632.126 222.126Z" fill="#522C47"/>
<path d="M436.382 238.865C436.624 238.821 436.866 238.77 437.102 238.725C438.93 238.731 440.758 238.738 442.586 238.744C440.541 240.05 438.471 239.84 436.382 238.865Z" fill="#655768"/>
<path d="M594.144 229.884C594.953 230.19 595.921 229.623 596.743 230.311C595.1 230.311 593.539 230.311 591.985 230.304C591.909 230.304 591.781 230.183 591.775 230.107C591.762 230.011 591.845 229.897 591.889 229.795C592.635 229.827 593.386 229.852 594.144 229.884Z" fill="#4F3C52"/>
<path d="M445.28 238.725C444.375 238.751 443.471 238.77 442.566 238.795C443.388 238.203 444.337 238.075 445.312 238.037C445.299 238.266 445.293 238.496 445.28 238.725Z" fill="#655768"/>
<path d="M513.256 162.016C513.486 162.22 513.709 162.43 513.938 162.634C513.976 162.895 514.014 163.163 514.059 163.424C513.639 163.067 513.225 162.71 512.811 162.354C512.881 162.124 513.033 162.01 513.256 162.016Z" fill="#4F3C52"/>
<path d="M422.477 191.756C422.184 192.329 421.585 192.201 421.107 192.348C420.795 192.443 420.49 192.545 420.177 192.641L420.12 192.584C420.216 192.265 420.305 191.947 420.4 191.628C420.859 191.628 421.318 191.628 421.77 191.635C422.006 191.673 422.241 191.717 422.477 191.756Z" fill="#4F3C52"/>
<path d="M446.758 237.387C446.484 238.056 445.918 238.107 445.312 238.075C445.663 237.585 446.172 237.413 446.758 237.387Z" fill="#655768"/>
<path d="M420.178 192.641C420.49 192.546 420.796 192.444 421.108 192.348C421.012 192.851 421.076 193.431 420.464 193.686C420.369 193.335 420.273 192.991 420.178 192.641Z" fill="#6B6271"/>
<path d="M778.531 221.712C775.213 222.795 771.862 223.699 768.327 223.61C771.729 222.973 775.13 222.343 778.531 221.712Z" fill="#6B6271"/>
<path d="M807.652 195.438C807.251 195.839 806.984 196.406 806.34 196.508C805.449 195.584 804.149 196.132 802.652 195.508C804.601 194.438 806.124 194.89 807.652 195.438Z" fill="#4F3C52"/>
<path d="M786.837 219.011C785.913 219.712 784.901 220.17 783.716 220.164C784.671 219.54 785.748 219.253 786.837 219.011Z" fill="#6B6271"/>
<path d="M971.561 209.782C971.001 210.552 970.192 210.374 969.421 210.329C970.071 209.903 970.79 209.743 971.561 209.782Z" fill="#6B6271"/>
<path d="M821.035 188.838C820.786 188.845 820.538 188.851 820.283 188.858C820.315 188.571 820.423 188.316 820.761 188.405C820.882 188.45 820.946 188.692 821.035 188.838Z" fill="#726A79"/>
<path d="M756.39 148.939C755.244 148.869 754.103 148.799 752.957 148.729C752.779 148.188 752.721 147.557 752.396 147.13C750.161 144.175 750.861 141.136 752.549 138.436C756.575 131.983 761.779 126.684 768.747 123.327C772.225 121.652 775.894 121.123 779.722 120.69C784.206 120.187 788.378 120.843 792.474 122.346C794.71 123.168 797.022 124.072 798.321 126.353C796.035 131.588 794.589 136.977 795.366 142.754C795.563 144.213 795.009 144.665 793.659 144.385C791.741 143.984 789.805 143.824 787.837 143.869C786.244 143.907 784.773 144.283 784.021 145.754C783.047 147.665 781.932 147.36 780.537 146.34C780.193 146.092 779.684 146.073 779.251 145.946C777.2 145.379 775.142 145.678 773.085 145.901C771.664 145.812 770.543 146.582 769.378 147.2C768.269 147.786 767.187 148.398 766.097 147.175C766.422 145.283 768.97 145.328 769.378 143.181C766.881 143.742 765.39 145.805 763.269 146.742C761.034 147.742 758.69 148.239 756.39 148.939Z" fill="#EBE7CA"/>
<path d="M706.376 149.423C705.835 150.232 704.931 149.793 704.23 150.054C703.701 149.978 702.988 150.035 702.994 149.29C703.007 148.417 703.688 148.576 704.141 148.869C704.848 149.322 705.631 149.245 706.376 149.423Z" fill="#4F3C52"/>
<path d="M616.947 166.488C616.991 165.927 617.119 165.347 617.049 164.8C616.966 164.182 616.545 163.825 615.845 163.895C615.335 163.946 614.806 164.258 614.857 164.66C615.361 168.634 612.157 168.379 609.838 169.144C609.628 169.214 609.431 169.341 609.227 169.443C607.615 169.418 606.004 169.398 604.392 169.373C602.405 168.469 600.08 169.029 598.144 167.978C596.405 167.035 593.73 167.188 593.685 164.163C593.679 163.628 592.901 163.761 592.679 164.169C592.417 164.64 592.386 165.233 592.252 165.774C588.819 164.647 586.392 162.175 584.545 159.296C583.634 157.876 584.111 156.073 585.481 154.57C589.284 150.404 594.067 149.506 599.341 150.079C600.36 150.188 601.322 150.742 602.055 151.513C603.615 153.143 605.539 153.608 607.723 153.468C609.8 153.334 611.558 153.952 613.52 154.92C616.373 156.322 619.838 155.978 622.934 154.946C626.826 153.653 630.775 153.239 634.826 153.449C639.285 153.685 642.47 156.901 642.591 161.067C642.667 163.64 641.578 165.201 639.215 166.016C638.457 166.277 637.731 166.64 636.985 166.959C634.304 166.87 631.724 166.296 629.297 165.175C626.004 163.653 622.864 163.991 619.909 165.953C618.928 166.609 617.985 166.621 616.947 166.488Z" fill="#ECE8CB"/>
<path d="M558.646 153.322C558.391 153.328 558.137 153.334 557.882 153.341C557.901 153.092 557.914 152.844 557.933 152.589C558.168 152.831 558.411 153.08 558.646 153.322Z" fill="#6F6473"/>
<path d="M874.406 209.183C876.89 209.183 879.381 209.183 881.865 209.183C881.865 209.253 881.865 209.329 881.865 209.399C879.381 209.399 876.89 209.399 874.406 209.399C874.406 209.323 874.406 209.253 874.406 209.183Z" fill="#522C47"/>
<path d="M979.543 126.225C978.396 126.697 978.46 126.149 978.804 125.353C979.046 125.646 979.294 125.932 979.543 126.225Z" fill="white"/>
<path d="M773.078 145.914C775.136 145.691 777.193 145.391 779.244 145.958C777.728 146.793 776.091 146.175 774.518 146.372C774.008 146.328 773.441 146.436 773.078 145.914Z" fill="#522C47"/>
<path d="M587.666 229.133C587.972 229.171 588.278 229.203 588.59 229.241C588.711 229.808 588.284 229.706 587.998 229.693C587.654 229.68 587.31 229.591 587.666 229.133Z" fill="#4F3C52"/>
<path d="M605.074 144.442C605.462 144.748 605.469 145.06 605.093 145.379C604.711 145.245 604.176 145.213 604.29 144.633C604.379 144.181 604.774 144.366 605.074 144.442Z" fill="white"/>
<path d="M616.896 150.494C617.144 151.169 617.335 151.455 617.272 151.551C617.087 151.812 616.794 151.991 616.539 152.201C616.463 151.997 616.291 151.768 616.335 151.596C616.425 151.277 616.635 150.997 616.896 150.494Z" fill="#EBE7CA"/>
<path d="M573.105 243.77C573.577 241.802 575.023 241.572 576.698 241.738C575.851 243.037 574.469 243.388 573.105 243.77Z" fill="#FBFAD7"/>
<path d="M520.982 245.209C521.696 244.229 522.428 244.152 523.186 245.159C522.447 245.178 521.715 245.19 520.982 245.209Z" fill="#FEFBD8"/>
<path d="M604.399 169.379C606.01 169.405 607.622 169.424 609.234 169.449C609.221 169.609 609.176 169.762 609.087 169.895C607.138 169.895 605.195 169.895 603.246 169.895C603.475 169.367 604.03 169.59 604.399 169.379Z" fill="#522C47"/>
<path d="M532.168 243.693C532.9 241.451 535.022 241.993 536.62 241.483C536.639 241.776 536.652 242.063 536.671 242.356C535.321 243.318 533.773 243.598 532.168 243.693Z" fill="#FEFBD8"/>
<path d="M754.486 149.576C753.409 149.939 752.467 149.895 751.371 149.615C752.46 149.251 753.403 149.309 754.486 149.576Z" fill="#522C47"/>
<path d="M538.92 241.146C539.264 239.986 539.672 239.031 540.831 240.572C540.423 241.547 539.735 241.572 538.92 241.146Z" fill="#FEFBD8"/>
</g>
<defs>
<clipPath id="clip0_69_7">
<rect width="1287.27" height="894.55" fill="white"/>
</clipPath>
</defs>
</svg>
