<svg width="1288" height="895" viewBox="0 0 1288 895" fill="none" xmlns="http://www.w3.org/2000/svg">
<g clip-path="url(#clip0_69_7)">
<path d="M0.0400391 499.32C18.73 498.89 37.44 499.1 56.12 498.61C69.64 498.26 83.17 498.85 96.67 498.13C110.56 497.39 124.45 498.31 138.31 497.58C151.93 496.86 165.55 497.77 179.13 497.04C192.93 496.3 206.73 497.21 220.49 496.49C234.2 495.77 247.91 496.66 261.58 495.94C275.47 495.21 289.36 496.12 303.22 495.4C317.2 494.67 331.18 495.58 345.13 494.85C358.66 494.14 372.19 495.04 385.68 494.31C399.39 493.58 413.1 494.49 426.77 493.76C440.57 493.03 454.37 493.95 468.13 493.22C481.93 492.49 495.73 493.4 509.49 492.67C523.2 491.95 536.91 492.85 550.58 492.12C564.11 491.4 577.64 492.3 591.13 491.58C604.84 490.84 618.55 491.76 632.22 491.03C646.2 490.29 660.18 491.21 674.13 490.49C687.84 489.77 701.55 490.67 715.22 489.94C728.75 489.22 742.28 490.12 755.77 489.4C769.66 488.66 783.55 489.58 797.41 488.85C811.03 488.13 824.65 489.04 838.23 488.31C852.12 487.56 866.01 488.5 879.87 487.76C893.4 487.04 906.92 487.9 920.42 487.2C928.5 486.78 936.57 487.21 944.62 486.71C955.61 486.03 966.57 484.94 977.54 484.09C983.39 483.64 989.27 483.4 995.12 482.94C1003.21 482.3 1011.29 481.49 1019.39 480.83C1025.06 480.37 1030.75 480.12 1036.42 479.67C1044.69 479.02 1052.96 478.25 1061.23 477.57C1066.27 477.15 1071.31 476.78 1076.36 476.42C1085.18 475.79 1094 475.09 1102.81 474.36C1108.12 473.92 1113.44 473.58 1118.75 473.14C1127.38 472.43 1136.01 471.57 1144.65 471.08C1149.71 470.79 1154.73 470.26 1159.78 469.91C1168.78 469.28 1177.79 468.67 1186.77 467.77C1192.52 467.19 1198.31 467.04 1204.07 466.59C1212.25 465.94 1220.43 465.16 1228.61 464.49C1234.01 464.05 1239.42 463.75 1244.83 463.33C1253.65 462.64 1262.46 461.89 1271.27 461.2C1276.58 460.78 1281.9 460.44 1287.22 460.07C1287.22 603.94 1287.22 747.81 1287.27 891.67C1287.27 893.79 1287.06 894.54 1284.57 894.54C856.58 894.46 428.58 894.47 0.590039 894.47C0.410039 894.29 0.230039 894.11 0.0400391 893.92C0.0400391 762.39 0.0400391 630.85 0.0400391 499.32ZM529.22 679.46C530.96 678.82 532.84 679.49 534.59 678.86C532.66 678.75 530.7 678.01 528.84 679.15C528.14 679.42 528.27 679.97 528.47 680.47C528.52 680.6 528.9 680.61 529.13 680.67C529.11 680.26 528.84 679.84 529.22 679.46ZM1168.12 764.31C1163.75 763.73 1159.8 765.28 1155.85 766.85C1159.96 766.09 1163.88 764.38 1168.12 764.31ZM91.96 782.93C88.5 783.47 85.04 784.01 81.58 784.55C85.26 785.28 88.68 784.53 91.96 782.93ZM1004.54 779.64C999.99 779.82 995.33 778.59 990.94 780.73C995.36 779 1000.05 780.58 1004.54 779.64ZM615.2 697.92C612.49 698.28 609.78 698.64 607.07 699.01C609.94 699.63 612.66 699.23 615.2 697.92ZM882.99 739.95C880.4 739.8 877.96 737.49 875.22 739.44C877.85 738.98 880.35 740.39 882.99 739.95ZM435.09 582.55C433.01 583.34 430.99 582.88 428.99 583.98C430.52 584.63 431.61 585.79 433.37 585.24C432.85 584.68 431.72 585.03 431.83 583.92C432.88 583.75 434.09 583.94 435.09 582.55ZM1225.96 843.32C1224.01 842.83 1222.1 842.88 1220.33 844.21C1222.15 843.35 1224.13 844.11 1225.96 843.32ZM905.33 755.64C904.63 755.56 904.04 755.45 903.44 755.44C902.9 755.42 902.43 754.42 901.87 755.31C901.75 755.49 901.77 755.86 901.87 756.07C902.22 756.81 902.95 756.52 903.52 756.53C904.08 756.53 904.79 756.79 905.33 755.64ZM98.79 790.79C100.24 790.79 101.42 790.79 102.61 790.79C102.61 790.69 102.62 790.59 102.62 790.49C101.96 790.43 101.31 790.36 100.63 790.3C100.78 789.6 102.09 789.8 101.6 788.74C100.54 789.16 99.44 789.47 98.79 790.79Z" fill="#ECECE4"/>
<path d="M0.0404009 893.93C0.220401 894.11 0.400401 894.29 0.590401 894.48C0.120401 894.58 -0.0595991 894.4 0.0404009 893.93Z" fill="#FEFEFE"/>
<path d="M1168.12 764.31C1163.88 764.38 1159.96 766.09 1155.85 766.85C1159.8 765.28 1163.75 763.72 1168.12 764.31Z" fill="#3F3B51"/>
<path d="M91.9601 782.93C88.6901 784.53 85.2601 785.28 81.5801 784.55C85.0401 784.01 88.5001 783.47 91.9601 782.93Z" fill="#403C52"/>
<path d="M1004.54 779.64C1000.06 780.58 995.36 779 990.94 780.73C995.33 778.59 999.99 779.81 1004.54 779.64Z" fill="#39354C"/>
<path d="M615.2 697.92C612.65 699.23 609.94 699.62 607.07 699.01C609.78 698.65 612.49 698.29 615.2 697.92Z" fill="#413E53"/>
<path d="M882.991 739.95C880.361 740.39 877.851 738.98 875.221 739.44C877.951 737.49 880.401 739.8 882.991 739.95Z" fill="#433F54"/>
<path d="M435.09 582.55C434.09 583.94 432.88 583.75 431.83 583.93C431.72 585.04 432.85 584.68 433.37 585.25C431.61 585.8 430.52 584.64 428.99 583.99C430.99 582.88 433 583.34 435.09 582.55Z" fill="#413D52"/>
<path d="M1225.96 843.32C1224.13 844.12 1222.15 843.35 1220.33 844.21C1222.11 842.88 1224.01 842.83 1225.96 843.32Z" fill="#535062"/>
<path d="M905.33 755.64C904.79 756.79 904.08 756.53 903.51 756.52C902.94 756.51 902.22 756.8 901.86 756.06C901.76 755.85 901.75 755.49 901.86 755.3C902.43 754.41 902.9 755.42 903.43 755.43C904.04 755.45 904.63 755.56 905.33 755.64Z" fill="#4E4B5E"/>
<path d="M98.79 790.79C99.45 789.46 100.55 789.15 101.6 788.73C102.09 789.79 100.78 789.59 100.63 790.29C101.31 790.36 101.96 790.42 102.62 790.48C102.62 790.58 102.61 790.68 102.61 790.78C101.42 790.79 100.24 790.79 98.79 790.79Z" fill="#413D53"/>
<path d="M528.841 679.15C530.701 678.02 532.661 678.76 534.591 678.86C532.851 679.49 530.961 678.82 529.221 679.46C529.101 679.35 528.971 679.25 528.841 679.15Z" fill="#3B374D"/>
<path d="M529.22 679.46C528.84 679.84 529.11 680.26 529.13 680.66C528.9 680.6 528.52 680.59 528.47 680.46C528.27 679.97 528.14 679.42 528.84 679.14C528.97 679.25 529.1 679.35 529.22 679.46Z" fill="#3B374D"/>
</g>
<defs>
<clipPath id="clip0_69_7">
<rect width="1287.27" height="894.55" fill="white"/>
</clipPath>
</defs>
</svg>
