<svg width="428" height="341" viewBox="0 0 428 341" fill="none" xmlns="http://www.w3.org/2000/svg">
<path d="M105.21 175.78L105.01 175.8L104.81 175.77C102.32 173.78 100.76 171.44 101.53 168.02C102.04 165.74 102.24 163.39 102.71 161.11C102.88 160.28 103.16 159.3 104.2 159.02C106.54 158.38 108.83 157.5 111.28 157.33C111.97 157.28 112.91 156.98 113.33 157.6C113.89 158.42 112.99 159.09 112.6 159.76C111.24 162.1 109.85 164.42 108.88 166.97C108.3 168.51 107.92 170.07 107.91 171.72C107.91 172.49 108.02 173.39 108.87 173.42C109.74 173.45 109.99 172.55 109.85 171.79C109.35 169.27 110.61 167.19 111.66 165.15C113.15 162.27 114.92 159.53 116.64 156.78C123.65 145.56 131.1 134.58 140.03 124.85C149.45 114.59 160.07 105.57 172.43 98.7903C178.27 95.5803 183.48 91.2803 189.56 88.4303C190.52 87.9803 190.56 87.2703 190.33 86.4103C191.09 86.3903 191.83 86.3503 192.22 85.5303C193.26 86.1203 194.3 85.8303 195.38 85.6203C201.04 84.5403 206.76 83.1703 212.48 83.2603C236.19 83.6203 260.07 80.9303 283.54 86.5803C283.61 88.0903 284.5 88.6703 285.91 88.6103C285.94 88.9603 285.84 89.4703 286.03 89.6303C292.09 94.8103 295.12 101.73 297.3 109.16C299.8 117.68 300.89 126.51 303.14 135.1C303.55 136.68 304.24 136.92 305.47 136.99C307.95 141 309.98 145.28 313.09 148.91C311.45 148.4 310.13 147.63 308.73 147.03C305.26 145.53 299.52 146.78 297.43 149.94C294.42 154.5 291.16 159.03 290.2 164.61C289.97 165.96 289.41 166.86 288.28 167.65C282.67 171.61 277.13 175.66 271.55 179.66C270.86 180.15 270.01 180.67 270.73 181.54C271.32 182.25 272 181.59 272.59 181.15C275.21 179.22 277.84 177.31 280.49 175.42C283.24 173.46 286.01 171.53 289.19 169.3C288.87 173.82 289.53 177.54 290.99 181.24C291.73 183.12 291.05 185.31 289.18 186.73C281.07 192.91 272.81 198.9 264.98 205.44C259.19 210.29 252.73 214.18 246.19 217.61C245.35 214.95 244.32 212.06 242.53 209.56C239.14 204.84 234.35 203.24 228.75 204.07C221.37 205.17 218.26 211.17 215.02 216.73C212.25 221.49 212.23 227.13 210.96 232.38C209.21 234.11 207.89 236.09 207.37 238.53C206.84 238.99 206.33 239.49 205.76 239.91C203.05 241.96 199.81 242.6 196.6 243.24C195.42 243.47 194.93 243.76 195.58 244.93C194.32 245.2 193.06 245.46 191.8 245.73C191.35 245.24 190.86 244.95 190.13 245.06C180.53 246.56 170.85 246.9 161.16 246.73C141.69 246.39 122.18 246.51 102.84 243.8C98.6099 243.21 94.0899 243.57 90.1799 241.21C90.0499 241.13 89.6099 241.54 89.3199 241.72C89.0099 241.53 88.7099 241.34 88.3999 241.16C88.4099 237.26 88.4599 233.36 88.4299 229.45C88.3999 225.46 88.4699 221.46 89.3699 217.58C91.0599 210.29 93.7899 203.36 97.1599 196.69C100.44 190.18 103.01 183.28 107.57 177.47C108.39 176.42 107.97 175.47 107.21 174.87C106.3 174.18 105.51 174.67 105.21 175.78ZM270.1 109.88C270.09 113.66 270.09 117.45 270.08 121.23C270.23 125.42 270.39 129.61 270.54 133.8C270.46 134.77 270.04 135.87 270.34 136.7C271.73 140.49 271.62 144.47 272.09 148.37C272.9 155.09 273.54 161.84 273.86 168.61C273.9 169.48 273.92 171.11 275.07 170.97C276.6 170.79 275.61 169.44 275.52 168.55C275.46 167.92 275.47 167.28 275.43 166.65C274.99 159.26 274.45 151.88 273.36 144.55C272.65 139.76 272.58 139.77 277.02 137.55C278.05 137.04 279.06 136.51 280.08 135.98C283.82 135.26 286.56 133.15 288.5 129.91C290.96 130.41 292.7 128.61 294.8 128.01C296.42 127.55 296.76 126.7 296.66 125.27C296.29 120.23 296.31 115.11 294.87 110.24C293.34 105.08 291.7 99.8903 288.46 95.4603C287.81 94.5703 287.25 92.8603 285.57 93.6803C280.75 96.0203 275.56 97.6203 271.31 101.14C270.11 102.13 269.79 102.98 270.04 104.31C270.08 106.18 270.09 108.03 270.1 109.88ZM265.55 137.63C265.39 133.24 266.49 128.9 266.06 124.5C266.54 119.2 266.09 113.89 266.19 108.58C266.28 103.82 266.24 103.82 261.76 104.93C261.92 103.85 262.97 103.77 263.66 103.39C268.62 100.65 273.62 97.9903 278.6 95.2903C279.28 94.9203 280.34 94.5903 279.77 93.5403C279.05 92.2003 278.37 93.5803 277.87 93.8603C270.53 97.8803 263.16 101.83 255.59 105.4C250.22 107.94 244.87 110.53 239.5 113.07C238.83 113.39 237.97 113.51 238.47 114.51C238.79 115.15 239.4 115.28 240.08 114.87C240.54 114.59 241.03 114.35 241.52 114.14C244.48 112.91 247.15 111.02 250.34 110.31C250.81 111.4 249.76 111.49 249.28 111.63C245.79 112.64 244.39 115.21 243.91 118.52C242.7 122 241.73 125.58 240.23 128.93C234.91 140.84 229.41 152.68 223.97 164.53C222.81 167.05 223.58 168.35 226.16 168.19C227.34 168.12 228.52 168.13 229.7 168.12C233.1 168.1 233.08 168.1 232.89 171.51C232.86 172.14 232.22 173.15 233.29 173.33C234.35 173.5 234.25 172.37 234.6 171.67C235.33 170.2 234.3 168.64 235.11 167.21C236.59 164.6 238.85 163.26 241.73 162.64C246.68 161.57 251.69 162.49 256.65 162.01C257.11 161.97 257.53 162.04 257.85 162.46C259.81 165.11 261.43 167.82 261.33 171.34C261.29 172.66 259.37 172.48 259.85 173.87C260.51 175.8 259.22 176.06 257.8 176.42C252.54 177.74 247.19 177.42 241.86 177.4C239.74 177.39 237.44 177.83 235.85 175.72C235.59 175.37 235.07 175.21 234.68 175.69C234.35 176.1 234.5 176.53 234.72 176.95C235.48 178.41 236.86 178.85 238.33 179C244.68 179.62 251.01 179.38 257.31 178.43C260.73 177.91 262.62 176.2 262.93 173.54C263.43 169.21 262.44 165.3 259.67 161.87C258.96 160.99 258.26 160.48 256.97 160.51C252.62 160.61 248.24 160.22 243.91 160.56C240.29 160.85 236.5 161.39 234.41 165.2C234.03 165.89 233.57 166.65 232.33 166.54C230.09 166.34 227.82 166.48 225 166.48C226.18 165.56 225.4 163.7 227.39 163.99C229.37 164.59 231.17 163.74 232.73 162.86C242.16 157.53 251.67 152.31 260.73 146.36C261.67 145.74 263.15 145.22 262.86 143.54C264.11 143.82 264.65 142.94 265.13 142.09C265.91 140.71 265.61 139.15 265.55 137.63ZM169.65 209.53C168.16 209.22 167.34 209.48 167.41 211.35C167.47 212.93 167.07 214.55 166.76 216.12C166.57 217.07 166.45 217.9 167.41 218.48C167.44 219.92 169.14 219.85 169.61 220.89C156.21 220.36 142.77 220.92 129.39 219.76C129.75 219.61 130.11 219.45 130.48 219.3C130.97 219.32 131.46 219.21 131.49 218.66C131.68 215.9 131.85 213.15 131.95 210.39C131.97 209.8 131.44 209.48 130.8 209.49C128.86 209.54 127.52 208.17 125.9 207.45C125.37 207.21 124.59 207.04 125.12 206.12C126.09 204.46 125.2 203.02 124.19 201.96C120.02 197.55 115.54 193.46 110.83 189.63C109.92 188.89 109.03 188.58 107.7 189.46C103.36 192.33 101.91 196.7 100.88 201.38C98.6899 201.88 98.9199 203.81 98.8399 205.28C98.6599 208.54 98.7799 211.81 98.7799 215.08C98.2499 215.04 97.5899 214.85 97.3099 215.42C97.0199 215.99 97.4799 216.42 97.9099 216.79C98.6699 217.45 99.5299 217.89 100.46 218.28C105.3 220.29 110.53 220.12 115.57 220.89C121.36 221.78 127.32 221.18 133.15 222.18C132.25 223.14 130.89 223.11 129.84 223.74C129.4 223.76 128.77 223.61 128.57 223.84C127.34 225.2 128.91 230.59 130.67 231.23C131.74 231.44 133.01 231.12 133.71 232.36C125.23 232.65 116.86 232.18 108.99 228.59C106.76 227.57 104.36 227.18 102.05 226.47C100.46 225.98 99.8099 226.47 99.9599 228.09C97.8099 228.43 97.8699 229.44 99.1299 230.82C99.3999 233.01 100.41 234.93 101.4 236.84C101.82 237.64 102.4 238.5 103.43 238.42C108.19 238.06 112.7 240.06 117.39 239.99C129.45 239.81 141.42 240.91 153.44 241.58C164.48 242.2 175.57 241.71 186.64 241.74C187.93 241.74 189.58 241.65 190.21 240.87C192.89 237.53 195.96 234.62 199.21 231.88C199.79 231.39 199.89 230.76 199.5 230.19C199.07 229.57 198.53 230.2 198.04 230.25C198.01 229.86 197.97 229.47 197.94 229.08C198.37 228.65 199.09 228.28 198.72 227.54C198.34 226.79 197.65 227.16 197.03 227.29C192.22 228.26 187.74 230.08 183.52 232.53C182.58 233.08 181.74 233.6 180.56 233.56C176.03 233.42 171.48 233.67 166.97 232.94C167.23 232.42 167.61 232.05 168.17 231.86C169.45 232.22 169.75 231.56 169.72 230.44C169.68 228.81 169.62 227.18 169.74 225.56C169.85 224.05 169.06 223.46 167.78 223.17C171.51 222.19 175.36 221.99 179.16 221.58C186.26 220.82 193.19 219.22 200.12 217.68C201.41 217.39 203.29 217.14 203.42 215.07C204.57 211.93 204.44 208.86 203 205.84C206.39 204.65 209.91 203.81 213.14 202.17C213.78 201.84 214.67 201.71 214.75 200.9C215.12 197.13 216.8 193.58 216.58 189.71C216.55 189.09 216.66 188.26 215.8 188.24C214.68 188.21 214.95 189.2 214.93 189.86C214.88 191.41 214.88 192.95 214.1 194.32C213.12 192.65 212.15 190.98 211.07 189.14C211.71 189 212.17 188.99 212.55 188.81C213.39 188.42 215.04 188.37 214.72 187.28C214.29 185.81 213.02 186.83 212.01 187.1C207.51 188.27 203.9 191.01 200.45 193.87C196.43 197.2 192.37 200.6 190.39 205.71C186.05 205.86 181.91 207.21 177.62 207.71C174.9 208.05 172.04 207.78 169.65 209.53ZM153.34 210.13L153.29 210.08C152.98 211.17 151.85 211.34 151.14 211.99C150.19 212.86 148.87 213.44 149.03 215.06C147.07 213.43 145.52 211.44 144.09 209.35C143.38 208.31 143.37 207.46 144.46 206.55C146.33 204.98 148.04 203.22 149.88 201.61C150.43 201.13 151.32 200.82 150.67 199.98C149.98 199.08 149.22 199.61 148.62 200.25C146.95 202.04 145.17 203.71 143.24 205.22C141.62 206.49 138.89 207.32 142.28 210.1C144.2 211.67 145.51 214.18 147.43 215.97C148.95 217.39 148.92 216.07 148.96 215C149.47 214.95 150.1 215.07 150.46 214.81C153.01 212.94 155.43 210.89 158.27 209.43C159.08 209.01 158.84 208.18 158.45 207.51C157.14 205.25 155.85 202.97 154.47 200.75C154.06 200.09 153.56 199.19 152.62 199.4C151.59 199.63 152.35 200.66 152.06 201.25C151.66 202.06 151.21 202.84 150.73 203.6C148.71 206.81 149.58 209.03 153.34 210.13ZM134.17 174.81C138.34 175.56 142.6 175.43 146.79 175.58C166.24 176.26 185.66 175.36 205.04 173.58C206.52 173.44 208.11 173.46 209.4 172.47C209.59 172.49 209.78 172.51 209.97 172.53C210.55 173.28 211.25 173 211.47 172.38C213.22 167.48 216.81 163.63 219.09 159.05C220.89 155.44 222.63 151.79 224.41 148.16C229.36 138.07 232.64 127.45 234.59 116.39C234.96 114.29 234.53 113.63 232.2 113.62C208.42 113.57 184.63 113.84 160.86 113.13C160.04 113.11 159.23 113.13 158.41 113.12C157.31 113.12 156.97 113.69 157.2 114.7C157.1 115.05 157.01 115.4 156.91 115.75C156.24 115.78 155.57 115.81 154.89 115.85C153.93 114.96 153.22 115.64 152.59 116.28C149.8 119.12 146.98 121.94 144.28 124.87C137.64 132.08 133.2 140.9 127.1 148.51C121.98 154.91 118.04 161.95 114.89 169.46C114.5 170.39 113.52 171.58 114.72 172.38C116.32 173.45 117.84 174.76 120.04 174.73C124.76 174.65 129.47 174.77 134.17 174.81ZM267.83 185.48C267.61 184.87 268.37 183.63 267.26 183.04C266.23 182.49 265.68 183.67 264.98 184.12C258.4 188.41 251.85 192.74 245.27 197.03C244.87 197.29 244.32 197.53 244.44 197.97C245.3 201.01 244.95 204.25 246 207.25C246.28 208.04 247.13 208.32 247.34 207.59C247.91 205.62 249.74 205.22 251.06 204.35C255.57 201.37 259.82 197.89 264.91 195.92C266.47 195.32 267.02 194.43 267.18 193.08C267.46 190.66 267.6 188.22 267.83 185.48ZM228.01 174.69C228.62 174.38 229.96 175.26 230.24 173.79C230.35 173.18 229.57 172.99 229.03 173.06C227.05 173.33 225.96 172.77 226.35 170.52C226.45 169.93 226.07 169.43 225.45 169.46C224.96 169.48 224.82 169.96 224.72 170.44C224.06 173.47 224.87 174.6 228.01 174.69Z" fill="#EBE8E9"/>
<path d="M191.79 245.73C193.05 245.46 194.31 245.2 195.57 244.93C197.77 245.23 199.7 243.96 201.84 243.88C201.55 244.74 200.96 245.32 200.11 245.64C199.2 245.46 198.55 245.95 198.62 246.75C198.91 249.91 199.36 253.19 201.79 255.42C206.63 259.88 212.65 260.97 218.95 260.17C234.84 258.15 247.91 241.66 246.62 225.52C246.55 224.68 246.57 223.84 245.45 223.71C245.42 223.15 245.39 222.59 245.37 222.03C245.56 220.94 246.48 220.44 247.18 219.74C248.88 218.06 251.33 217.79 253.2 216.32C259.15 211.65 265.51 207.55 271.28 202.61C275.26 199.2 279.52 196.12 283.76 193.04C285.8 191.56 287.54 189.58 290.08 188.62C290.34 189.94 288.6 191.23 290.43 192.13C297.14 195.43 302.93 194.62 307.72 189.17C313.01 183.16 316.35 176.1 317.48 168.1C324.12 169.02 330.64 170.49 337.18 171.93C338.92 172.31 338.93 172.84 337.73 173.95C323.29 187.32 308.87 200.71 294.44 214.08C284.8 223.02 275.14 231.94 265.49 240.86C253.84 251.63 242.14 262.34 230.56 273.2C228.37 275.26 226.17 273.91 224.17 273.65C207.05 271.47 189.97 269.06 172.88 266.67C156.43 264.37 139.99 262 123.54 259.71C109.94 257.82 96.3201 256.03 82.7201 254.17C81.8401 254.05 80.9801 253.74 79.8301 253.44C81.2601 251.55 83.3301 250.98 84.9601 249.83C87.6701 247.92 90.9001 246.8 93.3301 244.45C97.3301 243.96 95.9701 247.42 96.4301 249.14C96.8101 250.56 97.2101 251.4 98.5301 251.82C103 253.26 107.62 253.96 112.28 254.22C113.98 254.31 115.49 253.7 115.62 251.58C115.71 251.44 115.74 251.28 115.7 251.12C116.9 251.18 117.37 250.73 117.01 249.48C116.45 247.57 117.44 246.99 119.17 247.16C120.79 247.32 122.4 247.65 124.02 247.67C135.25 247.81 146.47 248.31 157.69 248.68C168.1 249.02 178.49 248.2 188.84 247.15C189.96 247.05 191.28 247.17 191.79 245.73Z" fill="#B2B1B9"/>
<path d="M201.83 243.88C199.7 243.97 197.76 245.23 195.56 244.93C194.91 243.76 195.4 243.48 196.58 243.24C199.79 242.6 203.04 241.96 205.74 239.91C206.3 239.48 206.81 238.99 207.35 238.53C209.94 237.29 211.94 235.71 210.94 232.38C212.22 227.14 212.23 221.5 215 216.73C218.24 211.17 221.35 205.17 228.73 204.07C234.33 203.23 239.12 204.83 242.51 209.56C244.3 212.05 245.34 214.95 246.17 217.61C252.71 214.18 259.17 210.29 264.96 205.44C272.79 198.89 281.05 192.91 289.16 186.73C291.03 185.3 291.71 183.12 290.97 181.24C289.51 177.55 288.85 173.83 289.17 169.3C285.99 171.54 283.22 173.46 280.47 175.42C277.82 177.31 275.19 179.22 272.57 181.15C271.98 181.59 271.3 182.25 270.71 181.54C269.99 180.67 270.84 180.15 271.53 179.66C277.11 175.66 282.65 171.61 288.26 167.65C289.38 166.86 289.94 165.95 290.18 164.61C291.14 159.03 294.4 154.5 297.41 149.94C299.5 146.78 305.24 145.53 308.71 147.03C310.1 147.63 311.42 148.4 313.07 148.91C309.95 145.29 307.92 141 305.45 136.99C305.45 136.69 305.44 136.39 305.44 136.1C306.05 135.49 306.61 135.26 307.13 136.22C309.29 140.24 311.68 144.1 314.57 147.65C315.11 148.31 315.55 149.19 315.06 150.15C314.48 150.81 313.91 151.46 313.33 152.12C307.59 147.12 302.73 147.02 298.86 151.78C296.38 154.35 294.91 157.51 293.31 160.85C294.77 161.19 296.05 160.79 297.06 161.55C297.92 162.19 299.91 162.32 299.18 163.77C298.53 165.07 297.36 163.56 296.45 163.23C295.82 163 295.08 162.2 294.69 163.29C294.43 164.04 294.83 164.94 295.71 165.21C296.2 165.36 297.01 164.59 297.18 165.68C297.3 166.41 296.74 166.82 296.21 167.18C295.43 167.7 294.76 167.29 294.27 166.78C293.3 165.78 293.01 164.43 292.62 162.99C291.03 167.63 290.03 172.16 291.34 176.89C291.51 177.49 291.92 178.71 292.17 178.48C293.8 177.02 294.25 178.93 294.98 179.44C299.13 182.34 303.51 181.65 306.7 177.77C310.85 172.71 312.32 166.9 311.9 160.56C311.74 158.13 311.64 155.63 309.41 153.7C307.25 151.83 304.96 151.05 302.22 151.18C302.06 149.97 302.7 149.72 303.79 149.59C306.13 149.31 308.16 150.09 309.68 151.65C311.27 153.29 312.89 153.71 314.94 152.96C315.25 153.65 315.55 154.33 315.86 155.02C316.04 155.78 316.22 156.54 316.4 157.3C316.41 157.58 316.25 157.98 316.8 157.87L316.72 157.95C316.97 161.34 317.23 164.72 317.48 168.11C316.35 176.12 313.01 183.17 307.72 189.18C302.92 194.63 297.14 195.44 290.43 192.14C288.6 191.24 290.34 189.95 290.08 188.63C287.54 189.59 285.8 191.57 283.76 193.05C279.52 196.13 275.25 199.21 271.28 202.62C265.52 207.56 259.15 211.66 253.2 216.33C251.33 217.8 248.88 218.08 247.18 219.75C246.48 220.44 245.56 220.95 245.37 222.04C244.21 222.76 242.88 222.2 243.5 221.16C245.52 217.78 243.55 215.19 242.25 212.55C238.57 205.06 228.96 203.27 223.22 208.61C220.09 211.52 217.08 215 215.91 219.51C214.94 223.24 213.62 226.89 213.52 230.82C214.12 230.08 214.5 229.27 214.9 228.48C217.5 223.36 220.37 218.45 225.09 214.94C225.57 214.59 226.03 213.71 226.62 214.23C227.22 214.75 226.96 215.56 226.29 216.1C220.53 220.64 217.44 227.02 214.44 233.43C213.56 235.3 211.97 236.8 213.09 239.54C213.87 241.45 213.91 243.92 214.36 246.12L214.4 246.08C213.44 246.37 214.4 247.99 212.95 248.05C212.47 245.57 211.59 243.19 211.63 240.64C211.65 239.22 211.16 238.67 209.93 239.63C207.46 241.52 204.53 242.47 201.83 243.88ZM291.78 187.19C291.11 187.67 289.92 187.94 290.6 189.12C291.23 190.23 291.88 189.6 292.43 188.92C293.75 188.15 295.06 187.36 296.4 186.62C296.85 186.37 297.4 185.99 297.86 186.59C298.35 187.23 297.74 187.6 297.37 187.9C296.53 188.58 295.62 189.19 294.74 189.82C294.25 190.18 293.42 190.32 293.51 191.1C293.62 191.97 294.49 192.05 295.16 192.27C298.96 193.49 301.86 191.51 304.57 189.37C308.73 186.07 311.46 181.65 313.3 176.76C315.67 170.45 316.93 163.99 314.15 157.09C314.15 158.38 314.19 159.38 314.14 160.38C313.84 166.59 312.64 172.42 308.94 177.75C305.44 182.78 299.65 184.69 294.39 181.2C294 180.94 293.51 180.44 292.86 181.17C293.71 183.31 292.77 185.26 291.78 187.19Z" fill="#353149"/>
<path d="M190.32 86.4102C190.55 87.2702 190.51 87.9802 189.55 88.4302C183.47 91.2802 178.27 95.5802 172.42 98.7902C160.07 105.57 149.44 114.6 140.02 124.85C131.09 134.57 123.64 145.55 116.63 156.78C114.91 159.53 113.14 162.27 111.65 165.15C110.6 167.19 109.35 169.27 109.84 171.79C109.99 172.54 109.73 173.45 108.86 173.42C108.02 173.39 107.9 172.49 107.9 171.72C107.91 170.07 108.29 168.51 108.87 166.97C109.83 164.42 111.22 162.1 112.59 159.76C112.98 159.09 113.88 158.42 113.32 157.6C112.9 156.98 111.96 157.28 111.27 157.33C108.82 157.5 106.53 158.38 104.19 159.02C103.15 159.3 102.87 160.29 102.7 161.11C102.23 163.4 102.03 165.75 101.52 168.02C100.75 171.45 102.31 173.78 104.8 175.77C102.52 176.51 100.05 174.72 99.8899 172.09C99.6299 168.09 100.16 164.16 101.06 160.27C101.43 158.7 102.39 157.73 103.88 157.3C106.9 156.42 109.89 155.23 113.11 155.62C114.83 155.82 115.65 155.01 116.52 153.67C123.13 143.39 129.99 133.22 138.24 124.23C147.73 113.88 158.27 104.62 170.74 97.7902C175.24 95.3202 179.41 92.2402 183.77 89.5202C185.83 88.2202 187.83 86.7802 190.32 86.4102Z" fill="#37334B"/>
<path d="M115.62 251.59C115.49 253.71 113.98 254.32 112.28 254.23C107.61 253.97 103 253.27 98.5301 251.83C97.2101 251.4 96.8101 250.57 96.4301 249.15C95.9701 247.43 97.3301 243.97 93.3301 244.46C92.0701 243.43 89.3801 244.5 89.3101 241.73C89.6001 241.55 90.0301 241.13 90.1701 241.22C94.0801 243.58 98.6001 243.21 102.83 243.81C122.17 246.52 141.68 246.4 161.15 246.74C170.84 246.91 180.52 246.57 190.12 245.07C190.85 244.96 191.34 245.24 191.79 245.74C191.28 247.18 189.96 247.06 188.85 247.17C178.49 248.22 168.11 249.04 157.7 248.7C146.48 248.33 135.26 247.83 124.03 247.69C122.41 247.67 120.8 247.34 119.18 247.18C117.46 247.01 116.47 247.59 117.02 249.5C117.38 250.75 116.91 251.2 115.71 251.14C114.89 249.54 115.74 246.76 112.73 246.73C108.29 246.68 103.95 245.88 99.6101 245.09C98.0201 244.8 97.4701 245.5 97.9301 247.12C98.5401 249.25 99.4101 250.79 102 251.07C106.53 251.54 110.98 253.6 115.62 251.59Z" fill="#37334B"/>
<path d="M283.51 86.5802C260.04 80.9302 236.17 83.6302 212.45 83.2602C206.73 83.1702 201.02 84.5401 195.35 85.6201C194.27 85.8201 193.23 86.1102 192.19 85.5302C192.16 84.5602 192.56 84.2102 193.6 84.0002C206.64 81.3802 219.83 81.1702 233.06 81.3902C240.96 81.5202 248.87 81.4801 256.77 81.4201C265.96 81.3401 274.9 83.0801 283.85 84.8501C284.53 84.9801 285.79 85.0901 285.55 86.1701C285.31 87.3301 284.27 86.7102 283.51 86.5802Z" fill="#353149"/>
<path d="M105.21 175.78C105.52 174.67 106.31 174.18 107.2 174.89C107.96 175.49 108.38 176.44 107.56 177.49C103 183.3 100.43 190.2 97.1502 196.71C93.7802 203.38 91.0402 210.31 89.3602 217.6C88.4602 221.48 88.3902 225.48 88.4202 229.47C88.4502 233.37 88.4002 237.27 88.3902 241.18C86.7402 241.99 86.8502 240.82 86.7802 239.78C85.7702 224.91 87.7702 210.64 94.8802 197.3C98.3002 190.88 100.82 183.99 105.03 177.98C105.54 177.24 105.84 176.57 105.21 175.78Z" fill="#37334B"/>
<path d="M316.39 157.28C316.21 156.52 316.03 155.76 315.85 155C321.26 154.74 326.67 154.51 332.08 154.21C333.14 154.15 334.05 154.38 334.89 154.97C337.9 157.1 340.66 159.54 343.85 162.43C340.28 162.31 337.45 161.24 334.55 160.72C329.49 159.8 324.45 158.75 319.39 157.8C318.52 157.64 317.59 157.52 316.72 157.94L316.8 157.86C316.88 157.51 316.69 157.36 316.39 157.28Z" fill="#B2B1B9"/>
<path d="M305.42 136.08C305.42 136.38 305.43 136.68 305.43 136.97C304.2 136.9 303.51 136.66 303.1 135.08C300.86 126.5 299.76 117.66 297.26 109.14C295.08 101.71 292.06 94.8002 285.99 89.6102C285.8 89.4502 285.9 88.9402 285.87 88.5902C287.29 87.6402 287.99 88.8002 288.76 89.6202C294.22 95.4002 297.43 102.42 299.33 110C301.39 118.25 303.04 126.6 304.86 134.91C304.97 135.37 304.98 135.82 305.42 136.08Z" fill="#37334B"/>
<path d="M314.93 152.95C312.88 153.7 311.26 153.27 309.67 151.64C308.15 150.08 306.13 149.3 303.78 149.58C302.69 149.71 302.05 149.96 302.21 151.17C301.09 151.37 299.97 151.57 298.85 151.78C302.73 147.02 307.58 147.12 313.32 152.12C313.89 151.46 314.47 150.81 315.05 150.15C314.78 151.06 314.04 151.97 314.93 152.95Z" fill="#605C6B"/>
<path d="M135.46 272.24C133.93 272.35 132.38 274.22 130.88 272.33C130.74 272.15 130.65 271.65 130.7 271.63C132.37 270.83 133.85 272.02 135.46 272.24Z" fill="#C9CBC5"/>
<path d="M209.97 172.52C209.78 172.5 209.59 172.48 209.4 172.46C208.87 171.06 207.7 171.31 206.65 171.46C199.78 172.41 192.84 173.12 185.97 173.37C175.49 173.74 165 174.6 154.49 174.15C150.99 174 147.45 174.75 143.99 173.7C136.67 173.54 129.36 172.84 122.02 173.03C121.3 173.05 120.56 173.09 119.85 173C117.15 172.66 116.12 170.86 117.25 168.44C118.36 166.07 119.46 163.7 120.69 161.39C121 160.81 121.01 159.62 122.25 159.94C122.21 161.03 122.47 161.63 123.81 161.35C125.45 161 127.14 160.86 128.81 160.63C128.54 162.79 126.35 164.22 126.59 166.58C126.69 167.58 126.48 168.62 128.01 168.67C130.35 168.76 132.65 169.24 135.03 169.23C151.37 169.16 167.73 168.89 184.06 169.35C190.02 169.52 193.96 168.27 195.54 162.23C195.65 161.8 195.92 161.4 196.19 161.04C197.44 159.39 196.84 158.84 194.99 158.86C191.45 158.88 187.91 158.84 184.37 158.83C184.37 158.3 184.36 157.78 184.36 157.25C188.97 157.29 193.58 157.33 198.19 157.37C197.34 158.47 197.21 159.3 198.97 159.4C200.11 159.46 201.26 159.53 202.4 159.6C201.89 162.44 199.72 164.48 198.79 167.11C198.59 167.69 197.93 168.27 198.36 168.85C198.84 169.49 199.71 169.25 200.4 169.16C201.65 169 202.18 168.09 202.48 166.96C203.15 164.45 203.86 161.95 204.55 159.45C205.65 157.83 204.28 157.95 203.37 157.81C201.77 157.56 200.1 158.14 198.55 157.38C199.83 155.01 200.43 152.22 202.82 150.54C206.74 151.24 209.71 153.45 212.21 156.43C212.68 157 213.1 158.24 214.01 157.62C215.08 156.89 214.04 155.98 213.57 155.33C211.04 151.86 207.39 150.02 203.45 148.64C204.39 146.94 205.32 145.24 206.26 143.54C206.44 143.54 206.63 143.54 206.81 143.54C209.18 144.27 211.21 145.52 212.99 147.28C215.33 149.58 216.54 152.4 217.44 155.49C218.12 157.82 218.01 158.27 215.56 158.3C213.66 158.32 211.75 158.29 209.85 158.31C209.08 158.32 207.96 158.11 208.01 159.29C208.05 160.36 209.11 159.94 209.76 159.95C211.9 159.99 214.05 159.96 216.45 159.96C215.86 161.76 214.64 162.76 213.83 164.01C212.11 166.66 210.54 169.36 209.97 172.52Z" fill="#A0A5A9"/>
<path d="M197.91 229.08C197.94 229.47 197.98 229.86 198.01 230.25C195.05 233.03 192.01 235.73 189.17 238.64C188.17 239.66 187.21 240.06 185.87 240.05C181.24 240.03 176.61 239.97 171.99 240.1C159.39 240.47 146.86 239.4 134.32 238.46C127.82 237.97 121.29 238.65 114.76 238.02C111.88 237.74 109.17 236.31 106.23 236.78C103.83 237.16 102.66 236.1 101.87 233.9C101.42 232.65 101.4 230.59 99.1099 230.82C97.8399 229.44 97.79 228.43 99.94 228.09C102.57 228.25 105.09 228.91 107.53 229.89C112.39 231.83 117.21 233.9 122.58 234.01C141.42 234.4 160.26 234.79 179.1 235.21C181.34 235.26 183.3 234.64 185.27 233.57C189.22 231.41 193.33 229.53 197.91 229.08Z" fill="#A0A5A9"/>
<path d="M98.7799 215.08C98.7799 211.81 98.6599 208.54 98.8399 205.28C98.9199 203.81 98.6899 201.88 100.88 201.38C102.87 202.57 102.93 201.12 103.07 199.78C105.24 199.77 106.34 200.88 106.45 203.02C107.21 204.98 109.2 204.87 110.66 205.1C116.81 206.07 122.8 207.34 128.24 210.61C129.4 211.31 129.87 211.89 129.91 213.24C129.97 215.26 129.26 217.38 130.48 219.3C130.12 219.45 129.76 219.61 129.39 219.76C125.96 220.29 122.59 219.23 119.16 219.36C114.2 219.55 109.38 218.23 104.52 217.47C102.78 217.2 100.74 217.1 99.3399 215.62C99.1499 215.41 98.9499 215.21 98.7599 215L98.7799 215.08Z" fill="#A0A5A9"/>
<path d="M168.13 231.87C167.57 232.05 167.19 232.43 166.93 232.95C155.84 233.36 144.77 232.44 133.69 232.36C133 231.12 131.73 231.44 130.65 231.23C130.38 228.74 130.1 226.24 129.83 223.75C130.88 223.12 132.25 223.15 133.14 222.19C137.23 222.01 137.41 222.17 137.49 226.22C137.51 227.22 137.5 228.22 137.52 229.21C137.53 229.9 137.8 230.61 138.49 230.65C139.46 230.7 139.19 229.82 139.2 229.24C139.21 228.51 139.14 227.79 139.15 227.06C139.22 221.23 138.58 222.1 144 222.26C151.94 222.5 159.87 222.85 167.81 223.15C167.92 226.05 168.02 228.96 168.13 231.87Z" fill="#ECFAFC"/>
<path d="M169.61 220.9C169.14 219.85 167.45 219.93 167.41 218.49C168.39 218.08 168.4 217.21 168.64 216.32C169.17 214.27 168.65 212.06 169.66 210.11C169.88 210.62 170.35 210.73 170.78 210.61C174.25 209.6 177.91 209.68 181.4 208.9C184.39 208.23 187.6 208.38 190.36 206.76C192.53 207.29 194.67 207.74 196.94 207.1C198.91 206.55 200.96 206.26 202.97 205.86C204.41 208.88 204.54 211.96 203.39 215.09C199.75 215.92 196.1 216.73 192.46 217.57C184.94 219.3 177.29 220.19 169.61 220.9Z" fill="#A0A5A9"/>
<path d="M209.97 172.52C210.54 169.36 212.11 166.66 213.83 164.02C214.65 162.77 215.87 161.77 216.45 159.97C214.05 159.97 211.9 159.99 209.76 159.96C209.11 159.95 208.05 160.37 208.01 159.3C207.96 158.12 209.08 158.33 209.85 158.32C211.75 158.29 213.66 158.33 215.56 158.31C218 158.28 218.11 157.83 217.44 155.5C216.54 152.4 215.33 149.59 212.99 147.29C211.21 145.54 209.18 144.29 206.81 143.55C206.79 143.08 206.77 142.61 206.75 142.14C208.24 141.71 209.36 142.63 210.52 143.27C214.88 145.68 217.65 149.37 219.03 154.45C226 142.62 229.95 130.04 232.8 117.05C232.97 116.29 233.21 115.46 231.75 115.52C228.5 115.65 225.24 115.04 221.98 115.47C219.43 115.31 216.88 115.25 214.33 115.53C206.15 115.38 197.98 115.23 189.8 115.09C189.29 114.54 188.77 114.53 188.24 115.08C187.84 115.07 187.45 115.06 187.05 115.04C185.83 114.45 184.6 114.53 183.37 114.99C178.08 115.12 172.78 115.25 167.49 115.38C164.63 114.91 161.75 114.83 158.86 114.82C158.3 114.78 157.75 114.74 157.19 114.71C156.96 113.7 157.3 113.12 158.4 113.13C159.22 113.13 160.03 113.11 160.85 113.14C184.63 113.85 208.41 113.58 232.19 113.63C234.52 113.64 234.95 114.3 234.58 116.4C232.63 127.46 229.35 138.08 224.4 148.17C222.62 151.8 220.88 155.44 219.08 159.06C216.79 163.64 213.21 167.48 211.46 172.39C211.25 172.99 210.55 173.27 209.97 172.52Z" fill="#37334B"/>
<path d="M227.38 164.02C225.39 163.73 226.17 165.59 224.99 166.51C227.81 166.51 230.08 166.37 232.32 166.57C233.56 166.68 234.03 165.92 234.4 165.23C236.49 161.42 240.28 160.88 243.9 160.59C248.23 160.25 252.6 160.64 256.96 160.54C258.25 160.51 258.94 161.02 259.66 161.9C262.43 165.33 263.42 169.24 262.92 173.57C262.62 176.23 260.72 177.95 257.3 178.46C251 179.41 244.67 179.65 238.32 179.03C236.86 178.89 235.47 178.45 234.71 176.98C234.49 176.56 234.34 176.13 234.67 175.72C235.05 175.24 235.58 175.41 235.84 175.75C237.43 177.85 239.73 177.42 241.85 177.43C247.18 177.45 252.53 177.77 257.79 176.45C259.22 176.09 260.5 175.83 259.84 173.9C259.36 172.51 261.29 172.69 261.32 171.37C261.42 167.85 259.8 165.13 257.84 162.49C257.53 162.07 257.11 161.99 256.64 162.04C251.68 162.52 246.67 161.6 241.72 162.67C238.84 163.29 236.58 164.63 235.1 167.24C234.29 168.67 235.31 170.24 234.59 171.7C234.24 172.4 234.34 173.53 233.28 173.36C232.21 173.18 232.85 172.17 232.88 171.54C233.07 168.13 233.09 168.13 229.69 168.15C228.51 168.16 227.33 168.15 226.15 168.22C223.57 168.37 222.8 167.08 223.96 164.56C229.4 152.7 234.9 140.87 240.22 128.96C241.72 125.61 242.69 122.03 243.9 118.55C244.31 118.55 244.71 118.54 245.12 118.54C245.39 120.45 244.56 122.16 244.13 123.95C240.82 133.51 235.66 142.25 231.87 151.59C230.35 155.34 228.35 158.92 227.43 162.9C227.43 163.26 227.4 163.64 227.38 164.02Z" fill="#37334B"/>
<path d="M169.61 220.9C177.29 220.19 184.94 219.3 192.47 217.56C196.11 216.72 199.75 215.91 203.4 215.08C203.27 217.15 201.39 217.4 200.1 217.69C193.16 219.23 186.23 220.83 179.14 221.59C175.33 222 171.49 222.2 167.76 223.18L167.83 223.14C159.89 222.84 151.96 222.49 144.02 222.25C138.6 222.09 139.23 221.22 139.17 227.05C139.16 227.78 139.23 228.5 139.22 229.23C139.21 229.81 139.48 230.69 138.51 230.64C137.82 230.6 137.55 229.89 137.54 229.2C137.52 228.2 137.53 227.2 137.51 226.21C137.43 222.17 137.26 222.01 133.16 222.18C127.33 221.18 121.37 221.78 115.58 220.89C110.54 220.12 105.31 220.28 100.47 218.28C99.5402 217.89 98.6802 217.45 97.9202 216.79C97.4902 216.42 97.0402 215.98 97.3202 215.42C97.6102 214.85 98.2602 215.03 98.7902 215.08L98.7602 215.01C98.9502 215.22 99.1502 215.42 99.3402 215.63C100.75 217.11 102.78 217.21 104.52 217.48C109.38 218.24 114.2 219.55 119.16 219.37C122.59 219.24 125.96 220.31 129.39 219.77C142.77 220.93 156.21 220.37 169.61 220.9Z" fill="#353149"/>
<path d="M154.89 115.84C155.56 115.81 156.23 115.78 156.91 115.74C157.01 119.19 157.11 122.63 157.22 126.08C157.07 126.63 156.92 127.18 156.77 127.73C155.65 127.72 155.28 128.67 154.8 129.37C151.22 134.52 147.62 139.67 144.15 144.89C142.98 146.65 141.13 148.02 140.8 150.3C138.27 153.01 134.12 154.01 132.75 158C132.57 158.53 131.61 158.22 131 158.22C131.37 156.5 132.25 155.02 133.22 153.6C138.39 146.06 143.61 138.56 148.75 131.01C151.47 127.01 153.34 122.65 153.74 117.76C154.21 117.18 155.03 116.8 154.89 115.84Z" fill="#B4B7B6"/>
<path d="M99.1099 230.81C101.4 230.58 101.42 232.64 101.87 233.89C102.66 236.09 103.83 237.16 106.23 236.77C109.17 236.3 111.88 237.73 114.76 238.01C121.29 238.64 127.82 237.96 134.32 238.45C146.86 239.4 159.39 240.47 171.99 240.09C176.61 239.95 181.24 240.02 185.87 240.04C187.21 240.05 188.17 239.65 189.17 238.63C192 235.73 195.05 233.02 198.01 230.24C198.5 230.19 199.04 229.56 199.47 230.18C199.87 230.75 199.77 231.37 199.18 231.87C195.93 234.62 192.86 237.52 190.18 240.86C189.55 241.64 187.9 241.73 186.61 241.73C175.54 241.71 164.44 242.2 153.41 241.57C141.4 240.89 129.42 239.79 117.36 239.98C112.68 240.05 108.16 238.06 103.4 238.41C102.36 238.49 101.78 237.63 101.37 236.83C100.39 234.92 99.3799 233 99.1099 230.81Z" fill="#353149"/>
<path d="M133.69 232.35C144.77 232.43 155.84 233.35 166.93 232.94C171.44 233.67 175.99 233.42 180.52 233.56C181.7 233.6 182.54 233.08 183.48 232.53C187.7 230.08 192.19 228.26 196.99 227.29C197.61 227.17 198.3 226.79 198.68 227.54C199.05 228.28 198.33 228.64 197.9 229.08C193.32 229.54 189.21 231.41 185.25 233.57C183.28 234.64 181.32 235.26 179.08 235.21C160.24 234.79 141.4 234.41 122.56 234.01C117.2 233.9 112.37 231.83 107.51 229.89C105.07 228.91 102.56 228.25 99.9199 228.09C99.7699 226.46 100.42 225.98 102.01 226.47C104.32 227.18 106.72 227.57 108.95 228.59C116.84 232.17 125.21 232.64 133.69 232.35Z" fill="#37334B"/>
<path d="M130.47 219.3C129.25 217.38 129.96 215.26 129.9 213.24C129.86 211.89 129.39 211.3 128.23 210.61C122.79 207.34 116.8 206.07 110.65 205.1C109.2 204.87 107.2 204.98 106.44 203.02C107.16 202.54 107.81 202.5 108.69 202.84C109.78 203.27 111.55 204.33 112.1 202.99C113.16 200.39 113.52 197.5 114.15 194.73C114.16 194.68 114.02 194.61 113.97 194.54C112.37 192.55 110.18 192.63 107.81 194.79C107.22 195.33 106.54 196.5 106.14 196.4C102.85 195.59 103.76 198.38 103.06 199.78C102.91 201.12 102.85 202.57 100.87 201.38C101.9 196.7 103.35 192.32 107.69 189.46C109.02 188.58 109.92 188.9 110.82 189.63C115.53 193.46 120.01 197.55 124.18 201.96C125.19 203.03 126.08 204.46 125.11 206.12C124.58 207.04 125.36 207.21 125.89 207.45C127.5 208.17 128.85 209.54 130.79 209.49C131.43 209.47 131.96 209.8 131.94 210.39C131.84 213.15 131.67 215.91 131.48 218.66C131.45 219.22 130.96 219.32 130.47 219.3ZM116.66 197.26C116.44 197.18 116.22 197.09 116 197.01C114.61 198.79 114.41 200.99 114.06 203.14C113.91 204.06 114.59 204.04 115.25 204.16C117.69 204.61 120.18 204.79 122.46 205.81C123.74 201.57 120.06 200.68 118.25 198.37C117.67 199.58 117.22 200.45 116.84 201.35C116.54 202.07 116.45 203.28 115.39 202.81C114.51 202.42 115.06 201.34 115.31 200.61C115.71 199.47 116.21 198.38 116.66 197.26Z" fill="#37334B"/>
<path d="M154.89 115.84C155.03 116.8 154.21 117.18 153.73 117.77C140.92 129.19 132.84 144.29 122.73 157.8C122.31 158.37 121.58 159.07 122.22 159.98L122.25 159.94C121 159.62 121 160.81 120.69 161.39C119.46 163.7 118.36 166.07 117.25 168.44C116.12 170.85 117.15 172.65 119.85 173C120.56 173.09 121.3 173.05 122.02 173.03C129.36 172.84 136.66 173.54 143.99 173.7C142.21 174.58 140.31 173.89 138.49 174.15C137.05 174.35 135.44 173.5 134.18 174.82C129.47 174.78 124.76 174.66 120.06 174.73C117.85 174.76 116.34 173.46 114.74 172.38C113.54 171.57 114.52 170.38 114.91 169.46C118.06 161.95 122 154.91 127.12 148.51C133.21 140.91 137.66 132.09 144.3 124.87C147 121.94 149.82 119.12 152.61 116.28C153.22 115.63 153.94 114.95 154.89 115.84Z" fill="#353149"/>
<path d="M202.97 205.85C200.96 206.25 198.91 206.54 196.94 207.09C194.67 207.73 192.53 207.27 190.36 206.75C190.36 206.41 190.37 206.06 190.37 205.72C192.35 200.61 196.41 197.22 200.43 193.88C203.88 191.02 207.49 188.28 211.99 187.11C212.99 186.85 214.27 185.82 214.7 187.29C215.02 188.38 213.37 188.43 212.53 188.82C212.15 189 211.69 189.01 211.05 189.15C212.12 190.99 213.1 192.66 214.08 194.33C214.86 192.97 214.86 191.42 214.91 189.87C214.93 189.2 214.66 188.22 215.78 188.25C216.65 188.27 216.53 189.1 216.56 189.72C216.78 193.58 215.1 197.13 214.73 200.91C214.65 201.71 213.76 201.85 213.12 202.18C209.88 203.82 206.37 204.67 202.97 205.85ZM213.21 198.46C212.83 195.88 211.92 193.48 210.34 191.32C209.54 190.22 208.85 190.1 207.66 190.82C205.1 192.37 202.82 194.28 200.47 196.09C199.3 196.99 199.42 198.06 200.14 199.18C203.25 204.1 203.25 204.1 208.79 202.06C209.8 201.69 210.77 201.22 211.79 200.87C212.94 200.47 213.13 199.53 213.21 198.46ZM197.73 198.78C195.67 200.2 196.12 201.51 197.76 202.88C198.17 203.22 198.84 203.81 198.07 204.43C197.56 204.84 197.07 204.48 196.67 204.07C196.35 203.75 196.04 203.41 195.68 203.15C195.25 202.84 194.94 201.9 194.2 202.68C193.65 203.26 192.95 203.85 193.1 204.75C193.26 205.72 194.18 205.66 194.84 205.57C196.7 205.33 198.54 204.95 200.39 204.63C201.56 204.43 201.34 203.75 200.87 203.08C199.85 201.64 198.78 200.21 197.73 198.78Z" fill="#37334B"/>
<path d="M288.52 129.92C286.59 133.15 283.84 135.26 280.1 135.98C279.37 135.33 278.69 134.82 277.64 135.56C276.77 136.17 275.67 136.47 274.76 137.03C273.1 138.06 272.5 137.15 272.21 135.71C272.09 135.1 272.13 134.45 272.09 133.82C272.13 133.44 272.17 133.05 272.22 132.67C273.08 132.8 273.83 132.45 274.53 132.05C280.17 128.84 285.77 125.56 291.44 122.43C293.54 121.27 293.66 119.65 293.25 117.64C292.96 116.24 292.09 114.7 293.85 113.58C294.22 116.98 294.65 120.38 294.93 123.79C295.05 125.24 294.63 126.26 292.94 127.02C291.41 127.73 288.95 127.45 288.52 129.92Z" fill="#A0A5A9"/>
<path d="M267.83 185.48C267.61 188.22 267.46 190.66 267.19 193.08C267.04 194.43 266.48 195.32 264.92 195.92C259.83 197.89 255.59 201.37 251.07 204.35C249.74 205.23 247.91 205.62 247.35 207.59C247.14 208.32 246.28 208.05 246.01 207.25C244.96 204.25 245.31 201.01 244.45 197.97C244.33 197.54 244.88 197.29 245.28 197.03C251.86 192.74 258.41 188.4 264.99 184.12C265.69 183.66 266.24 182.49 267.27 183.04C268.37 183.64 267.6 184.87 267.83 185.48ZM266.36 185.19C260.14 189.38 254.6 193.25 248.89 196.87C246.74 198.23 246.23 199.84 246.76 202.1C246.94 202.86 247.09 203.63 247.25 204.41C247.46 204.35 247.65 204.33 247.79 204.25C253.46 200.92 258.55 196.64 264.59 193.9C265.23 193.61 265.54 193.06 265.53 192.37C265.51 190.2 265.76 188.06 266.36 185.19Z" fill="#37334B"/>
<path d="M134.17 174.81C135.43 173.49 137.04 174.35 138.48 174.14C140.3 173.88 142.21 174.57 143.98 173.69C147.44 174.74 150.98 173.99 154.48 174.14C164.99 174.59 175.48 173.73 185.96 173.36C192.83 173.12 199.78 172.4 206.64 171.45C207.69 171.3 208.87 171.05 209.39 172.45C208.1 173.44 206.5 173.43 205.03 173.56C185.65 175.34 166.23 176.25 146.78 175.56C142.6 175.43 138.35 175.56 134.17 174.81Z" fill="#3D394F"/>
<path d="M288.52 129.92C288.96 127.45 291.42 127.73 292.93 127.05C294.63 126.29 295.04 125.27 294.92 123.82C294.64 120.41 294.21 117.01 293.84 113.61C293.41 111.93 292.98 110.26 292.55 108.58C291.2 105.34 290.31 101.92 288.57 98.8402C288.09 97.6402 287.46 96.5502 286.33 95.8302C286.06 95.7802 285.77 95.6402 285.54 95.7102C280.52 97.2402 276.23 100.2 271.78 102.82C271.71 102.86 271.8 103.16 271.82 103.34C271.73 103.67 271.63 103.99 271.54 104.32C271.06 104.72 270.57 104.73 270.07 104.34C269.82 103.01 270.14 102.16 271.34 101.17C275.59 97.6602 280.77 96.0502 285.6 93.7102C287.28 92.8902 287.84 94.6002 288.49 95.4902C291.73 99.9202 293.37 105.11 294.9 110.27C296.34 115.14 296.31 120.26 296.69 125.3C296.8 126.73 296.45 127.58 294.83 128.04C292.72 128.62 290.97 130.42 288.52 129.92Z" fill="#3D394F"/>
<path d="M250.36 110.33C247.17 111.04 244.5 112.92 241.54 114.16C241.04 114.37 240.56 114.61 240.1 114.89C239.42 115.3 238.81 115.16 238.49 114.53C237.99 113.53 238.85 113.41 239.52 113.09C244.89 110.55 250.24 107.96 255.61 105.42C263.18 101.85 270.55 97.8999 277.89 93.8799C278.39 93.5999 279.07 92.2199 279.79 93.5599C280.36 94.6099 279.3 94.9399 278.62 95.3099C273.64 98.0099 268.64 100.67 263.68 103.41C262.99 103.79 261.94 103.87 261.78 104.95L261.84 104.9C261.15 104.5 260.83 104.8 260.69 105.48L260.76 105.44C260.22 105.33 259.64 105.15 259.61 106.03L259.67 105.99C258.94 105.68 258.41 105.98 257.96 106.55L258.02 106.52C257.58 106.6 256.97 106.33 256.88 107.1L256.93 107.07C256.41 106.98 255.9 106.9 255.79 107.64L255.83 107.62C253.73 108 251.91 108.93 250.34 110.37L250.36 110.33Z" fill="#3D394F"/>
<path d="M245.14 118.53C244.73 118.53 244.33 118.54 243.92 118.54C244.4 115.23 245.8 112.66 249.29 111.65C249.78 111.51 250.83 111.42 250.35 110.33L250.32 110.37C252.58 110.32 254.25 109.08 255.81 107.62L255.77 107.64C256.47 108.08 256.82 107.83 256.91 107.07L256.86 107.1C257.56 107.53 257.91 107.28 258 106.52L257.94 106.55C258.69 106.91 259.19 106.52 259.65 105.99L259.59 106.03C260.05 105.97 260.56 106.03 260.74 105.44L260.67 105.48C261.12 105.41 261.7 105.6 261.82 104.9L261.76 104.95C266.23 103.83 266.28 103.83 266.19 108.6C266.09 113.91 266.53 119.21 266.06 124.52C265.58 124.52 265.09 124.51 264.61 124.51C264.54 121.06 264.47 117.62 264.41 114.17C264.8 111.53 264.69 108.91 264.38 106.04C260.07 108.33 255.67 109.74 251.98 112.53C248.99 113.71 246.23 115.17 245.14 118.53Z" fill="#3D394F"/>
<path d="M272.08 133.83C272.11 134.46 272.07 135.11 272.2 135.72C272.49 137.17 273.09 138.07 274.75 137.04C275.66 136.47 276.76 136.18 277.63 135.57C278.68 134.83 279.36 135.33 280.09 135.99C279.07 136.51 278.05 137.04 277.03 137.56C272.59 139.78 272.66 139.77 273.37 144.56C274.46 151.89 275 159.27 275.44 166.66C275.48 167.29 275.47 167.93 275.53 168.56C275.61 169.45 276.61 170.81 275.08 170.98C273.92 171.11 273.91 169.48 273.87 168.62C273.56 161.85 272.91 155.1 272.1 148.38C271.63 144.48 271.73 140.5 270.35 136.71C270.05 135.88 270.46 134.79 270.55 133.81C271.06 133.81 271.57 133.82 272.08 133.83Z" fill="#3D394F"/>
<path d="M227.38 164.02C227.4 163.64 227.43 163.26 227.45 162.88C230.19 161.98 232.93 161.07 235.39 159.52C243.63 154.31 252.39 149.98 260.42 144.43C261.18 143.91 261.92 143.41 262.9 143.63L262.86 143.58C263.14 145.26 261.67 145.78 260.73 146.4C251.66 152.35 242.16 157.56 232.73 162.9C231.16 163.77 229.36 164.62 227.38 164.02Z" fill="#353149"/>
<path d="M149.03 215.06C148.87 213.44 150.19 212.86 151.13 211.99C151.84 211.34 152.97 211.17 153.28 210.08C157.27 208.44 157.29 207.68 153.5 203.01C151.35 205.7 151.37 205.69 153.06 208.58C153.31 209.01 153.25 209.61 153.34 210.14C149.58 209.03 148.71 206.82 150.75 203.62C151.23 202.86 151.69 202.07 152.08 201.27C152.37 200.68 151.62 199.65 152.64 199.42C153.58 199.21 154.08 200.11 154.49 200.77C155.87 202.99 157.16 205.26 158.47 207.53C158.86 208.2 159.1 209.03 158.29 209.45C155.44 210.91 153.03 212.96 150.48 214.83C150.12 215.09 149.49 214.97 148.98 215.02L149.03 215.06Z" fill="#3D394F"/>
<path d="M148.98 214.99C148.94 216.06 148.97 217.38 147.45 215.96C145.53 214.17 144.22 211.66 142.3 210.09C138.91 207.32 141.64 206.49 143.26 205.21C145.19 203.69 146.97 202.03 148.64 200.24C149.24 199.6 150 199.07 150.69 199.97C151.34 200.81 150.45 201.12 149.9 201.6C148.06 203.21 146.36 204.97 144.48 206.54C143.39 207.46 143.4 208.3 144.11 209.34C145.53 211.44 147.09 213.42 149.05 215.05C149.03 215.06 148.98 214.99 148.98 214.99Z" fill="#37334B"/>
<path d="M190.37 205.72C190.37 206.06 190.36 206.41 190.36 206.75C187.59 208.36 184.39 208.22 181.4 208.89C177.91 209.67 174.26 209.59 170.78 210.6C170.35 210.72 169.88 210.61 169.66 210.1C169.66 209.91 169.65 209.72 169.65 209.52C172.04 207.77 174.9 208.04 177.61 207.72C181.89 207.22 186.04 205.87 190.37 205.72Z" fill="#353149"/>
<path d="M264.61 124.5C265.09 124.5 265.58 124.51 266.06 124.51C266.49 128.91 265.38 133.25 265.55 137.64C265.07 137.65 264.59 137.65 264.11 137.66C263.34 133.46 264.78 129.31 264.44 125.12C264.49 124.91 264.55 124.7 264.61 124.5Z" fill="#605C6B"/>
<path d="M272.08 133.83C271.57 133.82 271.05 133.81 270.54 133.8C270.39 129.61 270.23 125.42 270.08 121.23C270.56 121.23 271.04 121.23 271.52 121.23C272.81 124.98 271.83 128.87 272.21 132.68C272.17 133.07 272.13 133.45 272.08 133.83Z" fill="#605C6B"/>
<path d="M271.52 121.23C271.04 121.23 270.56 121.23 270.08 121.23C270.09 117.45 270.09 113.66 270.1 109.88C270.63 109.81 271.16 109.74 271.69 109.66C271.74 113.18 271.79 116.7 271.83 120.22C271.73 120.56 271.63 120.9 271.52 121.23Z" fill="#37334B"/>
<path d="M157.22 126.09C157.12 122.64 157.02 119.2 156.91 115.75C157.01 115.4 157.1 115.05 157.2 114.7C157.76 114.74 158.31 114.78 158.87 114.81C158.87 117.51 158.87 120.21 158.88 122.91C158.8 123.61 158.72 124.32 158.63 125.02C157.89 125.02 157.72 125.78 157.22 126.09Z" fill="#605C6B"/>
<path d="M169.65 209.53C169.65 209.72 169.66 209.92 169.66 210.11C168.65 212.06 169.17 214.27 168.64 216.32C168.41 217.22 168.39 218.08 167.41 218.49C166.45 217.9 166.57 217.08 166.76 216.13C167.07 214.55 167.47 212.94 167.41 211.36C167.34 209.47 168.16 209.22 169.65 209.53Z" fill="#37334B"/>
<path d="M167.81 223.14L167.74 223.18C169.01 223.47 169.8 224.06 169.69 225.57C169.57 227.19 169.63 228.82 169.67 230.45C169.7 231.57 169.4 232.23 168.12 231.87C168.02 228.96 167.92 226.05 167.81 223.14Z" fill="#37334B"/>
<path d="M228.01 174.69C224.87 174.6 224.06 173.47 224.71 170.44C224.81 169.96 224.95 169.48 225.44 169.46C226.06 169.44 226.45 169.93 226.34 170.52C225.95 172.76 227.04 173.33 229.02 173.06C229.56 172.98 230.35 173.18 230.23 173.79C229.96 175.26 228.61 174.38 228.01 174.69Z" fill="#37334B"/>
<path d="M129.83 223.74C130.1 226.23 130.38 228.73 130.65 231.22C128.89 230.58 127.32 225.19 128.55 223.83C128.76 223.61 129.4 223.77 129.83 223.74Z" fill="#3D394F"/>
<path d="M210.94 232.37C211.94 235.7 209.95 237.29 207.35 238.52C207.87 236.08 209.19 234.1 210.94 232.37Z" fill="#A0A5A9"/>
<path d="M264.11 137.65C264.59 137.64 265.07 137.64 265.55 137.63C265.61 139.15 265.91 140.7 265.13 142.12C264.66 142.97 264.11 143.86 262.86 143.57L262.9 143.62C263.08 141.94 264.28 140.46 263.87 138.67C263.95 138.34 264.03 137.99 264.11 137.65Z" fill="#37334B"/>
<path d="M271.69 109.67C271.16 109.74 270.63 109.81 270.1 109.89C270.09 108.04 270.08 106.19 270.07 104.34C270.56 104.73 271.05 104.72 271.54 104.32C271.6 105.77 271.65 107.23 271.71 108.68C271.7 109 271.69 109.33 271.69 109.67Z" fill="#7C7C85"/>
<path d="M214.35 246.1C213.9 243.9 213.86 241.43 213.08 239.52C211.96 236.78 213.55 235.28 214.43 233.41C217.43 227 220.52 220.61 226.28 216.08C226.96 215.55 227.21 214.73 226.61 214.21C226.02 213.69 225.55 214.57 225.08 214.92C220.35 218.43 217.48 223.35 214.89 228.46C214.49 229.25 214.11 230.06 213.51 230.8C213.61 226.88 214.93 223.23 215.9 219.49C217.07 214.98 220.08 211.5 223.21 208.59C228.95 203.25 238.56 205.05 242.24 212.53C243.54 215.17 245.51 217.76 243.49 221.14C242.87 222.18 244.21 222.74 245.36 222.02C245.39 222.58 245.42 223.14 245.44 223.7C244.47 225.2 245 226.88 244.89 228.48C244.19 239.14 239.46 247.55 230.72 253.65C225.69 257.16 220.08 258.99 213.89 258.64C211.09 258.48 208.39 257.9 205.55 255.87C207.93 255.87 209.65 255.87 211.37 255.87C211.95 255.87 212.54 255.74 212.6 255.08C212.68 254.35 212.2 253.83 211.49 253.78C210.32 253.7 209.13 253.73 207.96 253.77C201.89 254.01 201.63 253.83 200.32 247.77C200.17 247.07 200.16 246.33 200.09 245.61C200.94 245.29 201.52 244.71 201.82 243.85C204.52 242.44 207.45 241.49 209.9 239.59C211.13 238.63 211.62 239.18 211.6 240.6C211.56 243.15 212.45 245.53 212.92 248.01C214.37 247.95 213.41 246.33 214.37 246.04C214.13 247.18 214.7 247.92 215.52 248.6C219.37 251.81 227.85 251.35 231.71 248.08C238.13 242.63 240.63 235.3 242.1 227.46C242.94 222.98 241.64 218.84 239.11 215.11C237.67 212.99 235.49 211.85 233.08 211.22C232.46 211.06 231.45 210.9 231.32 211.92C231.2 212.81 232.09 212.68 232.67 212.85C235.64 213.72 237.48 215.74 238.98 218.42C242 223.81 239.99 228.96 238.56 234.15C238.14 235.69 237.31 234.69 236.53 234.31C233.97 233.09 232.39 233.6 232.15 235.71C231.89 237.96 233.79 237.92 235.16 238.35C235.87 238.57 237.2 238.37 236.31 239.67C234.86 241.8 233.67 244.19 231.34 245.59C231.27 245.51 231.2 245.44 231.12 245.37C231.66 242.98 232.22 240.6 230.93 238.26C230.55 237.57 230.03 237.01 229.21 237.4C228.33 237.82 228.94 238.36 229.18 238.95C230.11 241.31 230.1 243.58 228.03 246.26C228.03 243.82 228.05 242.06 228.02 240.3C228.01 239.72 228.37 238.84 227.49 238.73C226.53 238.61 226.37 239.49 226.37 240.22C226.36 242.66 226.38 245.11 226.43 247.55C226.44 248.05 226.87 248.71 225.95 248.72C224.61 248.72 223.4 249.26 221.97 249.14C219.01 248.95 216.97 246.88 214.35 246.1ZM229.08 225.72C228.23 224.42 228.98 221.69 226.28 221.61C224.37 221.55 224 223.27 224.25 224.78C224.49 226.22 223.96 228.54 226.28 228.46C227.11 228.43 229.27 228 229.08 225.72ZM223.75 233.57C222.92 233.57 222.36 233.49 221.83 233.59C220.3 233.88 219.06 234.63 218.81 236.28C218.55 237.99 219.46 239.3 220.78 240.19C222.06 241.05 223.54 240.94 224.88 240.2C225.53 239.84 226.07 239.17 225.66 238.39C225.29 237.68 224.76 238.17 224.33 238.49C223.34 239.23 222.27 239.29 221.36 238.5C220.78 238 220.23 237.2 220.69 236.35C221.29 235.24 222.39 235.18 223.52 235.17C224.35 235.16 225.68 235.45 225.53 234.12C225.43 233.1 224.19 233.68 223.75 233.57ZM233.8 226.75C233.65 227.71 232.95 227.46 232.5 227.62C232.1 227.77 231.91 228.05 231.92 228.42C231.93 228.8 232.18 229.06 232.59 229.13C233.42 229.27 234.17 229.18 234.85 228.59C235.64 227.91 235.73 227.07 235.57 226.15C235.41 225.23 234.78 224.74 233.86 224.77C232.73 224.8 231.5 224.42 230.56 225.42C230.28 225.72 230.29 226.09 230.49 226.41C231.41 227.83 232.64 226.14 233.8 226.75ZM226.32 231.96C226.24 233.93 226.48 235.73 228.23 235.55C229.25 235.44 229.15 233.3 229.48 232.1C229.71 231.26 229.17 229.8 227.79 229.81C226.04 229.82 226.38 231.29 226.32 231.96Z" fill="#7C7C85"/>
<path d="M200.1 245.64C200.17 246.36 200.18 247.1 200.33 247.8C201.64 253.85 201.9 254.04 207.97 253.8C209.15 253.75 210.33 253.73 211.5 253.81C212.2 253.86 212.68 254.38 212.61 255.11C212.54 255.77 211.95 255.89 211.38 255.9C209.66 255.9 207.94 255.9 205.56 255.9C208.4 257.93 211.1 258.51 213.9 258.67C220.09 259.01 225.7 257.18 230.73 253.68C239.46 247.58 244.2 239.17 244.9 228.51C245.01 226.91 244.48 225.23 245.45 223.73C246.57 223.87 246.55 224.7 246.62 225.54C247.91 241.69 234.84 258.17 218.95 260.19C212.65 260.99 206.63 259.89 201.79 255.44C199.36 253.21 198.91 249.92 198.62 246.77C198.54 245.95 199.19 245.46 200.1 245.64Z" fill="#353149"/>
<path d="M115.62 251.59C110.98 253.6 106.53 251.54 101.99 251.05C99.4 250.77 98.53 249.23 97.92 247.1C97.46 245.48 98.01 244.77 99.6 245.07C103.95 245.87 108.28 246.66 112.72 246.71C115.73 246.74 114.88 249.53 115.7 251.12C115.74 251.29 115.71 251.45 115.62 251.59Z" fill="#7C7C85"/>
<path d="M298.85 151.77C299.97 151.57 301.09 151.37 302.21 151.16C304.95 151.04 307.24 151.81 309.4 153.68C311.63 155.61 311.73 158.12 311.89 160.54C312.3 166.88 310.84 172.69 306.69 177.75C303.5 181.64 299.12 182.33 294.97 179.42C294.24 178.91 293.79 177 292.16 178.46C291.91 178.69 291.49 177.46 291.33 176.87C290.02 172.14 291.02 167.61 292.61 162.97C293 164.41 293.3 165.77 294.26 166.76C294.76 167.27 295.42 167.68 296.2 167.16C296.74 166.8 297.29 166.39 297.17 165.66C296.99 164.58 296.19 165.35 295.7 165.19C294.81 164.91 294.42 164.02 294.68 163.27C295.06 162.17 295.8 162.98 296.44 163.21C297.36 163.54 298.52 165.05 299.17 163.75C299.9 162.29 297.91 162.17 297.05 161.53C296.04 160.77 294.76 161.17 293.3 160.83C294.9 157.5 296.37 154.34 298.85 151.77ZM303.77 157.94C303.92 156.61 303.54 155.51 302.86 154.51C302.24 153.6 301.37 153.15 300.29 153.42C299.01 153.74 299.41 154.85 299.43 155.68C299.46 156.57 299.73 157.45 299.87 158.33C300.06 159.52 300.29 161.04 301.74 160.81C303.02 160.62 304.23 159.6 303.77 157.94ZM295.02 172.59C295.01 173.42 294.99 174.79 296.73 174.64C298.64 174.47 300.06 173.26 300.23 171.4C300.35 170.03 299.37 168.62 297.74 168.76C295.84 168.92 295 170.31 295.02 172.59ZM309.75 159.91C309.88 158 309.6 157.11 308.2 157.24C306.52 157.4 304.71 157.83 304.5 159.72C304.37 160.83 305.17 162.28 306.86 162.11C308.59 161.95 309.6 160.93 309.75 159.91ZM308.68 171.08C308.84 170.36 308.29 169.72 307.83 169.05C307.33 168.33 306.85 167.14 305.81 167.83C304.8 168.49 305.82 169.23 306.29 169.83C306.88 170.59 307.49 171.45 306.46 172.16C305.14 173.07 304.79 171.83 304.36 170.95C304.12 170.45 303.84 169.86 303.2 170.07C302.39 170.34 302.59 171.15 302.76 171.7C303.3 173.48 304.5 174.42 306.43 174.14C308.08 173.89 308.76 172.87 308.68 171.08ZM301.05 165.77C301.01 167.18 300.98 168.57 302.58 168.62C304.29 168.66 304.73 167.23 304.85 165.82C304.99 164.06 303.19 163.75 302.32 163.61C300.77 163.35 301.16 164.98 301.05 165.77Z" fill="#7C7C85"/>
<path d="M291.78 187.19C292.77 185.26 293.71 183.31 292.86 181.15C293.52 180.42 294 180.92 294.39 181.18C299.65 184.67 305.44 182.76 308.94 177.73C312.64 172.41 313.84 166.58 314.14 160.36C314.19 159.37 314.15 158.37 314.15 157.07C316.93 163.97 315.67 170.43 313.3 176.74C311.46 181.63 308.73 186.05 304.57 189.35C301.86 191.5 298.97 193.47 295.16 192.25C294.49 192.03 293.62 191.95 293.51 191.08C293.41 190.31 294.25 190.16 294.74 189.8C295.62 189.16 296.53 188.56 297.37 187.88C297.74 187.58 298.36 187.21 297.86 186.57C297.4 185.97 296.86 186.35 296.4 186.6C295.06 187.34 293.75 188.13 292.43 188.9C292.22 188.35 292 187.77 291.78 187.19Z" fill="#7C7C85"/>
<path d="M291.78 187.19C292 187.77 292.22 188.34 292.43 188.92C291.88 189.6 291.23 190.23 290.6 189.12C289.92 187.94 291.11 187.67 291.78 187.19Z" fill="#B2B1B9"/>
<path d="M316.39 157.28C316.69 157.35 316.88 157.5 316.79 157.85C316.24 157.96 316.4 157.56 316.39 157.28Z" fill="#FEFEFE"/>
<path d="M184.36 158.85C187.9 158.86 191.44 158.9 194.98 158.88C196.83 158.87 197.43 159.41 196.18 161.06C195.91 161.42 195.64 161.83 195.53 162.25C193.95 168.29 190.01 169.54 184.05 169.37C167.72 168.91 151.37 169.18 135.02 169.25C132.65 169.26 130.35 168.77 128 168.69C126.47 168.63 126.68 167.6 126.58 166.6C126.34 164.23 128.53 162.8 128.8 160.65C129.11 160.55 129.43 160.46 129.74 160.36C132.3 160.03 134.87 159.7 137.43 159.37C142.52 158.48 147.67 159.08 152.79 158.86C163.32 158.84 173.84 158.84 184.36 158.85Z" fill="#C6C8C3"/>
<path d="M202.82 150.55C200.43 152.22 199.83 155.02 198.55 157.39C198.43 157.42 198.31 157.42 198.19 157.39C193.58 157.35 188.97 157.31 184.36 157.27C181.55 157.26 178.74 157.16 175.94 157.28C174.49 157.34 174.2 156.84 174.58 155.6C179.09 149.3 185.05 145.05 192.51 142.9C197.15 141.88 201.78 141.32 206.27 143.54C205.33 145.24 204.4 146.94 203.46 148.64C203.31 148.61 203.16 148.6 203.02 148.63C197.97 147.38 193 147.69 188.15 149.51C185.41 150.54 183.04 152.17 181.06 154.34C180.55 154.9 180.28 155.71 180.92 156.29C181.42 156.75 181.9 156.16 182.27 155.79C187.94 150.18 194.73 148.55 202.42 150.12C202.54 150.27 202.68 150.41 202.82 150.55Z" fill="#C0C2BF"/>
<path d="M174.57 155.6C174.19 156.84 174.48 157.34 175.93 157.28C178.73 157.16 181.55 157.26 184.35 157.27C184.35 157.8 184.36 158.32 184.36 158.85C173.84 158.85 163.32 158.84 152.8 158.84C152.98 158.32 153.16 157.79 153.33 157.27C153.68 157.23 154.03 157.2 154.37 157.16C159.69 157.19 165.02 157.16 170.34 157.28C171.78 157.31 172.49 156.67 173.06 155.56C173.57 155.57 174.07 155.59 174.57 155.6Z" fill="#7C7C85"/>
<path d="M204.55 159.46C203.86 161.96 203.15 164.46 202.48 166.97C202.18 168.1 201.65 169.01 200.4 169.17C199.71 169.26 198.84 169.5 198.36 168.86C197.93 168.29 198.58 167.7 198.79 167.12C199.73 164.49 201.89 162.44 202.4 159.61C203.11 159.56 203.83 159.51 204.55 159.46Z" fill="#B4B7B6"/>
<path d="M202.82 150.55C202.68 150.41 202.54 150.27 202.4 150.13C202.6 149.63 202.81 149.14 203.01 148.64C203.16 148.61 203.31 148.61 203.45 148.65C207.38 150.04 211.03 151.87 213.57 155.34C214.04 155.99 215.08 156.9 214.01 157.63C213.11 158.25 212.69 157.01 212.21 156.44C209.71 153.46 206.75 151.25 202.82 150.55Z" fill="#37334B"/>
<path d="M206.26 143.54C201.77 141.32 197.14 141.88 192.5 142.9C192.52 142.37 192.54 141.85 192.56 141.32C192.93 141.15 193.3 140.99 193.67 140.82C198.07 139.91 202.41 140.33 206.72 141.45C206.73 141.68 206.74 141.91 206.75 142.14C206.77 142.61 206.79 143.08 206.81 143.54C206.63 143.54 206.44 143.54 206.26 143.54Z" fill="#7C7C85"/>
<path d="M129.75 160.35C129.44 160.45 129.12 160.54 128.81 160.64C127.14 160.87 125.45 161.01 123.81 161.36C122.47 161.64 122.21 161.04 122.25 159.95L122.22 159.99C124.83 159.14 127.58 159.07 130.25 158.57C130.08 159.15 129.92 159.75 129.75 160.35Z" fill="#353149"/>
<path d="M204.55 159.46C203.83 159.51 203.11 159.56 202.4 159.62C201.26 159.55 200.11 159.49 198.97 159.42C197.21 159.32 197.34 158.49 198.19 157.39C198.31 157.42 198.43 157.42 198.55 157.39C200.1 158.15 201.77 157.58 203.37 157.82C204.28 157.95 205.65 157.84 204.55 159.46Z" fill="#37334B"/>
<path d="M103.07 199.78C103.77 198.38 102.86 195.59 106.15 196.4C106.55 196.5 107.23 195.33 107.82 194.79C110.19 192.63 112.38 192.55 113.98 194.54C114.04 194.61 114.17 194.68 114.16 194.73C113.52 197.5 113.16 200.39 112.11 202.99C111.56 204.34 109.79 203.27 108.7 202.84C107.82 202.5 107.17 202.54 106.45 203.02C106.34 200.88 105.24 199.77 103.07 199.78Z" fill="#EFE9BE"/>
<path d="M99.33 215.63C99.14 215.42 98.94 215.22 98.75 215.01C98.94 215.22 99.14 215.42 99.33 215.63Z" fill="#EBE8E9"/>
<path d="M154.38 157.16C154.03 157.2 153.68 157.23 153.34 157.27C148.06 157.48 142.74 156.55 137.5 157.79C136.74 157.74 135.98 157.69 135.17 157.64C135.37 156.78 135.99 156.52 136.46 156.12C141.54 151.89 147.1 148.4 152.85 145.2C153.47 144.85 154.72 144.59 154.09 143.53C153.5 142.54 152.6 143.38 151.96 143.75C148.21 145.9 144.51 148.12 140.78 150.32C141.11 148.04 142.96 146.67 144.13 144.91C147.6 139.68 151.2 134.54 154.78 129.39C155.27 128.69 155.63 127.74 156.75 127.75C156.68 131.72 156.59 135.68 156.55 139.64C156.54 140.21 156.3 141.08 157.19 141.17C157.98 141.25 158.22 140.49 158.17 139.85C157.76 134.9 159.19 130 158.61 125.04C158.69 124.34 158.77 123.63 158.86 122.93C160.46 122.62 161.15 121.3 161.86 120.08C163.19 117.84 166.06 117.49 167.48 115.38C172.77 115.25 178.07 115.12 183.36 114.99C183.16 115.68 182.71 116.4 182.79 117.04C183.13 119.64 181.67 119.72 179.71 119.65C176.73 119.54 173.74 119.63 170.76 119.71C170.04 119.73 168.78 119.3 168.79 120.45C168.8 121.57 170.05 121.17 170.79 121.18C179.65 121.23 188.52 121.25 197.38 121.27C201.46 121.28 201.99 121.92 201.18 125.97C201.09 126.41 200.91 126.83 200.77 127.26C198.51 127.68 198.63 129.49 198.5 131.15C197.66 130.42 196.64 130.63 195.66 130.54C192.03 130.21 188.48 131.31 184.86 131.09C181.25 130.86 177.64 130.53 174.04 130.58C168.57 130.66 168.97 129.94 169.09 124.81C169.1 124.38 169.34 123.95 169.45 123.51C169.58 122.99 169.76 122.33 169.14 122.08C168.28 121.73 167.96 122.53 167.87 123.09C167.45 125.58 167.04 128.16 168 130.54C168.51 131.8 168.33 132.19 167.33 132.88C165.4 134.21 163.56 135.68 161.73 137.15C161.17 137.6 160.56 138.28 161.31 138.97C161.97 139.57 162.62 139.18 163.14 138.53C164.47 136.89 166.16 135.71 168 134.72C168.05 135.78 167.48 136.64 166.99 137.48C163.76 143.01 160.14 148.29 156.33 153.43C155.48 154.55 154.35 155.56 154.38 157.16Z" fill="#C4C5C1"/>
<path d="M198.51 131.14C198.64 129.47 198.52 127.67 200.78 127.25C200.71 127.6 200.65 127.95 200.57 128.29C200.4 128.97 199.34 129.8 200.58 130.3C201.9 130.83 202.1 129.49 202.2 128.73C202.41 127.13 202.95 125.6 202.88 123.93C202.73 120.52 201.92 119.61 198.63 119.6C194.66 119.6 190.68 119.57 186.71 119.62C185.57 119.63 184.74 119.36 184.5 118.16C184.26 116.94 185.14 116.89 185.98 116.82C187.16 116.72 187.09 115.86 187.06 115.02C187.46 115.03 187.85 115.04 188.25 115.06C188.16 115.86 188.13 116.67 187.96 117.44C187.83 118.06 187.45 118.73 188.35 118.95C189.25 119.17 189.68 118.48 189.78 117.74C189.89 116.86 189.81 115.96 189.81 115.07C197.99 115.22 206.16 115.37 214.34 115.51C214.33 117.33 215.89 118.08 216.94 119.12C218.62 120.79 219.52 122.75 219.81 125.04C216.56 129.3 213.36 133.6 210.04 137.8C209.03 139.08 208.75 141.07 206.73 141.43C202.42 140.32 198.09 139.9 193.68 140.8C193.54 139.33 194.46 138.24 195.05 137.04C196 135.1 197.66 132.98 193.51 132.99C193.39 132.99 193.27 132.55 193.15 132.31C194.89 131.75 197.09 133.21 198.51 131.14Z" fill="#C9CBC5"/>
<path d="M206.72 141.45C208.74 141.09 209.02 139.1 210.03 137.82C213.35 133.61 216.55 129.32 219.8 125.06C224.1 121.57 224.3 120.79 222.11 115.98C222.04 115.82 222.02 115.64 221.98 115.47C225.24 115.04 228.49 115.66 231.75 115.52C233.21 115.46 232.97 116.29 232.8 117.05C229.96 130.04 226 142.62 219.03 154.45C217.65 149.37 214.88 145.68 210.52 143.27C209.36 142.63 208.25 141.71 206.75 142.14C206.74 141.91 206.73 141.68 206.72 141.45Z" fill="#A0A5A9"/>
<path d="M187.05 115.03C187.09 115.87 187.15 116.73 185.97 116.83C185.12 116.9 184.24 116.95 184.49 118.17C184.73 119.37 185.56 119.65 186.7 119.63C190.67 119.58 194.65 119.61 198.62 119.61C201.91 119.61 202.73 120.52 202.87 123.94C202.94 125.61 202.4 127.14 202.19 128.74C202.09 129.5 201.89 130.83 200.57 130.31C199.33 129.82 200.4 128.99 200.56 128.3C200.64 127.96 200.7 127.6 200.77 127.26C200.91 126.83 201.09 126.41 201.18 125.97C202 121.92 201.47 121.28 197.38 121.27C188.52 121.25 179.65 121.23 170.79 121.18C170.06 121.18 168.81 121.57 168.79 120.45C168.78 119.3 170.04 119.73 170.76 119.71C173.74 119.63 176.73 119.54 179.71 119.65C181.67 119.72 183.13 119.64 182.79 117.04C182.7 116.39 183.15 115.67 183.36 114.99C184.61 114.52 185.83 114.44 187.05 115.03Z" fill="#7C7C85"/>
<path d="M221.98 115.46C222.02 115.63 222.04 115.82 222.11 115.97C224.3 120.78 224.1 121.56 219.8 125.05C219.5 122.76 218.6 120.79 216.93 119.13C215.89 118.09 214.33 117.34 214.33 115.52C216.87 115.24 219.42 115.3 221.98 115.46Z" fill="#B4B7B6"/>
<path d="M167.49 115.37C166.07 117.48 163.2 117.83 161.87 120.07C161.15 121.28 160.47 122.6 158.87 122.92C158.87 120.22 158.87 117.52 158.86 114.82C161.75 114.82 164.64 114.9 167.49 115.37Z" fill="#B2B1B9"/>
<path d="M189.8 115.08C189.8 115.97 189.88 116.87 189.77 117.75C189.68 118.49 189.25 119.18 188.34 118.96C187.43 118.74 187.81 118.06 187.95 117.45C188.12 116.67 188.15 115.86 188.24 115.07C188.76 114.52 189.28 114.53 189.8 115.08Z" fill="#7C7C85"/>
<path d="M263.87 138.68C264.28 140.47 263.08 141.95 262.9 143.63C261.91 143.41 261.18 143.9 260.42 144.43C252.39 149.98 243.63 154.31 235.39 159.52C232.93 161.08 230.19 161.99 227.45 162.88C228.38 158.89 230.37 155.32 231.89 151.57C235.69 142.23 240.85 133.5 244.15 123.93C245.09 124.52 245.96 124.37 246.89 123.82C251.11 121.31 255.36 118.84 259.6 116.35C261.3 115.85 262.5 114.24 264.39 114.15C264.46 117.6 264.53 121.04 264.59 124.49C264.53 124.7 264.48 124.9 264.42 125.11C257.59 128.03 251.54 132.32 245.16 136.02C244.06 136.66 243.8 137.78 243.77 139.06C243.7 141.75 244.16 144.47 243.33 147.14C243.02 148.15 243.38 149.12 244.32 149.75C245.45 150.51 246.25 149.86 247.22 149.22C252.74 145.66 258.32 142.18 263.87 138.68Z" fill="#A0A5A9"/>
<path d="M259.61 116.35C255.37 118.84 251.12 121.31 246.9 123.82C245.97 124.37 245.1 124.52 244.16 123.93C244.58 122.15 245.41 120.43 245.15 118.52C246.24 115.17 248.99 113.71 251.98 112.51C252.19 112.85 252.48 113 252.87 112.89C256.02 112.01 258.17 113.1 259.61 116.35Z" fill="#C0C2BF"/>
<path d="M130.25 158.56C127.58 159.06 124.83 159.13 122.22 159.98C121.58 159.07 122.31 158.37 122.73 157.8C132.84 144.29 140.92 129.19 153.73 117.77C153.33 122.66 151.46 127.02 148.74 131.02C143.6 138.57 138.38 146.07 133.21 153.61C132.24 155.03 131.36 156.51 130.99 158.23C130.74 158.34 130.5 158.45 130.25 158.56Z" fill="#A0A5A9"/>
<path d="M130.25 158.56C130.5 158.45 130.74 158.34 130.99 158.23C131.6 158.23 132.56 158.54 132.74 158.01C134.11 154.03 138.26 153.02 140.79 150.31C144.51 148.12 148.22 145.9 151.97 143.75C152.6 143.39 153.51 142.54 154.1 143.53C154.73 144.58 153.48 144.85 152.86 145.2C147.1 148.41 141.54 151.9 136.47 156.12C136 156.51 135.38 156.77 135.18 157.64C135.98 157.69 136.74 157.74 137.51 157.79C137.49 158.31 137.48 158.83 137.46 159.35C134.9 159.68 132.33 160.01 129.77 160.34C129.92 159.75 130.08 159.15 130.25 158.56Z" fill="#7C7C85"/>
<path d="M158.63 125.03C159.2 129.99 157.77 134.88 158.19 139.84C158.24 140.49 158.01 141.24 157.21 141.16C156.32 141.07 156.57 140.2 156.57 139.63C156.61 135.67 156.7 131.7 156.77 127.74C156.92 127.19 157.07 126.64 157.22 126.09C157.72 125.78 157.89 125.02 158.63 125.03Z" fill="#7C7C85"/>
<path d="M116.66 197.26C116.21 198.37 115.7 199.47 115.32 200.61C115.07 201.34 114.52 202.42 115.4 202.81C116.46 203.28 116.55 202.07 116.85 201.35C117.23 200.44 117.69 199.57 118.26 198.37C120.07 200.69 123.74 201.57 122.47 205.81C120.19 204.79 117.7 204.6 115.26 204.16C114.6 204.04 113.92 204.06 114.07 203.14C114.42 200.99 114.62 198.79 116.01 197.01C116.22 197.09 116.44 197.18 116.66 197.26Z" fill="#EBE8E9"/>
<path d="M213.21 198.46C213.13 199.54 212.94 200.47 211.78 200.87C210.76 201.22 209.79 201.69 208.78 202.06C203.24 204.11 203.24 204.1 200.13 199.18C199.42 198.05 199.29 196.99 200.46 196.09C202.81 194.28 205.09 192.37 207.65 190.82C208.84 190.1 209.53 190.22 210.33 191.32C211.91 193.48 212.83 195.88 213.21 198.46Z" fill="#EFE9BE"/>
<path d="M197.73 198.78C198.78 200.21 199.85 201.64 200.87 203.1C201.34 203.77 201.56 204.44 200.39 204.65C198.54 204.97 196.7 205.35 194.84 205.59C194.18 205.68 193.27 205.73 193.1 204.77C192.95 203.87 193.65 203.28 194.2 202.7C194.94 201.92 195.24 202.86 195.68 203.17C196.04 203.43 196.35 203.77 196.67 204.09C197.07 204.5 197.56 204.86 198.07 204.45C198.83 203.84 198.17 203.25 197.76 202.9C196.13 201.51 195.67 200.2 197.73 198.78Z" fill="#EBE8E9"/>
<path d="M271.52 121.23C271.62 120.89 271.73 120.56 271.83 120.22C278.83 116.51 285.38 111.99 292.55 108.57C292.98 110.25 293.41 111.92 293.84 113.6C292.08 114.72 292.95 116.26 293.24 117.66C293.65 119.67 293.53 121.29 291.43 122.45C285.75 125.58 280.15 128.86 274.52 132.07C273.81 132.47 273.07 132.82 272.21 132.69C271.84 128.88 272.81 124.99 271.52 121.23Z" fill="#C0C2BF"/>
<path d="M266.36 185.19C265.76 188.06 265.51 190.2 265.54 192.37C265.55 193.06 265.24 193.61 264.6 193.9C258.56 196.64 253.47 200.92 247.8 204.25C247.65 204.34 247.47 204.35 247.26 204.41C247.1 203.63 246.95 202.86 246.77 202.1C246.24 199.85 246.75 198.24 248.9 196.87C254.6 193.26 260.14 189.38 266.36 185.19Z" fill="#EBE8E9"/>
<path d="M292.55 108.57C285.38 111.99 278.83 116.51 271.83 120.22C271.78 116.7 271.73 113.18 271.69 109.66C271.69 109.33 271.7 109 271.7 108.66C274.93 108.34 277.17 106 279.79 104.51C282.81 102.8 286.28 101.68 288.57 98.8203C290.32 101.91 291.21 105.33 292.55 108.57Z" fill="#A0A5A9"/>
<path d="M288.58 98.8303C286.29 101.7 282.82 102.81 279.8 104.52C277.18 106.01 274.94 108.35 271.71 108.67C271.66 107.22 271.6 105.76 271.55 104.31C271.64 103.98 271.74 103.66 271.83 103.33C276.28 101.96 280.14 99.3403 284.34 97.4403C285.12 97.0903 286.13 96.9103 286.35 95.8203C287.47 96.5303 288.1 97.6203 288.58 98.8303Z" fill="#C0C2BF"/>
<path d="M286.34 95.8199C286.12 96.9199 285.11 97.0899 284.33 97.4399C280.13 99.3399 276.27 101.96 271.82 103.33C271.8 103.15 271.72 102.85 271.78 102.81C276.24 100.18 280.53 97.2299 285.54 95.6999C285.77 95.6299 286.07 95.7699 286.34 95.8199Z" fill="#A0A5A9"/>
<path d="M255.82 107.62C254.26 109.07 252.59 110.31 250.33 110.37C251.9 108.93 253.72 108 255.82 107.62Z" fill="#EBE8E9"/>
<path d="M259.65 105.99C259.19 106.52 258.69 106.91 257.94 106.55C258.39 105.98 258.92 105.68 259.65 105.99Z" fill="#EBE8E9"/>
<path d="M261.83 104.9C261.71 105.61 261.13 105.42 260.68 105.48C260.81 104.8 261.14 104.49 261.83 104.9Z" fill="#EBE8E9"/>
<path d="M258.01 106.52C257.92 107.28 257.56 107.53 256.87 107.1C256.95 106.33 257.57 106.59 258.01 106.52Z" fill="#EBE8E9"/>
<path d="M256.91 107.07C256.82 107.83 256.47 108.08 255.77 107.64C255.88 106.91 256.39 106.98 256.91 107.07Z" fill="#EBE8E9"/>
<path d="M260.74 105.44C260.56 106.03 260.04 105.97 259.59 106.03C259.63 105.15 260.2 105.33 260.74 105.44Z" fill="#EBE8E9"/>
<path d="M259.61 116.35C258.17 113.1 256.02 112 252.86 112.9C252.47 113.01 252.18 112.86 251.97 112.52C255.65 109.72 260.05 108.32 264.37 106.03C264.68 108.9 264.79 111.52 264.4 114.16C262.51 114.24 261.32 115.85 259.61 116.35Z" fill="#B2B1B9"/>
<path d="M153.34 210.13C153.25 209.61 153.31 209 153.06 208.57C151.37 205.68 151.35 205.69 153.5 203C157.3 207.68 157.27 208.43 153.28 210.07C153.28 210.08 153.34 210.13 153.34 210.13Z" fill="#EBE8E9"/>
<path d="M263.87 138.68C258.31 142.19 252.74 145.66 247.22 149.24C246.25 149.87 245.45 150.52 244.32 149.77C243.38 149.14 243.02 148.17 243.33 147.16C244.15 144.49 243.7 141.77 243.77 139.08C243.8 137.8 244.06 136.67 245.16 136.04C251.55 132.35 257.6 128.05 264.42 125.13C264.76 129.32 263.32 133.47 264.09 137.67C264.03 137.99 263.95 138.34 263.87 138.68Z" fill="#C0C2BF"/>
<path d="M214.35 246.1C216.97 246.88 219.01 248.95 221.95 249.18C223.38 249.29 224.59 248.76 225.93 248.76C226.85 248.76 226.42 248.09 226.41 247.59C226.36 245.15 226.34 242.7 226.35 240.26C226.35 239.52 226.51 238.65 227.47 238.77C228.35 238.88 228 239.76 228 240.34C228.03 242.1 228.01 243.87 228.01 246.3C230.09 243.61 230.1 241.34 229.16 238.99C228.93 238.41 228.31 237.86 229.19 237.44C230.01 237.05 230.53 237.6 230.91 238.3C232.21 240.64 231.64 243.02 231.1 245.41C231.05 245.55 230.99 245.69 230.93 245.83C231.06 245.76 231.19 245.7 231.31 245.63C233.65 244.23 234.83 241.84 236.28 239.71C237.16 238.41 235.83 238.62 235.13 238.39C233.76 237.95 231.86 237.99 232.12 235.75C232.36 233.64 233.94 233.12 236.5 234.35C237.28 234.72 238.11 235.72 238.53 234.19C239.96 229 241.96 223.86 238.95 218.46C237.45 215.79 235.61 213.76 232.64 212.89C232.06 212.72 231.17 212.85 231.29 211.96C231.43 210.94 232.43 211.1 233.05 211.26C235.47 211.89 237.64 213.03 239.08 215.15C241.61 218.88 242.91 223.02 242.07 227.5C240.6 235.34 238.1 242.67 231.68 248.12C227.82 251.39 219.33 251.85 215.49 248.64C214.67 247.96 214.1 247.21 214.34 246.08C214.39 246.06 214.35 246.1 214.35 246.1Z" fill="#353149"/>
<path d="M229.08 225.72C229.27 228 227.11 228.43 226.28 228.46C223.96 228.53 224.49 226.21 224.25 224.78C224 223.27 224.37 221.56 226.28 221.61C228.98 221.69 228.22 224.42 229.08 225.72Z" fill="#353149"/>
<path d="M223.75 233.57C224.19 233.68 225.43 233.1 225.55 234.11C225.7 235.45 224.37 235.15 223.54 235.16C222.41 235.17 221.3 235.23 220.71 236.34C220.25 237.2 220.79 237.99 221.38 238.49C222.29 239.27 223.36 239.21 224.35 238.48C224.78 238.16 225.31 237.66 225.68 238.38C226.08 239.16 225.54 239.83 224.9 240.19C223.56 240.93 222.08 241.04 220.8 240.18C219.48 239.29 218.57 237.98 218.83 236.27C219.08 234.62 220.32 233.87 221.85 233.58C222.36 233.49 222.92 233.57 223.75 233.57Z" fill="#353149"/>
<path d="M233.8 226.75C232.64 226.15 231.41 227.84 230.5 226.41C230.3 226.09 230.28 225.72 230.57 225.42C231.51 224.42 232.74 224.81 233.87 224.77C234.79 224.74 235.41 225.23 235.58 226.15C235.74 227.07 235.65 227.91 234.86 228.59C234.18 229.17 233.43 229.27 232.6 229.13C232.2 229.06 231.94 228.8 231.93 228.42C231.92 228.05 232.11 227.77 232.51 227.62C232.95 227.45 233.65 227.71 233.8 226.75Z" fill="#353149"/>
<path d="M226.32 231.96C226.38 231.29 226.05 229.82 227.79 229.81C229.17 229.8 229.72 231.26 229.48 232.1C229.14 233.3 229.24 235.45 228.23 235.55C226.48 235.73 226.23 233.93 226.32 231.96Z" fill="#353149"/>
<path d="M303.77 157.94C304.22 159.6 303.01 160.62 301.74 160.81C300.29 161.03 300.06 159.52 299.87 158.33C299.73 157.44 299.46 156.57 299.43 155.68C299.4 154.85 299 153.74 300.29 153.42C301.38 153.15 302.25 153.6 302.86 154.51C303.54 155.51 303.92 156.61 303.77 157.94Z" fill="#353149"/>
<path d="M295.02 172.59C295 170.31 295.84 168.92 297.74 168.76C299.37 168.62 300.35 170.03 300.23 171.4C300.06 173.26 298.64 174.47 296.73 174.64C294.99 174.79 295.01 173.42 295.02 172.59Z" fill="#353149"/>
<path d="M309.75 159.91C309.61 160.92 308.59 161.95 306.86 162.11C305.18 162.27 304.38 160.82 304.5 159.72C304.71 157.83 306.52 157.4 308.2 157.24C309.59 157.11 309.87 158.01 309.75 159.91Z" fill="#37334B"/>
<path d="M308.68 171.08C308.76 172.87 308.08 173.9 306.45 174.14C304.51 174.43 303.32 173.48 302.78 171.7C302.61 171.15 302.41 170.34 303.22 170.07C303.86 169.86 304.13 170.44 304.38 170.95C304.8 171.83 305.16 173.08 306.48 172.16C307.51 171.45 306.89 170.58 306.31 169.83C305.85 169.23 304.82 168.5 305.83 167.83C306.87 167.15 307.35 168.33 307.85 169.05C308.29 169.72 308.85 170.36 308.68 171.08Z" fill="#353149"/>
<path d="M301.05 165.77C301.16 164.98 300.76 163.35 302.31 163.6C303.18 163.74 304.98 164.06 304.84 165.81C304.73 167.22 304.29 168.65 302.57 168.61C300.98 168.58 301.01 167.18 301.05 165.77Z" fill="#353149"/>
<path d="M137.44 159.35C137.46 158.83 137.47 158.31 137.49 157.79C142.74 156.55 148.05 157.48 153.33 157.27C153.15 157.79 152.97 158.32 152.8 158.84C147.68 159.06 142.54 158.46 137.44 159.35Z" fill="#A0A5A9"/>
<path d="M203.01 148.63C202.81 149.13 202.6 149.62 202.4 150.12C194.71 148.56 187.92 150.18 182.25 155.79C181.88 156.15 181.4 156.75 180.9 156.29C180.26 155.71 180.53 154.9 181.04 154.34C183.01 152.17 185.39 150.54 188.13 149.51C192.99 147.7 197.96 147.38 203.01 148.63Z" fill="#7C7C85"/>
<path d="M192.56 141.32C192.54 141.85 192.52 142.37 192.5 142.9C185.04 145.05 179.08 149.3 174.57 155.6C174.07 155.59 173.57 155.57 173.06 155.56C177.44 147.9 183.92 143.13 192.56 141.32Z" fill="#605C6B"/>
<path d="M192.56 141.32C183.92 143.13 177.43 147.9 173.06 155.56C172.49 156.67 171.78 157.31 170.34 157.28C165.02 157.16 159.69 157.19 154.37 157.16C154.34 155.56 155.47 154.55 156.32 153.41C160.14 148.27 163.75 142.99 166.98 137.46C167.47 136.61 168.05 135.76 167.99 134.7C169.5 133.26 171.31 132.64 173.39 132.65C179.97 132.7 186.56 133.08 193.13 132.34C193.25 132.58 193.37 133.02 193.49 133.02C197.64 133.01 195.98 135.13 195.03 137.07C194.44 138.27 193.52 139.36 193.66 140.83C193.3 140.99 192.93 141.15 192.56 141.32Z" fill="#B4B7B6"/>
<path d="M193.14 132.33C186.57 133.07 179.98 132.69 173.4 132.64C171.32 132.62 169.51 133.25 168 134.69C166.16 135.68 164.46 136.86 163.14 138.5C162.62 139.15 161.96 139.54 161.31 138.94C160.56 138.26 161.17 137.57 161.73 137.12C163.56 135.65 165.4 134.18 167.33 132.85C168.32 132.17 168.51 131.77 168 130.51C167.04 128.14 167.46 125.55 167.87 123.06C167.96 122.5 168.28 121.7 169.14 122.05C169.76 122.3 169.57 122.95 169.45 123.48C169.34 123.92 169.1 124.34 169.09 124.78C168.98 129.91 168.57 130.64 174.04 130.55C177.65 130.5 181.26 130.83 184.86 131.06C188.49 131.29 192.03 130.19 195.66 130.51C196.64 130.6 197.67 130.39 198.5 131.12C197.09 133.21 194.89 131.75 193.14 132.33Z" fill="#7C7C85"/>
<path d="M231.35 245.62C231.22 245.69 231.09 245.75 230.97 245.82C231.03 245.68 231.08 245.54 231.14 245.4C231.2 245.47 231.27 245.55 231.35 245.62Z" fill="#7C7C85"/>
</svg>
