<svg width="634" height="299" viewBox="0 0 634 299" fill="none" xmlns="http://www.w3.org/2000/svg">
<g clip-path="url(#clip0_43_429)">
<path d="M79.33 225.82C77.73 221.36 78.53 217.12 80.36 212.92C81.91 209.35 81.69 205.61 81.24 201.88C82.74 196.79 85.39 192.25 88.35 187.94C98.95 172.52 112.31 160.47 131.43 157.56C144.71 155.54 158.31 155.04 168.21 167.2C168.58 167.65 169.19 167.61 169.6 167.17C169.82 166.94 170.03 166.47 169.94 166.22C169.7 165.56 169.18 164.99 168.98 164.32C164.61 150.18 166.12 142.61 178.62 140.23C179.52 140.3 180.43 140.48 181.32 140.43C184.13 140.27 186.65 140.98 189.01 142.54C191.42 144.14 189.57 146.13 189.68 147.94C189.72 148.55 190.05 148.98 190.6 149.13C191.4 149.35 191.99 148.91 192.41 148.29C193.05 147.33 192.95 146.23 192.86 145.14C192.69 143.06 193.81 141.47 195.52 140.82C200.74 138.83 206.03 136.77 211.61 139.83C212.44 140.28 213.22 141.47 214.69 140.25C211.23 127.39 214.34 115.46 220.69 104.03C224.53 97.1201 229 90.6201 234.03 84.5901C248.82 66.8801 266.15 52.3001 287.42 42.8201C296.88 39.6101 306.52 37.3501 316.6 37.4201C317.32 38.3201 318.33 38.5101 319.4 38.7801C325.95 40.4201 332.59 39.7501 339.2 39.7501C340.1 39.7001 341.01 39.6401 341.91 39.5901C342.26 40.2701 342.83 40.6601 343.55 40.9101C360.72 47.0001 373.55 58.8301 385 72.4101C389.7 77.9901 393.56 84.0401 392.63 91.9001C392.62 91.9501 392.91 92.0401 393.07 92.1201C394.06 92.1701 394.21 91.4501 394.29 90.7201C394.71 86.8301 394 83.1901 392.18 79.6901C391.4 78.1901 389.65 76.9101 390.58 74.8201C393.67 74.2401 391.74 71.6001 392.38 70.0201C404.11 41.0801 431.48 31.6901 455.41 37.4401C474.66 42.0701 488.2 54.5301 500.06 69.3501C506.55 77.4701 507.75 86.2101 502.59 95.6401C499.61 101.09 497.14 106.83 494 113.36C496.58 112.26 498.35 111.58 500.06 110.75C503.54 109.06 507.23 108.65 511.05 108.22C516.88 107.57 522.87 114.85 523.04 120.07C523.07 120.84 522.58 121.41 521.88 121.75C521.22 122.02 520.5 122.21 519.89 122.57C518.51 123.39 517.65 124.64 518.43 126.19C519.34 128 520.98 127.18 522.24 126.66C523.52 126.13 525 125.56 525.12 123.77L525.14 123.73C527.51 122.43 529.8 122.5 531.29 124.88C532.7 127.12 532.04 129.39 530.33 131.34C529.62 132.15 528.79 132.9 528.22 133.8C527.5 134.97 526.57 136.18 527.41 137.81C534.46 134.97 541.81 135.19 549.14 135.23C550.21 135.35 551.28 135.48 552.36 135.6C552.94 136.01 553.57 136.02 554.22 135.83C554.95 136.42 555.79 136.69 556.72 136.72C558.2 137.39 559.69 138.03 561.15 138.74C568.94 142.5 575.9 147.39 580.12 155.12C585.34 164.67 586.13 174.35 579.16 183.58C576.88 186.6 574.35 189.41 571.93 192.32C571.48 194.79 569.81 196.15 567.63 197.04C566.16 197.63 564.69 198.2 563.22 198.77C557.76 199.15 552.36 198.65 546.99 197.7C542.55 195.73 538.53 193.13 534.35 188.17C533.54 208.43 523.71 221.84 507.83 231.3C507.53 229.42 507.98 227.83 509.12 226.22C517.62 214.22 521.06 200.45 522.88 186.13C523.29 182.89 522.77 180.04 519.94 177.91C517.78 176.28 515.76 174.46 513.66 172.75C505.65 166.24 497.53 159.65 488.31 155.14C474.71 148.48 460.3 144.85 444.77 147.55C428.55 150.37 413.36 154.77 403.24 169.13C402.14 170.68 401.05 171.06 399.84 169.41C395.68 163.72 389.07 160.12 386.15 153.36C385.88 152.74 385.24 152.22 384.67 151.79C376.97 145.99 368.47 142.52 358.67 142.2C348.95 141.89 339.72 144.11 330.35 146.25C315.27 149.7 301.42 155.43 289.69 165.73C288.35 166.91 287.13 167.15 285.29 166.87C277.34 165.64 269.5 165.61 261.91 169.12C257.7 171.06 253.43 174.11 248.44 170.71C247.81 170.28 246.66 170.58 245.76 170.61C235.91 170.99 226.44 173.34 217.35 176.93C210.35 179.69 203.9 183.43 201.28 191.27C200.54 193.48 198.69 193.48 196.82 193.49C193.01 193.52 189.12 193.08 185.4 193.71C173.29 195.75 162.9 201.41 154.04 209.86C150.1 213.62 146.53 217.79 142.42 221.34C136.75 226.23 134.34 232.02 134.87 239.56C135.51 248.56 138.89 255.57 147.07 259.8C148.11 260.34 149 260.7 149.12 261.97C147.33 262.01 145.54 262.04 143.75 262.08C139.81 261.03 135.76 261.18 131.73 261.03C129.01 260.09 126.53 258.24 123.57 258.27C112.93 258.37 103.78 254.18 95.39 248.24C87.51 242.71 81.65 235.47 79.33 225.82Z" fill="#FEFCD8"/>
<path d="M149.09 262.01C148.97 260.74 148.09 260.38 147.04 259.84C138.86 255.61 135.48 248.61 134.84 239.6C134.3 232.06 136.72 226.27 142.39 221.38C146.5 217.83 150.07 213.66 154.01 209.9C162.87 201.45 173.26 195.79 185.37 193.75C189.08 193.13 192.98 193.56 196.79 193.53C198.65 193.52 200.51 193.52 201.25 191.31C203.88 183.47 210.33 179.73 217.32 176.97C226.42 173.38 235.88 171.03 245.73 170.65C246.64 170.61 247.79 170.32 248.41 170.75C253.4 174.16 257.68 171.1 261.88 169.16C269.47 165.66 277.32 165.69 285.26 166.91C287.11 167.2 288.32 166.95 289.66 165.77C301.38 155.47 315.23 149.75 330.32 146.29C339.68 144.15 348.92 141.92 358.64 142.24C368.44 142.56 376.94 146.03 384.64 151.83C385.21 152.26 385.85 152.78 386.12 153.4C389.04 160.16 395.65 163.76 399.81 169.45C401.02 171.1 402.11 170.72 403.21 169.17C413.33 154.81 428.52 150.41 444.74 147.59C460.27 144.89 474.68 148.52 488.28 155.18C497.5 159.69 505.62 166.28 513.63 172.79C515.73 174.5 517.75 176.32 519.91 177.95C522.74 180.08 523.26 182.93 522.85 186.17C521.03 200.48 517.59 214.25 509.09 226.26C507.95 227.87 507.51 229.46 507.8 231.34C502.36 235.1 495.97 236.68 489.96 239.13C489.3 239.23 488.65 239.33 487.99 239.43C486.78 239.37 485.65 239.62 484.63 240.29C481.71 240.3 478.86 240.82 476.03 241.49C470.94 241.5 465.85 241.51 460.77 241.52C454.65 241.62 448.61 240.61 442.53 240.21C438.48 239.11 434.42 238.02 430.37 236.92C422.62 233.24 415.2 229.15 410.74 221.31C409.92 219.88 408.6 219.43 407.01 219.94C406.39 219.62 405.67 219.42 405.17 218.97C403.35 217.32 401.7 215.45 399.8 213.91C397.53 212.07 395.94 216.42 393.57 214.8C402.31 200.37 413.24 172.23 412.26 166.65C411.19 167.49 410.93 168.71 410.53 169.89C407.64 178.29 404.95 186.76 401.77 195.05C396.25 209.48 387.81 221.62 373.93 229.39C362.16 235.98 349.66 238.03 336.23 237.56C313.53 236.77 292.97 229.56 273.47 218.61C268.37 215.75 263.92 212.01 261.36 206.48C260.88 205.45 260.97 203.98 259.11 203.53C258.66 205.53 257.75 207.21 256.18 208.54C253.31 210.96 252.64 210.7 251.69 206.54C251.55 206.31 251.45 205.92 251.26 205.87C250.73 205.72 250.57 206.13 250.51 206.58C250.38 207.48 250.25 208.38 250.13 209.29C247.69 212.73 244.51 215.35 240.59 216.78C237.47 217.91 234.06 219.27 231.19 215.97C231.02 216.28 230.85 216.6 230.68 216.91C228.28 216.04 225.89 215.33 222.83 217.02C225.18 218 227.21 217.14 228.62 218.59C228.63 220.4 228.65 222.21 228.66 224.02C225.99 231.1 221.86 237.19 216.4 242.42C212.03 246.61 206.7 249.36 201.57 252.41C200.38 252.91 199.19 253.41 198 253.91C196.29 254.3 194.6 254.75 193.1 255.72C190.39 256.53 187.67 257.34 184.96 258.15C179.62 259.14 174.28 260.14 168.94 261.13C166.33 261.54 163.61 260.97 161.1 262.13C157.1 262.1 153.09 262.05 149.09 262.01Z" fill="#ECE8CB"/>
<path d="M70.6399 146.84C70.0699 147.81 69.2499 148.46 68.2399 148.94C61.9499 151.94 50.7999 148.2 47.6299 142.02C47.2199 141.22 46.8399 140.4 46.4499 139.59C46.6399 138.05 45.3899 137.42 44.4799 136.65C40.4499 133.24 41.2399 127.27 43.3299 123.91C44.4799 122.06 46.0699 120.66 47.7799 119.37C50.8099 118.59 53.7899 118.7 56.8999 119.18C60.7899 119.78 64.0199 121.64 67.3799 123.4C69.3299 124.42 70.8299 123.53 70.4099 121.44C69.2099 115.39 72.6799 111.51 76.2999 107.65C80.6299 103.04 88.3699 103.42 92.4199 105.81C94.2199 106.87 96.0099 107.89 94.1199 110.36C93.5299 111.14 93.3999 112.1 94.3699 112.71C95.4899 113.41 96.8999 112.93 97.1299 111.95C97.9199 108.51 100.86 108.59 103.27 107.75C106.05 107.69 107.38 110.15 109.96 112.25C108.87 106.11 109.96 101.36 112.9 96.9701C119.49 87.1401 127.69 78.9501 138.27 73.6401C149.17 68.1701 160.51 65.7801 172.04 72.2901C178.44 77.3101 184.8 82.37 184.15 92.55C191.89 85.19 200.83 83.3201 210.12 82.4101C213.12 82.3701 216.12 82.33 219.12 82.3C221.77 82.82 224.42 83.36 226.72 84.87C228.64 86.13 229.45 87.47 227.73 89.68C223.16 95.52 219.81 102.14 216.03 108.48C213.99 104.9 210.36 103.47 206.85 102.19C200.42 99.8301 193.87 98.8 186.83 99.59C180.83 100.27 175.06 101.1 169.6 103.73C158.66 109 150.49 117.32 144.17 127.45C141.53 131.69 140.42 136.46 143.93 141.1C144.44 141.77 144.52 142.77 144.81 143.61C141.25 144.18 137.75 143.28 134.22 143.2C126.9 140.98 119.57 138.79 116.07 130.87C111.62 135.2 106.54 137.48 101.59 139.76C97.9299 141.45 96.1899 139.98 95.6999 135.94C95.5899 135.06 95.7999 134.08 94.8599 133.52C93.8299 132.91 93.1599 133.64 92.5299 134.27C90.3499 136.45 88.2799 138.75 86.0099 140.83C82.7299 143.83 79.7299 144.7 76.1299 144.01C74.6399 144.24 73.1599 144.47 71.6699 144.7C70.4999 144.42 69.2699 144.54 68.1699 143.83C67.4599 143.37 66.3899 143.11 66.3699 144.49C66.3499 145.66 67.4699 145.58 68.3099 145.69C69.0899 146.06 69.8699 146.45 70.6399 146.84Z" fill="#FDFBD8"/>
<path d="M251.69 206.56C252.64 210.72 253.31 210.98 256.18 208.56C257.76 207.23 258.66 205.55 259.11 203.55C260.97 204.01 260.88 205.47 261.36 206.5C263.92 212.03 268.37 215.77 273.47 218.63C292.97 229.57 313.53 236.79 336.23 237.58C349.66 238.05 362.16 235.99 373.93 229.41C387.81 221.64 396.25 209.5 401.77 195.07C404.94 186.78 407.64 178.31 410.53 169.91C410.93 168.74 411.19 167.51 412.26 166.67C413.25 172.25 402.31 200.39 393.57 214.82C392.99 215.53 392.41 216.24 391.83 216.95C391.19 217.52 390.39 218.04 391.16 219.06C390.25 219.62 389.06 219.97 388.46 220.77C383.64 227.23 375.7 229.59 370.05 234.92C369.79 235.16 369.46 235.46 369.14 235.48C361.54 235.97 354.6 239.76 346.84 239.62C335.31 239.41 323.89 239.19 312.54 236.31C299.73 233.06 287.49 228.61 275.87 222.39C269.4 218.92 263.78 214.42 259.9 208.08C256.92 209.24 255.41 213.7 251.35 211.31C250.94 210.64 250.54 209.97 250.13 209.3C250.26 208.4 250.39 207.5 250.51 206.59C250.91 206.59 251.3 206.58 251.69 206.56ZM335.48 238.5C335.48 238.61 335.48 238.73 335.48 238.84C339.38 238.84 343.29 238.84 347.19 238.84C347.19 238.73 347.19 238.61 347.19 238.5C343.28 238.5 339.38 238.5 335.48 238.5Z" fill="#685C6E"/>
<path d="M521.87 121.77C522.58 121.43 523.06 120.87 523.03 120.09C522.85 114.87 516.87 107.59 511.04 108.24C507.22 108.66 503.53 109.08 500.05 110.77C498.35 111.6 496.57 112.27 493.99 113.38C497.14 106.84 499.6 101.11 502.58 95.6601C507.74 86.2201 506.55 77.4801 500.05 69.3701C488.19 54.5501 474.65 42.0901 455.4 37.4601C431.47 31.7101 404.1 41.1001 392.37 70.0401C391.73 71.6201 393.66 74.2601 390.57 74.8401L390.56 74.7701C389.4 73 389.96 71.2401 390.59 69.4901C390.79 68.8901 390.99 68.2901 391.18 67.6801C391.83 67.2901 391.99 66.6701 391.97 65.9701C397 56.8301 402.87 48.4301 411.87 42.6501C419.18 37.9601 427.11 35.2201 435.76 34.5401C440.45 35.6801 445.14 35.6601 449.84 34.5601C472.02 37.4901 487.45 50.9801 500.95 67.3901C502.77 69.6001 504.26 72.1701 505.49 74.7701C508.34 80.7901 508.63 86.95 505.71 93.11C503.55 97.68 501.47 102.3 499.36 106.9C498.82 108.15 498.72 109.01 500.52 108.27C502.24 107.78 503.95 107.23 505.69 106.81C515.41 104.48 522.88 109.34 525.09 119.42C524.32 120.51 523.56 121.6 522.79 122.68C522.49 122.38 522.18 122.07 521.87 121.77Z" fill="#6F6473"/>
<path d="M216.03 108.47C219.81 102.12 223.16 95.5001 227.73 89.6601C229.46 87.4501 228.64 86.1101 226.72 84.8501C224.41 83.3301 221.77 82.8001 219.12 82.2801C219.85 81.8901 220.58 81.5101 221.31 81.1201C224.81 81.4201 227.75 83.0201 230.57 85.4501C236.06 79.1701 241.47 73.1001 247.51 67.6501C258.44 57.8101 269.85 48.6601 283.45 42.6601C284.26 42.3001 285.15 42.1001 286 41.8301C286.47 42.1601 286.95 42.5001 287.42 42.8301C266.15 52.3101 248.82 66.8801 234.03 84.6001C229 90.6301 224.53 97.1201 220.69 104.04C214.34 115.48 211.23 127.41 214.69 140.26C213.22 141.48 212.44 140.29 211.61 139.84C206.02 136.79 200.73 138.85 195.52 140.83C193.81 141.48 192.69 143.08 192.86 145.15C192.95 146.24 193.05 147.33 192.41 148.3C192 148.92 191.4 149.36 190.6 149.14C190.05 148.99 189.72 148.56 189.68 147.95C189.57 146.14 191.42 144.15 189.01 142.55C186.65 140.98 184.13 140.28 181.32 140.44C180.43 140.49 179.52 140.31 178.62 140.24C178.62 140.24 178.65 139.89 178.65 139.9C181.11 139.59 183.69 140.55 186.07 139.25C186.75 139.45 187.55 139.47 188.09 139.87C190.28 141.47 192.03 141.95 193.56 138.95C194.74 136.64 197.04 136.05 199.55 135.99C202.64 135.91 205.67 136.17 208.69 136.8C210.82 137.24 211.68 136.53 211.37 134.24C210.17 125.15 212.44 116.69 216.03 108.47Z" fill="#6B6271"/>
<path d="M178.67 139.89L178.64 140.24C166.14 142.62 164.63 150.19 169 164.33C169.21 165 169.73 165.56 169.96 166.23C170.05 166.48 169.84 166.95 169.62 167.18C169.21 167.61 168.6 167.66 168.23 167.21C158.32 155.05 144.73 155.55 131.45 157.57C112.33 160.48 98.9598 172.53 88.3698 187.95C85.4098 192.26 82.7498 196.8 81.2598 201.89C77.5998 208.52 77.1798 216.14 74.8798 223.23C74.3098 219.44 74.9597 215.82 75.8597 212.27C81.6397 189.21 94.9998 171.96 115.84 160.56C120.78 157.86 126.04 155.94 131.74 155.54C137.53 156.57 143.31 156.68 149.1 155.51C152.06 155.32 154.81 156.23 157.49 157.27C159.98 158.24 162.38 159.46 165.56 160.9C164.84 154.31 165.9 148.2 165.85 142.03C166 141.62 165.92 141.31 165.43 141.19L165.45 141.17C167.15 143.09 168.86 142.13 170.6 141.21C172.43 140.24 174.2 139.03 176.42 139.17C176.97 139.99 177.86 139.82 178.67 139.89Z" fill="#726A79"/>
<path d="M489.98 239.14C495.99 236.69 502.38 235.11 507.82 231.35C523.69 221.89 533.53 208.47 534.34 188.22C538.52 193.18 542.54 195.78 546.98 197.75C546.68 198.13 546.39 198.52 546.09 198.9C542.46 198.13 539.61 195.85 536.19 193.34C531.76 218.91 515.59 232.92 492.15 239.92C491.42 239.65 490.7 239.39 489.98 239.14Z" fill="#6B6271"/>
<path d="M172.04 72.2801C160.51 65.7601 149.17 68.1601 138.27 73.6301C127.69 78.9401 119.49 87.1301 112.9 96.9601C109.96 101.34 108.87 106.1 109.96 112.24C107.38 110.14 106.05 107.68 103.27 107.74L103.24 107.24C104.04 107.16 104.91 107.29 105.47 106.49C106.09 106.23 107.16 106.71 107.35 105.87C110.34 92.9801 119.52 84.7701 129.22 77.0101C134.8 72.5501 141.15 69.4701 148.13 67.7701C149.55 67.4301 150.94 67.0901 152.41 67.2501C156.35 68.3701 160.31 68.2701 164.27 67.3401C167.12 67.6701 169.7 68.6801 171.98 70.4201C172.01 71.0301 172.02 71.6501 172.04 72.2801Z" fill="#726A79"/>
<path d="M79.3298 225.82C81.6498 235.47 87.5098 242.71 95.3698 248.28C103.75 254.22 112.9 258.41 123.55 258.31C126.51 258.28 128.99 260.14 131.71 261.07C131.95 261.48 132.18 261.89 132.42 262.31C131.43 262.26 130.43 262.21 129.44 262.16C128.23 261.1 127.23 259.33 125.25 260.95C118.79 261.24 112.86 259.02 107.04 256.75C94.2598 251.76 84.4098 243.41 78.8198 230.6C78.1298 229.04 76.0798 227.06 79.3298 225.82Z" fill="#6F6473"/>
<path d="M390.57 74.7601L390.58 74.8301C389.66 76.9201 391.4 78.2001 392.18 79.7001C394 83.1901 394.71 86.8401 394.29 90.7301C394.21 91.4601 394.06 92.1801 393.07 92.1301C392.91 92.0501 392.63 91.9601 392.63 91.9101C393.56 84.0501 389.7 78.0001 385 72.4201C373.55 58.8401 360.72 47.0001 343.55 40.9201C342.84 40.6701 342.27 40.2801 341.91 39.6001L341.77 39.7601C344.42 38.5301 346.63 40.1201 348.82 41.0601C358.71 45.2901 367.29 51.5101 374.94 59.0101C378.79 62.7901 382.44 66.7801 386.17 70.6801C387.54 72.1501 387.85 74.7401 390.57 74.7601Z" fill="#685C6E"/>
<path d="M571.92 192.36C574.34 189.45 576.88 186.64 579.15 183.62C586.11 174.39 585.33 164.71 580.11 155.16C575.89 147.43 568.93 142.55 561.14 138.78C559.68 138.07 558.19 137.43 556.71 136.76C556.72 136.39 556.73 136.03 556.74 135.66C569.39 137.81 582.38 150.82 585.3 163.14C587.88 174.02 583.36 182.1 576.67 189.69C575.48 191.04 574.06 192.18 572.75 193.42C572.48 193.06 572.2 192.71 571.92 192.36Z" fill="#6B6271"/>
<path d="M76.1299 143.99C79.7299 144.68 82.7399 143.81 86.0099 140.81C88.2799 138.73 90.3499 136.43 92.5299 134.25C93.1599 133.61 93.8399 132.89 94.8599 133.5C95.7899 134.05 95.5899 135.04 95.6999 135.92C96.1899 139.96 97.9299 141.43 101.59 139.74C106.54 137.46 111.61 135.18 116.07 130.85C119.57 138.77 126.9 140.96 134.22 143.18C133.39 143.37 132.49 143.37 131.85 144.07C125.4 142.84 119.89 140.03 115.93 134.58C112.4 136.11 108.97 137.63 105.86 139.83C104.56 140.75 102.97 141.38 101.42 141.82C96.9999 143.07 94.5899 141.67 92.8899 136.87C88.8899 140.27 85.8799 144.91 80.3999 146.07C79.1999 144.92 78.1499 143.47 76.1299 143.99Z" fill="#6F6473"/>
<path d="M103.25 107.23L103.28 107.73C100.87 108.58 97.9301 108.5 97.1401 111.93C96.9201 112.91 95.5001 113.39 94.3801 112.69C93.4101 112.09 93.5401 111.12 94.1301 110.34C96.0201 107.87 94.2301 106.85 92.4301 105.79C88.3701 103.41 80.6301 103.02 76.3101 107.63C72.6801 111.49 69.22 115.37 70.42 121.42C70.83 123.51 69.3301 124.4 67.3901 123.38C64.0301 121.62 60.8 119.76 56.91 119.16C53.8 118.68 50.82 118.58 47.79 119.35C49.03 117.82 50.7701 118.45 52.3301 118.28C54.0701 118.09 55.9701 118.87 57.5101 117.44C60.0201 118.39 62.78 118.51 65.16 119.92C66.92 120.96 67.8301 120.02 68.1201 118.25C68.7301 114.57 70.52 111.48 72.85 108.65C78.81 101.4 87.4 99.8901 94.92 105.37C97.17 107 99.11 106.35 101.23 106.54C101.73 107.26 102.49 107.24 103.25 107.23Z" fill="#6B6271"/>
<path d="M172.04 72.2801C172.02 71.6601 172.01 71.0401 171.99 70.4101C178.71 74.1701 183.64 79.4901 186.21 87.3201C193.23 84.0201 200.16 81.0601 207.88 81.0401C208.31 82.0201 209.13 82.3601 210.12 82.4001C200.83 83.3101 191.89 85.1801 184.15 92.5401C184.8 82.3501 178.44 77.3001 172.04 72.2801Z" fill="#6F6473"/>
<path d="M201.58 252.42C206.71 249.37 212.04 246.62 216.41 242.43C221.87 237.2 226 231.1 228.67 224.03C230.08 223.39 229.46 221.48 230.72 220.75C230.89 223.92 229.68 226.74 228.28 229.44C222.73 240.17 214.59 248.22 203.41 253.04C202.95 252.41 202.26 252.42 201.58 252.42Z" fill="#6B6271"/>
<path d="M287.43 42.8201C286.96 42.4901 286.48 42.1501 286.01 41.8201C301.31 35.2001 317.22 33.9101 333.56 36.4201C331.68 36.8401 329.66 36.1701 327.85 37.1401C324.09 36.8901 320.33 36.3401 316.6 37.4101C306.53 37.3601 296.89 39.6201 287.43 42.8201Z" fill="#726A79"/>
<path d="M201.58 252.42C202.26 252.42 202.95 252.4 203.41 253.05C192.73 258.45 181.3 261.19 169.51 262.62C168.11 261.98 166.74 261.76 165.53 263.03C160.49 263.76 155.43 263.57 150.37 263.33L150.42 263.14C153.95 262.5 157.67 263.99 161.09 262.15C163.6 260.99 166.33 261.56 168.93 261.15C174.48 261.29 179.74 259.87 184.95 258.17C187.66 257.36 190.38 256.55 193.09 255.74C194.95 255.75 196.54 255.03 197.99 253.93C199.19 253.43 200.39 252.93 201.58 252.42Z" fill="#655768"/>
<path d="M549.14 135.27C541.81 135.23 534.46 135.01 527.41 137.85C526.57 136.23 527.5 135.01 528.22 133.84C528.78 132.93 529.61 132.19 530.33 131.38C532.04 129.43 532.7 127.16 531.29 124.92C529.79 122.54 527.5 122.47 525.14 123.77C526.01 121.76 527.8 122.72 529.22 122.5C529.81 122.54 530.25 122.3 530.53 121.77C534.66 125.38 534.81 126.27 532.24 133.29C533.77 134.47 535.63 133.5 537.25 133.88C541.17 135.26 545.23 133.95 549.19 134.53C549.16 134.77 549.15 135.02 549.14 135.27Z" fill="#726A79"/>
<path d="M57.4901 117.45C55.9501 118.89 54.0501 118.11 52.3101 118.29C50.7501 118.46 49.0101 117.83 47.7701 119.36C46.0601 120.66 44.4701 122.05 43.3201 123.9C41.2301 127.26 40.44 133.23 44.47 136.64C45.38 137.41 46.6201 138.04 46.4401 139.58C40.6001 136.52 38.7401 132.76 40.1101 126.86C41.3701 121.44 46.9601 116.31 51.5601 117.06C53.5101 117.37 55.5201 117.33 57.4901 117.45Z" fill="#685C6E"/>
<path d="M407.02 219.97C408.62 219.46 409.94 219.9 410.75 221.34C415.21 229.18 422.63 233.27 430.38 236.95C430.08 237.34 429.78 237.73 429.48 238.11C419.7 234.9 412.75 228.19 407.02 219.97Z" fill="#685C6E"/>
<path d="M230.72 220.75C229.46 221.48 230.07 223.39 228.67 224.03C228.66 222.22 228.64 220.41 228.63 218.6C229.64 218.44 230.06 217.54 230.69 216.92C230.86 216.61 231.03 216.29 231.2 215.98C234.06 219.28 237.47 217.92 240.6 216.79C244.52 215.37 247.7 212.75 250.14 209.3C250.55 209.97 250.96 210.64 251.36 211.31C249.6 212.83 247.93 214.47 246.06 215.84C242.53 218.44 238.69 220.22 234.12 219.86C232.95 219.77 231.55 219.36 230.72 220.75Z" fill="#726A79"/>
<path d="M442.54 240.23C448.62 240.63 454.66 241.65 460.78 241.54C459.85 243.2 457.86 242.04 456.69 243.06C451.41 243.54 446.18 243.55 441.18 241.41C441.64 241.01 442.09 240.62 442.54 240.23Z" fill="#655768"/>
<path d="M162.78 141.88C158.94 143.06 155.33 145.02 151.21 145.19C150.88 144.77 150.54 144.34 150.21 143.92C153.82 142.82 157.5 142.03 161.01 140.48C164.34 139.01 166.68 135.77 170.6 134.89C169.96 138.26 165.96 138.19 165.45 141.16L165.43 141.18C164.27 140.43 163.57 141.33 162.78 141.88Z" fill="#685C6E"/>
<path d="M546.08 198.89C546.38 198.51 546.67 198.12 546.97 197.74C552.34 198.68 557.74 199.19 563.2 198.81C563.53 199.22 563.86 199.63 564.18 200.03C558.03 201.6 552.03 200.64 546.08 198.89Z" fill="#685C6E"/>
<path d="M150.2 143.92C150.53 144.34 150.87 144.77 151.2 145.19C144.65 146.44 138.21 145.84 131.84 144.07C132.48 143.37 133.38 143.37 134.22 143.18C137.75 143.26 141.25 144.16 144.81 143.59C146.61 143.7 148.41 143.81 150.2 143.92ZM147.21 144.92C145.51 144.5 144.03 144.41 142.32 144.98C144.05 145.42 145.52 145.49 147.21 144.92Z" fill="#6B6271"/>
<path d="M489.98 239.14C490.7 239.4 491.43 239.65 492.15 239.91C486.35 241.96 480.34 242.8 474.23 243.01C474.82 242.48 475.79 242.42 476.06 241.51C478.89 240.84 481.74 240.32 484.66 240.31C485.87 240.38 487.14 240.66 488.02 239.45C488.66 239.34 489.32 239.24 489.98 239.14Z" fill="#655768"/>
<path d="M476.05 241.51C475.77 242.42 474.8 242.48 474.22 243.01C468.38 243.72 462.54 243.93 456.7 243.06C457.87 242.03 459.86 243.2 460.79 241.54C465.88 241.53 470.96 241.52 476.05 241.51Z" fill="#685C6E"/>
<path d="M150.43 263.13L150.38 263.32C144.36 263.49 138.33 263.96 132.41 262.3C132.17 261.89 131.94 261.48 131.7 261.06C135.72 261.21 139.77 261.05 143.72 262.11C143.17 262.55 142.01 261.8 141.77 263.13C144.72 263.13 147.57 263.13 150.43 263.13Z" fill="#6B6271"/>
<path d="M564.19 200.03C563.86 199.62 563.53 199.21 563.21 198.81C564.68 198.23 566.16 197.67 567.62 197.08C569.8 196.2 571.47 194.83 571.92 192.36C572.2 192.71 572.48 193.07 572.76 193.42C573.11 195.14 572.64 196.46 571.04 197.37C568.88 198.59 566.76 199.88 564.19 200.03Z" fill="#726A79"/>
<path d="M442.54 240.23C442.09 240.62 441.64 241.02 441.19 241.41C437.03 241.22 433.3 239.5 429.48 238.11C429.78 237.72 430.08 237.33 430.38 236.95C434.44 238.04 438.49 239.13 442.54 240.23Z" fill="#6B6271"/>
<path d="M210.12 82.4001C209.12 82.3601 208.31 82.0201 207.88 81.0401C212.36 80.1501 216.84 79.9701 221.31 81.1201C220.58 81.5101 219.85 81.8901 219.12 82.2801C216.12 82.3201 213.12 82.3601 210.12 82.4001Z" fill="#726A79"/>
<path d="M149.08 155.49C143.3 156.66 137.51 156.55 131.72 155.52C137.51 154.69 143.29 154.88 149.08 155.49Z" fill="#522C47"/>
<path d="M76.1301 143.99C78.1401 143.47 79.1901 144.92 80.4001 146.06C77.2401 147.43 73.8701 146.26 70.6401 146.83C69.8601 146.44 69.0801 146.05 68.3101 145.66C69.4101 145.25 70.8301 145.94 71.6801 144.67C73.1601 144.45 74.6501 144.22 76.1301 143.99Z" fill="#838C98"/>
<path d="M449.86 34.5601C445.17 35.6601 440.47 35.6801 435.78 34.5401C440.48 34.0301 445.17 33.9201 449.86 34.5601Z" fill="#522C47"/>
<path d="M327.85 37.15C329.66 36.18 331.68 36.85 333.56 36.43C335.4 36.38 337.15 36.75 338.77 37.64C338.74 38.06 338.71 38.49 338.68 38.91C335.07 38.33 331.46 37.74 327.85 37.15Z" fill="#6B6271"/>
<path d="M549.18 134.53C545.22 133.95 541.16 135.26 537.24 133.88C541.1 133.79 544.97 133.69 548.83 133.63C549.69 133.62 550.61 133.61 550.97 134.68C550.37 134.62 549.78 134.57 549.18 134.53Z" fill="#522C47"/>
<path d="M164.28 67.33C160.32 68.25 156.37 68.3601 152.42 67.2401C156.38 66.8801 160.34 66.58 164.28 67.33Z" fill="#522C47"/>
<path d="M390.57 74.7601C387.86 74.7401 387.54 72.1501 386.19 70.6701C387.59 70.0201 388.92 69.0901 390.61 69.4801C389.97 71.2301 389.41 72.9901 390.57 74.7601Z" fill="#FEFCD8"/>
<path d="M529.21 122.5C527.78 122.72 526 121.76 525.13 123.77L525.11 123.81C524.11 123.9 523.3 123.61 522.8 122.68C523.57 121.59 524.33 120.5 525.1 119.42C525.27 119.65 525.32 119.9 525.24 120.18C526.03 122.53 527.92 121.49 529.46 121.56L529.5 121.57C529.54 121.91 529.44 122.23 529.21 122.5Z" fill="#4F3C52"/>
<path d="M125.24 260.95C127.22 259.33 128.22 261.1 129.43 262.16C128.01 261.82 126.24 262.74 125.24 260.95Z" fill="#6B6271"/>
<path d="M338.68 38.9101C338.71 38.4901 338.74 38.0601 338.77 37.6401C340.31 37.5801 341.47 38.0601 341.78 39.7401L341.92 39.5801C341.02 39.6401 340.11 39.6901 339.21 39.7401C339.11 39.4201 338.93 39.1401 338.68 38.9101Z" fill="#655768"/>
<path d="M556.74 135.66C556.73 136.03 556.72 136.39 556.71 136.76C555.78 136.72 554.94 136.46 554.21 135.87C553.95 135.48 553.7 135.1 553.44 134.71C554.68 134.55 555.93 134.36 556.74 135.66Z" fill="#685C6E"/>
<path d="M529.47 121.55C527.93 121.48 526.04 122.52 525.25 120.17C526.66 120.63 528.06 121.09 529.47 121.55Z" fill="#6F6473"/>
<path d="M165.53 263.03C166.74 261.76 168.1 261.98 169.51 262.62C168.25 263.39 166.88 263.09 165.53 263.03Z" fill="#685C6E"/>
<path d="M103.25 107.23C102.49 107.23 101.73 107.26 101.22 106.54C102.64 106.52 104.06 106.5 105.48 106.48C104.92 107.29 104.05 107.16 103.25 107.23Z" fill="#522C47"/>
<path d="M549.18 134.53C549.78 134.58 550.38 134.63 550.98 134.67C551.44 134.72 551.9 134.77 552.35 134.82C552.36 135.09 552.36 135.36 552.36 135.64C551.29 135.52 550.22 135.39 549.14 135.27C549.15 135.02 549.16 134.77 549.18 134.53Z" fill="#685C6E"/>
<path d="M552.36 135.64C552.36 135.37 552.36 135.1 552.35 134.82C552.72 134.79 553.08 134.75 553.45 134.72C553.71 135.11 553.96 135.49 554.22 135.88C553.56 136.06 552.94 136.04 552.36 135.64Z" fill="#6B6271"/>
<path d="M162.78 141.88C163.57 141.33 164.27 140.42 165.42 141.18C165.91 141.29 165.99 141.6 165.84 142.02C164.82 141.97 163.8 141.92 162.78 141.88Z" fill="#EBE7CA"/>
<path d="M391.99 65.9601C392.01 66.6601 391.85 67.2801 391.2 67.6701C391.17 66.9601 391.41 66.3901 391.99 65.9601Z" fill="#FEFCD8"/>
<path d="M529.21 122.5C529.43 122.23 529.53 121.92 529.5 121.57C529.88 121.44 530.22 121.51 530.52 121.78C530.24 122.3 529.81 122.54 529.21 122.5Z" fill="#6F6473"/>
<path d="M391.17 219.07C390.4 218.05 391.2 217.53 391.84 216.96C391.62 217.66 391.39 218.36 391.17 219.07Z" fill="#ECE8CB"/>
<path d="M338.68 38.9101C338.94 39.1401 339.11 39.4201 339.21 39.7501C332.6 39.7401 325.96 40.4101 319.41 38.7801C318.33 38.5101 317.33 38.3301 316.61 37.4201C320.33 36.3401 324.1 36.9001 327.86 37.1501C331.46 37.7401 335.07 38.3301 338.68 38.9101Z" fill="white"/>
<path d="M522.8 122.68C523.3 123.6 524.11 123.9 525.11 123.81C524.99 125.6 523.51 126.16 522.23 126.7C520.97 127.22 519.33 128.03 518.42 126.23C517.64 124.68 518.5 123.43 519.88 122.61C520.49 122.25 521.2 122.06 521.87 121.79C522.18 122.07 522.49 122.38 522.8 122.68Z" fill="#726A79"/>
<path d="M150.43 263.13C147.57 263.13 144.72 263.13 141.77 263.13C142.01 261.8 143.17 262.55 143.72 262.11C145.51 262.07 147.3 262.04 149.09 262C153.09 262.05 157.09 262.09 161.09 262.14C157.68 263.98 153.96 262.49 150.43 263.13Z" fill="#522C47"/>
<path d="M184.96 258.17C179.75 259.87 174.49 261.29 168.94 261.15C174.28 260.15 179.62 259.16 184.96 258.17Z" fill="#6B6271"/>
<path d="M230.68 216.92C230.05 217.55 229.63 218.44 228.62 218.6C227.22 217.15 225.18 218.01 222.83 217.03C225.89 215.35 228.28 216.06 230.68 216.92Z" fill="#4F3C52"/>
<path d="M198 253.93C196.55 255.03 194.96 255.75 193.1 255.74C194.6 254.76 196.29 254.31 198 253.93Z" fill="#6B6271"/>
<path d="M488.01 239.44C487.13 240.65 485.86 240.37 484.65 240.3C485.67 239.63 486.8 239.38 488.01 239.44Z" fill="#6B6271"/>
<path d="M251.69 206.56C251.3 206.57 250.91 206.58 250.51 206.59C250.56 206.14 250.73 205.74 251.26 205.88C251.45 205.95 251.55 206.33 251.69 206.56Z" fill="#726A79"/>
<path d="M150.2 143.92C148.4 143.81 146.61 143.7 144.81 143.59C144.53 142.74 144.44 141.75 143.93 141.08C140.42 136.44 141.52 131.67 144.17 127.43C150.49 117.3 158.66 108.98 169.6 103.71C175.06 101.08 180.82 100.25 186.83 99.5701C193.87 98.7801 200.42 99.8101 206.85 102.17C210.36 103.46 213.99 104.88 216.03 108.46C212.44 116.68 210.17 125.14 211.39 134.21C211.7 136.5 210.83 137.21 208.71 136.77C205.7 136.14 202.66 135.89 199.57 135.96C197.07 136.02 194.76 136.61 193.58 138.92C192.05 141.92 190.3 141.44 188.11 139.84C187.57 139.45 186.77 139.42 186.09 139.22C182.87 138.33 179.64 138.8 176.41 139.15C174.18 139.01 172.42 140.22 170.59 141.19C168.85 142.11 167.15 143.07 165.44 141.15C165.95 138.18 169.95 138.25 170.59 134.88C166.67 135.76 164.33 139 161 140.47C157.49 142.04 153.81 142.82 150.2 143.92Z" fill="#EBE7CA"/>
<path d="M71.6797 144.68C70.8297 145.95 69.4097 145.26 68.3097 145.67C67.4797 145.55 66.3597 145.64 66.3697 144.47C66.3897 143.1 67.4597 143.35 68.1697 143.81C69.2797 144.52 70.5097 144.4 71.6797 144.68Z" fill="#4F3C52"/>
<path d="M335.48 238.5C339.38 238.5 343.29 238.5 347.19 238.5C347.19 238.61 347.19 238.73 347.19 238.84C343.29 238.84 339.38 238.84 335.48 238.84C335.48 238.72 335.48 238.61 335.48 238.5Z" fill="#522C47"/>
<path d="M500.54 108.26C498.74 109 498.84 108.14 499.38 106.89C499.76 107.35 500.15 107.8 500.54 108.26Z" fill="white"/>
<path d="M176.4 139.17C179.63 138.82 182.86 138.35 186.08 139.24C183.7 140.55 181.13 139.58 178.66 139.89C177.86 139.82 176.97 139.99 176.4 139.17Z" fill="#522C47"/>
<path d="M147.21 144.92C145.52 145.49 144.04 145.42 142.32 144.98C144.03 144.41 145.51 144.5 147.21 144.92Z" fill="#522C47"/>
</g>
<defs>
<clipPath id="clip0_43_429">
<rect width="634" height="299" fill="white"/>
</clipPath>
</defs>
</svg>
