<svg width="510" height="341" viewBox="0 0 510 341" fill="none" xmlns="http://www.w3.org/2000/svg">
<g clip-path="url(#clip0_43_286)">
<path d="M96.7998 261.47C94.8298 261.46 92.8598 261.49 90.8998 261.42C88.1098 261.32 86.1298 260.09 85.4698 257.2C84.3298 254.79 81.8398 253.82 79.9898 252.18C75.3498 248.08 71.9798 243.31 72.3598 236.82C73.1398 223.39 80.1798 213.3 91.1598 208.78C95.7398 206.89 100.51 206.15 105.27 208.44L105.36 208.53C105.51 209.07 105.66 209.62 105.81 210.16C105.99 211.16 107.15 212.18 107.47 211.56C108.71 209.19 110.09 209.51 111.71 210.83C112.49 211.46 113.15 212.93 114.13 211.46C114.83 210.41 113.72 209.47 112.87 208.82C111.72 207.94 110.46 207.26 108.97 207.14C108.6 207.08 108.23 207.01 107.87 206.95C105.94 203.45 106.29 201.11 109.1 199.13C111.09 197.73 113.37 197.03 115.78 197.21C123.52 197.76 130.21 200.09 133.31 208.16C133.58 208.86 134.17 209.33 135.01 209.16C135.86 208.99 136.09 208.35 136.24 207.59C136.47 206.4 135.59 205.55 135.4 204.51C134.94 202.02 136.65 199.13 138.86 198.42C141.12 197.7 144.96 198.89 144.84 200.72C144.49 205.7 148.14 202.88 150.42 204.96C148.12 199.96 148.1 199.95 149.26 197.43C158.61 177.04 173.1 161.68 193.61 152.26C196.73 150.83 199.83 149.28 203.36 149.09C207.73 149.72 212.08 150.3 216.5 149.25C218.01 148.89 219.83 148.94 221.27 149.46C224.26 150.53 227.26 150.22 230.29 150.21C231.33 150.42 232.39 150.56 233.4 150.87C240 152.85 245.23 157.21 250.79 160.99C251.44 161.55 252.1 162.11 252.75 162.66C253.43 164.39 255.16 165.21 256.19 166.64C255.78 168.73 255.75 170.83 256.01 172.94C256.1 173.7 256.61 174.26 257.38 174.29C258.23 174.32 258.59 173.71 258.57 172.93C258.52 170.83 258.43 168.72 258.36 166.62C259.35 163.14 262.11 163.18 264.93 163.31C269.12 163.5 270.98 166.23 272.06 170.26C271.98 165.56 274.96 163.16 277.8 160.75C287.26 152.71 298.24 148.72 310.65 148.36C315.75 148.21 320.75 149.14 325.82 149.22C333.64 150.73 341.42 152.4 348.62 155.93C365.7 164.29 380.39 174.91 384.64 195.1C384.66 197.24 384.69 199.38 384.71 201.52C384.54 202.88 384.67 204.11 386.13 204.75C388.26 206.35 390.03 206.14 391.67 203.92C392.95 202.18 394.4 200.45 396.46 199.63C397.94 199.04 399.43 199.07 399.1 201.44C398.86 203.12 398.43 204.82 399.36 206.36C399.98 206.21 400.23 206.22 400.3 206.12C400.59 205.69 401.02 205.24 401.04 204.77C401.49 196.82 406.83 192.62 413.14 189.41C421.36 185.24 427.01 187.47 430.25 196.12C431.7 199.99 432.57 204.08 433.7 208.07C433.41 211.34 433.38 214.61 433.72 217.87C433.49 218.87 433.13 219.86 433.08 220.87C433.02 221.97 432.81 223.41 434.76 223.12C435.85 222.55 437.23 222.22 437.98 221.35C439.83 219.22 442.16 218.85 444.71 218.9C450.05 223.87 450.61 229.85 445.88 234.76C444.45 236.24 444.19 237.28 445.27 238.89C445.86 239.78 446.37 240.75 446.77 241.75C448.76 246.71 446.98 251.09 442.09 253.26C440.79 253.84 439.44 254.3 438.11 254.82C435.12 254.88 432.12 254.95 429.13 255.01C425.24 254.22 421.35 253.44 417.46 252.65C413.58 250.34 408.5 249.24 408.59 243.03C408 243.5 407.84 243.58 407.74 243.71C406.9 244.81 407.26 246.14 407.06 247.36C406.45 251.1 405.89 251.32 402.85 248.95C402.3 248.52 401.89 247.84 401.03 248.09C401.49 256.71 398.75 261.03 390.63 264.54C386.76 266.21 382.6 266.5 378.49 267C377.31 266.95 376.13 266.91 374.95 266.86C374.22 266.48 373.5 266.1 372.78 265.71C374.13 263.72 376.36 263.32 378.39 262.66C381.9 261.51 385.04 259.86 387.52 257.03C391.71 252.24 391.88 249.99 388.36 244.64C386.77 242.23 385.42 239.65 383.27 237.64C382.22 236.65 381.28 235.37 379.69 235.37C372.26 235.37 364.74 234.74 357.41 235.66C346.06 237.09 335.43 241.25 325.2 246.44C319.7 249.23 314.49 252.47 309.19 255.59C303.55 258.91 294.84 257.51 291.91 249.23C290.83 246.19 288.77 243.83 286.13 242.21C275.52 235.65 263.86 234.33 252.18 237.67C238.03 241.72 226.19 250.14 215.51 260.14C213.13 262.37 210.8 264.67 208.6 267.08C206.54 269.33 206.66 270 209.1 271.78C212.25 274.08 216 274.75 219.69 275.64C224.04 276.69 228.96 277.02 231.54 281.31C233.61 284.75 236.69 286.27 240.1 287.54C245.25 289.46 250.6 290.09 256.09 289.84C257.74 289.76 259.91 289.08 260.48 291.75C257.54 291.83 254.59 291.92 251.65 292C251.14 291.84 250.63 291.58 250.11 291.55C241.67 291.12 233.31 290.18 225.16 287.8C224.44 287.59 223.76 287.88 223.2 288.39C223.11 288.23 223.06 288.02 222.93 287.92C221.91 287.15 213.98 283.39 213.06 283.1C212.21 282.83 211.39 282.42 210.6 281.99C205.19 278.98 200.21 275.36 196.06 270.77C192.47 266.8 189.43 262.48 190.65 256.54C190.9 255.31 191.26 253.72 189.73 252.23C187.69 253.95 187.45 256.26 187.58 258.48C187.74 261.44 186.1 262.27 183.67 262.44C180.53 262.66 177.44 262.72 175.87 258.59C175.5 262.54 173.53 264.49 170.09 264.98C168.49 264.28 166.94 264.58 165.4 265.18C162.45 265.25 160.51 263.64 158.73 261.48C158.14 260.76 156.74 260.3 155.89 261.51C155.3 262.34 155.71 263.16 156.29 263.96C159.12 267.86 159.03 269.02 155.84 272.39C153.32 275.06 150.02 276.65 147.12 278.79C146.21 278.83 145.41 279.1 144.85 279.87C144.85 279.87 144.85 279.8 144.86 279.8C143.33 279.87 141.84 280.07 140.55 281L140.58 280.92C137.71 280.91 134.84 280.9 131.97 280.89C130.6 279.93 129.06 280.14 127.53 280.2C120.08 278.82 113.94 274.56 108.1 270.28C104.44 267.59 100.1 264.67 99.3498 259.25C99.1698 257.94 98.0998 258.26 97.3598 258.92C96.5498 259.6 96.8298 260.58 96.7998 261.47Z" fill="#FEFBD8"/>
<path d="M376.8 168.28C376.5 169.71 376.21 171.15 375.91 172.58C375.23 171.99 374.51 171.44 373.86 170.82C363.05 160.53 350.51 153.29 336.06 149.51C331.71 148.37 327.23 147.71 322.8 146.83L322.74 146.79C322.37 146.41 321.99 146.03 321.62 145.65C321.41 144.22 321.13 142.8 321.01 141.36C320.68 137.2 320.42 133.05 322.31 129.1C324.85 123.83 329.38 122.57 333.71 126.34C336.8 129.03 340.16 131.72 340.18 136.52C340.18 137.5 340.93 138.51 341.47 139.43C341.72 139.86 342.36 140.23 342.86 139.86C343.24 139.59 343.58 139.04 343.63 138.57C343.82 136.86 342.64 135.5 342.31 133.92C341.89 131.87 342.98 130.87 344.88 130.56C346.67 130.27 347.87 131.6 349.36 132.16C350.99 132.78 351.35 135.32 353.61 134.95C353.07 125.19 368.52 107.16 379.1 106.32C384.97 105.95 390.26 107.07 394.11 112.04C398.21 117.33 398.29 123.57 394.62 129.19C392.93 131.78 389.9 133.49 389.16 137.13C391.22 136.41 392.45 134.77 394.41 134.9C396.97 136.05 399.44 134.46 402 134.65C405.08 134.87 408.13 134.86 410.84 136.68C413.6 138.53 413.74 139.09 412.21 142.36C411.5 143.87 410.86 145.76 412.34 146.81C413.53 147.66 415.5 147.73 416.75 146.22C420.33 141.89 425.46 140.67 430.51 139.28C431.89 139.16 433.35 139.52 434.59 138.57C438.63 138.38 442.67 138.04 446.69 138.81C451.61 140.01 456.57 141.09 461.06 143.56C466.12 146.35 471.33 149.12 468.68 156.66C470.9 155.98 470.86 154.28 471.53 153.07C472.02 154.84 471.96 156.62 471.6 158.4C470.94 158.28 470.03 157.8 469.8 158.78C468.53 164.21 464.03 165.95 459.58 167.39C455.11 168.83 450.43 169.38 445.73 168.22C446.9 167.72 448.04 167.15 449.23 166.74C452.94 165.45 454.64 163.01 454.53 158.97C454.34 152.43 449.34 147.37 442.34 147.01C435.97 146.68 429.78 147.33 423.67 149.36C418.81 150.98 413.37 151.52 408.89 149.32C405.8 147.8 403.05 146.83 399.79 147.04C396.36 147.26 393.35 146.54 390.89 143.97C389.74 142.76 388.23 141.9 386.63 141.72C378.36 140.83 370.85 142.23 364.87 148.77C362.72 151.12 361.97 153.96 363.4 156.19C366.31 160.71 370.12 164.59 375.5 166.36C375.94 167 376.37 167.64 376.8 168.28Z" fill="#FBFAD7"/>
<path d="M203.34 149.09C199.81 149.28 196.71 150.83 193.6 152.26C173.09 161.68 158.6 177.04 149.25 197.43C148.09 199.95 148.11 199.96 150.41 204.96C148.13 202.88 144.48 205.7 144.83 200.72C144.96 198.89 141.11 197.7 138.85 198.42C136.64 199.13 134.93 202.02 135.39 204.51C135.58 205.54 136.46 206.4 136.23 207.59C136.08 208.35 135.85 208.99 135 209.16C134.15 209.33 133.56 208.86 133.3 208.16C130.2 200.1 123.52 197.77 115.77 197.21C113.36 197.04 111.08 197.73 109.09 199.13C106.28 201.11 105.93 203.45 107.86 206.95C107.14 206.95 106.42 206.95 105.71 206.94L105.73 206.97C105.48 205.84 105.86 204.5 104.63 203.7C104.67 199.01 107.83 197.06 111.69 195.95C117.27 194.35 122.45 195.78 127.34 198.55C128.6 199.26 129.77 200.14 130.96 200.96C132.14 201.77 132.96 201.89 134.14 200.59C138.83 195.39 139.33 195.36 146.44 198.07C148.18 196.04 149.11 193.49 150.33 191.11C159.32 173.54 172.85 160.58 190.36 151.69C194.88 149.39 199.53 147.32 204.66 146.72C205.23 147.05 205.78 147.39 205.93 148.11C205.06 148.4 203.98 148.17 203.34 149.09Z" fill="#6F6473"/>
<path d="M379.12 106.34C368.54 107.17 353.08 125.2 353.63 134.97C351.37 135.34 351.01 132.81 349.38 132.18C347.9 131.62 346.7 130.29 344.9 130.58C343 130.89 341.91 131.89 342.33 133.94C342.66 135.52 343.84 136.88 343.65 138.59C343.6 139.05 343.26 139.6 342.88 139.88C342.37 140.25 341.74 139.87 341.49 139.45C340.95 138.53 340.2 137.52 340.2 136.54C340.18 131.74 336.82 129.05 333.73 126.36C329.4 122.59 324.86 123.84 322.33 129.12C320.44 133.06 320.69 137.22 321.03 141.38C321.15 142.82 321.43 144.24 321.64 145.67C321.61 146.06 321.59 146.45 321.56 146.84C317.53 147.55 313.48 147.14 309.44 146.96C312.61 145.69 315.9 147.14 319.31 146.55C319.98 144.05 319.15 141.57 319.05 139.11C318.88 135.07 319.08 131.14 321.14 127.51C324.35 121.85 329.81 120.72 334.83 124.77C335.81 125.56 336.8 126.42 337.55 127.42C339.2 129.62 340.76 130.92 343.76 129.25C346.53 127.7 348.83 130.37 351.53 131.14C354.25 125.35 357.4 119.86 361.74 115.17C365.71 110.88 369.96 106.96 375.9 105.57C376.99 105.7 378.21 105.38 379.12 106.34Z" fill="#685C6E"/>
<path d="M170.06 264.98C173.5 264.49 175.47 262.54 175.84 258.59C177.41 262.72 180.51 262.65 183.64 262.44C186.08 262.27 187.72 261.45 187.55 258.48C187.43 256.26 187.67 253.94 189.7 252.23C191.24 253.72 190.88 255.31 190.62 256.54C189.4 262.49 192.43 266.8 196.03 270.77C200.18 275.36 205.16 278.98 210.57 281.99C211.35 282.43 212.18 282.83 213.03 283.1C213.95 283.39 221.88 287.15 222.9 287.92C223.03 288.02 223.08 288.23 223.17 288.38L223.19 288.33C220.86 289.07 218.56 287.62 216.22 288.23C215.92 288.31 215.41 288.22 215.24 288.01C210.1 281.93 201.8 280.03 196.67 273.87C194.48 271.24 191.73 269.03 190.18 265.94C188.97 263.53 187.4 263.12 184.98 263.74C183.62 264.09 182.05 264.14 180.69 263.83C177.8 263.17 175.48 264.2 173.22 265.74C172.13 265.57 170.9 266.08 170.06 264.98Z" fill="#655768"/>
<path d="M322.81 146.83C327.23 147.71 331.71 148.37 336.07 149.51C350.52 153.29 363.06 160.53 373.87 170.82C374.52 171.44 375.23 171.99 375.92 172.58C379.94 178.18 383.81 183.85 385.41 190.72C385.66 191.8 385.88 192.83 385.69 193.93C385.34 194.32 384.98 194.71 384.63 195.1C380.38 174.92 365.69 164.3 348.61 155.93C341.41 152.4 333.62 150.73 325.81 149.22C325.06 147.87 323.73 148.14 322.53 148.05C322.62 147.64 322.72 147.24 322.81 146.83Z" fill="#6F6473"/>
<path d="M433.71 208.06C432.58 204.07 431.72 199.98 430.26 196.11C427.02 187.47 421.37 185.24 413.15 189.4C406.84 192.6 401.5 196.8 401.05 204.76C401.02 205.22 400.59 205.68 400.31 206.11C400.24 206.21 399.99 206.2 399.37 206.35C398.44 204.81 398.87 203.1 399.11 201.43C399.45 199.06 397.95 199.03 396.47 199.62C394.4 200.44 392.96 202.17 391.68 203.91C390.04 206.13 388.26 206.34 386.14 204.74C388.55 204.68 386.81 203.21 386.94 202.38C388.37 203.31 389.56 203.92 391.02 202.08C393.27 199.23 395.76 196.54 400.08 197.32C401.55 197.58 402.12 196.02 402.93 195.11C406.21 191.38 409.99 188.38 414.7 186.63C421.86 183.97 427.61 186.11 430.97 192.99C433.27 197.71 434.89 202.7 434.83 208.07C434.44 208.06 434.07 208.06 433.71 208.06Z" fill="#6B6271"/>
<path d="M105.27 208.44C100.51 206.15 95.7499 206.89 91.1599 208.78C80.1899 213.31 73.1399 223.39 72.3599 236.82C71.9799 243.31 75.3499 248.08 79.9899 252.18C81.8499 253.82 84.3299 254.78 85.4699 257.2C78.4599 255.32 71.1199 247.02 70.6199 239.82C69.5599 224.5 79.4199 209.33 93.8199 206.08C97.6999 207.58 101.79 206.26 105.73 206.97L105.71 206.94C105.56 207.44 105.41 207.94 105.27 208.44Z" fill="#6B6271"/>
<path d="M322.53 148.05C323.73 148.14 325.06 147.87 325.81 149.22C320.74 149.14 315.74 148.21 310.64 148.36C298.23 148.72 287.25 152.71 277.79 160.75C274.95 163.16 271.97 165.56 272.05 170.26C270.97 166.23 269.12 163.5 264.92 163.31C262.11 163.18 259.35 163.14 258.35 166.62C257.62 166.63 256.9 166.64 256.17 166.65C255.14 165.23 253.41 164.4 252.73 162.67C252.67 162.26 252.6 161.85 252.54 161.43L252.92 161.09C255.22 162.5 257.02 164.84 260.28 161.83C262.06 160.19 265.59 160.74 267.97 162.22C270.91 164.05 272.72 162.9 274.89 160.84C282.52 153.61 291.55 149.01 301.95 147.23C302.65 147.11 303.38 147.16 304.09 147.13C305.07 148.22 306.38 147.86 307.59 147.88C312.59 147.95 317.56 147.99 322.53 148.05Z" fill="#726A79"/>
<path d="M372.76 265.72C373.49 266.1 374.21 266.48 374.94 266.86C374.87 267.02 374.75 267.19 374.76 267.35C374.77 267.47 374.97 267.65 375.09 267.66C377.54 267.68 379.99 267.67 382.56 267.67C381.27 266.59 379.75 267.48 378.48 267C382.59 266.5 386.74 266.21 390.62 264.54C398.74 261.03 401.48 256.71 401.02 248.09C401.88 247.84 402.29 248.52 402.84 248.95C405.88 251.31 406.44 251.09 407.05 247.36C407.25 246.14 406.89 244.81 407.73 243.71C407.83 243.58 407.99 243.5 408.58 243.03C408.49 249.24 413.57 250.34 417.45 252.65C417.44 253.14 417.43 253.62 417.43 254.11C416.08 253.6 414.7 253.18 413.4 252.57C411.94 251.88 410.33 250.17 409.18 250.46C407.47 250.89 406.33 253.02 403.98 252.6C403.35 252.49 403.25 253.66 403.02 254.31C399.69 263.79 391.99 267.14 382.95 268.13C377.58 268.72 372.13 268.41 366.8 267.19C365.76 266.69 365.65 266.06 366.56 265.3C367.15 265.48 367.74 265.66 368.33 265.84C367.77 266.56 368.31 266.69 368.84 266.72C369.3 266.74 369.96 266.9 369.77 266.01C370.76 265.9 371.76 265.81 372.76 265.72Z" fill="#6B6271"/>
<path d="M445.72 168.22C450.42 169.38 455.11 168.83 459.58 167.39C464.03 165.96 468.53 164.22 469.8 158.78C470.03 157.81 470.94 158.28 471.6 158.4C470.08 166.52 463.49 168.8 456.91 169.76C448.91 170.93 440.62 170.93 433.1 167.09C429.48 165.24 425.82 165.58 422.75 167.02C419.22 168.68 415.66 169.14 411.99 169.67C412.75 168.93 413.52 168.19 414.28 167.46C415.91 167.67 417.4 167.65 418.92 166.64C423.56 163.56 428.49 163.03 433.66 165.42C437.47 167.19 441.52 168.08 445.72 168.22Z" fill="#685C6E"/>
<path d="M417.43 254.11C417.44 253.62 417.45 253.14 417.45 252.65C421.34 253.44 425.23 254.22 429.13 255.01C429.04 255.28 427.85 255.02 428.78 255.75C428.89 255.83 429.13 255.76 429.3 255.74C432.23 255.35 435.34 256.68 438.11 254.82C439.44 254.3 440.79 253.84 442.09 253.26C446.98 251.08 448.76 246.7 446.77 241.75C446.37 240.76 445.86 239.78 445.27 238.89C444.19 237.28 444.45 236.24 445.88 234.76C450.61 229.85 450.05 223.87 444.71 218.9C445.09 218.5 445.47 218.1 445.85 217.69C451.28 222.33 452.39 229.48 448.28 234.83C447 236.49 446.86 237.6 447.72 239.58C451.66 248.58 447.49 255.48 437.62 256.15C430.82 256.6 423.95 256.86 417.43 254.11Z" fill="#685C6E"/>
<path d="M379.12 106.34C378.21 105.38 376.99 105.69 375.89 105.54C385.38 102.55 393.9 105.96 397.7 114.38C400 119.48 400.03 124.51 396.78 129.35C396.11 130.35 394.46 131.19 395.63 132.86L395.65 132.84C395.18 132.73 394.56 132.44 394.42 133.14C394.24 134.05 395.08 134.1 395.68 134.31C395.27 134.51 394.85 134.7 394.44 134.9C392.48 134.77 391.25 136.42 389.19 137.13C389.93 133.49 392.97 131.78 394.65 129.19C398.32 123.57 398.24 117.33 394.14 112.04C390.28 107.1 384.99 105.97 379.12 106.34Z" fill="#6F6473"/>
<path d="M96.8001 261.47C96.8201 260.58 96.5501 259.6 97.3201 258.91C98.0601 258.25 99.1301 257.92 99.3101 259.24C100.06 264.66 104.4 267.58 108.06 270.27C113.9 274.56 120.04 278.81 127.48 280.19C126.82 281.45 125.51 280.83 124.55 281.2C115.87 279.4 109.06 274.5 103.07 268.25C100.94 266.03 98.8901 263.73 96.8001 261.47Z" fill="#726A79"/>
<path d="M394.42 134.91C394.83 134.71 395.25 134.52 395.66 134.32C396.25 133.82 396.24 133.33 395.63 132.85L395.61 132.87C396.65 134.12 397.9 132.44 398.98 133.12C401.12 134.11 403.25 134.21 405.36 133.03C411.3 133.56 415.12 137.03 417.75 142.3C421.89 140.28 425.67 137.67 430.41 138.15C430.44 138.53 430.47 138.91 430.5 139.29C425.45 140.68 420.32 141.89 416.74 146.23C415.5 147.73 413.53 147.66 412.33 146.82C410.86 145.78 411.5 143.88 412.2 142.37C413.73 139.1 413.59 138.55 410.83 136.69C408.13 134.88 405.07 134.89 401.99 134.66C399.45 134.48 396.98 136.06 394.42 134.91ZM414.2 142.36C413.79 143.14 413.45 143.59 413.32 144.09C413.25 144.36 413.52 144.72 413.64 145.04C414.03 144.71 414.5 144.43 414.79 144.02C414.9 143.87 414.59 143.43 414.2 142.36Z" fill="#6B6271"/>
<path d="M363.94 269.16C365.03 276.1 361.78 280.97 356.46 284.82C348.72 290.43 340.25 294.15 330.54 294.53C331.07 293.79 332.42 294.52 332.62 293.38C332.65 293.23 331.75 292.92 331.29 292.68L331.3 292.55C336.35 292.57 341.06 291.28 345.45 288.8C347.59 288.2 349.76 287.65 351.09 285.61L351.22 285.74C357.56 282.31 363.25 278.45 361.87 269.85C361.82 269.54 361.92 269.1 362.12 268.87C362.83 268.08 363.33 269.04 363.94 269.16Z" fill="#6F6473"/>
<path d="M363.94 269.16C363.33 269.04 362.82 268.08 362.12 268.87C361.92 269.1 361.82 269.54 361.87 269.85C363.25 278.46 357.56 282.32 351.22 285.74C350.64 283.56 352.25 282.46 353.51 281.24C357.04 277.83 358.97 273.82 358.6 268.8C358.47 267.06 358.19 264.89 360.28 264.13C362.44 263.35 364.84 262.86 366.55 265.28C365.64 266.04 365.75 266.66 366.79 267.17C365.84 267.83 364.89 268.5 363.94 269.16Z" fill="#FBFAD7"/>
<path d="M147.09 278.78C150 276.64 153.29 275.05 155.81 272.38C158.99 269.01 159.09 267.85 156.26 263.95C155.68 263.15 155.27 262.33 155.86 261.5C156.71 260.29 158.11 260.76 158.7 261.47C160.47 263.64 162.41 265.25 165.37 265.17C164.07 266.34 161.92 264.95 160.8 266.67C160.05 272.02 156.13 274.91 152.11 277.64C149.91 279.13 147.64 280.59 144.91 281.02L144.78 280.88C144.8 280.52 144.81 280.16 144.83 279.79V279.86C145.77 279.91 146.66 279.83 147.09 278.78Z" fill="#685C6E"/>
<path d="M223.18 288.33L223.16 288.38C223.72 287.87 224.4 287.58 225.13 287.79C233.28 290.17 241.64 291.11 250.08 291.54C250.6 291.57 251.11 291.83 251.62 291.99C250.27 292.11 248.93 292.23 247.58 292.35C247.6 292.41 247.62 292.47 247.64 292.52C252.84 292.52 258.05 292.52 263.25 292.52C263.24 292.41 263.24 292.31 263.23 292.2C262.7 292.12 262.16 292.04 261.63 291.96C262.29 291.66 262.95 291.35 263.61 291.04C264.76 291.01 265.91 290.99 267.07 290.96C268.86 290.91 270.64 290.87 272.43 290.82L272.55 290.92C270.81 293.08 267.72 290.78 265.98 292.93C257.26 293.66 248.53 293.19 239.81 292.88C236.26 291.73 232.58 291.32 228.9 290.9C227.32 289.36 224.35 290.83 223.18 288.33Z" fill="#6B6271"/>
<path d="M250.78 160.98C245.22 157.2 239.99 152.85 233.39 150.86C232.38 150.56 231.32 150.42 230.28 150.2C227.49 148.65 224.33 148.6 221.31 147.99C221.27 147.7 221.27 147.42 221.31 147.13C224.44 145.99 227.38 147.16 230.33 147.94C238.52 150.12 245.82 153.91 251.78 160.06L251.5 160.43C251.14 160.44 250.9 160.62 250.78 160.98Z" fill="#726A79"/>
<path d="M331.3 292.55L331.29 292.68C327.77 293.82 324 292.49 320.14 293.54C321.42 294.35 322.7 293.85 323.51 294.77C321.37 294.54 319.23 294.3 317.09 294.07C316.15 293.32 315.45 291.53 313.92 293.35C308.21 292.44 303.37 289.63 298.71 286.41C299.76 284.65 300.71 286.45 301.71 286.5C310.91 291.75 320.85 293.41 331.3 292.55Z" fill="#6B6271"/>
<path d="M471.52 153.08C470.86 154.29 470.9 155.99 468.67 156.67C471.32 149.13 466.12 146.37 461.05 143.57C456.56 141.1 451.6 140.02 446.68 138.82C446.72 138.33 446.76 137.84 446.81 137.35C452.71 138.2 458.42 139.73 463.58 142.79C467.56 145.14 471 148.01 471.52 153.08Z" fill="#6F6473"/>
<path d="M376.8 168.28C376.37 167.64 375.94 167 375.51 166.36C375.72 165.51 375.77 164.58 376.18 163.84C376.53 163.2 377.75 163 377.76 163.83C377.84 168.58 382.04 168.34 384.76 169.82C387.8 171.47 391.45 170.59 394.57 172.01C394 172.34 393.12 171.99 392.76 172.82C392.62 172.94 392.48 173.06 392.35 173.18C386.68 173.11 381.7 170.81 376.8 168.28Z" fill="#726A79"/>
<path d="M294.28 286.85C288.37 289.53 282.1 290.82 275.72 291.68C275.72 291.21 275.72 290.74 275.72 290.27C277.54 289.74 279.36 289.21 281.18 288.68C283.7 288.54 286.13 288.09 288.24 286.58C290.61 287.59 292.86 285.1 295.23 286.34L295.11 286.42C294.76 286.42 294.48 286.56 294.28 286.85Z" fill="#6F6473"/>
<path d="M414.28 167.47C413.52 168.21 412.75 168.95 411.99 169.68C409.87 172.13 406.67 172.01 403.96 173.07C403.29 172.98 402.61 172.9 401.94 172.81C402.08 172.6 402.15 172.36 402.17 172.11C402.49 171.95 402.79 171.75 403.13 171.64C406.77 170.44 411.8 170.83 411.01 164.6C410.93 163.97 411.76 163.48 412.56 163.4C413.66 163.29 414.32 163.85 414.45 164.82C414.55 165.68 414.34 166.59 414.28 167.47Z" fill="#655768"/>
<path d="M445.85 217.69C445.47 218.09 445.09 218.49 444.71 218.9C442.16 218.86 439.83 219.22 437.98 221.35C437.23 222.22 435.85 222.54 434.76 223.12C435.11 221.6 435.47 220.08 435.82 218.57C439.05 217.01 442.31 215.73 445.85 217.69Z" fill="#838C98"/>
<path d="M295.24 286.34C292.86 285.1 290.62 287.59 288.25 286.58C288.23 286.12 288.2 285.67 288.18 285.21C289.37 284.97 290.69 285.6 291.79 284.69C293.08 285.36 294.15 285.32 294.79 283.8C299.21 282.18 299.21 282.18 301.72 286.51C300.72 286.46 299.77 284.66 298.72 286.42C297.56 285.88 296.4 285.83 295.24 286.34Z" fill="#838C98"/>
<path d="M323.51 294.77C322.7 293.85 321.42 294.35 320.14 293.54C324 292.49 327.77 293.82 331.29 292.68C331.76 292.92 332.65 293.23 332.62 293.38C332.42 294.52 331.07 293.8 330.54 294.53C328.22 295.38 325.87 295.14 323.51 294.77Z" fill="#655768"/>
<path d="M160.79 266.68C161.92 264.96 164.06 266.35 165.36 265.18C166.9 264.58 168.45 264.27 170.05 264.98C170.89 266.08 172.13 265.57 173.2 265.75C169.2 267.88 164.96 266.8 160.79 266.68Z" fill="#838C98"/>
<path d="M144.9 281.03C139.62 283.4 134.11 282.26 128.67 282.09C129.08 281.11 129.92 281.06 130.8 281.1C134.08 282.63 137.33 282.96 140.54 280.91L140.51 280.99C141.93 280.95 143.35 280.92 144.77 280.88L144.9 281.03Z" fill="#685C6E"/>
<path d="M322.53 148.05C317.56 148 312.59 147.96 307.62 147.88C306.41 147.86 305.11 148.23 304.12 147.13C305.89 147.07 307.66 147.01 309.43 146.94C313.47 147.12 317.52 147.53 321.55 146.82C321.95 146.81 322.35 146.8 322.75 146.79L322.81 146.83C322.72 147.24 322.62 147.64 322.53 148.05Z" fill="#4F3C52"/>
<path d="M221.3 147.14C221.26 147.43 221.26 147.71 221.3 148C216.18 148.04 211.05 148.07 205.93 148.11C205.79 147.39 205.24 147.05 204.66 146.72C205.74 145.94 206.96 145.92 208.21 146.1C212.04 147.78 216.09 146.4 220 146.98C220.44 147.03 220.87 147.09 221.3 147.14Z" fill="#838C98"/>
<path d="M228.91 290.92C232.59 291.33 236.27 291.75 239.82 292.9C236.78 293.19 233.7 295.23 230.71 292.79C230.05 292.25 229.51 291.55 228.91 290.92Z" fill="#ECE8CB"/>
<path d="M446.81 137.35C446.77 137.84 446.73 138.33 446.68 138.82C442.66 138.05 438.62 138.39 434.58 138.58C433.62 138.24 432.66 137.91 431.71 137.57C436.74 136.88 441.78 137.12 446.81 137.35Z" fill="#4F3C52"/>
<path d="M105.73 206.97C101.79 206.26 97.6998 207.58 93.8198 206.08C94.2198 206.03 94.6198 205.99 95.0098 205.94C97.3598 205.97 99.6998 206.02 102.05 206.03C103.15 206.04 104.25 206 104.55 204.59C104.43 204.28 104.46 203.98 104.64 203.69C105.87 204.5 105.48 205.84 105.73 206.97Z" fill="#4F3C52"/>
<path d="M401.94 172.82C402.61 172.91 403.29 172.99 403.96 173.08C400.1 173.8 396.23 173.51 392.36 173.18C392.5 173.06 392.63 172.94 392.77 172.82C395.83 172.82 398.88 172.82 401.94 172.82Z" fill="#726A79"/>
<path d="M435.82 218.56C435.47 220.08 435.11 221.6 434.76 223.11C432.82 223.4 433.02 221.96 433.08 220.86C433.14 219.85 433.5 218.86 433.72 217.86C434.12 217.46 434.52 217.05 434.92 216.65C435.22 217.29 435.52 217.93 435.82 218.56Z" fill="#6B6271"/>
<path d="M220.01 146.98C216.1 146.4 212.05 147.78 208.22 146.1C212.15 146.37 216.22 144.78 220.01 146.98Z" fill="#522C47"/>
<path d="M265.99 292.95C267.73 290.8 270.83 293.09 272.56 290.94C273.43 290.87 274.15 291.11 274.64 291.88C271.77 292.37 268.95 293.22 265.99 292.95Z" fill="#6F6473"/>
<path d="M104.55 204.59C104.26 206 103.15 206.04 102.05 206.03C99.6998 206.01 97.3598 205.97 95.0098 205.94C97.0098 205.1 99.0898 204.99 101.21 205.36C102.44 205.57 103.66 205.82 104.55 204.59Z" fill="#6F6473"/>
<path d="M434.92 216.66C434.52 217.06 434.12 217.47 433.72 217.87C433.39 214.6 433.41 211.33 433.7 208.07C434.07 208.07 434.44 208.07 434.81 208.06C435.29 210.92 435.15 213.79 434.92 216.66Z" fill="#4F3C52"/>
<path d="M130.8 281.1C129.92 281.05 129.08 281.11 128.67 282.09C127.18 282.33 125.81 282.04 124.56 281.2C125.53 280.83 126.83 281.45 127.49 280.19C129.02 280.13 130.56 279.93 131.93 280.88C131.56 280.95 131.18 281.03 130.8 281.1Z" fill="#838C98"/>
<path d="M386.93 202.38C386.8 203.21 388.54 204.68 386.13 204.74C384.67 204.1 384.53 202.87 384.71 201.51C385.12 201.5 385.54 201.49 385.95 201.48C386.27 201.77 386.6 202.07 386.93 202.38Z" fill="#6F6473"/>
<path d="M385.94 201.47C385.53 201.48 385.11 201.49 384.7 201.5C384.68 199.36 384.65 197.22 384.63 195.08C384.98 194.69 385.34 194.3 385.69 193.91C386.31 196.42 386.03 198.95 385.94 201.47Z" fill="#4F3C52"/>
<path d="M405.37 133.03C403.26 134.2 401.13 134.1 398.99 133.12C401.11 132.73 403.24 132.81 405.37 133.03Z" fill="#522C47"/>
<path d="M431.72 137.58C432.68 137.92 433.64 138.25 434.59 138.59C433.35 139.54 431.89 139.18 430.51 139.3C430.48 138.92 430.45 138.54 430.42 138.16C430.68 137.58 431.05 137.25 431.72 137.58Z" fill="#655768"/>
<path d="M274.64 291.88C274.16 291.11 273.43 290.87 272.56 290.94L272.44 290.84C273.47 290.28 274.58 290.19 275.73 290.27C275.73 290.74 275.73 291.21 275.73 291.68C275.36 291.74 275 291.81 274.64 291.88Z" fill="#685C6E"/>
<path d="M313.92 293.35C315.44 291.53 316.15 293.32 317.09 294.07C315.99 294 314.82 294.24 313.92 293.35Z" fill="#685C6E"/>
<path d="M294.28 286.85C294.48 286.57 294.76 286.42 295.11 286.42C294.97 286.82 294.69 286.96 294.28 286.85Z" fill="#838C98"/>
<path d="M251.77 160.08C252.16 160.42 252.55 160.75 252.94 161.09L252.56 161.43C252.21 161.1 251.85 160.78 251.49 160.46L251.77 160.08Z" fill="#726A79"/>
<path d="M275.72 290.27C274.58 290.19 273.46 290.28 272.43 290.84C270.64 290.89 268.86 290.93 267.07 290.98C265.88 289.4 264.73 289.52 263.61 291.06C262.95 291.36 262.29 291.67 261.63 291.98C261.23 291.9 260.84 291.83 260.45 291.75C259.88 289.09 257.71 289.77 256.06 289.84C250.57 290.09 245.22 289.46 240.07 287.54C236.66 286.27 233.58 284.74 231.51 281.31C228.93 277.02 224.01 276.7 219.66 275.64C215.98 274.75 212.22 274.08 209.07 271.78C206.63 270 206.51 269.34 208.57 267.08C210.77 264.67 213.1 262.37 215.48 260.14C226.16 250.14 238 241.72 252.15 237.67C263.84 234.33 275.5 235.66 286.1 242.21C288.73 243.84 290.8 246.2 291.88 249.23C294.82 257.52 303.52 258.92 309.16 255.59C314.46 252.47 319.67 249.23 325.17 246.44C335.4 241.25 346.03 237.08 357.38 235.66C364.7 234.74 372.22 235.37 379.66 235.37C381.25 235.37 382.19 236.65 383.24 237.64C385.39 239.65 386.74 242.23 388.33 244.64C391.85 250 391.68 252.25 387.49 257.03C385.02 259.86 381.87 261.5 378.36 262.66C376.33 263.33 374.09 263.72 372.75 265.71C371.74 265.81 370.74 265.9 369.74 265.99C369.26 265.93 368.78 265.88 368.29 265.82C367.7 265.64 367.11 265.46 366.52 265.28C364.82 262.85 362.41 263.34 360.26 264.13C358.17 264.89 358.45 267.06 358.58 268.8C358.95 273.83 357.02 277.83 353.49 281.24C352.24 282.45 350.62 283.56 351.2 285.74L351.07 285.61C348.44 285.35 346.16 285.71 345.43 288.8C341.04 291.28 336.33 292.57 331.28 292.55C320.83 293.41 310.89 291.76 301.68 286.5C299.17 282.17 299.17 282.17 294.75 283.79C292.93 281.36 292.3 282.87 291.75 284.69C290.66 285.61 289.34 284.97 288.14 285.22C285.63 286.02 282.31 285.17 281.15 288.69C279.36 289.21 277.54 289.74 275.72 290.27Z" fill="#ECE8CB"/>
<path d="M205.94 148.11C211.06 148.07 216.19 148.04 221.31 148C224.33 148.62 227.49 148.66 230.28 150.21C227.26 150.23 224.26 150.53 221.26 149.46C219.81 148.94 217.99 148.89 216.49 149.25C212.06 150.3 207.72 149.72 203.35 149.09C203.98 148.17 205.06 148.4 205.94 148.11Z" fill="white"/>
<path d="M108.97 207.14C110.46 207.26 111.72 207.95 112.87 208.82C113.72 209.47 114.83 210.4 114.13 211.46C113.15 212.93 112.49 211.47 111.71 210.83C110.09 209.51 108.71 209.19 107.47 211.56C107.15 212.18 105.99 211.16 105.81 210.16C106.77 209.76 106.68 208.85 106.82 208.06C107.57 207.84 108.51 208.04 108.97 207.14Z" fill="#838C98"/>
<path d="M256.19 166.64C256.92 166.63 257.64 166.62 258.37 166.61C258.44 168.71 258.53 170.81 258.58 172.92C258.6 173.71 258.23 174.32 257.39 174.28C256.62 174.25 256.11 173.69 256.02 172.93C255.75 170.83 255.78 168.73 256.19 166.64Z" fill="#4F3C52"/>
<path d="M260.45 291.75C260.84 291.83 261.24 291.9 261.63 291.98C262.16 292.06 262.7 292.14 263.23 292.22C263.24 292.33 263.24 292.43 263.25 292.54C258.05 292.54 252.84 292.54 247.64 292.54C247.62 292.48 247.6 292.42 247.58 292.37C248.93 292.25 250.28 292.13 251.62 292.01C254.57 291.91 257.51 291.83 260.45 291.75Z" fill="#522C47"/>
<path d="M438.11 254.82C435.34 256.68 432.23 255.36 429.3 255.74C429.12 255.76 428.88 255.83 428.78 255.75C427.85 255.03 429.04 255.28 429.13 255.01C432.12 254.95 435.11 254.88 438.11 254.82Z" fill="#522C47"/>
<path d="M130.8 281.1C131.18 281.03 131.56 280.95 131.93 280.88C134.8 280.89 137.67 280.9 140.54 280.91C137.33 282.96 134.08 282.63 130.8 281.1Z" fill="#655768"/>
<path d="M378.48 267C379.75 267.48 381.27 266.59 382.56 267.67C379.98 267.67 377.53 267.67 375.09 267.66C374.97 267.66 374.77 267.47 374.76 267.35C374.74 267.2 374.87 267.02 374.94 266.86C376.11 266.91 377.29 266.95 378.48 267Z" fill="#4F3C52"/>
<path d="M144.77 280.88C143.35 280.92 141.93 280.95 140.51 280.99C141.8 280.06 143.29 279.86 144.82 279.8C144.8 280.16 144.79 280.52 144.77 280.88Z" fill="#655768"/>
<path d="M251.49 160.45C251.85 160.77 252.2 161.1 252.56 161.42C252.62 161.83 252.68 162.25 252.75 162.66C252.09 162.1 251.44 161.54 250.79 160.98C250.9 160.62 251.14 160.44 251.49 160.45Z" fill="#4F3C52"/>
<path d="M108.97 207.14C108.51 208.04 107.57 207.84 106.82 208.07C106.33 208.22 105.85 208.38 105.36 208.53L105.27 208.44C105.42 207.94 105.56 207.44 105.71 206.94C106.43 206.94 107.15 206.94 107.86 206.95C108.23 207.01 108.6 207.08 108.97 207.14Z" fill="#4F3C52"/>
<path d="M147.09 278.78C146.66 279.83 145.77 279.91 144.82 279.86C145.37 279.09 146.17 278.82 147.09 278.78Z" fill="#655768"/>
<path d="M105.36 208.53C105.85 208.38 106.33 208.22 106.82 208.07C106.67 208.86 106.77 209.77 105.81 210.17C105.66 209.62 105.51 209.08 105.36 208.53Z" fill="#6B6271"/>
<path d="M414.28 167.47C414.35 166.59 414.55 165.68 414.44 164.82C414.31 163.85 413.65 163.29 412.55 163.4C411.75 163.48 410.92 163.97 411 164.6C411.79 170.84 406.76 170.44 403.12 171.64C402.79 171.75 402.48 171.95 402.16 172.11C399.63 172.07 397.1 172.04 394.57 172C391.45 170.58 387.8 171.46 384.76 169.81C382.03 168.33 377.83 168.57 377.76 163.82C377.75 162.98 376.53 163.19 376.18 163.83C375.77 164.57 375.72 165.5 375.51 166.35C370.12 164.58 366.31 160.7 363.41 156.18C361.98 153.95 362.73 151.12 364.88 148.76C370.85 142.22 378.36 140.81 386.64 141.71C388.24 141.88 389.75 142.75 390.9 143.96C393.35 146.52 396.37 147.25 399.8 147.03C403.06 146.82 405.82 147.79 408.9 149.31C413.38 151.51 418.82 150.97 423.68 149.35C429.79 147.32 435.99 146.67 442.35 147C449.35 147.37 454.35 152.42 454.54 158.96C454.66 163 452.95 165.45 449.24 166.73C448.05 167.14 446.91 167.71 445.74 168.21C441.53 168.07 437.48 167.17 433.67 165.41C428.5 163.02 423.57 163.55 418.93 166.63C417.39 167.66 415.91 167.68 414.28 167.47Z" fill="#ECE8CB"/>
<path d="M322.75 146.8C322.35 146.81 321.95 146.82 321.55 146.83C321.58 146.44 321.6 146.05 321.63 145.65C322 146.03 322.38 146.42 322.75 146.8Z" fill="#6F6473"/>
<path d="M368.31 265.82C368.79 265.88 369.27 265.93 369.76 265.99C369.95 266.88 369.28 266.72 368.83 266.7C368.29 266.68 367.75 266.54 368.31 265.82Z" fill="#4F3C52"/>
<path d="M395.64 132.86C396.25 133.34 396.26 133.83 395.67 134.33C395.07 134.12 394.23 134.07 394.41 133.16C394.55 132.45 395.17 132.74 395.64 132.86Z" fill="white"/>
<path d="M414.2 142.36C414.59 143.42 414.89 143.87 414.79 144.02C414.5 144.43 414.04 144.71 413.64 145.04C413.52 144.72 413.25 144.36 413.32 144.09C413.46 143.59 413.79 143.15 414.2 142.36Z" fill="#EBE7CA"/>
<path d="M345.45 288.8C346.19 285.71 348.46 285.35 351.09 285.61C349.76 287.65 347.59 288.2 345.45 288.8Z" fill="#FBFAD7"/>
<path d="M263.62 291.06C264.74 289.52 265.89 289.4 267.08 290.98C265.92 291.01 264.77 291.03 263.62 291.06Z" fill="#FEFBD8"/>
<path d="M394.58 172.01C397.11 172.05 399.64 172.08 402.17 172.12C402.15 172.37 402.08 172.61 401.94 172.82C398.88 172.82 395.83 172.82 392.77 172.82C393.13 171.99 394 172.34 394.58 172.01Z" fill="#522C47"/>
<path d="M281.18 288.68C282.33 285.16 285.66 286.01 288.17 285.21C288.2 285.67 288.22 286.12 288.25 286.58C286.13 288.09 283.7 288.53 281.18 288.68Z" fill="#FEFBD8"/>
<path d="M291.78 284.68C292.32 282.86 292.96 281.36 294.78 283.78C294.14 285.31 293.06 285.35 291.78 284.68Z" fill="#FEFBD8"/>
</g>
<defs>
<clipPath id="clip0_43_286">
<rect width="510" height="341" fill="white"/>
</clipPath>
</defs>
</svg>
