<svg width="554" height="582" viewBox="0 0 554 582" fill="none" xmlns="http://www.w3.org/2000/svg">
<path d="M340.21 365.92C339.24 366.64 338.28 367.35 337.31 368.07C336.53 366.95 335.69 367.8 334.9 368.03C332.23 368.79 329.56 368.85 326.86 368.2C323.27 367.33 321.77 365.66 321.75 361.96C321.73 355.26 320.52 348.66 319.87 342.03C318.9 332.1 317.94 322.17 317.58 312.2C317.93 310.81 318.27 309.41 318.62 308.02C319.13 308.39 319.58 308.95 320.14 309.09C324.93 310.28 329.75 311.19 334.71 310.73C330.69 308.42 325.99 308.96 321.74 307.61C321.17 307.43 320.3 307.69 320.15 306.92C320.01 306.24 320.83 305.95 321.23 305.48C322.23 304.34 323.46 303.32 323.33 301.57C323.05 299.93 324.79 299.4 325.21 298.14C326.34 298.35 326.59 297.76 326.64 296.76C327.16 287.09 328.02 277.43 328.19 267.75C328.44 253.25 328.36 238.73 327.8 224.23C327.53 217.26 328.58 210.32 328.75 203.36C328.99 193.76 328.79 184.15 329.39 174.55C330.03 164.33 333.92 155.54 340.89 148.06C343.91 144.81 347.76 142.85 351.53 140.7C356.72 137.74 362.03 135.06 367.51 132.7C375.87 129.09 384.47 126.11 393 122.93C393.64 122.69 394.2 122.53 394.22 121.73C394.58 121.54 394.93 121.35 395.29 121.16C396.59 122.32 397.05 121.09 397.5 120.29C402.32 111.72 414.85 106.8 425.8 110.6C426.44 110.82 427.59 110.53 427.64 111.86C425.73 111.86 423.82 111.96 421.94 111.84C417.25 111.56 412.62 112 408.45 114.15C402.35 117.29 396.59 120.94 395.61 128.69C394.09 128.16 394.07 128.14 394.79 127.05C395.46 126.03 394.73 125.63 394.01 125.65C393.24 125.67 392.47 126.08 391.71 126.36C383.74 129.25 376.07 132.85 368.07 135.73C358.66 139.11 349.6 143.96 342.96 151.83C339.63 155.77 336.01 159.79 334.92 165.17C333.83 170.59 333.34 176.08 333.2 181.59C332.99 189.57 333.29 197.54 333.65 205.52C334 213.31 333.36 221.14 333.5 228.93C333.62 235.8 333.46 242.69 334.12 249.58C334.65 255.15 333.49 260.78 333.31 266.36C332.98 276.45 331.85 286.57 333.38 296.66C334 300.39 336.13 303.26 338.62 305.92C338.65 306.69 338.88 307.25 339.81 307.13C339.75 308.58 339.69 310.02 339.63 311.47C338.5 312.65 338.27 313.91 338.49 315.62C338.95 319.29 339.18 323.03 339.12 326.73C338.97 335.62 339.48 344.45 340.67 353.25C341 357.49 340.67 361.71 340.21 365.92ZM326.94 351.99C325.06 350.73 324 350.68 323.23 351.67C322.96 352.02 323.32 356.61 323.66 356.87C324.07 357.17 324.5 357.11 324.92 356.87C327.34 355.49 329.78 354.15 332.17 352.73C333.04 352.21 333.58 348.3 333.03 347.43C332.78 347.03 332.48 347.07 332.12 347.11C329.96 347.34 327.32 349.74 326.94 351.99Z" fill="#9CB9B3"/>
<path d="M66.4597 496.05C66.5197 496.42 66.5697 496.78 66.6297 497.15C64.4397 500.31 60.8697 501.94 58.2297 504.61C57.5797 505.27 56.4897 505.88 55.5997 505.87C50.5897 505.81 45.3097 507.27 40.8797 503.51C40.4297 503.13 39.8497 503.27 39.3297 503.51C38.9797 503.25 38.6297 503 38.2797 502.74C37.4897 478.12 36.6997 453.49 35.9097 428.63C40.5897 430.13 45.1297 430.12 49.5997 430.68C49.7897 433.2 50.0297 435.74 50.0897 438.23C50.4497 452.23 52.2797 466.17 51.8497 480.2C51.8297 480.99 51.8497 481.78 51.8497 482.68C55.0897 481.61 57.1797 479.98 56.7897 476.38C56.7197 475.72 56.9397 474.85 57.3497 474.34C60.6697 470.22 59.2497 465.51 59.0797 460.97C58.9697 457.92 57.6297 454.81 58.6497 451.85C59.5097 449.35 59.0797 447.03 58.6997 444.7C58.4297 443.06 57.9997 441.3 58.4897 439.88C59.6597 436.48 59.1997 433.14 58.9297 429.75C58.9597 429.59 58.9797 429.43 58.9897 429.26C59.9197 428.91 60.9097 428.68 61.7497 428.19C63.5997 427.11 64.4597 427.22 64.4297 429.69C64.2097 447.85 64.4697 466 64.8997 484.15C64.9797 487.51 64.9197 490.87 64.9097 494.23C64.9097 495.31 64.8897 496.34 66.4597 496.05ZM59.2697 491.04C57.4797 490.23 52.5697 491.57 51.5797 493.02C51.3397 493.38 51.2797 493.86 51.1297 494.28C50.9797 494.71 50.7597 495.2 51.2997 495.44C51.5697 495.56 52.0297 495.47 52.3097 495.31C54.5997 493.93 56.8797 492.51 59.2697 491.04Z" fill="#9CBAB4"/>
<path d="M52.4097 389.37C52.4197 390.04 52.4297 390.71 52.4397 391.39C52.3697 393.08 52.2997 394.77 52.2297 396.46C51.4397 396.3 51.4297 395.68 51.2697 395.04C50.7497 392.98 50.8897 390.77 49.6597 388.24C49.6597 402.05 49.6597 415.26 49.6597 428.48C49.6297 428.58 49.6197 428.69 49.6097 428.8C46.5497 428.54 43.4697 428.37 40.4197 427.97C38.9697 427.78 36.8897 427.74 36.4097 426.39C35.9997 425.23 37.8797 424.32 38.8397 423.4C39.9497 422.34 41.1797 421.4 42.4097 420.48C42.8197 420.18 43.5197 419.81 43.8697 419.96C46.8597 421.29 45.8197 418.89 45.6997 417.85C45.4297 415.43 44.6497 413.06 44.7797 410.61C45.2397 401.94 44.1497 393.29 44.7297 384.6C45.3097 376.01 44.6497 367.39 45.1697 358.76C45.7297 349.45 45.2997 340.1 45.7197 330.75C46.2697 318.7 46.5597 306.63 46.3697 294.55C46.2697 288.29 46.2497 282.01 46.6097 275.77C47.0497 268.11 48.2497 260.48 48.5597 252.82C48.9597 242.58 50.3697 232.51 52.3997 222.51C54.9597 209.92 60.7697 198.86 70.3597 190.38C78.9497 182.79 88.0397 175.73 98.5697 170.73C106.73 166.86 114.62 162.42 122.59 158.17C124.15 157.34 125.91 156.56 126.41 154.54C127 154.32 127.59 154.09 128.19 153.87C130.14 154.43 130.48 152.72 131.04 151.64C136.93 140.44 146.47 134.19 158.61 131.96C162.96 131.16 167.81 130.03 171.74 133.76C171.76 133.91 171.79 134.06 171.81 134.21C170.42 134.71 168.98 135.15 168.56 136.84C168.33 136.9 168.1 136.96 167.86 137.02C163.7 136.96 159.46 136.32 155.39 137.32C146.44 139.52 139.56 145.14 133.48 151.71C131.69 153.64 130.65 156.39 131.43 159.32C131.45 159.77 130.06 159.67 130.97 160.47C130.9 161.28 130.83 162.08 130.74 163.01C130.33 162.84 129.96 162.77 129.68 162.57C126.51 160.28 123.41 160.18 120.05 162.38C115.05 165.65 109.69 168.28 104.3 170.88C98.6897 173.59 92.7797 175.92 87.6297 179.36C77.2597 186.28 67.7797 194.28 61.6797 205.54C60.2597 208.16 58.7497 210.69 57.7297 213.54C54.9997 221.08 53.7297 228.88 52.9097 236.8C52.4297 241.47 51.3397 246.13 51.3297 250.79C51.2397 296.12 51.3197 341.45 51.3297 386.78C51.3597 387.82 51.3597 388.79 52.4097 389.37Z" fill="#9BB8B3"/>
<path d="M126.42 154.54C125.92 156.55 124.16 157.33 122.6 158.17C114.63 162.43 106.73 166.86 98.5798 170.73C88.0498 175.73 78.9598 182.79 70.3698 190.38C60.7698 198.86 54.9598 209.92 52.4098 222.51C50.3798 232.51 48.9698 242.58 48.5698 252.82C48.2698 260.48 47.0698 268.11 46.6198 275.77C46.2598 282.02 46.2798 288.29 46.3798 294.55C46.5698 306.63 46.2798 318.7 45.7298 330.75C45.3098 340.1 45.7398 349.44 45.1798 358.76C44.6598 367.38 45.3198 376.01 44.7398 384.6C44.1498 393.29 45.2498 401.94 44.7898 410.61C44.6598 413.06 45.4398 415.43 45.7098 417.85C45.8298 418.89 46.8698 421.29 43.8798 419.96C43.5298 419.81 42.8298 420.18 42.4198 420.48C41.1898 421.4 39.9498 422.34 38.8498 423.4C37.8898 424.32 36.0098 425.23 36.4198 426.39C36.8998 427.74 38.9798 427.78 40.4298 427.97C43.4798 428.37 46.5498 428.54 49.6198 428.8C49.5998 429.4 49.5798 429.99 49.5498 430.59L49.5998 430.69C45.1298 430.13 40.5898 430.13 35.9098 428.64C36.7098 453.5 37.4898 478.12 38.2798 502.75C38.2598 503.75 38.2298 504.75 38.2198 505.75C38.2198 506.36 37.9498 506.92 37.3798 506.93C36.7498 506.94 36.5898 506.33 36.5698 505.73C36.4098 502.2 36.1698 498.66 36.0798 495.13C35.8298 484.69 35.6798 474.25 35.4098 463.82C35.1098 452.39 34.8798 440.95 34.2398 429.54C34.0698 426.43 35.3898 424.5 37.2198 422.63C38.7998 421.02 40.5898 419.6 42.4098 418.26C43.4598 417.49 43.7898 416.53 43.5698 415.43C42.6698 411.02 43.0198 406.56 43.1098 402.14C43.1998 397.59 42.3698 393.09 42.5898 388.56C43.4898 370.39 43.1198 352.19 43.8098 334.02C44.0898 326.59 44.1398 319.16 44.3698 311.73C44.7398 300.12 44.3098 288.47 44.8898 276.87C45.2498 269.68 45.5298 262.44 46.7698 255.28C47.5098 251.03 46.9898 246.57 47.5298 242.27C49.2798 228.16 50.9898 213.97 58.7998 201.55C63.9798 193.31 71.3798 187.24 78.8798 181.15C88.5198 173.32 99.8498 168.62 110.49 162.63C115.28 159.94 120.51 158.02 124.77 154.41C125.39 153.87 125.91 154 126.42 154.54Z" fill="#36334A"/>
<path d="M333.35 296.66C331.82 286.57 332.95 276.45 333.28 266.36C333.46 260.77 334.63 255.15 334.09 249.58C333.43 242.69 333.59 235.8 333.47 228.93C333.33 221.14 333.97 213.31 333.62 205.52C333.27 197.54 332.97 189.57 333.17 181.59C333.31 176.08 333.8 170.58 334.89 165.17C335.97 159.79 339.6 155.77 342.93 151.83C349.58 143.96 358.63 139.12 368.04 135.73C376.04 132.85 383.71 129.25 391.68 126.36C392.44 126.08 393.21 125.67 393.98 125.65C394.7 125.63 395.43 126.04 394.76 127.05C394.04 128.14 394.06 128.16 395.58 128.69C396.56 120.94 402.32 117.29 408.42 114.15C412.59 112 417.22 111.56 421.91 111.84C423.8 111.95 425.7 111.86 427.61 111.86C427.56 110.52 426.42 110.82 425.77 110.6C414.83 106.8 402.3 111.72 397.47 120.29C397.02 121.09 396.56 122.32 395.26 121.16C398.09 114.54 403.47 110.98 410.01 108.75C415.42 106.91 420.83 107.58 426.2 108.78C429.39 109.49 430.6 112.21 429.42 115.69C428.7 117.82 427.73 119.88 425.82 121.28C425.85 120.56 425.87 119.85 425.9 119.13C426.32 118.34 427.15 117.75 427.12 116.73L427.1 116.58L426.95 116.57C428.53 113.99 428.51 113.9 426.38 113.68C424.84 113.64 423.3 113.64 421.77 113.54C414.18 113.04 407.6 115.41 401.95 120.46C399.15 122.96 397.11 125.82 397.55 129.84C397.28 130.41 396.69 130.44 396.2 130.62C395.42 130.43 394.31 130.51 393.9 130.01C391.73 127.37 389.59 128.98 387.56 129.99C379.74 133.89 371.18 135.95 363.32 139.71C356.56 142.95 350.06 146.64 344.9 152.22C338.89 158.72 335.39 166.17 335.21 175.29C335.09 181.63 334.44 188 334.85 194.32C335.91 210.83 334.54 227.36 335.46 243.84C336.21 257.21 334.17 270.42 334.39 283.71C334.46 288.03 335.06 292.35 334.73 296.68C334.28 296.68 333.82 296.67 333.35 296.66Z" fill="#36324A"/>
<path d="M52.4098 389.37C51.3598 388.79 51.3598 387.82 51.3598 386.79C51.3398 341.46 51.2698 296.13 51.3598 250.8C51.3698 246.14 52.4498 241.48 52.9398 236.81C53.7598 228.89 55.0298 221.09 57.7598 213.55C58.7898 210.71 60.2898 208.17 61.7098 205.55C67.8098 194.29 77.2898 186.29 87.6598 179.37C92.8098 175.93 98.7198 173.6 104.33 170.89C109.72 168.28 115.08 165.66 120.08 162.39C123.45 160.19 126.54 160.29 129.71 162.58C129.99 162.78 130.35 162.85 130.77 163.02C130.85 162.1 130.92 161.29 131 160.48C131.89 160.34 132.3 160.87 132.53 161.61C133.28 163.99 135.3 164.78 137.4 165.19C138.36 165.38 139.21 165.83 140.16 165.96C140.35 166.32 140.54 166.67 140.73 167.03C137.96 167.23 135.5 166.26 132.88 165.53C130.65 164.9 128.81 163.86 126.79 162.95C125.3 162.28 123.57 162.29 121.8 163.41C111.97 169.66 101.36 174.42 90.9098 179.48C86.5398 181.6 83.3598 185.37 79.4298 188.11C69.8398 194.79 63.6898 204.11 59.3398 214.71C56.1898 222.37 55.6498 230.58 54.5198 238.7C51.5298 260.21 53.3498 281.8 53.0298 303.35C52.7198 323.86 52.8498 344.39 53.0998 364.9C53.1898 372.25 53.2598 379.6 53.2998 386.94C53.2898 387.77 53.9998 389.04 52.4098 389.37Z" fill="#36334A"/>
<path d="M394.21 121.72C394.19 122.52 393.63 122.68 392.99 122.92C384.47 126.1 375.86 129.09 367.5 132.69C362.02 135.05 356.7 137.73 351.52 140.69C347.75 142.84 343.91 144.81 340.88 148.05C333.91 155.54 330.02 164.32 329.38 174.54C328.78 184.13 328.98 193.75 328.74 203.35C328.57 210.31 327.53 217.25 327.79 224.22C328.34 238.73 328.43 253.24 328.18 267.74C328.01 277.41 327.15 287.08 326.63 296.75C326.58 297.75 326.32 298.34 325.2 298.13C324.45 293.41 325.23 288.71 325.62 284.04C326.45 274.27 326.71 264.49 326.57 254.7C326.43 244.27 325.97 233.84 326.12 223.41C326.32 209.82 327.21 196.26 327.31 182.66C327.36 176.06 327.44 169.3 329.83 162.88C333.11 154.08 338.11 146.65 346.25 141.7C354.41 136.74 363.06 132.77 371.87 129.05C378.41 126.28 385.19 124.27 391.74 121.58C392.62 121.22 393.43 120.89 394.21 121.72Z" fill="#343048"/>
<path d="M66.4597 496.05C64.8897 496.34 64.9097 495.31 64.9197 494.24C64.9297 490.88 64.9897 487.52 64.9097 484.16C64.4797 466.01 64.2197 447.85 64.4397 429.7C64.4697 427.23 63.6097 427.12 61.7597 428.2C60.9197 428.69 59.9197 428.92 58.9997 429.27C58.2697 428.86 58.2997 428.22 58.4397 427.53C60.5497 426.86 62.7197 426.35 64.4097 424.77C66.1297 424.48 66.0497 425.63 66.0497 426.77C66.0497 430.76 66.0497 434.74 66.0897 438.73C66.2597 457.48 66.4497 476.23 66.6197 494.97C66.5997 495.33 66.5097 495.69 66.4597 496.05Z" fill="#343048"/>
<path d="M317.58 312.2C317.94 322.18 318.9 332.1 319.87 342.03C320.52 348.66 321.72 355.26 321.75 361.96C321.76 365.66 323.27 367.33 326.86 368.2C329.55 368.85 332.23 368.79 334.9 368.03C335.7 367.8 336.53 366.95 337.31 368.07C337.02 369.76 335.52 369.73 334.38 369.9C329.87 370.56 325.38 370.99 321.7 367.31C320.74 366.35 320.12 365.28 320.1 364.02C319.99 355.7 318.58 347.51 317.85 339.25C317.5 335.21 317.51 331.02 316.59 327.19C315.37 322.14 316.33 317.18 315.76 312.23C315.67 311.45 315.2 310.05 316.43 309.95C317.89 309.81 317.17 311.43 317.58 312.2Z" fill="#36334A"/>
<path d="M140.71 167.02C140.52 166.66 140.33 166.31 140.14 165.95C140.37 165.81 140.58 165.57 140.82 165.55C149.76 164.61 157.55 160.6 165.2 156.31C169.71 153.78 173.19 150.12 175.87 145.7C177.63 142.79 177.41 141.93 174.61 140.04C172.2 138.41 169.4 138.83 166.75 138.41C167.12 137.95 167.49 137.5 167.86 137.04C168.09 136.98 168.32 136.92 168.55 136.86C171.39 136.81 174.05 137.53 176.96 139.18C176.11 136.05 173.34 135.79 171.8 134.22C171.77 134.07 171.75 133.92 171.73 133.77C172.3 133.56 172.88 133.36 173.45 133.15C180.83 137.04 180.1 142.52 176.04 148.66C172.57 153.9 167.57 157.32 162.16 160.03C155.91 163.15 149.6 166.33 142.49 167.18C141.92 167.24 141.26 167.58 140.71 167.02Z" fill="#807D85"/>
<path d="M339.59 311.47C339.65 310.02 339.71 308.58 339.77 307.13C341.06 306.73 341.28 307.41 341.35 308.52C342.53 327.48 342.79 346.45 342.14 365.43C342.11 366.18 342.42 367.27 341.35 367.44C340.41 367.6 340.37 366.6 340.2 365.92C340.67 361.71 341 357.49 340.63 353.25C340.95 339.31 340.83 325.37 339.59 311.47Z" fill="#36334A"/>
<path d="M173.47 133.15C172.9 133.36 172.32 133.56 171.75 133.77C167.82 130.03 162.98 131.16 158.62 131.97C146.48 134.21 136.94 140.45 131.05 151.65C130.48 152.72 130.15 154.44 128.2 153.88C131.15 147.06 135.33 141.09 141.61 137.05C149.45 132 157.99 128.94 167.57 129.83C170.1 130.05 171.94 131.26 173.47 133.15Z" fill="#343048"/>
<path d="M39.3299 503.5C39.8499 503.26 40.4299 503.12 40.8799 503.5C45.3099 507.26 50.5899 505.8 55.5999 505.86C56.4799 505.87 57.5699 505.26 58.2299 504.6C60.8799 501.93 64.4399 500.3 66.6299 497.14C68.4499 498.76 67.0999 499.91 65.9399 500.86C63.7199 502.69 61.3999 504.4 59.0799 506.09C57.2099 507.45 55.1199 508.16 52.7699 508.02C48.6499 507.79 44.4799 507.87 40.6099 506.03C39.4399 505.49 38.4099 505.03 39.3299 503.5Z" fill="#3B394F"/>
<path d="M396.21 130.61C396.7 130.42 397.29 130.4 397.56 129.83C397.71 129.86 397.86 129.88 398.01 129.9C398.43 130.57 399.11 130.39 399.72 130.44C403.32 130.73 406.67 129.61 410.03 128.57C416.08 126.7 421.24 123.3 425.93 119.13C425.9 119.85 425.88 120.56 425.85 121.28C420.39 126.75 413.58 129.63 406.25 131.51C403.79 132.14 401.31 132.57 398.75 132.24C397.64 132.09 396.54 131.95 396.21 130.61Z" fill="#807D85"/>
<path d="M52.23 396.46C52.3 394.77 52.37 393.08 52.44 391.39C54.26 391.01 54.06 392.28 54.05 393.37C53.93 400.45 54.94 407.51 54.58 414.6C54.54 415.3 54.44 416.07 55.1 416.62C55.06 416.87 55.02 417.11 54.98 417.36C53.77 417.08 52.94 416.67 53.03 415.08C53.39 408.85 52.34 402.67 52.23 396.46Z" fill="#474357"/>
<path d="M323.33 301.56C323.47 303.31 322.23 304.33 321.23 305.47C320.82 305.93 320.01 306.23 320.15 306.91C320.3 307.68 321.17 307.41 321.74 307.6C325.99 308.95 330.69 308.42 334.71 310.72C329.76 311.19 324.93 310.27 320.14 309.08C319.58 308.94 319.12 308.38 318.62 308.01C318.3 307.47 316.73 307.28 317.58 306.59C319.55 304.97 320.6 302.29 323.33 301.56Z" fill="#3B394F"/>
<path d="M64.3898 424.77C62.6998 426.35 60.5298 426.86 58.4198 427.53C58.2298 427.53 58.0398 427.52 57.8498 427.52C58.0498 425.97 57.2598 424.71 56.6098 423.42C55.7098 421.62 54.9298 419.8 55.0898 417.72C57.1798 419.66 59.2898 421.59 61.3498 423.56C62.1398 424.32 62.8198 425.19 64.0898 424.75L64.2398 424.65L64.3898 424.77Z" fill="#9BB8B3"/>
<path d="M64.1097 424.75C62.8297 425.19 62.1597 424.32 61.3697 423.56C59.3097 421.58 57.1997 419.66 55.1097 417.72C55.0497 417.6 55.0097 417.48 54.9897 417.36C55.0297 417.11 55.0697 416.87 55.1097 416.62C57.8097 417.1 63.5997 422.33 64.1097 424.75Z" fill="#36334A"/>
<path d="M333.35 296.66C333.82 296.67 334.29 296.68 334.75 296.68C335.29 299.28 337.36 301 338.49 303.26C338.94 304.15 339.99 304.97 338.59 305.92C336.09 303.26 333.96 300.39 333.35 296.66Z" fill="#3B394F"/>
<path d="M326.94 351.99C327.32 349.74 329.97 347.34 332.12 347.1C332.49 347.06 332.79 347.02 333.03 347.42C333.58 348.29 333.04 352.2 332.17 352.72C329.78 354.14 327.34 355.49 324.92 356.86C324.5 357.1 324.07 357.17 323.66 356.86C323.32 356.6 322.95 352.01 323.23 351.66C324 350.68 325.06 350.73 326.94 351.99Z" fill="#B3C9C0"/>
<path d="M339.59 311.47C340.83 325.37 340.94 339.31 340.63 353.25C339.43 344.45 338.93 335.62 339.08 326.73C339.14 323.03 338.92 319.29 338.45 315.62C338.23 313.91 338.46 312.65 339.59 311.47Z" fill="#EEEFF0"/>
<path d="M58.9298 429.76C59.1998 433.15 59.6598 436.49 58.4898 439.89C57.9998 441.31 58.4298 443.08 58.6998 444.71C59.0798 447.04 59.5098 449.36 58.6498 451.86C57.6298 454.81 58.9698 457.92 59.0798 460.98C59.2498 465.52 60.6698 470.23 57.3498 474.35C56.9398 474.86 56.7198 475.73 56.7898 476.39C57.1798 479.99 55.0898 481.62 51.8498 482.69C51.8498 481.79 51.8298 481 51.8498 480.21C52.2798 466.18 50.4498 452.24 50.0898 438.24C50.0298 435.75 49.7898 433.2 49.5998 430.69L49.5498 430.59C52.7398 431.07 55.8298 430.35 58.9298 429.76Z" fill="#BED0C7"/>
<path d="M58.9298 429.76C55.8298 430.35 52.7498 431.08 49.5498 430.58C49.5698 429.98 49.5898 429.39 49.6098 428.79C49.6198 428.68 49.6298 428.58 49.6598 428.47C52.4198 428.41 55.3098 429.43 57.8598 427.51C58.0498 427.51 58.2398 427.52 58.4298 427.52C58.2898 428.21 58.2598 428.86 58.9898 429.26C58.9698 429.43 58.9498 429.6 58.9298 429.76Z" fill="#807D85"/>
<path d="M59.2699 491.04C56.8699 492.51 54.5999 493.93 52.2999 495.31C52.0299 495.47 51.5599 495.56 51.2899 495.44C50.7499 495.2 50.9699 494.71 51.1199 494.28C51.2699 493.86 51.3299 493.38 51.5699 493.02C52.5799 491.57 57.4799 490.23 59.2699 491.04Z" fill="#BED0C7"/>
<path d="M166.77 138.4C169.41 138.82 172.22 138.4 174.63 140.03C177.43 141.93 177.65 142.79 175.89 145.69C173.21 150.11 169.73 153.78 165.22 156.3C157.56 160.59 149.77 164.59 140.84 165.54C140.6 165.57 140.38 165.8 140.16 165.94C139.21 165.82 138.36 165.36 137.4 165.17C135.3 164.76 133.28 163.98 132.53 161.59C132.3 160.85 131.89 160.32 131 160.46C130.09 159.65 131.48 159.76 131.46 159.31C133.1 158.54 132.93 156.69 133.77 155.44C133.83 155.24 133.9 155.04 133.96 154.84L134.02 154.69C134.24 154.75 134.45 154.81 134.67 154.86L134.81 154.99C134.75 155.53 134.73 156.08 134.63 156.61C134.51 157.27 133.79 158.05 134.69 158.53C135.62 159.03 135.88 157.97 136.29 157.47C138.27 155.02 140.85 153.28 143.61 151.97C148.52 149.63 152.96 146.53 157.58 143.71C159.37 142.62 161.05 141.34 163.44 139.69C161.25 139.69 159.88 139.86 158.59 139.64C157.41 139.43 158.69 139.02 158.68 138.68C161.36 138.61 164.06 138.51 166.77 138.4Z" fill="#E2DDC0"/>
<path d="M57.8597 427.52C55.3097 429.44 52.4197 428.42 49.6597 428.48C49.6597 415.27 49.6597 402.05 49.6597 388.24C50.8797 390.77 50.7497 392.98 51.2697 395.04C51.4297 395.69 51.4397 396.3 52.2297 396.46C52.3397 402.68 53.3797 408.85 53.0297 415.08C52.9397 416.67 53.7697 417.08 54.9797 417.36C54.9997 417.49 55.0397 417.61 55.0997 417.72C54.9397 419.8 55.7197 421.62 56.6197 423.42C57.2697 424.71 58.0697 425.96 57.8597 427.52Z" fill="#BED0C7"/>
<path d="M166.77 138.4C164.07 138.5 161.36 138.6 158.66 138.7C157.76 138.63 156.89 138.76 155.99 138.94C149.18 140.3 144.05 144.62 138.89 148.78C136.91 150.37 134.67 151.95 134.01 154.71C134.01 154.71 133.95 154.86 133.96 154.86C133.9 155.06 133.83 155.26 133.77 155.46C132.92 156.7 133.1 158.56 131.46 159.33C130.68 156.4 131.72 153.65 133.51 151.72C139.59 145.15 146.47 139.53 155.42 137.33C159.49 136.33 163.73 136.97 167.89 137.03C167.51 137.49 167.14 137.95 166.77 138.4Z" fill="#343048"/>
<path d="M171.82 134.21C173.36 135.78 176.13 136.04 176.98 139.17C174.07 137.52 171.41 136.8 168.57 136.85C168.99 135.15 170.43 134.72 171.82 134.21Z" fill="#BED0C7"/>
<path d="M398.01 129.9C397.86 129.89 397.71 129.87 397.56 129.83C397.12 125.81 399.16 122.95 401.96 120.45C407.61 115.4 414.19 113.04 421.78 113.53C423.31 113.63 424.85 113.63 426.39 113.67C426.58 114.63 426.77 115.6 426.96 116.56L427.11 116.57L427.13 116.72C424.12 116.97 421.37 118.12 418.65 119.31C411.57 122.43 404.89 126.37 398.01 129.9Z" fill="#D2CBA4"/>
<path d="M398.01 129.9C404.9 126.38 411.57 122.43 418.66 119.32C421.38 118.13 424.12 116.98 427.14 116.73C427.17 117.75 426.34 118.33 425.93 119.13C421.24 123.3 416.08 126.7 410.03 128.57C406.68 129.61 403.32 130.73 399.72 130.44C399.11 130.39 398.43 130.56 398.01 129.9Z" fill="#E2DDC0"/>
<path d="M426.97 116.57C426.78 115.61 426.59 114.64 426.4 113.68C428.53 113.89 428.55 113.99 426.97 116.57Z" fill="#E2DDC0"/>
<path d="M134.01 154.72C134.67 151.96 136.91 150.38 138.89 148.79C144.06 144.64 149.18 140.32 155.99 138.95C156.89 138.77 157.75 138.63 158.66 138.71C158.67 139.05 157.39 139.47 158.57 139.67C159.87 139.9 161.23 139.72 163.42 139.72C161.03 141.37 159.35 142.65 157.56 143.74C152.94 146.56 148.5 149.65 143.59 152C140.83 153.32 138.25 155.05 136.27 157.5C135.86 158.01 135.6 159.06 134.67 158.56C133.77 158.08 134.49 157.3 134.61 156.64C134.71 156.11 134.73 155.56 134.79 155.02C134.85 154.91 134.91 154.8 134.98 154.69C134.87 154.75 134.77 154.82 134.66 154.88C134.44 154.83 134.22 154.77 134.01 154.72Z" fill="#D0CAA5"/>
<path d="M133.76 155.46C133.82 155.26 133.89 155.06 133.95 154.86C133.89 155.06 133.82 155.26 133.76 155.46Z" fill="#D0CAA5"/>
<path d="M134.66 154.89C134.77 154.83 134.87 154.76 134.98 154.7C134.92 154.81 134.85 154.92 134.79 155.03L134.66 154.89Z" fill="#E2DDC0"/>
</svg>
