<svg width="146" height="179" viewBox="0 0 146 179" fill="none" xmlns="http://www.w3.org/2000/svg">
<path d="M71.67 116.89C71.8 119.92 71.08 122.99 72.07 125.99C72.28 126.62 72.1199 127.09 71.2099 127.27C67.7999 127.94 64.3999 128.54 60.8999 128.32C58.7399 128.18 58.01 126.57 57.39 124.86C57.3 124.62 57.39 124.32 57.38 124.05C57.14 117.48 57.1399 117.48 50.5599 117.97C49.9899 118.01 49.11 117.7 49.22 118.74C49.51 121.54 47.3799 121.17 45.8599 121.15C44.0099 121.13 43.6 119.41 43.23 118C43.01 117.15 43.1299 116.19 43.2099 115.29C43.5299 111.41 42.6399 107.58 42.6799 103.72C42.6899 102.55 41.8599 100.76 44.0799 100.54C46.1999 100.32 48.6199 100.31 49.0599 102.9C49.3599 104.67 50.1799 104.38 51.2099 104.31C52.2799 104.24 53.25 103.63 54.38 103.77C55.78 103.95 56.3899 103.22 56.28 101.84C56.0999 99.5199 56.5699 97.2 55.8699 94.88C55.2699 92.89 56.9699 93.64 57.8599 93.48C57.8799 95.98 57.82 98.4899 57.94 100.99C58.03 102.76 57.84 104.32 56.26 105.4C55.37 105.4 54.4799 105.4 53.5899 105.4C54.5199 105.79 55.4999 106.38 56.2999 105.45C57.5099 105.4 58.4899 105.65 58.5499 107.14C56.3499 107.95 54.0099 108.02 51.7399 108.08C49.6499 108.14 49.1499 108.93 49.1499 110.85C49.1399 112.78 49.65 113.76 51.75 113.57C54.34 113.34 56.94 113.23 59.54 113.05C60.73 112.97 61.56 113.21 61.19 114.68C57.24 114.58 53.36 115.16 49.47 115.91C50.55 116.32 51.61 116.32 52.67 116.32C58.52 116.3 58.5399 116.3 59.0299 122.04C59.2399 124.5 59.69 126.41 62.92 126.52C64.95 126.59 66.8299 125.88 68.8399 126.03C69.9799 126.12 69.91 125.03 69.91 124.21C69.92 121.94 69.99 119.67 69.89 117.4C69.83 116.04 70.2199 115.11 71.5199 114.63C71.8999 114.63 72.29 114.63 72.67 114.62C74.48 114.63 76.2999 114.63 78.1099 114.65C79.5399 114.67 80.2899 114.1 80.2699 112.55C80.2199 109.74 80.21 106.93 80.29 104.12C80.34 102.55 79.7 101.99 78.2 102.15C77.39 102.24 76.57 102.19 75.75 102.2C74.07 102.24 71.9599 102.91 70.8099 102.15C69.3199 101.17 70.04 98.8099 69.85 97.0299C69.76 96.1399 69.3799 95.26 69.3999 94.38C69.4399 92.63 68.84 92.3199 67.1 92.5799C64.09 93.0199 61.01 93.36 58.01 92.32C58.13 91.58 58.63 91.2799 59.32 91.2499C62.36 91.0999 65.4 91.3899 68.45 90.8099C69.53 90.6099 70.9799 91.4499 70.9599 92.9599C70.9399 95.1299 71.91 97.1699 71.57 99.3599C71.37 100.64 71.7599 100.9 73.2099 100.62C75.2199 100.24 77.36 100.54 79.44 100.47C81.55 100.41 81.6499 102.29 81.7999 103.42C82.2599 106.9 81.72 110.43 82.17 113.97C82.32 115.16 81.1399 116.37 79.4299 116.33C76.9899 116.28 74.54 116.35 72.1 116.36C71.68 116.33 71.57 116.52 71.67 116.89ZM47.57 111.08C47.56 111.08 47.5399 111.08 47.5299 111.08C47.5299 108.54 47.5299 106 47.5299 103.46C47.5299 102.09 46.57 102.15 45.64 102.18C44.94 102.2 44.41 102.33 44.57 103.28C45.36 108.02 44.2199 112.87 45.3399 117.61C45.5399 118.45 45.1899 119.64 46.6099 119.5C47.9899 119.36 47.5299 118.16 47.5599 117.34C47.5999 115.26 47.57 113.17 47.57 111.08Z" fill="#312E45"/>
<path d="M58 92.3398C61 93.3798 64.09 93.0499 67.09 92.5999C68.83 92.3399 69.43 92.6498 69.39 94.3998C69.37 95.2798 69.75 96.1598 69.84 97.0498C70.02 98.8298 69.3 101.19 70.8 102.17C71.96 102.93 74.06 102.25 75.74 102.22C76.56 102.2 77.38 102.25 78.19 102.17C79.7 102.01 80.33 102.58 80.28 104.14C80.19 106.95 80.21 109.76 80.26 112.57C80.29 114.11 79.53 114.68 78.1 114.67C76.29 114.65 74.47 114.65 72.66 114.64C72.67 114.34 72.67 114.03 72.68 113.72C74.12 113.68 75.56 113.64 76.99 113.61C77.85 113.59 78.71 113.5 78.64 112.36C78.5 110.05 78.94 107.71 78.17 105.41C77.78 104.23 77.33 104.05 76.07 104.13C73.08 104.31 70 104.94 67.08 103.62V103.49C68.01 102.61 67.7 101.47 67.71 100.42C67.71 95.2599 67.54 95.2499 62.51 94.4199C60.17 94.0299 59.6 94.8898 59.52 96.8998C59.42 99.4998 59.86 102.13 59.2 104.71C59.01 105.44 59.71 105.79 60.19 106.18C60 107.13 59.24 107.09 58.53 107.14C58.48 105.65 57.49 105.4 56.28 105.45L56.24 105.4C57.83 104.32 58.01 102.76 57.92 100.99C57.79 98.4898 57.85 95.9799 57.84 93.4799C57.9 93.1099 57.95 92.7198 58 92.3398Z" fill="#617547"/>
<path d="M71.67 116.89C71.57 116.52 71.68 116.33 72.1 116.38C71.95 116.55 71.81 116.72 71.67 116.89Z" fill="#DBDADF"/>
<path d="M67.0899 103.5V103.63C65.5299 104.96 65.9999 105.75 67.8099 105.93C69.2399 106.07 70.6899 105.98 72.1299 105.99C76.2799 106.02 76.2799 106.02 76.9399 109.79C77.1699 111.1 77.0299 112.09 75.2599 112C73.4599 111.9 71.6499 112.13 69.8599 111.99C68.1699 111.86 67.3299 112.53 67.0999 114.14C66.0599 116.55 66.8499 119.07 66.6699 121.53C66.5699 122.9 66.0299 123.45 64.6799 123.44C63.4199 123.43 62.8599 122.86 62.8499 121.65C62.8399 120.03 62.8299 118.41 62.8299 116.79C62.8299 115.68 62.7199 114.72 61.1899 115.19C61.2299 115.02 61.2199 114.86 61.1799 114.7C61.5499 113.23 60.7199 112.99 59.5299 113.07C56.9299 113.25 54.3299 113.35 51.7399 113.59C49.6399 113.78 49.1399 112.8 49.1399 110.87C49.1499 108.95 49.6399 108.16 51.7299 108.1C53.9999 108.04 56.3399 107.97 58.5399 107.16C59.2499 107.12 60.0099 107.15 60.1999 106.2C62.1699 104.02 60.9599 101.39 61.1699 98.9799C61.4099 96.1599 61.8199 95.5699 64.4799 96.2699C66.4099 96.7799 65.5899 98.7299 66.0299 100.03C66.4199 101.16 65.1799 102.8 67.0899 103.5Z" fill="#99D746"/>
<path d="M61.17 114.69C61.22 114.85 61.22 115.02 61.18 115.18C61.18 117.62 61.29 120.06 61.15 122.48C61.01 124.89 62.42 125.17 64.24 125.01C65.99 124.86 68.34 125.65 68.29 122.53C68.24 119.74 68.2 116.94 68.16 114.15C69.18 113.28 70.37 113.76 71.49 113.72C71.5 114.03 71.5 114.33 71.51 114.64C70.21 115.12 69.82 116.05 69.88 117.41C69.98 119.68 69.91 121.95 69.9 124.22C69.9 125.03 69.97 126.12 68.83 126.04C66.82 125.89 64.94 126.6 62.91 126.53C59.68 126.42 59.23 124.51 59.02 122.05C58.53 116.31 58.51 116.31 52.66 116.33C51.6 116.33 50.54 116.33 49.46 115.92C53.34 115.17 57.22 114.59 61.17 114.69Z" fill="#627647"/>
<path d="M47.5701 111.08C47.5701 113.17 47.61 115.25 47.55 117.34C47.53 118.15 47.9901 119.35 46.6001 119.5C45.1801 119.65 45.52 118.45 45.33 117.61C44.22 112.87 45.35 108.02 44.56 103.28C44.4 102.33 44.9401 102.2 45.6301 102.18C46.5601 102.15 47.52 102.1 47.52 103.46C47.51 106 47.52 108.54 47.52 111.08C47.54 111.08 47.5501 111.08 47.5701 111.08Z" fill="#656961"/>
<path d="M56.2899 105.46C55.4899 106.39 54.5098 105.8 53.5798 105.41C54.4698 105.41 55.3598 105.41 56.2498 105.41C56.2498 105.41 56.2899 105.46 56.2899 105.46Z" fill="#617547"/>
<path d="M71.51 114.65C71.5 114.34 71.5 114.04 71.49 113.73C71.89 113.73 72.28 113.73 72.68 113.73C72.67 114.04 72.67 114.34 72.66 114.65C72.28 114.64 71.9 114.65 71.51 114.65Z" fill="#4F5B46"/>
<path d="M72.6799 113.73C72.2799 113.73 71.8899 113.73 71.4899 113.73C70.3699 113.77 69.1699 113.29 68.1599 114.16C67.7999 114.15 67.4499 114.14 67.0899 114.13C67.3099 112.52 68.1599 111.85 69.8499 111.98C71.6399 112.12 73.4499 111.89 75.2499 111.99C77.0299 112.08 77.1599 111.1 76.9299 109.78C76.2799 106.01 76.2699 106.01 72.1199 105.98C70.6799 105.97 69.2299 106.07 67.7999 105.92C65.9899 105.74 65.5199 104.95 67.0799 103.62C69.9999 104.94 73.0799 104.31 76.0699 104.13C77.3399 104.05 77.7799 104.23 78.1699 105.41C78.9399 107.71 78.4999 110.05 78.6399 112.36C78.7099 113.5 77.8399 113.59 76.9899 113.61C75.5599 113.65 74.1199 113.69 72.6799 113.73Z" fill="#323044"/>
<path d="M67.09 103.5C65.19 102.81 66.43 101.17 66.04 100.02C65.6 98.73 66.42 96.77 64.49 96.26C61.83 95.56 61.42 96.15 61.18 98.97C60.97 101.38 62.18 104.01 60.21 106.19C59.72 105.8 59.03 105.45 59.22 104.72C59.88 102.13 59.43 99.51 59.54 96.91C59.62 94.9 60.19 94.04 62.53 94.43C67.56 95.26 67.74 95.27 67.73 100.43C67.71 101.47 68.01 102.62 67.09 103.5Z" fill="#312E44"/>
<path d="M67.09 114.13C67.45 114.14 67.8 114.15 68.16 114.16C68.2 116.95 68.24 119.75 68.29 122.54C68.35 125.66 65.99 124.88 64.24 125.02C62.42 125.17 61.02 124.9 61.15 122.49C61.29 120.06 61.18 117.62 61.18 115.19C62.71 114.72 62.82 115.68 62.82 116.79C62.81 118.41 62.83 120.03 62.84 121.65C62.85 122.86 63.41 123.43 64.67 123.44C66.02 123.45 66.56 122.9 66.66 121.53C66.84 119.06 66.05 116.54 67.09 114.13Z" fill="#312D44"/>
</svg>
