<svg width="489" height="482" viewBox="0 0 489 482" fill="none" xmlns="http://www.w3.org/2000/svg">
<path d="M157.68 280.42C157.7 268.1 157.03 255.82 156.3 243.53C155.81 235.21 154.94 226.96 153.88 218.72C152.97 211.66 151.9 204.63 150.95 197.58C149.74 188.66 148.69 179.72 147.36 170.82C146.59 165.67 146.74 160.52 146.88 155.38C146.92 153.72 144.77 152.39 146.36 150.67C153.48 149.05 160.59 147.39 167.72 145.83C168.83 145.59 169.24 145.18 169.21 144.07C169.14 141.17 169.1 138.26 169.14 135.36C169.16 134.21 168.82 133.55 167.62 133.82C162.23 135.04 159.91 132.29 159.19 127.4C159.13 126.96 158.92 126.54 158.78 126.11C158.59 125.15 158.37 124.2 158.23 123.24C158.12 122.47 157.74 122.74 157.34 122.94C154.27 123.64 151.23 124.78 148.14 124.91C145.36 125.03 144.95 126.14 145.27 128.36C146.32 135.64 145.33 143 146.28 150.28C144.57 150.93 143.13 151.71 143.1 153.93C142.93 167.71 142.82 181.5 142.48 195.28C141.98 215.41 141.6 235.53 141.34 255.66C141.15 269.98 140.75 284.3 140.29 298.62C140.1 304.59 142.61 309.57 145.37 314.52C145.59 314.91 146.02 315.19 146.2 315.59C148.81 321.45 153.44 322.83 159.29 321.54C160.73 321.67 162.22 321.61 163.59 321.97C170.76 323.84 177.72 326.32 184.3 329.74C186.97 331.13 189.76 332.56 191.42 335.32C189.86 335.87 188.86 334.9 187.81 334.01C186.4 332.83 184.96 331.71 182.93 331.35C183.83 332.86 183.89 334.49 184.23 336.05C184.36 336.64 184.26 337.22 183.65 337.38C182.82 337.61 182.91 336.86 182.79 336.37C182.55 335.41 182.37 334.42 182.03 333.5C181.84 332.99 181.77 332.12 180.81 332.38C180.16 332.56 179.61 332.92 179.62 333.67C179.63 334.31 179.14 335.22 180.29 335.41C181.02 335.53 181.98 335.54 181.69 336.56C181.16 338.37 179.42 336.59 178.4 337.49C178.01 337.83 177.53 337.13 177.42 336.53C176.96 334.02 178.89 330.9 181.73 330.14C176.56 328.13 171.84 325.92 166.79 324.49C165.09 324.01 163.64 323.36 163.48 325.95C162.27 325.67 162.3 324.3 161.23 324.22C160.78 324.98 160.03 325.77 160.99 326.58C161.43 326.95 162.39 326.89 161.75 327.8C161.53 328.12 161.01 328.3 160.59 328.38C159.87 328.53 159.34 328.13 159.13 327.46C158.97 326.95 158.78 326.35 158.91 325.87C159.66 323.2 158.06 323.22 156.22 323.36C155.09 323.44 153.94 323.38 152.4 323.38C152.86 324.05 153.03 324.33 153.24 324.59C156.51 328.76 160.94 331.7 164.74 335.32C165.82 336.35 166.08 336.8 164.79 337.75C163.84 338.45 163.09 338.73 161.86 338.35C157.64 337.05 153.5 335.56 149.27 333.8C149.18 334.4 149.1 334.82 149.06 335.25C149.01 335.8 148.99 336.45 148.28 336.47C147.35 336.5 147.45 335.7 147.41 335.09C147.36 334.46 147.49 333.78 147.29 333.2C146.98 332.28 146.37 331.83 145.49 332.72C144.2 334.04 144.49 336.65 146.04 337.67C144 339.06 142.58 338.95 142.62 337.37C142.65 336.04 142.66 334.39 143.39 333.46C145.81 330.4 143.04 330.26 141.39 329.42C138.35 328.46 137.97 326.24 138.06 323.37C138.34 314.78 138.58 306.2 139.28 297.63C139.61 293.58 138.84 289.58 139.03 285.48C139.49 275.17 139.21 264.83 139.69 254.51C140.05 246.82 139.76 239.11 140.17 231.4C140.55 224.28 140.6 217.11 140.08 209.96C140.95 202.56 140.01 195.11 140.77 187.71C140.97 183.83 141.27 179.95 141.36 176.07C141.53 168.2 141.15 160.31 141.66 152.44C141.7 151.87 141.8 151.29 141.28 150.97C139.13 149.66 139.29 147.52 139.21 145.46C139.08 142.21 139.14 138.98 138.82 135.72C138.52 132.61 137.56 129.48 138.3 126.3C138.55 126.15 139.12 126.15 138.85 125.73C138.63 125.39 138.25 125.68 138.06 126C135.97 126.14 134.31 126.7 134.31 129.29C134.32 134.55 134.09 139.8 133.89 145.06C133.43 156.85 133.4 168.65 133.17 180.44C133.14 182.07 132.93 183.7 132.84 185.33C132.74 187.22 132.48 189.11 132.93 190.99C132.82 195.68 132.7 200.36 132.59 205.05C132.09 205.62 132.05 206.23 132.45 206.87C132.44 207.33 132.43 207.79 132.42 208.25C131.63 214.83 132 221.45 131.78 228.05C131.27 243.09 131.07 258.14 130.55 273.17C130.34 279.24 130.4 285.3 130.08 291.38C129.53 301.78 129.62 312.22 129.41 322.64C129.39 323.68 129.78 324.85 128.75 325.69C127.51 325.55 127.76 324.6 127.78 323.83C128.08 312.85 128.4 301.88 128.71 290.9C128.75 289.36 128.78 287.82 128.81 286.27C129.02 275.65 129.08 265.03 129.46 254.42C129.97 239.82 130.22 225.21 130.61 210.6C130.97 197.17 131.31 183.75 131.66 170.32C132.02 156.62 132.54 142.93 132.69 129.22C132.72 126.17 134.42 124.82 137.7 124.37C142.07 123.77 146.52 123.94 150.83 122.81C152.79 122.29 154.59 122.31 154.71 119.24C154.84 115.99 159.19 114.19 162.94 115.44C167.25 116.88 171.86 116.55 176.18 117.85C177.05 118.11 177.98 117.96 178.47 116.92C179.69 114.31 181.96 114.04 184.44 114.28C185.16 114.35 185.88 114.44 186.6 114.58C189.16 115.06 190.91 114.46 190.93 111.44C190.95 109.44 191.84 109.68 193.4 110.19C196.97 111.37 200.68 113.35 204.19 109.89C204.54 109.55 205.2 109.31 205.7 109.35C211.43 109.82 217.28 108.49 222.91 110.45C225.11 111.22 227.3 112 229.49 112.78C231.7 113.56 233.66 114.64 233.95 117.28C234.11 118.77 235.1 119.02 236.24 118.94C240.08 118.67 243.15 120.8 246.27 122.39C249.82 124.2 250.39 131.94 247.19 135.45C245.15 137.69 245.56 140.68 243.98 142.97C243.48 143.7 244.46 144.01 244.93 144.32C248.14 146.49 251.37 148.62 254.6 150.75C254.97 150.99 255.65 151.06 255.76 151.37C256.76 154.18 253.97 155.87 253.58 158.35C253.4 159.52 252.09 159.08 251.05 158.96C247.28 158.52 243.56 157.95 240.1 156.28C237.96 155.25 238.64 157.16 238.55 157.93C238 163.09 238.12 168.32 236.84 173.41C236.16 176.11 235.86 178.92 234.99 181.54C233.06 187.35 233.58 193.07 234.76 198.92C236.14 205.82 236.87 212.82 237.38 219.84C237.58 222.55 237.75 225.26 237.95 227.97C237.98 228.39 237.87 229.03 238.48 229.02C239.22 229.01 238.76 228.06 239.27 227.72C239.79 228.22 239.7 229.12 239.44 229.31C237.4 230.88 237.98 233.07 237.98 235.08C237.95 244.43 237.74 253.8 238.05 263.14C238.24 268.98 239.28 274.8 239.88 280.63C240.19 283.69 240.71 286.77 240.56 289.82C240.32 294.56 241.06 298.97 243.53 303.02C244.58 304.74 244.18 305.33 242.25 305.98C238.94 307.11 236.17 306.84 233.05 305.07C229.46 303.04 225.2 302.43 221.13 302.24C211.7 301.8 202.24 301.56 192.81 301.78C184.57 301.97 176.33 302.68 168.09 302.58C164.21 302.53 160.25 302.53 156.66 300.11C153.45 297.95 153.09 297.37 155.64 294.46C155.8 294.3 155.96 294.13 156.12 293.97L156.16 293.94C158.52 293.92 157.38 294.87 156.72 295.8C156.3 296.4 154.65 297.08 156.11 297.82C158.61 299.1 160.74 300.99 163.96 301.07C172.05 301.29 180.1 300.34 188.17 300.46C192.55 300.53 193.1 299.98 194.11 294.98C190.18 296.36 186.24 297.15 182.25 297.57C181.03 297.7 179.34 298.77 178.57 296.68C180.77 295.7 183.17 295.99 185.46 295.58C188.56 295.02 192.14 294.86 194.35 292.89C196.01 291.41 194.69 288.05 194.81 285.53C194.83 285.17 194.77 284.8 194.82 284.44C195.03 282.96 194.48 282.08 193.01 281.59C186.91 279.54 181.69 275.73 175.95 272.93C171.29 270.66 165.79 270.89 161.54 274.24C160.75 274.05 160.83 275.82 160.08 275.08C159.43 274.43 160.36 273.91 160.89 273.5C160.95 273.45 160.98 273.35 161.03 273.27C164 271.64 167.09 270.4 170.56 270.5C171.5 270.53 171.94 270.35 171.35 269.37C173.84 270.07 175.68 271.94 177.9 273.05C187.16 277.66 195.97 283.22 206.1 286.04C211.14 287.45 211.02 287.88 214.77 284C214.37 286.13 210.89 289.22 209.49 288.33C206.99 286.74 205.6 287.97 204.08 289.58C203.64 288.43 206.02 287.02 204.6 286.63C201.46 285.78 198.62 284.25 195.26 282.79C196.31 285.68 195.87 288.13 195.88 290.55C195.88 292.12 196.11 292.68 197.85 291.98C199.93 291.15 201.84 289.85 204.12 289.54C204.37 290.71 203.23 291.31 203 292.29C201.96 293.51 203.01 293.34 203.72 293.37C205.7 293.43 207.71 293.17 209.65 293.83C210.2 294.02 211.14 293.82 211.01 294.73C210.9 295.48 210.2 295.4 209.49 295.31C205.19 294.77 200.65 293.75 198.64 299.37C198.35 297.73 199.75 296.64 200.02 295.23C199.35 295.04 198.5 295.05 198.02 294.63C196.33 293.16 195.37 294.35 195.01 295.65C194.54 297.29 193.62 298.68 192.94 300.41C194.99 300.16 197.09 301.26 198.68 299.31C198.85 300.96 200.12 300.41 201.03 300.43C208.59 300.63 216.17 299.94 223.71 300.9C227.11 301.09 230.25 302.37 233.5 303.18C236.26 305.06 239.16 304.73 242.09 304C241.59 301.19 238.96 299.58 238.96 296.76C238.95 291.7 239.25 286.62 238.42 281.59C237.79 277.79 238.02 273.88 236.83 270.17L236.9 270.05L236.81 269.95C236.61 268.03 237.17 266.05 236.29 264.19C236.29 263.47 236.31 262.75 236.3 262.03C236.17 256.09 235.54 255.71 229.72 258.04C227.55 258.27 225.98 259.84 223.5 261C224.78 258.91 226.6 258.64 227.88 257.52C225.39 257.15 223.27 255.45 220.48 255.89C222.42 261.59 224.32 267.16 223.78 273.24C223.57 275.57 223.01 277.43 220.96 278.67C221.21 276.83 223.33 275.74 223.11 273.82C222.75 270.61 222.87 267.38 222.2 264.18C220.94 258.19 217.55 252.94 216.37 246.96C215.86 244.37 213.61 242.57 213.16 240.31C212.55 237.25 211.33 238.05 209.49 238.62C205.4 239.89 201.34 240.61 197.33 238.05C196.16 237.3 194.53 237.58 193.17 238.32C190.96 239.53 188.75 240.72 186.53 241.91C185.74 242.33 185.36 243.03 184.84 243.74C182.57 246.83 181.94 250.51 180.52 253.93C180.23 251.26 181.72 248.98 182.17 246.49C182.06 242.86 184.87 241.77 187.41 240.44C189.07 239.56 190.71 238.64 192.39 237.78C194.44 236.74 196.46 235.63 198.63 237.7C199.18 238.22 200.06 238.81 201.05 238.37C202.55 239.33 204.32 239.11 205.75 238.72C214.5 236.36 223.19 233.77 231.89 231.26C232.79 231.03 233.85 231.57 234.6 230.67C236.09 230.85 236.57 230.42 236.5 228.72C236.11 220.27 235.1 211.88 234 203.51C233.61 200.57 233.5 197.5 232 194.28C231.85 196.56 231.59 198.36 231.48 200.13C231.35 202.16 229.48 205.13 233.5 205.82C233.54 205.83 233.49 206.32 233.48 206.59C232.4 206.73 230.63 204.29 230.36 207.44C230.03 211.36 229.21 215.22 229.15 219.17C229.11 221.53 229.84 223.9 229.11 226.25C227.73 226.57 227.46 225.88 227.48 224.66C227.54 221.02 227.36 217.36 227.94 213.74C228.25 211.62 228.42 209.47 228.91 207.39C229.25 205.94 229 205.37 227.47 205.46C225.14 205.6 222.8 205.68 220.47 205.79C219.15 206.45 217.54 205.64 216.29 206.63C215.15 206.8 213.99 206.92 212.87 207.05C209.06 207.5 205.45 209.94 201.42 208.29C201.33 207.7 200.21 207.5 200.81 206.65C202.65 208.3 204.96 208.06 206.95 207.57C212.14 206.3 217.33 205.23 222.66 204.83C224.15 204.34 225.7 204.37 227.21 204.52C229.03 204.7 229.51 203.85 229.69 202.24C230.17 197.99 230.5 193.68 231.48 189.53C232.05 187.1 231.55 185.57 229.83 184.11C230.46 183.6 230.83 184.15 231.17 184.5C232.07 185.44 232.59 184.91 232.78 184.01C234.61 175.6 237.17 167.3 236.82 158.54C236.83 154.18 236.79 154.03 233.52 153.87C225.5 153.49 217.5 152.85 209.49 152.24C196.17 151.22 182.84 150.39 169.52 149.47C168.68 149.41 167.59 149.75 167.47 148.35C167.56 148.21 167.61 148.05 167.62 147.88C173.58 148.25 179.55 148.57 185.51 148.99C194.8 149.64 204.09 150.4 213.38 151.05C219.79 151.5 226.23 151.72 232.63 152.32C234.81 152.52 237.21 152.3 239.16 153.77C241.84 155.79 245.1 156.2 248.21 157.05C251.13 157.85 252.79 156.84 253.75 154.02C254.13 152.91 254.26 152.49 253.12 151.76C249.69 149.59 246.39 147.22 243.07 144.87C242.29 144.32 241.06 143.37 241.93 142.5C243.88 140.57 243.78 138.18 244.11 135.82C238.68 135.91 233.3 135.22 227.9 134.84C215.89 133.99 203.86 133.41 191.86 132.49C188.61 132.24 185.36 132.14 182.11 131.93C176.15 131.53 170.18 131.17 164.22 130.81C163.58 130.77 162.91 130.86 163.02 131.87C164.69 132.38 166.44 132.24 168.11 132.05C170.38 131.8 170.97 132.71 170.86 134.81C170.72 137.53 170.96 140.26 170.81 142.98C170.71 144.67 171.17 145.13 172.88 145.12C176.95 145.08 181.07 144.61 185.07 145.64C190.1 146.94 194.67 145.75 199.14 143.54C199.7 143.26 200.32 143.1 200.93 142.93C204.31 142.01 207.38 141.91 210.19 144.75C211.66 146.24 213.97 146.68 216.07 147.28C222.64 149.15 229.5 148.57 236.14 149.92C240.24 150.76 244.53 150.89 246.98 155.22C245.47 156.11 244.61 154.97 243.84 154.1C242.82 152.95 241.59 152.5 240.13 152.16C233.17 150.52 225.97 150.9 218.99 149.46C215.38 148.71 211.59 148.3 208.79 145.63C206.78 143.72 204.59 143.64 202.27 144.27C200.12 144.85 198.07 145.83 195.96 146.58C193.04 147.62 190.17 148.04 186.96 147.49C180.45 146.36 173.84 146.06 167.29 147.48C167.05 147.61 166.81 147.75 166.57 147.88C162.61 148.28 158.83 149.53 154.96 150.37C154.37 150.5 153.27 150.34 153.43 151.46C153.57 152.46 154.44 152.61 155.3 152.66C158.1 152.85 160.89 153.01 163.69 153.24C168.37 153.62 173.05 154.01 177.73 154.44C185.1 155.11 192.47 155.84 199.84 156.5C204.61 156.93 209.39 157.26 214.15 157.7C221.43 158.37 228.71 159.08 235.98 159.78C236.83 162.14 235.13 161.32 234.11 161.24C228.89 160.78 223.68 160.27 218.47 159.81C213.7 159.39 208.93 159.02 204.16 158.62C195.96 157.93 187.76 157.24 179.56 156.55C179.24 156.48 178.92 156.4 178.6 156.33C176.33 155.72 174.16 155.6 172.44 157.62C172.26 157.65 172.08 157.66 171.9 157.64C172.51 155.9 172.06 155.3 170.07 155.4C167.83 155.51 165.53 155.29 163.33 154.88C158.85 154.04 154.19 154.93 149.81 153.36C148.79 153 148.35 153.3 148.34 154.46C148.26 162.34 148.54 170.19 149.95 178.05C150.66 175.08 153.59 174.17 155.18 172.06C158.56 169.64 162.07 167.73 166.48 168.91C166.85 169.01 168.4 169.79 167.5 168.06C167.63 167.91 167.76 167.77 167.89 167.62C169.84 169.13 172.12 169.71 174.48 170.23C175.52 170.46 176.84 170.56 177.43 171.81C176.75 172.45 176.34 171.63 175.82 171.49C169.92 169.83 164.04 168.21 158.01 171.1C156.12 172.01 155.12 173.92 153.35 174.92C151.14 176.61 149.96 178.83 150.3 181.61C151.09 188.02 151.92 194.42 152.89 200.8C153.36 203.86 153.27 207.03 154.51 209.96C154.52 211.09 154.22 212.25 154.89 213.31C155.2 214.91 154.66 216.63 155.59 218.14C155.23 220.21 156.14 222.16 156.12 224.2C156.12 224.47 156.04 225.12 156.54 224.84C158.36 223.81 158.06 225.92 158.88 226.33C157.94 226.85 157.63 225.31 156.69 225.71C156.69 226.74 156.61 227.81 156.7 228.87C157.64 240.2 158.78 251.52 158.81 262.9C158.82 266.16 158.91 269.41 159.43 272.64C159.48 280.22 159.13 287.8 159.75 295.92C158.06 294.21 157.77 292.63 157.76 290.91C157.76 287.48 157.71 283.95 157.68 280.42ZM235.72 256.27C235.9 256.13 236.24 255.99 236.24 255.84C236.41 248.11 236.56 240.37 236.7 232.64C236.74 230.29 235.47 231.72 234.63 231.94C233.8 231.69 233.12 232.06 232.46 232.49C230.41 232.3 228.61 233.42 226.62 233.62C225.83 233.7 225.96 234.53 225.9 235.12C224.2 234.96 222.61 235.41 221.03 235.95C219.09 236.6 217.17 237.6 215.19 237.76C212.99 237.93 213.75 239.04 214.17 239.91C217.3 246.5 219.02 247.35 226.24 246.08C226.77 245.99 227.32 246.03 227.86 246.01C230.63 245.94 230.75 245.67 229.64 243.05C228.48 240.34 226.54 238 225.86 235.07C228.49 237.95 229.84 241.53 231.3 245.04C231.66 245.9 231.4 246.54 230.2 246.61C228.7 246.69 227.22 247.01 225.34 247.29C227.98 248.09 230.18 248.75 232.38 249.41C232.28 251.98 230.96 254.28 230.44 257.15C232.34 256.08 234.06 256.47 235.72 256.27ZM226.77 127.39C221.45 127.44 216.18 126.33 210.85 126.79C196.1 126.03 181.35 125.28 166.6 124.48C163.79 124.33 161.29 124.32 161.55 128.31C162.98 127.92 164.13 129.31 165.69 129.35C173.83 129.58 181.94 130.35 190.06 130.95C199.45 131.65 208.87 131.89 218.24 132.77C221.66 133.09 225.09 133.07 228.52 133.52C233.35 134.15 238.27 134.18 243.15 134.49C243.58 134.52 243.75 134.43 243.94 134.05C245.07 131.75 243.41 128.14 240.88 127.96C236.18 127.62 231.47 127.56 226.77 127.39ZM245.71 134.68C248.61 132.19 248.13 129.41 247.12 126.49C246.12 123.63 244.39 122.46 241.38 122.83C233.77 123.78 226.2 124.44 218.45 124.06C206.44 123.47 194.48 122.65 182.62 120.64C175.91 119.5 169.23 118.12 162.52 116.98C160.32 116.61 157.97 116.34 156.49 118.78C156.02 119.55 156.22 121 156.28 120.98C159.99 119.83 158.94 123.56 160.35 124.86C160.51 122.91 161.74 122.72 163.37 122.8C167.9 123.01 172.44 122.98 176.97 123.21C191.26 123.95 205.55 124.79 219.84 125.52C225.81 125.83 231.79 125.88 237.76 126.18C244.76 126.53 245.42 127.27 245.55 134.01C245.56 134.17 245.63 134.33 245.71 134.68ZM240.21 121.72C239.46 120.47 238.33 120.66 237.28 120.61C234.73 120.5 232.17 120.39 232.03 116.87C231.97 115.55 230.93 115.02 229.92 114.66C226.29 113.37 222.63 112.15 218.97 110.96C218.3 110.74 217.43 110.52 216.88 111.07C214.96 113.01 212.44 114.32 210.78 116.66C212.89 117.65 215.17 118.3 214.47 121.28C214.27 122.14 214.83 122.43 215.57 122.33C218.12 121.98 220.58 122.79 223.11 122.87C228.83 123.06 234.42 121.76 240.21 121.72ZM140.45 308.59C139.47 314.42 139.88 319.77 139.77 325.1C139.75 326.21 139.78 326.89 141.24 327.42C143.47 328.23 145.82 329.26 147.66 330.67C152.36 334.25 158.01 335.03 163.4 336.89C154.32 328.77 145.84 320.27 140.45 308.59ZM192.23 111.94C192 114.34 191.77 116.75 191.56 119.16C191.49 119.91 191.47 120.64 192.58 120.63C198.72 120.63 204.72 122.35 210.87 122.22C211.56 122.21 212.7 122.99 212.9 121.34C213.05 120.08 212.79 119.28 211.6 118.76C209.51 117.85 207.42 117.08 205.08 117.7C203.21 118.19 201.47 118.03 200.25 116.29C198.32 113.54 195.7 112.08 192.23 111.94ZM139.79 129.53C139.94 131.2 139.93 133.48 140.37 135.67C141.2 139.76 140.45 143.94 141.32 148.04C141.65 149.61 142.51 150.01 143.68 150C145.17 149.99 144.66 148.62 144.57 147.93C143.69 141.02 144.6 134.03 143.61 127.13C143.45 125.99 143.11 125.52 141.96 125.59C140.91 125.66 139.91 125.75 139.79 127.08C139.74 127.69 139.79 128.33 139.79 129.53ZM224.24 248.1C222.46 248.29 222.74 250.36 221.98 251.58C220.64 253.71 220.63 255.18 223.69 255.53C225.08 255.69 226.4 256.42 227.78 256.78C228.4 256.94 229.29 257.32 229.63 256.35C230.25 254.59 230.8 252.8 231.3 251C231.45 250.48 231.27 250.03 230.58 249.78C228.65 249.07 226.72 248.39 224.24 248.1ZM200.59 114.07C203.24 118.1 208.62 117.23 213.35 111.69C208.56 109.49 204.52 111.33 200.59 114.07ZM183.06 115.73C182.26 115.56 180.95 115.91 180.02 117.28C179.61 117.88 179.35 118.4 180.38 118.6C183.17 119.16 185.92 120 188.79 120.14C190.63 120.23 189.77 118.8 189.9 118.01C190 117.39 190.67 116.36 189.16 116.27C187.37 116.19 185.59 115.97 183.06 115.73ZM217.1 246.41C217.62 249.43 218.3 251.83 219.83 254.29C220.76 252.24 221.63 250.42 222.43 248.56C222.8 247.7 222.66 247.15 221.5 247.44C220.06 247.8 218.62 247.93 217.1 246.41Z" fill="#363349"/>
<path d="M191.41 335.3C189.75 332.54 186.96 331.11 184.29 329.72C177.72 326.3 170.75 323.82 163.58 321.95C162.2 321.59 160.71 321.66 159.28 321.52C161.12 319.94 163.51 319.94 165.66 319.73C174.4 318.9 183.25 318.17 191.9 319.77C199.17 321.11 206.22 323.72 212.86 327.14C217.3 329.42 221.58 331.89 224.92 335.8C229.16 340.76 229.92 349.55 220.61 352.19C207.85 355.81 194.95 355.07 182.01 354.61C173.51 354.31 165.64 350.82 157.28 349.75C152.62 349.15 147.94 348.46 143.63 346.38C143.13 346.14 142.62 345.98 142.42 345.4C144.3 345.55 146.18 345.62 148.05 345.86C160.06 347.41 172.04 347.35 183.96 345.2C186.7 344.71 189.42 343.94 191.76 342.31C193.99 340.76 194.1 339.11 192.15 337.88C191.91 337.03 191.66 336.17 191.41 335.3Z" fill="#B2B0B9"/>
<path d="M140.08 209.99C140.59 217.13 140.54 224.31 140.17 231.43C139.76 239.14 140.04 246.84 139.69 254.54C139.21 264.86 139.49 275.2 139.03 285.51C138.85 289.61 139.62 293.61 139.28 297.66C138.58 306.23 138.34 314.81 138.06 323.4C137.97 326.26 138.35 328.48 141.39 329.45L141.43 329.42C136.79 330.54 132.36 330 128.16 327.72C128.76 327.18 129.01 326.54 128.76 325.74C129.79 324.9 129.4 323.73 129.42 322.69C129.63 312.27 129.54 301.83 130.09 291.43C130.41 285.35 130.35 279.29 130.56 273.22C131.08 258.18 131.29 243.13 131.79 228.1C132.01 221.51 131.64 214.88 132.43 208.3C132.85 209.42 132.57 211.38 134.18 211.27C136.13 211.12 138.58 212.49 140.08 209.99Z" fill="#7FAD56"/>
<path d="M191.41 335.3C191.66 336.16 191.91 337.02 192.16 337.88C192.24 340.63 190.27 341.58 188.15 342.33C182.56 344.32 176.7 344.95 170.85 345.12C164.8 345.3 158.74 345.34 152.66 344.76C145.82 344.11 139.08 343.15 132.39 341.59C128.68 340.72 125.39 338.89 121.85 337.64C120.49 337.19 120.61 335.98 120.44 334.91C121.37 333.19 122.52 331.26 124.33 330.88C125.59 330.61 125.76 329.92 126.32 329.27C126.7 328.64 127.1 328.04 127.87 327.83C127.72 328.64 128.01 329.21 128.76 329.6C131.98 331.27 135.35 332.13 138.96 331.38C140.02 331.16 141.42 331.05 141.42 329.38L141.38 329.41C143.03 330.25 145.8 330.39 143.38 333.45C142.64 334.38 142.64 336.03 142.61 337.36C142.57 338.93 143.99 339.05 146.03 337.66C144.47 336.64 144.18 334.02 145.48 332.71C146.36 331.81 146.97 332.27 147.28 333.19C147.48 333.77 147.35 334.45 147.4 335.08C147.45 335.69 147.34 336.49 148.27 336.46C148.97 336.44 148.99 335.79 149.05 335.24C149.09 334.81 149.17 334.39 149.26 333.79C153.49 335.55 157.63 337.04 161.85 338.34C163.09 338.72 163.83 338.44 164.78 337.74C166.07 336.79 165.81 336.33 164.73 335.31C160.93 331.7 156.5 328.75 153.23 324.58C153.03 324.32 152.85 324.04 152.39 323.37C153.93 323.37 155.07 323.44 156.21 323.35C158.06 323.21 159.66 323.19 158.9 325.86C158.77 326.33 158.96 326.94 159.12 327.45C159.33 328.12 159.86 328.52 160.58 328.37C161 328.29 161.52 328.11 161.74 327.79C162.38 326.88 161.41 326.94 160.98 326.57C160.02 325.76 160.77 324.97 161.22 324.21C162.29 324.29 162.27 325.66 163.47 325.94C163.63 323.34 165.08 324 166.78 324.48C171.83 325.91 176.55 328.12 181.72 330.13C178.88 330.89 176.96 334 177.41 336.52C177.52 337.12 178 337.82 178.39 337.48C179.41 336.58 181.15 338.36 181.68 336.55C181.98 335.53 181.01 335.52 180.28 335.4C179.14 335.21 179.62 334.3 179.61 333.66C179.6 332.9 180.15 332.55 180.8 332.37C181.75 332.11 181.83 332.98 182.02 333.49C182.36 334.41 182.54 335.4 182.78 336.36C182.9 336.85 182.8 337.6 183.64 337.37C184.25 337.2 184.35 336.63 184.22 336.04C183.88 334.48 183.81 332.85 182.92 331.34C184.95 331.7 186.39 332.82 187.8 334C188.85 334.88 189.85 335.85 191.41 335.3Z" fill="#7FAD56"/>
<path d="M161.04 273.33C161 273.41 160.97 273.5 160.9 273.56C160.36 273.98 159.43 274.49 160.09 275.14C160.83 275.88 160.76 274.119 161.55 274.299C163.08 280.089 165.12 285.69 168.63 290.59C171.05 293.97 173.96 296.8 178.57 296.74C179.34 298.83 181.03 297.76 182.25 297.63C186.24 297.21 190.19 296.419 194.11 295.039C193.1 300.039 192.55 300.59 188.17 300.52C180.09 300.39 172.05 301.35 163.96 301.13C160.74 301.04 158.61 299.15 156.11 297.88C154.65 297.14 156.3 296.459 156.72 295.859C157.38 294.929 158.52 293.98 156.16 294C157.63 289.58 155.76 284.789 157.69 280.419C157.72 283.949 157.77 287.48 157.77 291.01C157.77 292.73 158.07 294.3 159.76 296.02C159.15 287.89 159.49 280.32 159.44 272.74C160.19 272.14 159.86 271.27 160 270.52C161.64 270.97 160.8 272.35 161.04 273.33Z" fill="#E7E3A9"/>
<path d="M121.85 337.65C125.39 338.89 128.68 340.73 132.39 341.6C139.08 343.16 145.82 344.12 152.66 344.77C158.74 345.35 164.8 345.31 170.85 345.13C176.7 344.96 182.56 344.32 188.15 342.34C190.26 341.59 192.23 340.64 192.16 337.89C194.11 339.12 194 340.77 191.77 342.32C189.43 343.94 186.71 344.71 183.97 345.21C172.04 347.36 160.06 347.42 148.06 345.87C146.2 345.63 144.31 345.56 142.43 345.41C137.05 344.24 131.53 343.53 126.46 341.3C124.73 340.55 121.99 340.58 121.85 337.65Z" fill="#363349"/>
<path d="M126.32 329.29C125.76 329.93 125.59 330.63 124.33 330.9C122.52 331.28 121.38 333.21 120.44 334.93C120.31 335.27 120.28 335.72 120.04 335.92C119.37 336.49 120.19 338.3 118.95 337.92C117.75 337.55 118.26 335.96 118.65 335.06C119.86 332.27 121.95 330.15 124.31 328.29C125.63 327.24 125.99 328.26 126.32 329.29Z" fill="#363349"/>
<path d="M141.42 329.4C141.42 331.06 140.02 331.18 138.96 331.4C135.35 332.15 131.98 331.29 128.76 329.62C128.01 329.23 127.72 328.66 127.87 327.85C127.94 327.76 128.04 327.71 128.15 327.7C132.35 329.98 136.78 330.52 141.42 329.4Z" fill="#363349"/>
<path d="M156.11 294.03C155.95 294.2 155.79 294.36 155.63 294.52C155.8 294.36 155.96 294.19 156.11 294.03Z" fill="#E7E3A9"/>
<path d="M182.18 246.58C181.72 249.07 180.24 251.35 180.53 254.02C181.95 250.6 182.58 246.91 184.85 243.83C185.37 243.12 185.74 242.42 186.54 242C188.76 240.81 190.97 239.62 193.18 238.41C194.54 237.67 196.17 237.39 197.34 238.14C201.35 240.7 205.4 239.99 209.5 238.71C211.34 238.14 212.56 237.34 213.17 240.4C213.62 242.65 215.87 244.45 216.38 247.05C217.56 253.03 220.96 258.27 222.21 264.27C222.88 267.47 222.76 270.7 223.12 273.91C223.34 275.83 221.22 276.92 220.97 278.76L221.02 278.72C220.34 278.43 220.26 278.74 220.44 279.3L220.48 279.26C219.88 279.05 219.68 279.24 219.9 279.84L219.94 279.8C219.31 279.56 219.19 279.83 219.35 280.38L219.39 280.34C218.83 280.17 218.58 280.32 218.81 280.93L218.85 280.89C218.25 280.68 218.06 280.88 218.26 281.48L218.3 281.44C217.41 281.3 216.81 281.45 217.17 282.57L217.21 282.54C216.41 281.87 216.27 282.93 215.79 283.09C215.45 283.42 215.11 283.74 214.78 284.07C211.03 287.95 211.15 287.52 206.11 286.11C195.98 283.28 187.17 277.72 177.91 273.12C175.68 272.01 173.85 270.14 171.36 269.44L171.4 269.49C171.59 268.56 170.89 268.51 170.29 268.35L170.33 268.39C169.78 267.74 169.22 267.09 168.67 266.44C168.04 265.81 167.42 265.19 166.79 264.56C166.32 264.19 165.85 263.82 165.38 263.44L165.42 263.48C165.19 262.96 165.24 262.15 164.28 262.39L164.3 262.41C162.55 258.78 161.17 255.05 161.03 250.96C162.52 247.24 163.54 243.31 165.98 240.01C167.28 240.26 168.18 241.19 169.2 241.91C173.08 244.67 177.26 246.68 182.18 246.58Z" fill="#C7CEBE"/>
<path d="M153.35 175.02C155.12 174.02 156.12 172.109 158.01 171.199C164.04 168.309 169.91 169.93 175.82 171.59C176.34 171.74 176.75 172.559 177.43 171.909L177.37 171.869C175.75 176.789 177.91 186.09 180.61 186.28C179.29 184.52 178.99 182.239 178.04 180.249C176.36 176.699 177.41 173.899 180.78 172.479C189.29 168.899 198.27 168.14 207.38 168.15C207.59 169.77 208.9 169.989 210.13 170.259C213.13 170.929 216.04 171.78 218.61 173.58C221.79 175.81 222.55 179.219 223.2 182.699C219.76 182.219 216.33 181.759 213.03 180.609C212.47 180.419 211.57 179.439 211.2 180.509C210.77 181.749 212.5 180.659 212.68 181.659C208.57 182.999 204.43 184.36 200.29 185.71C200.36 186 200.43 186.29 200.49 186.58C207.81 184.28 214.91 179.99 222.6 183.78C219.65 184.08 216.21 183.28 213.31 185.46C212.93 185.72 212.21 186.039 212.58 186.469C213.07 187.029 213.35 186.219 213.7 185.929C215.94 184.949 218.29 184.509 220.72 184.429C221.62 184.399 222.02 184.359 222.24 185.679C223.21 191.579 222.23 197.15 220.03 202.58C219.74 203.29 219.79 203.83 220.17 204.58C221.13 203.7 221.34 202.79 221.59 201.83C222.89 196.93 223.4 191.95 223.24 186.89C223.21 185.85 222.86 184.629 224.32 184.159C226.72 190.679 226.17 196.97 222.92 203.08C222.65 203.59 222.76 204.299 222.69 204.919C217.36 205.319 212.17 206.399 206.98 207.659C204.99 208.149 202.68 208.389 200.84 206.739L200.86 206.759C200.01 205.369 198.39 205.149 197.13 204.429C190.45 200.629 183.51 197.309 175.73 196.789C170.32 196.429 164.69 196.009 160.19 200.219C160.06 200.259 159.98 200.339 159.94 200.469C159.6 200.759 159.26 201.04 158.91 201.33C156.7 199.28 155.82 196.53 155.07 193.77C153.39 187.64 153.28 181.33 153.35 175.02ZM186.69 198.469C188.22 197.979 187.4 196.72 187.99 196.08C188.75 196.56 187.61 198.029 189.24 198.179C189.29 197.449 189.37 196.749 189.38 196.049C189.45 191.549 189.95 190.819 194.27 189.799C198.29 188.849 202.38 189.399 206.43 189.479C208.34 189.519 208.93 191.41 210 192.59C210.1 192.7 210.06 192.939 210.05 193.119C209.9 195.899 210.52 198.719 209.6 201.479C209.35 202.219 209.53 203.069 209.01 203.799C208.56 204.429 207.79 205.17 208.92 206.03C209.92 205.09 209.85 203.659 210.41 202.539C211.32 202.849 210.44 204.239 211.61 204.309C212.67 198.679 213.2 193.069 212.53 187.369C212.16 191.889 212.58 196.519 210.85 200.849C210.64 198.289 210.65 195.75 210.64 193.21C210.62 189.71 209.78 188.849 206.22 188.789C202.96 188.739 199.69 188.819 196.42 188.729C194.47 188.679 192.64 189.089 190.95 189.949C189.19 190.849 188.78 192.649 188.45 194.449C188.34 192.669 188.23 190.939 188.37 189.229C188.48 187.939 187.96 187.669 186.84 187.669C182.12 187.699 177.34 187.189 172.7 187.799C166.51 188.619 165.82 188.51 166.78 194.39C167.62 189.54 168.03 188.889 171.13 188.819C175.94 188.709 180.75 188.809 185.56 188.739C187.2 188.709 187.72 189.289 187.79 190.949C187.88 193.509 186.7 195.839 186.69 198.469ZM207.68 203.169C204.4 202.699 201.87 203.33 199.4 202.71C198.88 202.58 198.45 202.619 198.35 203.139C198.24 203.7 198.85 203.919 199.19 203.929C201.8 203.999 204.47 204.549 207.68 203.169Z" fill="#DBD9CA"/>
<path d="M167.29 147.59C173.85 146.17 180.45 146.48 186.96 147.6C190.16 148.15 193.04 147.73 195.96 146.69C198.07 145.94 200.12 144.96 202.27 144.38C204.59 143.75 206.79 143.83 208.79 145.74C211.59 148.41 215.37 148.82 218.99 149.57C225.97 151.01 233.17 150.63 240.13 152.27C241.59 152.61 242.82 153.06 243.84 154.21C244.62 155.08 245.48 156.22 246.98 155.33C244.53 151 240.23 150.87 236.14 150.03C229.51 148.68 222.64 149.26 216.07 147.39C213.97 146.79 211.65 146.35 210.19 144.86C207.39 142.02 204.31 142.11 200.93 143.04C200.32 143.21 199.7 143.37 199.14 143.65C194.67 145.87 190.11 147.05 185.07 145.75C181.07 144.72 176.95 145.18 172.88 145.23C171.17 145.25 170.71 144.78 170.81 143.09C170.97 140.38 170.73 137.64 170.86 134.92C170.97 132.82 170.38 131.91 168.11 132.16C166.43 132.34 164.68 132.49 163.02 131.98C162.92 130.97 163.59 130.88 164.22 130.92C170.18 131.27 176.15 131.64 182.11 132.04C185.36 132.26 188.61 132.35 191.86 132.6C203.86 133.52 215.89 134.1 227.9 134.95C233.3 135.33 238.68 136.03 244.11 135.93C243.77 138.29 243.88 140.68 241.93 142.61C241.06 143.47 242.28 144.42 243.07 144.98C246.39 147.33 249.69 149.7 253.12 151.87C254.26 152.59 254.13 153.02 253.75 154.13C252.79 156.95 251.13 157.96 248.21 157.16C245.1 156.31 241.84 155.9 239.16 153.88C237.21 152.41 234.81 152.63 232.63 152.43C226.23 151.83 219.8 151.61 213.38 151.16C204.09 150.51 194.8 149.76 185.51 149.1C179.55 148.68 173.59 148.36 167.62 147.99C167.53 147.86 167.41 147.73 167.29 147.59Z" fill="#ECF4DF"/>
<path d="M182.18 246.58C177.25 246.68 173.08 244.67 169.18 241.92C168.16 241.2 167.26 240.27 165.96 240.02C165.96 239.67 165.95 239.31 165.95 238.96C168.28 237.52 169.22 234.94 170.84 232.93C173.05 233.28 175.05 234.35 177.31 234.67C180.78 235.16 183.29 233.01 186.17 231.93C188.8 230.94 191.12 229.96 192.16 233.77C192.22 233.97 192.58 234.36 193.07 233.97C192.9 233.59 192.82 233.13 192.55 232.82C190.52 230.5 191.87 229.5 194.05 228.7C195.56 228.15 197.09 227.57 198.48 226.8C199.4 226.29 199.17 225.82 198.1 225.94C198.02 224.94 198.13 223.98 198.65 223.1C199.39 223.49 199.24 224.91 200.8 224.66C200.05 223.84 200.3 222.36 198.63 222.58L198.66 222.62C198.95 221.2 197.98 220.52 197.01 219.85L197.03 219.87C196.11 218.68 195.2 217.49 194.28 216.31C193.65 215.68 193.02 215.05 192.39 214.42C191.54 213.72 190.69 213.03 189.84 212.33C193.66 210.89 197.22 208.68 201.43 208.41C205.45 210.06 209.07 207.62 212.88 207.17C214 207.04 215.16 206.92 216.3 206.75C219.84 207.6 219.83 207.59 217.88 210.33C217.31 211.14 216.77 211.99 216.32 212.87C213.25 218.89 210.59 225.12 207.02 230.88C205.32 233.64 203.49 236.3 201.05 238.48C200.06 238.92 199.18 238.33 198.63 237.81C196.46 235.74 194.44 236.85 192.39 237.89C190.71 238.74 189.07 239.67 187.41 240.55C184.89 241.86 182.07 242.95 182.18 246.58Z" fill="#C2C2B4"/>
<path d="M178.57 296.74C173.95 296.8 171.05 293.98 168.63 290.59C165.12 285.68 163.08 280.09 161.55 274.3C165.8 270.95 171.3 270.72 175.96 272.99C181.7 275.79 186.91 279.6 193.02 281.65C194.48 282.14 195.04 283.02 194.83 284.5C194.78 284.86 194.84 285.23 194.82 285.59C194.69 288.11 196.01 291.46 194.36 292.95C192.15 294.92 188.58 295.07 185.47 295.64C183.17 296.06 180.76 295.76 178.57 296.74Z" fill="#D2CEA8"/>
<path d="M146.27 150.27C145.32 142.99 146.31 135.62 145.26 128.35C144.94 126.14 145.34 125.02 148.13 124.9C151.22 124.77 154.27 123.63 157.33 122.93C158.7 125.15 156.27 125.76 155.16 127.22C156.79 127.26 157.74 126.53 158.77 126.09C158.91 126.52 159.12 126.94 159.18 127.38C159.9 132.27 162.22 135.02 167.61 133.8C168.81 133.53 169.14 134.19 169.13 135.34C169.09 138.24 169.13 141.15 169.2 144.05C169.23 145.16 168.82 145.57 167.71 145.81C160.58 147.37 153.47 149.02 146.35 150.65C146.19 150.56 146.16 150.43 146.27 150.27Z" fill="#7FAD56"/>
<path d="M201.07 238.47C203.51 236.29 205.34 233.62 207.04 230.87C210.6 225.1 213.26 218.88 216.34 212.86C216.79 211.98 217.32 211.13 217.9 210.32C219.84 207.58 219.86 207.59 216.32 206.74C217.57 205.75 219.18 206.56 220.5 205.9C220.56 206.58 220.22 207.42 221.03 207.82C223.87 209.24 225.52 212 227.97 213.85C227.4 217.47 227.58 221.13 227.51 224.77C227.49 225.99 227.76 226.68 229.14 226.36C230.07 228.03 230.99 229.7 231.92 231.37C223.21 233.88 214.53 236.47 205.78 238.83C204.34 239.2 202.57 239.43 201.07 238.47Z" fill="#C7CEBE"/>
<path d="M226.77 127.39C231.47 127.56 236.18 127.62 240.87 127.96C243.4 128.14 245.06 131.75 243.93 134.05C243.74 134.43 243.57 134.52 243.14 134.49C238.26 134.18 233.35 134.15 228.51 133.52C225.09 133.07 221.65 133.09 218.23 132.77C208.86 131.9 199.44 131.65 190.05 130.95C181.93 130.35 173.82 129.58 165.68 129.35C164.12 129.31 162.96 127.92 161.54 128.31C161.28 124.32 163.79 124.32 166.59 124.48C181.34 125.29 196.09 126.03 210.84 126.79C216.07 129.14 221.41 128.44 226.77 127.39Z" fill="#7FAD56"/>
<path d="M236.84 158.66C237.18 167.42 234.63 175.72 232.8 184.13C232.6 185.03 232.09 185.57 231.19 184.62C230.85 184.27 230.48 183.72 229.86 184.23C229.81 184.03 229.75 183.82 229.7 183.62C229.76 182.18 228.43 182.44 227.66 182C229 179.89 228.68 177.57 228.66 175.28C228.65 174.38 228.17 173.26 229.51 172.8C230.4 171.99 232.74 172.51 231.95 170.18C230.94 167.2 228.9 164.84 227.16 162.3C227.54 164.46 228.89 166.11 230.04 167.84C231.32 169.75 231.73 171.35 229.07 172.36C228.34 172.48 227.72 172.59 227.41 171.58C226.9 169.87 225.32 169.39 223.84 169.23C217.81 168.56 211.77 168.03 205.73 167.45C203.82 163.71 200.63 161.38 196.61 161.11C190.97 160.73 185.85 158.29 180.31 157.66C179.79 157.6 179.61 157.15 179.54 156.68C187.74 157.37 195.94 158.07 204.14 158.75C208.91 159.15 213.68 159.52 218.45 159.94C223.67 160.4 228.88 160.91 234.09 161.37C235.1 161.46 236.8 162.27 235.96 159.92C235.97 159.28 236.25 158.85 236.84 158.66Z" fill="#E9F3DD"/>
<path d="M179.56 156.66C179.63 157.13 179.8 157.58 180.33 157.64C185.86 158.27 190.99 160.71 196.63 161.09C200.64 161.36 203.83 163.69 205.75 167.43C196.66 167.52 187.7 168.3 179.34 172.32C178.54 172.71 178 172.16 177.38 171.87L177.44 171.91C176.86 170.66 175.53 170.56 174.49 170.33C172.13 169.8 169.85 169.23 167.9 167.72C166.28 166.45 165.72 164.72 165.89 162.68C164.98 165.8 165.12 166.24 167.51 168.15C168.4 169.89 166.86 169.1 166.49 169C162.08 167.82 158.57 169.73 155.19 172.15C155.17 171.7 154.97 171.15 155.16 170.82C158.53 164.99 163.13 160.64 169.8 158.83C169.59 159.17 169.37 159.5 169.16 159.84C168.51 160.46 167.43 160.58 166.98 161.74C168.21 161.64 168.97 161.04 169.63 160.24C170.07 159.78 170.76 159.52 170.86 158.77L170.82 158.81C171.22 158.82 171.42 158.62 171.41 158.22L171.37 158.26C171.78 158.28 171.94 158.04 171.96 157.67L171.93 157.71C172.11 157.73 172.29 157.73 172.46 157.69C174.6 157.68 176.79 157.88 178.62 156.4C178.92 156.51 179.24 156.58 179.56 156.66Z" fill="#D6D9C7"/>
<path d="M138.3 126.34C137.56 129.52 138.52 132.65 138.82 135.76C139.13 139.02 139.08 142.25 139.21 145.5C139.29 147.56 139.13 149.7 141.28 151.01C141.81 151.33 141.7 151.91 141.66 152.48C141.15 160.35 141.53 168.23 141.36 176.11C141.28 179.99 140.98 183.87 140.77 187.75C139.7 187.87 138.47 188.4 137.6 188.04C134.42 186.72 133.55 188.58 132.92 191.03C132.47 189.15 132.73 187.26 132.83 185.37C132.92 183.74 133.13 182.11 133.16 180.48C133.39 168.69 133.43 156.88 133.88 145.1C134.08 139.84 134.32 134.59 134.3 129.33C134.29 126.74 135.96 126.18 138.05 126.04C138.14 126.13 138.22 126.23 138.3 126.34Z" fill="#7FAD56"/>
<path d="M236.84 158.66C236.24 158.86 235.97 159.28 235.98 159.9C228.7 159.2 221.43 158.49 214.14 157.82C209.37 157.38 204.59 157.05 199.83 156.62C192.46 155.95 185.09 155.23 177.72 154.56C173.04 154.13 168.36 153.74 163.68 153.36C160.89 153.14 158.09 152.97 155.29 152.78C154.43 152.72 153.56 152.58 153.42 151.58C153.27 150.45 154.36 150.62 154.95 150.49C158.82 149.64 162.6 148.4 166.56 148C166.73 148.43 167.12 148.43 167.48 148.47C167.6 149.87 168.69 149.53 169.53 149.59C182.85 150.51 196.18 151.34 209.5 152.36C217.51 152.97 225.51 153.62 233.53 153.99C236.81 154.14 236.85 154.3 236.84 158.66Z" fill="#7FAD56"/>
<path d="M233.5 303.26C230.25 302.45 227.11 301.17 223.71 300.98C223.35 299.07 221.7 298.29 220.24 297.94C213.41 296.31 212.5 295.37 212.81 289.63C214.86 289.21 216.61 288.11 218.42 287.14C222.07 285.2 224.8 282.25 227.51 279.25C230.89 280.5 233.98 282.11 235.11 285.91C235.29 286.51 235.6 286.84 236.21 286.91C237.21 292.69 236.91 298.23 233.5 303.26Z" fill="#E7E3A9"/>
<path d="M201.44 208.4C197.22 208.67 193.67 210.89 189.85 212.32H189.86C189.81 211.02 190.28 209.88 190.84 208.72C192.41 205.47 190.82 203.05 187.14 202.97C185.25 202.93 183.3 203.14 181.48 202.74C176.5 201.64 171.61 199.67 166.44 201.87C166.13 202 165.72 201.9 165.36 201.91C164.5 202.01 163.17 201.44 162.88 202.42C161.9 205.65 160.43 208.88 161.19 212.36C161.61 214.29 161.72 216.11 161.05 217.94C159.81 221.31 160.78 224.13 163.14 226.62C163.78 227.29 164.39 227.94 164.25 228.97C163.35 228.66 162.44 228.35 161.54 228.03L161.59 228.07C161.39 227.73 161.2 227.38 161 227.04C159.19 224.11 157.39 221.17 155.58 218.24C154.65 216.73 155.19 215.01 154.88 213.41C156.07 212.41 155.4 211.09 155.5 209.9C154.87 208.55 156.04 207.75 156.47 206.73C157.11 205.21 158.7 204.21 158.82 202.4L158.79 202.44C159.62 202.05 160.61 201.77 159.91 200.5C159.95 200.37 160.03 200.29 160.16 200.25C160.36 200.67 160.66 200.69 161.01 200.45C166.62 196.4 172.98 196.9 179.12 198.13C185.76 199.46 192.05 202.08 197.84 205.72C198.74 206.28 199.6 207.12 200.84 206.8L200.82 206.78C200.23 207.6 201.35 207.81 201.44 208.4Z" fill="#C7CEBE"/>
<path d="M245.71 134.68C245.63 134.33 245.57 134.17 245.56 134.01C245.43 127.27 244.77 126.54 237.77 126.18C231.8 125.88 225.82 125.83 219.85 125.52C205.56 124.79 191.27 123.94 176.98 123.21C172.45 122.98 167.91 123.01 163.38 122.8C161.74 122.72 160.52 122.92 160.36 124.86C158.95 123.56 159.99 119.84 156.29 120.98C156.23 121 156.03 119.55 156.5 118.78C157.98 116.34 160.33 116.61 162.53 116.98C169.24 118.12 175.92 119.5 182.63 120.64C194.49 122.65 206.45 123.47 218.46 124.06C226.2 124.44 233.77 123.78 241.39 122.83C244.4 122.45 246.13 123.63 247.13 126.49C248.13 129.41 248.61 132.19 245.71 134.68Z" fill="#F0F2E6"/>
<path d="M169.79 158.84C163.12 160.65 158.52 165 155.15 170.83C154.96 171.16 155.16 171.71 155.18 172.16C153.6 174.27 150.66 175.18 149.95 178.15C148.54 170.29 148.26 162.44 148.34 154.56C148.35 153.4 148.8 153.09 149.81 153.46C154.2 155.02 158.85 154.14 163.33 154.98C165.54 155.39 167.84 155.61 170.07 155.5C172.06 155.4 172.5 156 171.9 157.74L171.93 157.7C171.21 157.37 171.1 157.65 171.34 158.29L171.38 158.25C170.7 157.97 170.56 158.21 170.79 158.84L170.83 158.8C170.46 158.24 170.14 158.81 169.79 158.84Z" fill="#E9F3DD"/>
<path d="M227.52 279.27C224.81 282.27 222.07 285.22 218.43 287.16C216.61 288.13 214.87 289.23 212.82 289.65C209.47 290.29 206.53 292.39 203 292.37C203.23 291.4 204.37 290.79 204.12 289.62L204.08 289.66C205.6 288.05 206.99 286.82 209.49 288.41C210.89 289.3 214.37 286.21 214.77 284.08C215.11 283.75 215.45 283.43 215.78 283.1C216.62 283.87 216.85 283.05 217.2 282.55L217.16 282.58C217.75 282.42 218.14 282.06 218.29 281.45L218.25 281.49C218.62 281.47 218.81 281.27 218.84 280.9L218.8 280.94C219.16 280.91 219.38 280.74 219.38 280.35L219.34 280.39C219.72 280.38 219.92 280.19 219.93 279.81L219.89 279.85C220.27 279.84 220.47 279.65 220.47 279.27L220.43 279.31C220.82 279.31 220.99 279.1 221.01 278.73L220.96 278.77C223.01 277.53 223.57 275.67 223.78 273.34C224.32 267.26 222.42 261.68 220.48 255.99C223.28 255.55 225.39 257.24 227.88 257.62C226.6 258.74 224.78 259.01 223.5 261.1C225.98 259.94 227.56 258.37 229.72 258.14C229.78 258.59 229.77 259.06 229.91 259.48C230.94 262.68 231.52 265.85 230.87 269.29C230.22 272.79 228.66 275.94 227.52 279.27Z" fill="#D1D1B2"/>
<path d="M229.69 183.61C229.74 183.82 229.8 184.02 229.85 184.22C231.57 185.67 232.06 187.21 231.49 189.63C230.51 193.78 230.18 198.08 229.7 202.34C229.52 203.95 229.04 204.79 227.22 204.62C225.71 204.47 224.16 204.45 222.67 204.93C222.74 204.31 222.63 203.6 222.9 203.09C226.15 196.98 226.7 190.69 224.3 184.17C224.62 184.18 224.97 184.51 225.23 184.05C225.45 183.65 225.19 183.44 224.93 183.18C224.43 182.67 223.76 182.88 223.18 182.71C222.53 179.23 221.77 175.82 218.59 173.59C216.03 171.79 213.11 170.94 210.11 170.27C208.88 169.99 207.57 169.78 207.36 168.16C211.9 168.68 216.42 169.4 220.97 169.67C226.5 170 229.49 174.4 227.63 179.78C227.23 180.94 225.98 182.09 226.11 182.89C226.39 184.66 228.31 182.16 229.15 183.54C229.23 183.64 229.52 183.59 229.69 183.61Z" fill="#F0F2E6"/>
<path d="M240.21 121.72C234.42 121.75 228.83 123.06 223.11 122.88C220.58 122.8 218.12 121.99 215.57 122.34C214.83 122.44 214.27 122.15 214.47 121.29C215.17 118.31 212.89 117.66 210.78 116.67C212.43 114.32 214.96 113.02 216.88 111.08C217.43 110.53 218.31 110.75 218.97 110.97C222.63 112.16 226.29 113.38 229.92 114.67C230.93 115.03 231.97 115.56 232.03 116.88C232.18 120.4 234.73 120.51 237.28 120.62C238.33 120.66 239.46 120.47 240.21 121.72Z" fill="#C7CEBE"/>
<path d="M140.45 308.59C145.84 320.26 154.32 328.76 163.39 336.88C158 335.02 152.34 334.24 147.65 330.66C145.81 329.26 143.46 328.22 141.23 327.41C139.77 326.88 139.74 326.2 139.76 325.09C139.89 319.77 139.47 314.42 140.45 308.59Z" fill="#7FAD56"/>
<path d="M132.93 191.03C133.55 188.58 134.43 186.73 137.61 188.04C138.48 188.4 139.71 187.87 140.78 187.75C140.01 195.15 140.95 202.6 140.09 210C138.6 212.5 136.15 211.13 134.18 211.26C132.57 211.37 132.85 209.41 132.43 208.29C132.44 207.83 132.45 207.37 132.46 206.91C132.75 206.32 132.77 205.72 132.6 205.1C132.7 200.4 132.82 195.71 132.93 191.03Z" fill="#FEFEFE"/>
<path d="M227.52 279.27C228.65 275.95 230.22 272.8 230.88 269.27C231.52 265.83 230.95 262.66 229.92 259.46C229.78 259.04 229.79 258.57 229.73 258.12C235.55 255.79 236.18 256.17 236.31 262.11C236.33 262.83 236.3 263.55 236.3 264.27C236.56 266.18 235.63 268.2 236.82 270.03L236.91 270.13L236.84 270.25C236.35 275.8 238.14 281.44 236.23 286.93C235.62 286.86 235.31 286.53 235.13 285.93C233.99 282.12 230.91 280.52 227.52 279.27Z" fill="#E6EAC0"/>
<path d="M159.99 270.52C159.85 271.27 160.18 272.14 159.43 272.74C158.91 269.51 158.82 266.26 158.81 263C158.77 251.62 157.64 240.3 156.7 228.97C156.61 227.91 156.69 226.84 156.69 225.81C157.63 225.41 157.94 226.95 158.88 226.43L158.83 226.38C159.41 227.5 160.34 228.05 161.6 228.06L161.55 228.02C162.38 229.61 164.13 229.74 165.51 230.38C167.18 231.15 166.33 231.74 165.57 232.45C165.15 232.88 164.72 233.31 164.3 233.73C163.13 234.94 162.03 236.19 161.56 237.87L161.6 237.82C158.92 240.43 158.46 243.71 159.04 247.15C159.44 249.5 160.15 251.81 160.61 254.17C161.19 257.16 161.43 260.41 164.3 262.41L164.28 262.39C164.24 262.57 164.21 262.75 164.17 262.92C162.69 263.72 160.99 264.19 159.95 265.67C159.17 266.4 159.19 267.13 159.98 267.84C159.97 268.74 159.98 269.63 159.99 270.52Z" fill="#DBD9CA"/>
<path d="M203 292.36C206.53 292.38 209.47 290.28 212.82 289.64C212.51 295.38 213.42 296.32 220.25 297.95C221.71 298.3 223.35 299.08 223.72 300.99C216.18 300.03 208.6 300.72 201.04 300.52C200.13 300.5 198.86 301.04 198.69 299.4L198.64 299.45C200.65 293.83 205.18 294.85 209.49 295.39C210.21 295.48 210.9 295.56 211.01 294.81C211.14 293.9 210.2 294.1 209.65 293.91C207.71 293.25 205.7 293.51 203.72 293.45C203 293.41 201.96 293.57 203 292.36Z" fill="#E6EAC0"/>
<path d="M225.86 235.08C226.54 238.01 228.49 240.35 229.64 243.06C230.76 245.68 230.63 245.95 227.86 246.02C227.32 246.03 226.76 246 226.24 246.09C219.02 247.36 217.31 246.51 214.17 239.92C213.75 239.04 212.99 237.94 215.19 237.77C217.17 237.62 219.09 236.62 221.03 235.96C222.61 235.43 224.2 234.97 225.91 235.13C225.9 235.13 225.86 235.08 225.86 235.08Z" fill="#D6D9C7"/>
<path d="M192.23 111.94C195.7 112.08 198.32 113.54 200.25 116.28C201.47 118.02 203.2 118.19 205.08 117.69C207.43 117.07 209.51 117.84 211.6 118.75C212.79 119.27 213.05 120.07 212.9 121.33C212.7 122.98 211.56 122.2 210.87 122.21C204.72 122.34 198.72 120.62 192.58 120.62C191.47 120.62 191.5 119.89 191.56 119.15C191.77 116.75 192 114.34 192.23 111.94Z" fill="#F0F2E6"/>
<path d="M153.35 175.02C153.28 181.33 153.39 187.639 155.06 193.789C155.81 196.559 156.69 199.309 158.9 201.349C158.87 201.709 158.84 202.07 158.8 202.43L158.83 202.39C156.72 204.58 154.78 206.87 154.46 210.08L154.52 210.06C153.28 207.13 153.37 203.96 152.9 200.9C151.93 194.52 151.1 188.12 150.31 181.71C149.96 178.93 151.14 176.7 153.35 175.02Z" fill="#E9F3DD"/>
<path d="M231.91 231.36C230.98 229.69 230.06 228.02 229.13 226.35C229.85 224 229.13 221.63 229.17 219.27C229.23 215.31 230.04 211.45 230.38 207.54C230.65 204.39 232.42 206.83 233.5 206.69C233.69 213.29 233.92 219.89 234.06 226.49C234.09 227.95 234.22 229.37 234.63 230.77C233.87 231.67 232.81 231.13 231.91 231.36Z" fill="#E9F3DD"/>
<path d="M139.79 129.53C139.79 128.33 139.74 127.69 139.8 127.07C139.93 125.74 140.92 125.65 141.97 125.58C143.11 125.51 143.45 125.98 143.62 127.12C144.61 134.03 143.71 141.01 144.58 147.92C144.67 148.62 145.18 149.99 143.69 149.99C142.52 150 141.66 149.6 141.33 148.03C140.46 143.93 141.21 139.75 140.38 135.66C139.93 133.48 139.94 131.21 139.79 129.53Z" fill="#7FAD56"/>
<path d="M236.22 286.93C238.14 281.43 236.34 275.8 236.83 270.25C238.02 273.96 237.79 277.88 238.42 281.67C239.25 286.69 238.96 291.78 238.96 296.84C238.96 299.66 241.58 301.28 242.09 304.08C239.16 304.81 236.26 305.14 233.5 303.26C236.91 298.23 237.21 292.69 236.22 286.93Z" fill="#E9F3DD"/>
<path d="M232.38 249.42C230.18 248.76 227.98 248.09 225.34 247.3C227.22 247.03 228.7 246.71 230.2 246.62C231.4 246.55 231.66 245.91 231.3 245.05C229.84 241.54 228.48 237.96 225.86 235.08L225.9 235.13C225.96 234.54 225.83 233.71 226.62 233.63C228.61 233.43 230.41 232.31 232.46 232.5C234.11 238.14 233.63 243.78 232.38 249.42Z" fill="#D6D9C7"/>
<path d="M159.94 265.67C160.98 264.19 162.68 263.72 164.16 262.92C164.59 263.08 164.63 264.08 165.41 263.48L165.37 263.44C165.24 264.57 165.65 265.02 166.78 264.56C167.41 265.19 168.03 265.81 168.66 266.44C168.33 267.84 169 268.39 170.32 268.39L170.28 268.35C170.04 269.33 170.83 269.3 171.39 269.49L171.35 269.44C171.94 270.41 171.5 270.59 170.56 270.57C167.09 270.46 164 271.7 161.03 273.34C160.79 272.36 161.63 270.98 159.98 270.52C159.97 269.63 159.96 268.74 159.95 267.85C160.87 267.11 159.77 266.4 159.94 265.67Z" fill="#D1D1B2"/>
<path d="M234.62 230.77C234.21 229.37 234.08 227.96 234.05 226.49C233.91 219.89 233.69 213.29 233.49 206.69C233.5 206.42 233.55 205.92 233.51 205.92C229.49 205.24 231.36 202.26 231.49 200.23C231.6 198.46 231.87 196.66 232.01 194.38C233.51 197.59 233.62 200.67 234.01 203.61C235.12 211.98 236.12 220.37 236.51 228.82C236.59 230.52 236.11 230.94 234.62 230.77Z" fill="#F0F2E6"/>
<path d="M224.24 248.1C226.72 248.39 228.65 249.07 230.59 249.78C231.28 250.03 231.45 250.48 231.31 251C230.81 252.8 230.26 254.59 229.64 256.35C229.3 257.32 228.41 256.94 227.79 256.78C226.41 256.42 225.09 255.69 223.7 255.53C220.64 255.18 220.65 253.71 221.99 251.58C222.75 250.36 222.46 248.3 224.24 248.1Z" fill="#D6D9C7"/>
<path d="M232.38 249.419C233.63 243.779 234.11 238.15 232.46 232.5C233.12 232.06 233.79 231.69 234.63 231.95C235.53 240.04 234.65 248.2 235.72 256.28C234.06 256.47 232.34 256.079 230.44 257.169C230.96 254.289 232.28 251.989 232.38 249.419Z" fill="#E9F3DD"/>
<path d="M204.12 289.61C201.84 289.92 199.93 291.22 197.85 292.05C196.1 292.75 195.88 292.19 195.88 290.62C195.88 288.2 196.31 285.75 195.26 282.86C198.62 284.32 201.46 285.85 204.6 286.7C206.02 287.09 203.64 288.5 204.08 289.65L204.12 289.61Z" fill="#D1D1B2"/>
<path d="M200.59 114.07C204.53 111.33 208.56 109.49 213.35 111.69C208.62 117.23 203.23 118.1 200.59 114.07Z" fill="#DBD9CA"/>
<path d="M227.96 213.84C225.51 211.99 223.85 209.23 221.02 207.81C220.21 207.41 220.55 206.56 220.49 205.89C222.82 205.78 225.16 205.7 227.49 205.56C229.02 205.47 229.27 206.04 228.93 207.49C228.44 209.57 228.27 211.72 227.96 213.84Z" fill="#E9F3DD"/>
<path d="M235.72 256.27C234.65 248.19 235.53 240.03 234.63 231.94C235.48 231.72 236.75 230.3 236.7 232.64C236.56 240.37 236.41 248.11 236.24 255.84C236.24 255.99 235.9 256.13 235.72 256.27Z" fill="#F0F2E6"/>
<path d="M183.06 115.73C185.6 115.97 187.38 116.18 189.16 116.29C190.67 116.38 190 117.41 189.9 118.03C189.77 118.81 190.63 120.25 188.79 120.16C185.92 120.02 183.18 119.18 180.38 118.62C179.35 118.41 179.61 117.9 180.02 117.3C180.95 115.92 182.26 115.57 183.06 115.73Z" fill="#F0F2E6"/>
<path d="M198.69 299.39C197.1 301.34 195 300.24 192.95 300.49C193.63 298.76 194.55 297.37 195.02 295.73C195.39 294.43 196.34 293.24 198.03 294.71C198.51 295.13 199.35 295.12 200.03 295.31C199.76 296.73 198.36 297.81 198.65 299.45C198.64 299.44 198.69 299.39 198.69 299.39Z" fill="#E6EAC0"/>
<path d="M217.1 246.41C218.61 247.93 220.05 247.8 221.5 247.44C222.66 247.15 222.8 247.7 222.43 248.56C221.63 250.41 220.77 252.24 219.83 254.29C218.3 251.83 217.62 249.43 217.1 246.41Z" fill="#C7CEBE"/>
<path d="M226.77 127.39C221.41 128.44 216.07 129.15 210.84 126.79C216.18 126.33 221.45 127.43 226.77 127.39Z" fill="#B7B4A7"/>
<path d="M155.58 218.24C157.39 221.17 159.19 224.11 161 227.04C160.27 226.82 159.55 226.6 158.82 226.38L158.87 226.43C158.05 226.02 158.35 223.91 156.53 224.94C156.04 225.22 156.11 224.56 156.11 224.3C156.14 222.26 155.23 220.3 155.58 218.24Z" fill="#DBD9CA"/>
<path d="M178.6 156.43C176.76 157.9 174.58 157.7 172.44 157.72C174.16 155.7 176.33 155.82 178.6 156.43Z" fill="#E9F3DD"/>
<path d="M158.77 126.1C157.74 126.54 156.79 127.26 155.16 127.23C156.28 125.77 158.7 125.15 157.33 122.94C157.73 122.74 158.11 122.47 158.22 123.24C158.36 124.19 158.58 125.14 158.77 126.1Z" fill="#D6D9C7"/>
<path d="M155.5 209.89C155.41 211.08 156.08 212.41 154.88 213.4C154.22 212.34 154.52 211.18 154.5 210.05L154.44 210.07C154.8 210.01 155.15 209.95 155.5 209.89Z" fill="#DBD9CA"/>
<path d="M236.81 270.03C235.62 268.2 236.55 266.19 236.29 264.27C237.17 266.13 236.62 268.11 236.81 270.03Z" fill="#E9F3DD"/>
<path d="M132.59 205.09C132.76 205.71 132.74 206.32 132.45 206.9C132.05 206.26 132.09 205.65 132.59 205.09Z" fill="#7FAD56"/>
<path d="M167.5 148.46C167.13 148.42 166.75 148.42 166.58 147.99C166.82 147.86 167.06 147.72 167.3 147.59C167.42 147.72 167.53 147.86 167.65 147.99C167.63 148.16 167.58 148.32 167.5 148.46Z" fill="#ECF4DF"/>
<path d="M138.06 126.03C138.26 125.71 138.64 125.42 138.85 125.76C139.12 126.18 138.55 126.19 138.3 126.33C138.22 126.23 138.14 126.13 138.06 126.03Z" fill="#7FAD56"/>
<path d="M165.95 238.96C165.95 239.31 165.96 239.67 165.96 240.02C163.52 243.31 162.5 247.24 161.01 250.97C160.23 249.57 160.1 248.03 159.89 246.46C159.48 243.36 160.59 240.62 161.58 237.83L161.54 237.88C162.57 237.56 162.92 236.56 163.6 235.87C164.39 236.9 165.17 237.93 165.95 238.96Z" fill="#DBD9CA"/>
<path d="M161.59 237.83C160.6 240.62 159.49 243.36 159.9 246.46C160.11 248.02 160.24 249.56 161.02 250.97C161.16 255.06 162.55 258.79 164.29 262.42C161.41 260.42 161.18 257.17 160.59 254.18C160.13 251.82 159.42 249.52 159.02 247.16C158.44 243.71 158.9 240.43 161.59 237.83Z" fill="#363349"/>
<path d="M170.32 268.39C169 268.39 168.33 267.84 168.66 266.44C169.21 267.09 169.76 267.74 170.32 268.39Z" fill="#363349"/>
<path d="M171.39 269.49C170.82 269.3 170.04 269.33 170.28 268.35C170.88 268.51 171.58 268.57 171.39 269.49Z" fill="#363349"/>
<path d="M165.41 263.48C164.64 264.09 164.59 263.09 164.16 262.92C164.2 262.74 164.23 262.56 164.27 262.39C165.22 262.15 165.18 262.96 165.41 263.48Z" fill="#363349"/>
<path d="M218.29 281.45C218.14 282.05 217.75 282.41 217.16 282.58C216.8 281.46 217.4 281.3 218.29 281.45Z" fill="#363349"/>
<path d="M166.78 264.56C165.65 265.02 165.24 264.57 165.37 263.44C165.84 263.82 166.31 264.19 166.78 264.56Z" fill="#363349"/>
<path d="M217.21 282.54C216.86 283.04 216.63 283.86 215.79 283.09C216.27 282.93 216.4 281.87 217.21 282.54Z" fill="#363349"/>
<path d="M221.02 278.72C221 279.09 220.82 279.3 220.44 279.3C220.26 278.74 220.34 278.43 221.02 278.72Z" fill="#363349"/>
<path d="M219.93 279.81C219.92 280.19 219.73 280.39 219.34 280.39C219.18 279.84 219.3 279.57 219.93 279.81Z" fill="#363349"/>
<path d="M219.38 280.349C219.38 280.739 219.16 280.91 218.8 280.94C218.58 280.33 218.82 280.179 219.38 280.349Z" fill="#363349"/>
<path d="M218.84 280.9C218.82 281.27 218.62 281.46 218.25 281.49C218.05 280.89 218.24 280.69 218.84 280.9Z" fill="#363349"/>
<path d="M220.47 279.26C220.46 279.64 220.27 279.84 219.89 279.84C219.68 279.24 219.87 279.05 220.47 279.26Z" fill="#363349"/>
<path d="M186.69 198.47C186.7 195.84 187.88 193.51 187.78 190.96C187.72 189.3 187.19 188.72 185.55 188.75C180.74 188.83 175.93 188.72 171.12 188.83C168.02 188.9 167.61 189.56 166.77 194.4C165.81 188.52 166.5 188.63 172.69 187.81C177.33 187.2 182.11 187.7 186.83 187.68C187.95 187.67 188.46 187.95 188.36 189.24C188.22 190.95 188.32 192.68 188.44 194.46C188.77 192.66 189.19 190.86 190.94 189.96C192.63 189.1 194.46 188.68 196.41 188.74C199.67 188.83 202.94 188.74 206.21 188.8C209.78 188.86 210.61 189.72 210.63 193.22C210.65 195.76 210.63 198.3 210.84 200.86C212.58 196.53 212.16 191.9 212.52 187.38C213.19 193.08 212.66 198.69 211.6 204.32C210.43 204.25 211.31 202.86 210.4 202.55C209.85 203.67 209.91 205.1 208.91 206.04C207.77 205.19 208.55 204.44 209 203.81C209.52 203.08 209.34 202.23 209.59 201.49C210.51 198.73 209.88 195.91 210.04 193.13C210.05 192.95 210.09 192.7 209.99 192.6C208.92 191.42 208.33 189.52 206.42 189.49C202.36 189.41 198.27 188.85 194.26 189.81C189.93 190.84 189.43 191.56 189.37 196.06C189.36 196.76 189.28 197.46 189.23 198.19C187.6 198.05 188.75 196.57 187.98 196.09C187.4 196.72 188.22 197.98 186.69 198.47Z" fill="#363349"/>
<path d="M229.69 183.61C229.51 183.59 229.23 183.63 229.17 183.54C228.32 182.17 226.41 184.66 226.13 182.89C226 182.09 227.25 180.94 227.65 179.78C229.51 174.4 226.52 170 220.99 169.67C216.44 169.4 211.91 168.68 207.38 168.16C198.28 168.14 189.3 168.9 180.78 172.49C177.41 173.91 176.36 176.71 178.04 180.26C178.98 182.26 179.29 184.53 180.61 186.29C177.91 186.1 175.75 176.8 177.37 171.88C177.99 172.17 178.53 172.72 179.33 172.33C187.69 168.31 196.65 167.53 205.74 167.44C211.78 168.02 217.82 168.55 223.85 169.22C225.34 169.38 226.91 169.86 227.42 171.57C227.72 172.58 228.35 172.47 229.08 172.35C229.22 172.5 229.37 172.65 229.51 172.79C228.17 173.25 228.65 174.37 228.66 175.27C228.68 177.56 229 179.88 227.66 181.99C228.43 182.43 229.75 182.18 229.69 183.61Z" fill="#363349"/>
<path d="M223.19 182.71C223.77 182.88 224.44 182.67 224.94 183.18C225.2 183.44 225.46 183.65 225.24 184.05C224.99 184.51 224.63 184.18 224.31 184.17C222.85 184.64 223.2 185.87 223.23 186.9C223.39 191.96 222.88 196.93 221.58 201.84C221.32 202.8 221.12 203.71 220.16 204.59C219.78 203.85 219.73 203.3 220.02 202.59C222.22 197.15 223.2 191.59 222.23 185.69C222.01 184.36 221.61 184.41 220.71 184.44C218.28 184.52 215.93 184.97 213.69 185.94C213.56 185.78 213.43 185.63 213.3 185.47C216.2 183.29 219.64 184.09 222.59 183.79C214.9 180 207.8 184.3 200.48 186.59C200.41 186.3 200.34 186.01 200.28 185.72C204.42 184.37 208.56 183.01 212.67 181.67C212.49 180.67 210.76 181.76 211.19 180.52C211.56 179.45 212.46 180.42 213.02 180.62C216.32 181.77 219.75 182.23 223.19 182.71Z" fill="#363349"/>
<path d="M200.85 206.78C199.61 207.1 198.75 206.27 197.85 205.7C192.05 202.06 185.76 199.44 179.13 198.11C172.99 196.88 166.63 196.38 161.02 200.43C160.68 200.68 160.37 200.65 160.17 200.23C164.67 196.02 170.3 196.44 175.71 196.8C183.5 197.32 190.43 200.65 197.11 204.44C198.39 205.17 200 205.39 200.85 206.78Z" fill="#363349"/>
<path d="M207.68 203.17C204.46 204.56 201.8 204.01 199.18 203.92C198.84 203.91 198.23 203.69 198.34 203.13C198.45 202.62 198.88 202.57 199.39 202.7C201.87 203.33 204.4 202.7 207.68 203.17Z" fill="#363349"/>
<path d="M158.8 202.43C158.83 202.07 158.86 201.71 158.9 201.35C159.24 201.06 159.58 200.78 159.93 200.49C160.62 201.76 159.63 202.04 158.8 202.43Z" fill="#363349"/>
<path d="M213.69 185.94C213.35 186.23 213.06 187.04 212.57 186.48C212.2 186.05 212.91 185.73 213.3 185.47C213.43 185.63 213.56 185.79 213.69 185.94Z" fill="#363349"/>
<path d="M164.25 228.96C164.4 227.93 163.79 227.28 163.14 226.61C160.78 224.13 159.81 221.3 161.05 217.93C161.72 216.1 161.61 214.28 161.19 212.35C160.43 208.87 161.91 205.64 162.88 202.41C163.17 201.44 164.5 202 165.36 201.9C166.97 204.88 169.99 206.02 172.79 207.29C177.92 209.62 183.91 209.27 188.87 212.25C189.35 214.11 190.76 214.45 192.4 214.41C193.03 215.04 193.66 215.67 194.29 216.3C194.23 218.24 195.19 219.4 197.04 219.86L197.02 219.84C196.99 221.11 197.78 221.89 198.67 222.61L198.64 222.57C198.63 222.74 198.63 222.92 198.66 223.09C198.14 223.97 198.03 224.93 198.11 225.93C197.36 226.77 196.27 226.98 195.31 227.39C190.86 229.27 186.31 230.94 181.95 232.99C179.94 233.93 178.22 234.13 176.06 233.61C171.87 232.6 168.2 230.44 164.25 228.96Z" fill="#B7B4A7"/>
<path d="M164.25 228.96C168.21 230.44 171.88 232.6 176.05 233.61C178.21 234.13 179.93 233.94 181.94 232.99C186.31 230.94 190.85 229.27 195.3 227.39C196.26 226.98 197.36 226.77 198.1 225.93C199.17 225.81 199.41 226.28 198.48 226.79C197.08 227.57 195.56 228.14 194.05 228.69C191.87 229.49 190.52 230.49 192.55 232.81C192.82 233.11 192.9 233.58 193.07 233.96C192.58 234.35 192.22 233.96 192.16 233.76C191.12 229.95 188.8 230.94 186.17 231.92C183.29 233 180.78 235.16 177.31 234.66C175.05 234.34 173.06 233.27 170.84 232.92C169.2 231.39 167.38 231.9 165.55 232.45C166.31 231.74 167.16 231.15 165.49 230.38C164.11 229.74 162.37 229.6 161.53 228.02C162.44 228.34 163.34 228.65 164.25 228.96Z" fill="#363349"/>
<path d="M165.56 232.46C167.38 231.91 169.21 231.39 170.85 232.93C169.22 234.94 168.29 237.52 165.96 238.96C165.18 237.93 164.4 236.9 163.61 235.88C163.48 235.06 165.34 234.87 164.29 233.75C164.71 233.31 165.13 232.88 165.56 232.46Z" fill="#C7CEBE"/>
<path d="M197.03 219.86C195.18 219.39 194.22 218.24 194.28 216.3C195.2 217.49 196.12 218.67 197.03 219.86Z" fill="#363349"/>
<path d="M192.4 214.41C190.76 214.45 189.35 214.11 188.87 212.25C189.2 212.27 189.53 212.3 189.86 212.32H189.85C190.7 213.02 191.55 213.71 192.4 214.41Z" fill="#363349"/>
<path d="M198.65 223.09C198.62 222.92 198.62 222.74 198.63 222.57C200.3 222.35 200.05 223.83 200.8 224.65C199.24 224.9 199.39 223.48 198.65 223.09Z" fill="#363349"/>
<path d="M198.66 222.61C197.77 221.89 196.98 221.11 197.01 219.84C197.99 220.51 198.95 221.18 198.66 222.61Z" fill="#363349"/>
<path d="M229.08 172.35C231.73 171.34 231.33 169.75 230.05 167.83C228.9 166.1 227.55 164.45 227.17 162.29C228.91 164.83 230.95 167.19 231.96 170.17C232.75 172.51 230.4 171.99 229.52 172.79C229.37 172.64 229.22 172.49 229.08 172.35Z" fill="#363349"/>
<path d="M167.5 168.15C165.11 166.24 164.97 165.8 165.88 162.68C165.72 164.72 166.27 166.45 167.89 167.72C167.76 167.86 167.63 168.01 167.5 168.15Z" fill="#363349"/>
<path d="M169.61 160.25C168.96 161.05 168.2 161.65 166.96 161.75C167.41 160.59 168.49 160.47 169.14 159.85C169.3 159.98 169.46 160.12 169.61 160.25Z" fill="#363349"/>
<path d="M169.79 158.84C170.14 158.81 170.46 158.24 170.85 158.78C170.74 159.53 170.06 159.79 169.62 160.25C169.47 160.12 169.31 159.98 169.16 159.85C169.36 159.51 169.57 159.18 169.79 158.84Z" fill="#363349"/>
<path d="M171.35 158.28C171.11 157.65 171.23 157.37 171.94 157.69C171.91 158.06 171.76 158.3 171.35 158.28Z" fill="#363349"/>
<path d="M170.8 158.83C170.57 158.2 170.71 157.96 171.39 158.24C171.4 158.64 171.2 158.84 170.8 158.83Z" fill="#363349"/>
<path d="M189.86 212.32C189.53 212.3 189.2 212.27 188.87 212.25C183.92 209.26 177.93 209.62 172.79 207.29C169.99 206.02 166.98 204.88 165.36 201.9C165.72 201.89 166.13 201.99 166.44 201.86C171.61 199.67 176.5 201.64 181.48 202.73C183.3 203.13 185.25 202.92 187.14 202.96C190.82 203.04 192.41 205.46 190.84 208.71C190.28 209.88 189.81 211.02 189.86 212.32Z" fill="#C2C2B4"/>
<path d="M155.5 209.89C155.15 209.95 154.8 210.01 154.45 210.07C154.77 206.86 156.71 204.57 158.82 202.38C158.7 204.19 157.11 205.19 156.47 206.71C156.05 207.74 154.87 208.54 155.5 209.89Z" fill="#363349"/>
<path d="M158.82 226.38C159.55 226.6 160.27 226.82 161 227.04C161.2 227.38 161.39 227.73 161.59 228.07C160.33 228.05 159.41 227.5 158.82 226.38Z" fill="#363349"/>
<path d="M164.29 233.74C165.34 234.86 163.48 235.05 163.61 235.87C162.94 236.55 162.58 237.56 161.55 237.88C162.02 236.2 163.11 234.94 164.29 233.74Z" fill="#363349"/>
<path d="M159.94 265.67C159.77 266.4 160.88 267.11 159.97 267.84C159.18 267.13 159.16 266.4 159.94 265.67Z" fill="#E7E3A9"/>
</svg>
