<svg width="1288" height="435" viewBox="0 0 1288 435" fill="none" xmlns="http://www.w3.org/2000/svg">
<path d="M0.0400391 39.3201C18.73 38.8901 37.44 39.1 56.12 38.61C69.64 38.26 83.17 38.8501 96.67 38.1301C110.56 37.3901 124.45 38.31 138.31 37.58C151.93 36.86 165.55 37.7701 179.13 37.0401C192.93 36.3001 206.73 37.2101 220.49 36.4901C234.2 35.7701 247.91 36.6601 261.58 35.9401C275.47 35.2101 289.36 36.1201 303.22 35.4001C317.2 34.6701 331.18 35.5801 345.13 34.8501C358.66 34.1401 372.19 35.0401 385.68 34.3101C399.39 33.5801 413.1 34.4901 426.77 33.7601C440.57 33.0301 454.37 33.9501 468.13 33.2201C481.93 32.4901 495.73 33.4001 509.49 32.6701C523.2 31.9501 536.91 32.8501 550.58 32.1201C564.11 31.4001 577.64 32.3 591.13 31.58C604.84 30.84 618.55 31.7601 632.22 31.0301C646.2 30.2901 660.18 31.2101 674.13 30.4901C687.84 29.7701 701.55 30.6701 715.22 29.9401C728.75 29.2201 742.28 30.1201 755.77 29.4001C769.66 28.6601 783.55 29.5801 797.41 28.8501C811.03 28.1301 824.65 29.0401 838.23 28.3101C852.12 27.5601 866.01 28.5001 879.87 27.7601C893.4 27.0401 906.92 27.9001 920.42 27.2001C928.5 26.7801 936.57 27.2101 944.62 26.7101C955.61 26.0301 966.57 24.9401 977.54 24.0901C983.39 23.6401 989.27 23.4001 995.12 22.9401C1003.21 22.3001 1011.29 21.49 1019.39 20.83C1025.06 20.37 1030.75 20.1201 1036.42 19.6701C1044.69 19.0201 1052.96 18.2501 1061.23 17.5701C1066.27 17.1501 1071.31 16.7801 1076.36 16.4201C1085.18 15.7901 1094 15.09 1102.81 14.36C1108.12 13.92 1113.44 13.5801 1118.75 13.1401C1127.38 12.4301 1136.01 11.57 1144.65 11.08C1149.71 10.79 1154.73 10.2601 1159.78 9.91006C1168.78 9.28006 1177.79 8.67005 1186.77 7.77005C1192.52 7.19005 1198.31 7.04006 1204.07 6.59006C1212.25 5.94006 1220.43 5.16005 1228.61 4.49005C1234.01 4.05005 1239.42 3.75005 1244.83 3.33005C1253.65 2.64005 1262.46 1.89007 1271.27 1.20007C1276.58 0.780073 1281.9 0.440068 1287.22 0.0700684C1287.22 143.94 1287.22 287.81 1287.27 431.67C1287.27 433.79 1287.06 434.54 1284.57 434.54C856.58 434.46 428.58 434.47 0.590039 434.47C0.410039 434.29 0.230039 434.11 0.0400391 433.92C0.0400391 302.39 0.0400391 170.85 0.0400391 39.3201ZM529.22 219.46C530.96 218.82 532.84 219.49 534.59 218.86C532.66 218.75 530.7 218.01 528.84 219.15C528.14 219.42 528.27 219.97 528.47 220.47C528.52 220.6 528.9 220.61 529.13 220.67C529.11 220.26 528.84 219.84 529.22 219.46ZM1168.12 304.31C1163.75 303.73 1159.8 305.28 1155.85 306.85C1159.96 306.09 1163.88 304.38 1168.12 304.31ZM91.96 322.93C88.5 323.47 85.04 324.01 81.58 324.55C85.26 325.28 88.68 324.53 91.96 322.93ZM1004.54 319.64C999.99 319.82 995.33 318.59 990.94 320.73C995.36 319 1000.05 320.58 1004.54 319.64ZM615.2 237.92C612.49 238.28 609.78 238.64 607.07 239.01C609.94 239.63 612.66 239.23 615.2 237.92ZM882.99 279.95C880.4 279.8 877.96 277.49 875.22 279.44C877.85 278.98 880.35 280.39 882.99 279.95ZM435.09 122.55C433.01 123.34 430.99 122.88 428.99 123.98C430.52 124.63 431.61 125.79 433.37 125.24C432.85 124.68 431.72 125.03 431.83 123.92C432.88 123.75 434.09 123.94 435.09 122.55ZM1225.96 383.32C1224.01 382.83 1222.1 382.88 1220.33 384.21C1222.15 383.35 1224.13 384.11 1225.96 383.32ZM905.33 295.64C904.63 295.56 904.04 295.45 903.44 295.44C902.9 295.42 902.43 294.42 901.87 295.31C901.75 295.49 901.77 295.86 901.87 296.07C902.22 296.81 902.95 296.52 903.52 296.53C904.08 296.53 904.79 296.79 905.33 295.64ZM98.79 330.79C100.24 330.79 101.42 330.79 102.61 330.79C102.61 330.69 102.62 330.59 102.62 330.49C101.96 330.43 101.31 330.36 100.63 330.3C100.78 329.6 102.09 329.8 101.6 328.74C100.54 329.16 99.44 329.47 98.79 330.79Z" fill="#ECECE4"/>
</svg>
