<svg width="1948" height="1353" viewBox="0 0 1948 1353" fill="none" xmlns="http://www.w3.org/2000/svg">
<g clip-path="url(#clip0_96_7576)">
<path d="M1947.92 574.251C1947.92 854.129 1947.92 1134.02 1948 1413.9C1948 1417.25 1947.29 1418 1944.15 1418C1445.72 1417.92 947.284 1417.92 448.86 1417.92C448.583 1417.28 448.305 1417.31 448.013 1417.92C442.418 1417.92 436.807 1417.92 431.212 1417.92C431.089 1417.28 431.089 1416.38 430.195 1416.59C429.902 1416.66 429.748 1417.46 429.532 1417.92C423.367 1417.92 417.202 1417.92 411.052 1417.92C410.205 1416.74 409.372 1416.74 408.525 1417.92C404.887 1417.92 401.25 1417.92 397.597 1417.92C397.52 1416.95 397.15 1416.26 396.117 1416.2C394.961 1416.11 394.298 1416.64 394.237 1417.92C392.834 1417.92 391.432 1417.92 390.029 1417.92C389.937 1417.18 389.844 1416.41 388.966 1416.29C387.84 1416.15 387.594 1416.97 387.501 1417.92C383.294 1417.92 379.101 1417.92 374.894 1417.92C374.693 1415.98 373.337 1416.15 372.073 1416.13C361.053 1415.95 350.033 1415.9 338.997 1415.41C315.677 1414.36 292.326 1415.74 268.976 1414.51C246.365 1413.31 223.708 1414.79 201.051 1413.62C177.747 1412.41 154.381 1413.51 131.03 1412.82C100.852 1411.93 70.6267 1412.51 40.4328 1411.69C34.6221 1411.52 34.6067 1411.67 34.5913 1417.92C14.7086 1417.92 -5.18953 1417.92 -25.0722 1417.92C-25.0722 1413.46 -25.0876 1409 -25.0876 1404.52C-24.8564 1401.47 -25.6271 1398.9 -27.1376 1396.18C-32.6246 1386.24 -33.4106 1375.75 -28.3552 1365.38C-26.7368 1362.09 -25.5654 1359.02 -25.9199 1355.35C-26.0278 1354.12 -25.5192 1352.72 -26.7368 1351.79C-26.7522 1351.2 -26.7522 1350.59 -26.7676 1350C-26.7676 1339.28 -26.7676 1328.56 -26.7831 1317.83C-26.7831 1317.24 -26.7831 1316.63 -26.7831 1316.04C-26.444 1314.14 -27.3225 1312.47 -27.6154 1310.68C-27.6154 1310.09 -27.6154 1309.49 -27.6154 1308.9C-27.6154 1298.47 -27.6308 1288.04 -27.6308 1277.61C-27.6308 1276.71 -27.6308 1275.82 -27.6308 1274.92C-27.2455 1263.82 -28.9255 1252.8 -28.4631 1241.68C-27.9236 1228.67 -29.8656 1215.7 -29.28 1202.68C-29.2337 1201.64 -29.2029 1200.58 -30.1123 1199.84C-30.1123 1198.95 -30.1277 1198.05 -30.1277 1197.17C-29.6653 1173.33 -30.6209 1149.5 -30.9754 1125.68C-30.9754 1124.48 -30.9754 1123.3 -30.9908 1122.1C-32.0543 1111.31 -31.7306 1100.48 -31.7923 1089.65C-31.7923 1088.75 -31.8693 1087.87 -32.6246 1087.26C-32.64 1084.88 -32.64 1082.49 -32.6554 1080.11C-32.4704 1052.09 -32.9174 1024.08 -34.32 996.109C-34.32 990.977 -34.3046 985.845 -34.3354 980.729C-34.3508 979.335 -33.9501 977.63 -36 977.351C-36 848.357 -36 719.364 -36 590.37C-30.96 590.37 -25.9199 590.37 -20.8799 590.37C-18.0747 591.747 -15.285 591.763 -12.4799 590.353C-9.95213 590.353 -7.43982 590.353 -4.9121 590.353C-2.95466 590.353 -0.9818 590.353 0.975643 590.353C28.7189 590.78 56.4314 588.828 84.1593 589.468C85.007 590.599 85.8393 590.599 86.6716 589.468C89.4767 589.468 92.2665 589.468 95.0717 589.468C95.9194 589.468 96.7517 589.468 97.5994 589.468C128.703 589.91 159.775 587.943 190.863 588.566C197.028 588.566 203.193 588.566 209.359 588.55C221.211 588.238 233.079 588.156 244.932 587.91C284.62 587.107 324.324 588.172 364.012 586.861C376.866 586.434 389.752 586.779 402.621 586.779C403.469 586.779 404.301 586.779 405.149 586.779C406.552 586.779 407.939 586.779 409.342 586.779C409.912 586.779 410.467 586.779 411.037 586.779C427.945 586.844 444.853 586.467 461.761 586.008C494.19 585.139 526.634 586.27 559.094 585.205C597.534 583.942 636.02 585.696 674.49 584.254C694.758 583.499 715.088 584.106 735.387 584.09C735.942 584.09 736.512 584.09 737.067 584.09C750.877 583.729 764.702 583.811 778.528 583.45C817.368 582.434 856.24 583.778 895.111 582.45C914.393 581.778 933.721 582.319 953.033 582.302C953.588 582.302 954.158 582.302 954.713 582.302C989.731 582.286 1024.73 580.843 1059.74 581.417C1060.29 581.417 1060.86 581.417 1061.42 581.417C1096.16 581.614 1130.87 579.908 1165.61 580.532C1166.73 580.532 1167.86 580.532 1168.98 580.532C1169.82 580.532 1170.66 580.532 1171.5 580.532C1172.07 580.532 1172.62 580.532 1173.19 580.532C1186.45 580.187 1199.7 580.22 1212.97 579.892C1251.95 578.908 1290.96 580.236 1329.97 578.875C1348.01 578.252 1366.07 578.744 1384.1 578.744C1385.78 578.744 1387.46 578.744 1389.16 578.744C1409.15 579.417 1429.11 577.974 1449.1 577.81C1479.29 577.547 1509.49 578.22 1539.7 577.187C1576.73 575.908 1613.8 577.498 1650.87 576.236C1685.81 575.039 1720.77 576.58 1755.74 575.367C1791.93 574.12 1828.16 575.678 1864.38 574.497C1892.21 573.546 1920.07 574.251 1947.92 574.251Z" fill="#ECECE4"/>
<path d="M0.0605312 585.41C0.0605312 391.569 0.0605312 197.728 0 3.87198C0 0.92262 0.438851 0 3.70754 0C650.559 0.0907495 1297.43 0.0907495 1944.29 0C1947.56 0 1948 0.92262 1948 3.87198C1947.92 192.495 1947.92 381.118 1947.92 569.741C1939.03 569.952 1930.1 570.255 1921.21 570.376C1881.16 570.92 1841.09 570.361 1801.03 571.329C1769.39 572.085 1737.73 571.102 1706.06 572.07C1668.85 573.204 1631.62 571.677 1594.38 572.917C1561.21 574.021 1528 572.735 1494.8 573.703C1455.94 574.853 1417.05 573.356 1378.17 574.566C1345.31 575.594 1312.39 574.324 1279.49 575.367C1243.66 576.502 1207.79 574.974 1171.94 576.199C1137.91 577.364 1103.83 575.881 1069.75 577.001C1033.24 578.211 996.692 576.638 960.131 577.833C925.174 578.982 890.187 577.53 855.2 578.664C820.062 579.814 784.878 578.362 749.709 579.466C713.118 580.631 676.497 579.148 639.875 580.313C603.905 581.447 567.904 579.995 531.903 581.115C494.495 582.279 457.041 580.721 419.602 581.977C388.035 583.036 356.438 581.75 324.841 582.748C287.432 583.928 249.979 583.051 212.54 583.489C162.935 584.064 113.314 584.457 63.694 584.578C50.362 584.609 37.0148 584.609 23.6828 584.563C19.7029 584.548 15.7684 586.242 11.849 585.304C7.82366 584.351 3.97993 584.563 0.0605312 585.41Z" fill="#FEFEFE"/>
<path d="M0.0605469 585.41C3.97994 584.563 7.82367 584.351 11.8187 585.304C15.7533 586.242 19.6727 584.548 23.6526 584.563C36.9846 584.609 50.3317 584.609 63.6637 584.578C113.284 584.472 162.905 584.064 212.51 583.489C249.948 583.066 287.402 583.928 324.81 582.748C356.408 581.75 388.005 583.036 419.572 581.977C457.011 580.721 494.464 582.264 531.873 581.115C567.873 579.995 603.874 581.447 639.845 580.313C676.466 579.164 713.088 580.631 749.679 579.466C784.848 578.347 820.031 579.799 855.17 578.664C890.157 577.53 925.144 578.982 960.101 577.833C996.646 576.638 1033.21 578.211 1069.72 577.001C1103.8 575.881 1137.88 577.364 1171.91 576.199C1207.78 574.974 1243.64 576.517 1279.46 575.367C1312.36 574.324 1345.28 575.579 1378.14 574.566C1417.02 573.356 1455.91 574.838 1494.77 573.703C1527.97 572.72 1561.18 574.006 1594.35 572.917C1631.59 571.677 1668.81 573.204 1706.03 572.07C1737.7 571.102 1769.36 572.085 1801 571.329C1841.07 570.361 1881.13 570.92 1921.18 570.376C1930.07 570.255 1939 569.952 1947.89 569.741C1947.89 571.389 1947.89 573.038 1947.89 574.687C1920.55 574.687 1893.17 574.021 1865.86 574.868C1830.3 575.957 1794.72 574.52 1759.19 575.67C1724.85 576.774 1690.52 575.367 1656.22 576.471C1619.83 577.636 1583.44 576.169 1547.07 577.349C1517.41 578.301 1487.77 577.696 1458.12 577.923C1438.49 578.075 1418.9 579.406 1399.27 578.785C1397.62 576.26 1395.97 576.26 1394.31 578.785C1376.59 578.801 1358.85 578.332 1341.16 578.906C1302.87 580.162 1264.57 578.937 1226.29 579.844C1213.27 580.147 1200.24 580.116 1187.23 580.434C1187.02 580.011 1186.87 579.285 1186.58 579.224C1185.7 579.027 1185.7 579.844 1185.58 580.434C1184.76 580.434 1183.93 580.434 1183.11 580.434C1183.01 579.557 1182.66 578.922 1181.66 578.861C1180.52 578.785 1179.9 579.3 1179.81 580.434C1145.7 579.859 1111.63 581.432 1077.52 581.251C1077.3 580.827 1077.15 580.101 1076.87 580.041C1075.99 579.844 1075.99 580.661 1075.87 581.251C1041.48 580.721 1007.12 582.052 972.752 582.068C972.54 581.644 972.388 580.918 972.101 580.858C971.223 580.661 971.223 581.478 971.102 582.068C952.141 582.083 933.179 581.584 914.233 582.204C876.083 583.444 837.918 582.204 799.769 583.126C786.194 583.459 772.635 583.383 759.061 583.716C758.849 583.293 758.698 582.567 758.411 582.506C757.533 582.31 757.533 583.126 757.412 583.716C737.482 583.731 717.537 583.172 697.622 583.867C659.851 585.198 622.064 583.565 584.323 584.745C552.453 585.728 520.599 584.684 488.759 585.486C472.159 585.909 455.573 586.257 438.957 586.197C438.745 585.773 438.594 585.047 438.306 584.987C437.429 584.79 437.429 585.607 437.308 586.197C435.931 586.197 434.569 586.197 433.192 586.197C433.086 585.531 432.995 584.82 432.147 584.714C431.043 584.578 430.831 585.35 430.71 586.197C418.074 586.197 405.423 585.879 392.802 586.272C353.835 587.482 314.853 586.499 275.886 587.24C264.249 587.467 252.597 587.543 240.96 587.83C240.808 586.681 240.127 586.212 239.007 586.212C234.256 586.227 229.504 586.227 224.752 586.212C223.633 586.212 222.952 586.681 222.815 587.845C192.277 587.271 161.77 589.086 131.247 588.677C131.141 588.012 131.05 587.301 130.203 587.195C129.098 587.059 128.886 587.845 128.765 588.677C126.011 588.677 123.272 588.677 120.518 588.677C119.685 587.634 118.868 587.634 118.051 588.677C90.812 588.087 63.6032 589.887 36.3793 589.494C34.2455 587.195 32.7323 587.21 30.5985 589.494C28.1168 589.494 25.6501 589.494 23.1683 589.494C20.4142 588.223 17.6751 588.208 14.921 589.494C9.97253 589.494 5.02411 589.494 0.0756797 589.494C0.0605469 588.148 0.0605469 586.787 0.0605469 585.41Z" fill="#FEFEFE"/>
<path d="M69.3687 1352.91C69.3838 1347.15 69.3838 1347.01 75.104 1347.16C104.749 1347.92 134.425 1347.37 164.055 1348.21C186.981 1348.84 209.922 1347.83 232.803 1348.95C255.048 1350.04 277.293 1348.67 299.493 1349.76C322.419 1350.9 345.361 1349.63 368.241 1350.6C379.077 1351.05 389.897 1351.08 400.716 1351.26C401.957 1351.28 403.289 1351.12 403.486 1352.91C292.124 1352.91 180.746 1352.91 69.3687 1352.91Z" fill="#FDFDFD"/>
<path d="M8.29279 1252.34C8.29279 1252.89 8.29279 1253.45 8.29279 1253.99C4.9787 1256.23 6.94597 1257.59 9.10996 1258.94C9.10996 1259.48 9.10996 1260.04 9.10996 1260.59C6.80977 1261.09 6.79464 1262.93 6.65844 1264.72C6.0834 1272.61 7.68747 1280.43 7.49075 1288.31C7.46048 1289.43 7.95986 1290.11 9.10996 1290.26C9.12509 1290.81 9.12509 1291.37 9.12509 1291.91C6.65844 1295.49 3.87401 1298.75 0.0454102 1300.99C0.0454102 1212.23 0.0454102 1123.46 0.0454102 1034.71C2.04294 1034.97 1.57382 1036.53 1.71002 1037.8C1.84621 1039.14 1.07444 1040.93 3.32923 1041.31C3.34436 1043.5 3.34436 1045.71 3.35949 1047.9C1.22577 1049.28 2.58772 1051.35 2.3002 1053.1C0.892847 1061.44 1.98241 1069.74 2.52719 1078.04C2.63312 1079.75 3.58649 1080.09 4.9787 1080.06C4.9787 1081.16 4.9787 1082.25 4.99384 1083.35C4.29773 1083.47 3.58649 1083.72 3.49569 1084.5C2.70878 1091.4 1.74028 1098.3 3.14763 1105.22C4.38852 1111.36 4.1918 1117.75 3.70755 1123.74C3.05684 1131.87 4.81224 1139.75 4.28259 1147.75C4.22206 1148.74 4.96357 1149.16 5.8564 1149.3C5.8564 1150.11 5.87154 1150.95 5.87154 1151.76C3.58649 1159.05 3.84374 1166.51 4.64578 1173.94C5.37216 1180.58 6.70384 1187.29 5.68994 1193.89C4.38852 1202.3 5.46295 1210.43 6.64331 1218.65C6.80977 1219.78 6.80977 1220.87 8.29279 1221.02C8.29279 1221.85 8.29279 1222.67 8.29279 1223.5C7.38482 1223.64 6.8703 1224.08 6.70384 1225.06C5.25109 1233.63 5.9018 1242.21 6.71897 1250.8C6.80977 1251.78 7.39995 1252.21 8.29279 1252.34Z" fill="#FEFEFE"/>
<path d="M3.34436 1041.29C1.08958 1040.91 1.86135 1039.13 1.72515 1037.78C1.60409 1036.51 2.05808 1034.95 0.0605469 1034.7C0.0605469 1029.21 0.0605469 1023.7 0.0605469 1018.21C2.36073 1016.09 2.36073 1014.56 0.0605469 1012.43C0.0605469 1011.6 0.0605469 1010.78 0.0605469 1009.95C0.484265 1009.74 1.22577 1009.59 1.2863 1009.3C1.48303 1008.41 0.665859 1008.42 0.0605469 1008.3C0.0605469 993.465 0.0605469 978.628 0.0605469 963.79C0.605328 963.79 1.16524 963.79 1.71002 963.79C3.08711 989.624 3.52596 1015.44 3.34436 1041.29Z" fill="#FDFDFD"/>
<path d="M10.7746 1340.57C10.7746 1344.68 10.7897 1348.8 10.7897 1352.92C7.21836 1352.92 3.64702 1352.92 0.0605469 1352.92C0.0605469 1349.35 0.0605469 1345.79 0.0605469 1342.2C0.0605469 1337.8 0.0605469 1333.41 0.0605469 1329.01C0.605328 1329.01 1.15011 1329.01 1.69489 1329.01C2.2548 1333.4 5.13003 1336.26 8.30792 1338.9C9.14023 1339.46 9.9574 1340.01 10.7746 1340.57Z" fill="#FDFDFD"/>
<path d="M10.7746 1340.57C9.9574 1340.01 9.14023 1339.46 8.30792 1338.9C7.0519 1334.97 5.2057 1331.45 1.69489 1329.01C1.15011 1329.01 0.605328 1329.01 0.0605469 1329.01C0.0605469 1321.87 0.0605469 1314.72 0.0605469 1307.58C4.97871 1306.11 5.91694 1301.65 7.47562 1297.67C8.0204 1296.57 8.8527 1295.75 9.94227 1295.19C10.3055 1298.58 9.14023 1301.39 7.55128 1304.45C2.58772 1314.01 3.3595 1323.69 8.74677 1332.85C10.2449 1335.38 11.0016 1337.75 10.7746 1340.57Z" fill="#F2F2EC"/>
<path d="M9.9574 1295.19C8.86784 1295.75 8.03554 1296.57 7.49076 1297.67C6.02287 1298.5 5.14517 1299.88 4.05561 1301.09C2.64826 1302.65 2.66339 1305.39 0.0756836 1305.93C0.0756836 1304.28 0.0756836 1302.63 0.0756836 1300.99C3.90428 1298.76 6.68872 1295.5 9.15536 1291.91C10.3509 1292.77 9.85147 1294.06 9.9574 1295.19Z" fill="#FDFDFD"/>
<path d="M1.72516 963.806C1.18038 963.806 0.620464 963.806 0.0756836 963.806C0.0756836 958.028 0.0756836 952.265 0.0756836 946.488C2.10348 946.745 1.71003 948.318 1.71003 949.603C1.74029 954.337 1.72516 959.071 1.72516 963.806Z" fill="#FDFDFC"/>
<path d="M0.0605469 1305.93C2.66339 1305.39 2.63312 1302.65 4.04047 1301.09C5.13003 1299.88 6.00774 1298.5 7.47562 1297.67C5.91694 1301.65 4.97871 1306.1 0.0605469 1307.58C0.0605469 1307.02 0.0605469 1306.48 0.0605469 1305.93Z" fill="#F3F3EE"/>
<path d="M0.0605469 1012.45C2.36073 1014.56 2.36073 1016.09 0.0605469 1018.22C0.0605469 1016.29 0.0605469 1014.37 0.0605469 1012.45Z" fill="#FEFEFE"/>
<path d="M422.478 1352.91C422.538 1351.74 423.189 1351.26 424.324 1351.32C425.322 1351.38 425.701 1352 425.776 1352.91C424.672 1352.91 423.582 1352.91 422.478 1352.91Z" fill="#FDFDFD"/>
<path d="M415.879 1352.91C415.97 1352.05 416.212 1351.29 417.317 1351.41C418.18 1351.52 418.27 1352.23 418.361 1352.91C417.529 1352.91 416.697 1352.91 415.879 1352.91Z" fill="#FDFDFD"/>
<path d="M0.0605469 1008.32C0.665859 1008.44 1.48303 1008.42 1.2863 1009.32C1.22577 1009.6 0.484265 1009.76 0.0605469 1009.97C0.0605469 1009.42 0.0605469 1008.86 0.0605469 1008.32Z" fill="#FEFEFE"/>
<path d="M457.132 1352.91C457.344 1352.49 457.48 1351.74 457.783 1351.68C458.675 1351.49 458.66 1352.3 458.781 1352.91C458.221 1352.91 457.677 1352.91 457.132 1352.91Z" fill="#F8F8F5"/>
<path d="M436.506 1352.91C437.338 1351.82 438.155 1351.82 438.988 1352.91C438.155 1352.91 437.323 1352.91 436.506 1352.91Z" fill="#FDFDFD"/>
<path d="M475.276 1352.91C475.548 1352.35 475.821 1352.32 476.108 1352.91C475.821 1352.91 475.548 1352.91 475.276 1352.91Z" fill="#F9F9F7"/>
<path d="M8.27756 1221C6.77941 1220.87 6.77941 1219.78 6.62808 1218.63C5.44772 1210.42 4.3733 1202.27 5.67472 1193.87C6.68861 1187.28 5.35693 1180.56 4.63055 1173.92C3.81338 1166.49 3.57126 1159.04 5.85631 1151.75C6.74914 1152.43 6.71888 1153.41 6.67348 1154.36C6.09843 1166.37 8.00517 1178.34 7.47552 1190.35C7.0064 1200.6 8.65588 1210.78 8.27756 1221Z" fill="#FDFDFD"/>
<path d="M5.82608 1149.3C4.93324 1149.15 4.19174 1148.74 4.25227 1147.75C4.78192 1139.75 3.02651 1131.86 3.67722 1123.74C4.16147 1117.76 4.37333 1111.36 3.11731 1105.22C1.70996 1098.3 2.67846 1091.4 3.46536 1084.5C3.55616 1083.72 4.2674 1083.47 4.96351 1083.35C5.34183 1105.33 6.28006 1127.31 5.82608 1149.3Z" fill="#FDFDFD"/>
<path d="M4.9787 1080.04C3.58648 1080.07 2.64825 1079.74 2.52718 1078.03C1.9824 1069.71 0.89284 1061.42 2.30019 1053.09C2.60285 1051.33 1.24089 1049.26 3.35949 1047.89C4.10099 1048.44 4.17666 1049.26 4.17666 1050.09C4.25232 1060.09 3.93453 1070.09 4.9787 1080.04Z" fill="#FDFDFD"/>
<path d="M9.12502 1290.26C7.97493 1290.11 7.47555 1289.43 7.50581 1288.31C7.70254 1280.43 6.09846 1272.61 6.67351 1264.72C6.8097 1262.93 6.82484 1261.09 9.12502 1260.59C9.12502 1270.48 9.12502 1280.37 9.12502 1290.26Z" fill="#FDFDFD"/>
<path d="M8.29273 1252.34C7.38477 1252.21 6.79459 1251.78 6.70379 1250.79C5.88662 1242.21 5.23591 1233.63 6.68866 1225.04C6.85512 1224.06 7.36963 1223.62 8.2776 1223.49C8.29273 1233.1 8.29273 1242.72 8.29273 1252.34Z" fill="#FDFDFD"/>
<path d="M222.815 587.875C222.952 586.726 223.633 586.242 224.752 586.242C229.504 586.257 234.256 586.257 239.008 586.242C240.127 586.242 240.808 586.711 240.96 587.86C234.922 587.86 228.869 587.86 222.815 587.875Z" fill="#FCFCFB"/>
<path d="M14.9209 589.524C17.6751 588.223 20.4141 588.238 23.1683 589.524C20.4141 590.81 17.6751 590.795 14.9209 589.524Z" fill="#FAFAF8"/>
<path d="M30.5986 589.524C32.7324 587.225 34.2456 587.225 36.3794 589.524C34.4424 589.524 32.5205 589.524 30.5986 589.524Z" fill="#FAFAF8"/>
<path d="M9.11005 1258.94C6.94606 1257.61 4.9788 1256.23 8.29288 1253.99C8.58041 1255.64 9.45811 1257.18 9.11005 1258.94Z" fill="#FDFDFD"/>
<path d="M1394.34 578.801C1395.99 576.275 1397.63 576.275 1399.3 578.801C1397.65 578.801 1395.99 578.801 1394.34 578.801Z" fill="#FAFAF8"/>
<path d="M1179.83 580.449C1179.94 579.315 1180.54 578.801 1181.68 578.876C1182.67 578.937 1183.02 579.587 1183.13 580.449C1182.04 580.449 1180.93 580.449 1179.83 580.449Z" fill="#FAFAF8"/>
<path d="M430.725 586.227C430.846 585.395 431.058 584.609 432.163 584.745C433.01 584.851 433.101 585.561 433.207 586.227C432.375 586.227 431.542 586.227 430.725 586.227Z" fill="#FAFAF8"/>
<path d="M128.765 588.692C128.886 587.86 129.098 587.074 130.203 587.21C131.05 587.316 131.141 588.027 131.247 588.692C130.414 588.692 129.597 588.692 128.765 588.692Z" fill="#FAFAF8"/>
<path d="M118.051 588.707C118.868 587.649 119.7 587.649 120.518 588.707C119.7 589.751 118.868 589.751 118.051 588.707Z" fill="#FAFAF8"/>
<path d="M437.323 586.212C437.444 585.622 437.444 584.805 438.322 585.002C438.609 585.062 438.76 585.788 438.972 586.212C438.427 586.212 437.868 586.212 437.323 586.212Z" fill="#FAFAF8"/>
<path d="M757.427 583.731C757.548 583.141 757.548 582.325 758.425 582.521C758.713 582.582 758.864 583.308 759.076 583.731C758.531 583.731 757.987 583.731 757.427 583.731Z" fill="#FCFCFB"/>
<path d="M971.102 582.098C971.223 581.508 971.223 580.691 972.101 580.888C972.388 580.948 972.54 581.674 972.752 582.098C972.207 582.083 971.662 582.083 971.102 582.098Z" fill="#FCFCFB"/>
<path d="M1075.88 581.266C1076 580.676 1076 579.859 1076.88 580.056C1077.17 580.116 1077.32 580.842 1077.53 581.266C1076.99 581.266 1076.44 581.266 1075.88 581.266Z" fill="#FCFCFB"/>
<path d="M1185.61 580.449C1185.73 579.859 1185.73 579.043 1186.61 579.239C1186.9 579.3 1187.05 580.026 1187.26 580.449C1186.71 580.449 1186.17 580.449 1185.61 580.449Z" fill="#FAFAF8"/>
<path d="M1.70996 1329.01C5.22077 1331.43 7.06697 1334.97 8.32299 1338.9C5.14511 1336.26 2.26987 1333.4 1.70996 1329.01Z" fill="#F3F3EE"/>
<path d="M1947.02 573.84C1926.71 574.127 1906.38 574.43 1886.08 574.672C1878.1 574.762 1870.11 574.309 1862.17 574.793C1842.27 576.003 1822.34 574.732 1802.47 575.685C1783.66 576.593 1764.83 575.64 1746.05 576.441C1724.5 577.379 1702.92 576.441 1681.41 577.349C1662.87 578.135 1644.31 577.152 1625.82 578.12C1605.36 579.194 1584.89 577.954 1564.47 578.967C1544.7 579.935 1524.93 579.179 1505.17 579.723C1500.66 579.844 1496.18 580.631 1491.64 580.389C1490.26 579.27 1488.89 579.255 1487.51 580.404C1482.42 580.419 1477.34 580.419 1472.26 580.465C1443.82 580.722 1415.4 581.009 1386.98 581.554C1367.9 581.917 1348.79 581.296 1329.75 582.264C1310.11 583.263 1290.46 582.113 1270.85 583.096C1250.53 584.11 1230.19 582.93 1209.9 583.928C1191.09 584.851 1172.26 583.777 1153.48 584.73C1133.3 585.758 1113.09 584.579 1092.94 585.562C1072.19 586.575 1051.44 585.395 1030.74 586.409C1011.78 587.331 992.818 586.242 973.917 587.21C953.866 588.239 933.8 587.044 913.794 588.042C894.424 589.01 875.054 587.876 855.73 588.859C836.087 589.857 816.445 588.693 796.833 589.676C776.782 590.674 756.731 589.827 736.71 590.492C731.247 590.674 725.769 591.173 720.291 591.112C716.16 589.918 712.029 589.781 707.912 591.188C698.56 591.203 689.193 590.734 679.886 591.309C659.563 592.564 639.225 591.188 618.947 592.171C599.032 593.139 579.117 591.99 559.233 592.988C539.726 593.971 520.22 592.822 500.759 593.805C480.845 594.818 460.93 593.638 441.045 594.621C421.131 595.605 401.216 594.47 381.347 595.468C362.536 596.406 343.711 595.302 324.931 596.27C303.927 597.344 282.893 596.104 261.934 597.117C242.987 598.04 224.026 596.936 205.11 597.919C185.195 598.947 165.28 597.752 145.396 598.751C125.481 599.749 105.566 598.584 85.6819 599.567C66.4481 600.535 47.2295 599.613 28.0411 600.399C20.9135 600.687 13.8011 600.913 6.67356 600.989C4.64577 599.431 2.28505 600.581 0.10593 600.187C0.10593 539.476 0.0907968 478.765 0.0907968 418.038C0.0907968 280.658 0.10593 143.264 0 5.8839C0 2.01192 0.847437 0.801924 4.91816 0.801924C544.251 0.907798 1083.58 0.877549 1622.92 1.13467C1642.68 1.1498 1662.46 1.34642 1682.24 1.67917C1684.83 1.72454 1687.41 1.70942 1689.64 0.0759277C1690.47 0.0759277 1691.29 0.0759277 1692.12 0.0759277C1692.95 1.30105 1693.77 1.30105 1694.6 0.0759277C1695.43 0.0759277 1696.25 0.0759277 1697.08 0.0759277C1697.04 0.63555 1697.13 1.25567 1697.72 1.36155C1698.64 1.5128 1698.75 0.786799 1698.73 0.0759277C1699.56 0.0759277 1700.38 0.0759277 1701.21 0.0759277C1701.17 0.953173 1701.5 1.58842 1702.46 1.58842C1703.41 1.58842 1703.74 0.953173 1703.7 0.0759277C1705.35 0.0759277 1706.99 0.0759277 1708.64 0.0759277C1708.6 0.953173 1708.92 1.60354 1709.89 1.60354C1710.85 1.60354 1711.17 0.953173 1711.13 0.0759277C1720.48 0.0759277 1729.83 0.0759277 1739.18 0.0759277C1739.06 1.30105 1739.77 1.67917 1740.83 1.70942C1741.5 1.73967 1742.12 1.66404 1742.5 1.01367L1742.63 0.968298C1743.3 0.953173 1743.89 0.801924 1744.13 0.0759277C1745.51 0.0759277 1746.88 0.0759277 1748.26 0.0759277C1748.55 2.51104 1750.49 1.67917 1751.8 1.69429C1780.37 2.10267 1808.94 1.78504 1837.52 2.22367C1859.78 2.57154 1882.08 3.78153 1904.4 1.16492C1917.01 -0.31732 1929.95 0.953173 1942.73 0.832174C1944.91 0.817049 1945.93 2.04217 1947.09 3.35804C1947.02 193.524 1947.02 383.689 1947.02 573.84Z" fill="#BAE4DE"/>
<path d="M1947.02 3.35803C1945.84 2.04216 1944.82 0.801916 1942.66 0.832166C1929.87 0.953165 1916.95 -0.332454 1904.33 1.16491C1882.01 3.79665 1859.7 2.57153 1837.44 2.22366C1808.87 1.78504 1780.3 2.08753 1751.73 1.69429C1750.41 1.67916 1748.49 2.51103 1748.19 0.0759194C1813.36 0.0759194 1878.53 0.106169 1943.7 0.0002948C1946.55 -0.0148301 1947.64 0.544792 1947.02 3.35803Z" fill="#FEFEFE"/>
<path d="M1703.65 0.060791C1703.7 0.938037 1703.38 1.57328 1702.41 1.57328C1701.46 1.57328 1701.12 0.938037 1701.17 0.060791C1702 0.060791 1702.82 0.060791 1703.65 0.060791Z" fill="#FEFEFE"/>
<path d="M1711.08 0.060791C1711.13 0.938037 1710.81 1.58841 1709.84 1.58841C1708.87 1.58841 1708.55 0.938037 1708.6 0.060791C1709.43 0.060791 1710.25 0.060791 1711.08 0.060791Z" fill="#FEFEFE"/>
<path d="M1740.77 1.69428C1739.71 1.64891 1739 1.28591 1739.12 0.060791C1740.23 0.060791 1741.32 0.060791 1742.42 0.060791C1742.47 0.363289 1742.53 0.665788 1742.57 0.953161L1742.44 0.998536C1741.74 0.907787 1741.15 1.05904 1740.77 1.69428Z" fill="#FEFEFE"/>
<path d="M1698.7 0.060791C1698.7 0.771662 1698.6 1.49766 1697.69 1.34641C1697.1 1.25566 1697.02 0.620413 1697.05 0.060791C1697.6 0.060791 1698.16 0.060791 1698.7 0.060791Z" fill="#FEFEFE"/>
<path d="M1694.57 0.060791C1693.74 1.28591 1692.92 1.28591 1692.09 0.060791C1692.92 0.060791 1693.75 0.060791 1694.57 0.060791Z" fill="#FEFEFE"/>
<path d="M1742.57 0.968298C1742.53 0.6658 1742.47 0.363301 1742.42 0.0759277C1742.97 0.0759277 1743.53 0.0759277 1744.07 0.0759277C1743.84 0.801924 1743.25 0.953173 1742.57 0.968298Z" fill="#E4F4F2"/>
<path d="M707.913 591.188C712.029 589.797 716.16 589.918 720.291 591.113C716.175 592.564 712.044 592.383 707.913 591.188Z" fill="#DDF1EF"/>
<path d="M0.105957 600.203C2.28508 600.611 4.6458 599.446 6.67359 601.004C4.34314 601.912 1.95216 603.258 0.105957 600.203Z" fill="#D6EFEB"/>
<path d="M1487.51 580.419C1488.87 579.255 1490.25 579.27 1491.64 580.404C1490.26 581.659 1488.89 581.644 1487.51 580.419Z" fill="#DFF2EF"/>
<path d="M1740.77 1.69424C1741.15 1.04387 1741.74 0.89262 1742.44 0.998494C1742.06 1.64887 1741.44 1.72449 1740.77 1.69424Z" fill="#E4F4F2"/>
</g>
<defs>
<clipPath id="clip0_96_7576">
<rect width="1948" height="1353" fill="white"/>
</clipPath>
</defs>
</svg>
